<?xml version="1.0" encoding="UTF-8"?>
<svg xmlns="http://www.w3.org/2000/svg" xmlns:xlink="http://www.w3.org/1999/xlink" width="100px" height="122px" viewBox="0 0 100 122" version="1.1">
<g id="surface1">
<path style=" stroke:none;fill-rule:nonzero;fill:rgb(0%,76.862746%,0%);fill-opacity:1;" d="M 96.230469 7.585938 C 96.453125 7.585938 96.675781 7.585938 96.898438 7.566406 C 96.613281 10.96875 96.535156 14.390625 96.148438 17.792969 C 95.882812 19.25 95.761719 20.890625 94.769531 22.085938 C 93.855469 23.019531 92.699219 23.6875 91.5625 24.296875 C 92.761719 24.71875 93.957031 25.1875 95.09375 25.753906 C 93.671875 25.550781 92.253906 25.289062 90.832031 25.042969 C 90.671875 27.71875 90.648438 30.492188 89.738281 33.042969 C 88.988281 35.171875 86.734375 36.246094 84.707031 36.871094 C 85.882812 37.238281 87.039062 37.664062 88.214844 38.066406 C 86.898438 37.988281 85.578125 37.863281 84.28125 37.742188 C 83.976562 40.578125 83.996094 43.496094 83.023438 46.210938 C 82.371094 47.910156 80.710938 48.761719 79.167969 49.46875 C 80.160156 49.9375 81.136719 50.402344 82.109375 50.886719 C 80.8125 50.726562 79.511719 50.503906 78.195312 50.300781 C 77.140625 58.746094 76.328125 67.234375 74.988281 75.660156 C 74.09375 81.207031 73.183594 86.796875 71.152344 92.066406 C 70.058594 95.042969 68.457031 97.855469 66.203125 100.105469 C 62.410156 104.015625 57.296875 106.160156 52.511719 108.550781 C 53.910156 109.300781 55.351562 109.929688 56.789062 110.617188 C 55.046875 110.433594 53.320312 110.171875 51.617188 109.886719 C 51.617188 113.917969 51.597656 117.949219 51.617188 122 L 51.007812 122 C 51.007812 116.066406 51.03125 110.132812 51.007812 104.195312 C 49.425781 104.460938 47.84375 104.683594 46.242188 104.765625 C 47.683594 104.117188 49.101562 103.46875 50.460938 102.699219 C 46.648438 101.261719 42.488281 100.1875 39.425781 97.332031 C 36.746094 94.578125 35.773438 90.75 35.265625 87.0625 C 34.597656 81.9375 34.394531 76.773438 34.351562 71.609375 C 33.480469 71.972656 32.589844 72.296875 31.675781 72.582031 C 32.34375 71.992188 33.054688 71.40625 33.765625 70.839844 C 32.183594 70.351562 30.539062 69.96875 29.121094 69.117188 C 26.542969 67.839844 25.0625 65.167969 24.089844 62.59375 C 22.101562 57.269531 20.78125 51.757812 19.320312 46.269531 C 18.328125 46.65625 17.332031 47.039062 16.316406 47.34375 C 16.925781 46.734375 17.515625 46.148438 18.125 45.542969 C 16.621094 44.792969 15.019531 44.042969 14.027344 42.664062 C 12.644531 40.621094 12.34375 38.128906 11.816406 35.777344 C 10.738281 36.246094 9.664062 36.710938 8.570312 37.136719 C 9.359375 36.46875 10.210938 35.839844 11.042969 35.230469 C 10.070312 34.625 9.074219 34.035156 8.265625 33.226562 C 6.742188 31.828125 6.277344 29.722656 5.769531 27.800781 C 4.855469 24.011719 4.207031 20.144531 3.496094 16.292969 C 3.660156 16.335938 3.984375 16.394531 4.144531 16.417969 C 5.242188 21.277344 5.667969 26.320312 7.453125 31 C 8.121094 32.863281 9.90625 33.894531 11.632812 34.644531 C 11.308594 32.234375 10.902344 29.824219 10.578125 27.414062 C 10.800781 27.433594 11.023438 27.433594 11.246094 27.453125 C 11.753906 30.65625 12.160156 33.875 12.746094 37.054688 C 13.132812 38.917969 13.5 40.882812 14.65625 42.441406 C 15.75 43.820312 17.414062 44.46875 18.976562 45.15625 C 18.691406 43.921875 18.386719 42.707031 18.101562 41.46875 C 18.265625 41.46875 18.570312 41.449219 18.730469 41.449219 C 19.21875 43.496094 19.765625 45.542969 20.316406 47.585938 C 21.207031 46.414062 22.179688 45.195312 22.527344 43.738281 C 23.335938 40.214844 23.175781 36.546875 23.214844 32.964844 C 23.359375 32.941406 23.664062 32.902344 23.824219 32.902344 C 23.761719 36.570312 23.863281 40.316406 23.09375 43.941406 C 22.808594 45.339844 21.875 46.472656 21.148438 47.648438 C 22.058594 47.828125 22.972656 48.011719 23.886719 48.195312 C 22.789062 48.316406 21.695312 48.4375 20.578125 48.539062 C 21.898438 53.441406 23.09375 58.402344 24.980469 63.121094 C 25.671875 64.578125 26.320312 66.140625 27.535156 67.234375 C 29.300781 69.035156 31.835938 69.601562 34.171875 70.25 C 34.171875 67.800781 34.152344 65.328125 34.109375 62.878906 C 33.09375 63.140625 32.082031 63.40625 31.066406 63.667969 C 31.816406 63.140625 32.589844 62.675781 33.359375 62.171875 C 31.695312 61.804688 29.648438 61.378906 28.816406 59.699219 C 27.617188 56.945312 27.457031 53.90625 27.03125 50.988281 C 27.191406 50.96875 27.496094 50.949219 27.636719 50.929688 C 28.125 53.5625 28.265625 56.253906 29.097656 58.808594 C 29.726562 60.894531 32.140625 61.257812 33.96875 61.683594 C 33.949219 60.53125 33.949219 59.355469 33.949219 58.199219 C 34.171875 58.21875 34.375 58.21875 34.597656 58.21875 C 34.597656 60.589844 34.699219 62.9375 34.78125 65.289062 C 36.300781 64.84375 38.125 64.480469 38.835938 62.859375 C 40.136719 59.515625 40.664062 55.890625 40.90625 52.328125 C 41.128906 52.203125 41.332031 52.105469 41.554688 52.003906 C 41.210938 55.585938 40.84375 59.234375 39.628906 62.65625 C 39.039062 64.558594 37.011719 65.351562 35.265625 65.796875 C 36.015625 66.34375 36.726562 66.949219 37.4375 67.539062 C 36.542969 67.152344 35.652344 66.726562 34.757812 66.320312 C 35.042969 73.976562 34.960938 81.695312 36.320312 89.269531 C 36.890625 92.390625 38.148438 95.628906 40.703125 97.65625 C 43.828125 99.71875 47.378906 101.136719 50.988281 102.03125 C 51.007812 99.09375 51.007812 96.15625 51.007812 93.238281 C 49.425781 93.484375 47.84375 93.726562 46.261719 93.828125 C 47.4375 93.21875 48.65625 92.734375 49.851562 92.167969 C 48.535156 91.699219 47.214844 91.132812 46.199219 90.140625 C 45.085938 88.785156 44.863281 86.980469 44.558594 85.300781 C 44.191406 82.101562 43.949219 78.878906 43.664062 75.660156 C 43.867188 75.640625 44.089844 75.617188 44.3125 75.578125 C 44.839844 79.953125 44.71875 84.46875 46.039062 88.703125 C 46.828125 90.6875 49.164062 91.171875 50.988281 91.742188 C 51.007812 89.109375 51.007812 86.453125 50.988281 83.800781 C 51.210938 83.742188 51.433594 83.679688 51.660156 83.597656 C 51.660156 84.488281 51.660156 85.359375 51.660156 86.230469 C 52.996094 85.703125 54.4375 85.339844 55.574219 84.429688 C 57.175781 82.585938 57.117188 79.972656 57.703125 77.726562 C 57.867188 77.726562 58.171875 77.683594 58.332031 77.664062 C 57.90625 79.667969 57.722656 81.796875 56.871094 83.699219 C 55.980469 85.480469 53.972656 86.089844 52.226562 86.675781 C 53.585938 87.367188 54.984375 88.015625 56.34375 88.722656 C 54.761719 88.539062 53.199219 88.296875 51.617188 88.117188 C 51.617188 90.949219 51.617188 93.765625 51.636719 96.601562 C 53.769531 95.953125 55.835938 95.0625 57.683594 93.804688 C 59.957031 92.226562 61.011719 89.53125 61.761719 86.980469 C 63.101562 81.816406 63.75 76.703125 64.5 71.4375 C 63.769531 71.398438 60.328125 71.578125 60.328125 71.578125 C 60.328125 71.578125 63.28125 70.695312 63.769531 70.496094 C 62.695312 70.148438 61.113281 70.046875 60.644531 68.8125 C 59.589844 65.734375 60.015625 62.394531 59.855469 59.191406 C 60.097656 59.132812 60.339844 59.070312 60.5625 59.011719 C 60.707031 62.089844 60.179688 65.351562 61.191406 68.308594 C 61.640625 69.847656 63.464844 69.683594 64.703125 69.988281 C 65.089844 67.03125 65.492188 64.074219 65.839844 61.117188 C 65.980469 61.097656 66.285156 61.078125 66.425781 61.054688 C 66.101562 63.507812 65.777344 65.957031 65.574219 68.429688 C 66.589844 68.265625 67.625 68.207031 68.617188 67.882812 C 69.691406 67.152344 69.894531 65.734375 70.179688 64.558594 C 70.953125 60.691406 71.378906 56.742188 71.90625 52.832031 C 72.128906 52.75 72.351562 52.691406 72.574219 52.609375 C 71.90625 56.660156 71.519531 60.730469 70.789062 64.761719 C 70.585938 66.097656 70.078125 67.414062 69.085938 68.347656 C 68.273438 68.8125 67.257812 68.8125 66.367188 69.035156 C 66.671875 69.378906 69.957031 71.042969 69.957031 71.042969 C 69.957031 71.042969 65.890625 70.171875 65.261719 69.96875 C 64.449219 75.257812 63.972656 80.15625 62.816406 85.359375 C 62.269531 87.8125 61.496094 90.28125 60.035156 92.347656 C 58.210938 94.800781 55.308594 95.914062 52.589844 97.046875 C 53.890625 97.675781 55.230469 98.261719 56.527344 98.871094 C 54.902344 98.707031 53.261719 98.484375 51.617188 98.304688 C 51.617188 101.5625 51.597656 104.824219 51.636719 108.085938 C 55.371094 106.605469 58.980469 104.765625 62.347656 102.535156 C 66.082031 100.144531 68.800781 96.417969 70.363281 92.308594 C 72.554688 86.820312 73.507812 80.945312 74.480469 75.152344 C 76.105469 64.335938 77.261719 53.460938 78.398438 42.585938 C 77.097656 42.785156 75.800781 42.988281 74.480469 43.171875 C 75.496094 42.726562 76.53125 42.339844 77.566406 41.957031 C 75.902344 41.226562 73.894531 40.476562 73.367188 38.511719 C 72.371094 35.554688 72.472656 32.335938 72.066406 29.257812 C 72.289062 29.257812 72.492188 29.257812 72.714844 29.238281 C 73.0625 32.375 73.121094 35.597656 74.074219 38.632812 C 74.804688 40.4375 76.9375 40.921875 78.558594 41.652344 C 78.78125 39.503906 79.046875 37.339844 79.207031 35.191406 C 79.371094 35.171875 79.675781 35.171875 79.835938 35.171875 C 79.371094 39.769531 78.722656 44.367188 78.375 49.003906 C 79.351562 48.621094 80.382812 48.296875 81.214844 47.628906 C 82.921875 46.066406 83.125 43.636719 83.386719 41.492188 C 83.875 35.878906 83.933594 30.25 84.058594 24.617188 C 84.257812 24.597656 84.484375 24.578125 84.707031 24.539062 C 84.523438 28.488281 84.460938 32.417969 84.300781 36.347656 C 85.515625 35.859375 86.855469 35.515625 87.890625 34.664062 C 89.492188 33.167969 89.675781 30.878906 89.960938 28.832031 C 90.386719 24.820312 90.488281 20.789062 90.570312 16.738281 C 90.730469 16.738281 91.035156 16.738281 91.199219 16.71875 C 91.054688 19.050781 90.972656 21.359375 90.996094 23.6875 C 91.988281 23.28125 93.085938 22.957031 93.855469 22.167969 C 95.113281 20.992188 95.253906 19.171875 95.539062 17.589844 C 95.984375 14.269531 96.105469 10.925781 96.230469 7.585938 Z M 96.230469 7.585938 "/>
<path style=" stroke:none;fill-rule:nonzero;fill:rgb(100%,0%,0%);fill-opacity:1;" d="M 53.605469 81.480469 C 53.605469 82.84375 52.496094 83.953125 51.128906 83.953125 C 49.761719 83.953125 48.652344 82.84375 48.652344 81.480469 C 48.652344 80.113281 49.761719 79.007812 51.128906 79.007812 C 52.496094 79.007812 53.605469 80.113281 53.605469 81.480469 Z M 53.605469 81.480469 "/>
<path style=" stroke:none;fill-rule:nonzero;fill:rgb(100%,0%,0%);fill-opacity:1;" d="M 60.292969 75.308594 C 60.292969 76.671875 59.183594 77.78125 57.816406 77.78125 C 56.449219 77.78125 55.339844 76.671875 55.339844 75.308594 C 55.339844 73.941406 56.449219 72.835938 57.816406 72.835938 C 59.183594 72.835938 60.292969 73.941406 60.292969 75.308594 Z M 60.292969 75.308594 "/>
<path style=" stroke:none;fill-rule:nonzero;fill:rgb(100%,0%,0%);fill-opacity:1;" d="M 46.308594 73.332031 C 46.308594 74.695312 45.199219 75.800781 43.832031 75.800781 C 42.464844 75.800781 41.355469 74.695312 41.355469 73.332031 C 41.355469 71.964844 42.464844 70.859375 43.832031 70.859375 C 45.199219 70.859375 46.308594 71.964844 46.308594 73.332031 Z M 46.308594 73.332031 "/>
<path style=" stroke:none;fill-rule:nonzero;fill:rgb(100%,0%,0%);fill-opacity:1;" d="M 43.675781 49.957031 C 43.675781 51.320312 42.566406 52.429688 41.199219 52.429688 C 39.832031 52.429688 38.722656 51.320312 38.722656 49.957031 C 38.722656 48.589844 39.832031 47.484375 41.199219 47.484375 C 42.566406 47.484375 43.675781 48.589844 43.675781 49.957031 Z M 43.675781 49.957031 "/>
<path style=" stroke:none;fill-rule:nonzero;fill:rgb(100%,0%,0%);fill-opacity:1;" d="M 36.800781 55.832031 C 36.800781 57.195312 35.691406 58.304688 34.324219 58.304688 C 32.957031 58.304688 31.847656 57.195312 31.847656 55.832031 C 31.847656 54.464844 32.957031 53.359375 34.324219 53.359375 C 35.691406 53.359375 36.800781 54.464844 36.800781 55.832031 Z M 36.800781 55.832031 "/>
<path style=" stroke:none;fill-rule:nonzero;fill:rgb(100%,0%,0%);fill-opacity:1;" d="M 29.632812 48.617188 C 29.632812 49.984375 28.527344 51.089844 27.15625 51.089844 C 25.789062 51.089844 24.679688 49.984375 24.679688 48.617188 C 24.679688 47.253906 25.789062 46.144531 27.15625 46.144531 C 28.527344 46.144531 29.632812 47.253906 29.632812 48.617188 Z M 29.632812 48.617188 "/>
<path style=" stroke:none;fill-rule:nonzero;fill:rgb(100%,0%,0%);fill-opacity:1;" d="M 26.03125 30.707031 C 26.03125 32.074219 24.925781 33.179688 23.554688 33.179688 C 22.1875 33.179688 21.082031 32.074219 21.082031 30.707031 C 21.082031 29.34375 22.1875 28.234375 23.554688 28.234375 C 24.925781 28.234375 26.03125 29.34375 26.03125 30.707031 Z M 26.03125 30.707031 "/>
<path style=" stroke:none;fill-rule:nonzero;fill:rgb(100%,0%,0%);fill-opacity:1;" d="M 20.90625 39.144531 C 20.90625 40.507812 19.796875 41.617188 18.429688 41.617188 C 17.0625 41.617188 15.953125 40.507812 15.953125 39.144531 C 15.953125 37.777344 17.0625 36.671875 18.429688 36.671875 C 19.796875 36.671875 20.90625 37.777344 20.90625 39.144531 Z M 20.90625 39.144531 "/>
<path style=" stroke:none;fill-rule:nonzero;fill:rgb(100%,0%,0%);fill-opacity:1;" d="M 13.503906 25.125 C 13.503906 26.488281 12.398438 27.597656 11.027344 27.597656 C 9.660156 27.597656 8.550781 26.488281 8.550781 25.125 C 8.550781 23.757812 9.660156 22.652344 11.027344 22.652344 C 12.398438 22.652344 13.503906 23.757812 13.503906 25.125 Z M 13.503906 25.125 "/>
<path style=" stroke:none;fill-rule:nonzero;fill:rgb(100%,0%,0%);fill-opacity:1;" d="M 6.222656 14.070312 C 6.222656 15.4375 5.113281 16.542969 3.746094 16.542969 C 2.378906 16.542969 1.269531 15.4375 1.269531 14.070312 C 1.269531 12.707031 2.378906 11.597656 3.746094 11.597656 C 5.113281 11.597656 6.222656 12.707031 6.222656 14.070312 Z M 6.222656 14.070312 "/>
<path style=" stroke:none;fill-rule:nonzero;fill:rgb(100%,0%,0%);fill-opacity:1;" d="M 81.921875 32.910156 C 81.921875 34.273438 80.816406 35.382812 79.449219 35.382812 C 78.078125 35.382812 76.972656 34.273438 76.972656 32.910156 C 76.972656 31.542969 78.078125 30.4375 79.449219 30.4375 C 80.816406 30.4375 81.921875 31.542969 81.921875 32.910156 Z M 81.921875 32.910156 "/>
<path style=" stroke:none;fill-rule:nonzero;fill:rgb(100%,0%,0%);fill-opacity:1;" d="M 74.289062 50.476562 C 74.289062 51.84375 73.183594 52.949219 71.8125 52.949219 C 70.445312 52.949219 69.339844 51.84375 69.339844 50.476562 C 69.339844 49.113281 70.445312 48.003906 71.8125 48.003906 C 73.183594 48.003906 74.289062 49.113281 74.289062 50.476562 Z M 74.289062 50.476562 "/>
<path style=" stroke:none;fill-rule:nonzero;fill:rgb(100%,0%,0%);fill-opacity:1;" d="M 68.523438 58.796875 C 68.523438 60.160156 67.414062 61.269531 66.046875 61.269531 C 64.679688 61.269531 63.570312 60.160156 63.570312 58.796875 C 63.570312 57.429688 64.679688 56.324219 66.046875 56.324219 C 67.414062 56.324219 68.523438 57.429688 68.523438 58.796875 Z M 68.523438 58.796875 "/>
<path style=" stroke:none;fill-rule:nonzero;fill:rgb(100%,0%,0%);fill-opacity:1;" d="M 62.347656 56.816406 C 62.347656 58.183594 61.238281 59.289062 59.871094 59.289062 C 58.5 59.289062 57.394531 58.183594 57.394531 56.816406 C 57.394531 55.453125 58.5 54.347656 59.871094 54.347656 C 61.238281 54.347656 62.347656 55.453125 62.347656 56.816406 Z M 62.347656 56.816406 "/>
<path style=" stroke:none;fill-rule:nonzero;fill:rgb(100%,0%,0%);fill-opacity:1;" d="M 98.957031 5.234375 C 98.957031 6.601562 97.851562 7.707031 96.480469 7.707031 C 95.113281 7.707031 94.003906 6.601562 94.003906 5.234375 C 94.003906 3.867188 95.113281 2.761719 96.480469 2.761719 C 97.851562 2.761719 98.957031 3.867188 98.957031 5.234375 Z M 98.957031 5.234375 "/>
<path style=" stroke:none;fill-rule:nonzero;fill:rgb(100%,0%,0%);fill-opacity:1;" d="M 93.25 14.367188 C 93.25 15.734375 92.140625 16.839844 90.773438 16.839844 C 89.402344 16.839844 88.296875 15.734375 88.296875 14.367188 C 88.296875 13.003906 89.402344 11.894531 90.773438 11.894531 C 92.140625 11.894531 93.25 13.003906 93.25 14.367188 Z M 93.25 14.367188 "/>
<path style=" stroke:none;fill-rule:nonzero;fill:rgb(100%,0%,0%);fill-opacity:1;" d="M 86.691406 22.335938 C 86.691406 23.703125 85.582031 24.808594 84.214844 24.808594 C 82.847656 24.808594 81.738281 23.703125 81.738281 22.335938 C 81.738281 20.972656 82.847656 19.863281 84.214844 19.863281 C 85.582031 19.863281 86.691406 20.972656 86.691406 22.335938 Z M 86.691406 22.335938 "/>
<path style=" stroke:none;fill-rule:nonzero;fill:rgb(100%,0%,0%);fill-opacity:1;" d="M 74.835938 27.050781 C 74.835938 28.414062 73.726562 29.523438 72.359375 29.523438 C 70.992188 29.523438 69.882812 28.414062 69.882812 27.050781 C 69.882812 25.683594 70.992188 24.578125 72.359375 24.578125 C 73.726562 24.578125 74.835938 25.683594 74.835938 27.050781 Z M 74.835938 27.050781 "/>
</g>
</svg>
