<?xml version="1.0" encoding="UTF-8"?>
<svg xmlns="http://www.w3.org/2000/svg" xmlns:xlink="http://www.w3.org/1999/xlink" width="100px" height="214px" viewBox="0 0 100 214" version="1.1">
<g id="surface1">
<path style=" stroke:none;fill-rule:nonzero;fill:rgb(0%,77.254903%,0%);fill-opacity:1;" d="M 91.632812 130.917969 C 91.1875 130.523438 90.742188 130.082031 90.296875 129.585938 C 77.445312 139.601562 64.300781 149.273438 51.203125 158.941406 C 51.003906 148.976562 51.152344 139.011719 51.054688 129.09375 C 52.191406 129.882812 53.230469 130.96875 54.5625 131.460938 C 58.269531 130.375 62.027344 129.242188 65.585938 127.664062 C 61.234375 127.910156 56.789062 128.601562 52.4375 127.613281 C 62.917969 119.523438 73.691406 111.824219 84.265625 103.882812 C 83.773438 103.539062 83.328125 103.144531 82.882812 102.75 C 72.457031 110.839844 61.828125 118.585938 51.152344 126.378906 C 51.003906 116.757812 51.152344 107.140625 51.054688 97.519531 C 52.4375 98.359375 53.773438 100.429688 55.601562 99.640625 C 58.960938 98.503906 62.472656 97.816406 65.636719 96.136719 C 61.089844 96.285156 56.539062 96.878906 52.042969 96.039062 C 60.296875 89.574219 68.648438 83.308594 77.050781 77.09375 C 76.605469 76.699219 76.210938 76.304688 75.867188 75.910156 C 67.5625 82.125 59.40625 88.492188 51.105469 94.65625 C 51.054688 84.9375 51.152344 75.167969 51.054688 65.449219 C 52.191406 66.339844 53.378906 67.175781 54.613281 68.015625 C 58.320312 66.832031 62.078125 65.796875 65.636719 64.070312 C 61.089844 64.363281 56.492188 64.808594 51.992188 63.921875 C 57.875 59.285156 64.003906 54.894531 69.835938 50.207031 C 69.441406 49.8125 69.09375 49.464844 68.699219 49.070312 C 62.964844 53.707031 56.9375 58.050781 51.105469 62.589844 C 51.105469 53.3125 51.105469 44.089844 51.105469 34.8125 C 52.289062 35.652344 53.425781 36.492188 54.613281 37.328125 C 58.269531 36.144531 61.929688 34.910156 65.488281 33.433594 C 60.988281 33.777344 56.394531 34.023438 51.894531 33.332031 C 54.8125 30.621094 58.417969 28.695312 61.582031 26.277344 C 61.1875 25.835938 60.890625 25.390625 60.542969 24.945312 C 57.332031 27.019531 54.5625 29.878906 51.152344 31.605469 C 51.003906 25.980469 51.152344 20.359375 51.105469 14.734375 C 50.710938 14.734375 49.96875 14.734375 49.621094 14.734375 C 49.574219 25.09375 49.671875 35.503906 49.621094 45.863281 C 45.964844 43.496094 42.703125 40.683594 39.144531 38.21875 C 38.796875 38.5625 38.453125 38.90625 38.058594 39.253906 C 41.367188 42.015625 45.074219 44.335938 48.335938 47.195312 C 44.035156 48.875 39.488281 47.246094 35.089844 47.34375 C 38.453125 48.972656 42.160156 49.859375 45.667969 51.09375 C 47.152344 50.847656 48.335938 49.464844 49.621094 48.726562 C 49.621094 58 49.671875 67.226562 49.621094 76.453125 C 43.296875 72.109375 37.265625 67.375 31.089844 62.835938 C 30.792969 63.230469 30.496094 63.625 30.148438 63.96875 C 36.179688 68.804688 42.457031 73.195312 48.683594 77.734375 C 44.183594 79.265625 39.636719 77.785156 35.089844 77.933594 C 38.550781 79.660156 42.457031 80.449219 46.0625 81.878906 C 47.25 80.941406 48.4375 80.101562 49.621094 79.265625 C 49.621094 89.03125 49.621094 98.800781 49.621094 108.519531 C 40.921875 102.355469 32.71875 95.546875 23.972656 89.476562 C 23.625 89.824219 23.230469 90.21875 22.882812 90.5625 C 31.484375 97.125 40.527344 103.242188 48.78125 110.296875 C 44.234375 111.332031 39.636719 110.445312 35.089844 110.097656 C 38.5 112.023438 42.40625 112.960938 46.0625 114.292969 C 47.199219 113.355469 48.335938 112.46875 49.574219 111.679688 C 49.671875 121.347656 49.671875 131.019531 49.523438 140.6875 C 38.75 132.84375 28.320312 124.457031 17.449219 116.660156 C 17.152344 117.007812 16.804688 117.351562 16.410156 117.695312 C 26.835938 125.640625 37.363281 133.484375 47.792969 141.378906 C 48.484375 141.773438 47.59375 142.464844 47.101562 142.414062 C 43.097656 143.597656 39.09375 142.019531 35.089844 142.019531 C 37.910156 144.089844 41.714844 144.289062 44.828125 145.769531 C 46.753906 146.460938 48.089844 144.191406 49.671875 143.550781 C 49.574219 153.417969 49.621094 163.285156 49.671875 173.101562 C 43.742188 168.660156 37.808594 164.121094 31.730469 159.828125 C 23.871094 154.007812 16.210938 147.839844 8.058594 142.363281 C 7.761719 142.710938 7.464844 143.054688 7.167969 143.402344 C 21.007812 153.8125 35.042969 163.972656 48.78125 174.484375 C 44.136719 175.667969 39.441406 174.382812 34.746094 174.53125 C 38.304688 175.960938 41.960938 177.34375 45.667969 178.429688 C 47.152344 177.9375 48.1875 176.554688 49.574219 175.816406 C 49.867188 188.542969 49.574219 201.273438 49.078125 214 C 49.472656 214 50.710938 214 51.105469 214 C 51.105469 196.585938 51.152344 179.21875 51.054688 161.804688 C 52.191406 162.640625 52.882812 163.429688 54.167969 164.121094 C 55.847656 164.074219 57.429688 163.183594 59.0625 162.789062 C 61.234375 161.949219 63.855469 161.902344 65.636719 160.273438 C 61.234375 160.519531 56.789062 161.410156 52.339844 160.570312 C 53.476562 158.84375 55.355469 157.90625 56.9375 156.671875 C 60.496094 154.207031 83.476562 136.492188 91.632812 130.917969 Z M 91.632812 130.917969 "/>
<path style=" stroke:none;fill-rule:nonzero;fill:rgb(100%,0%,0%);fill-opacity:1;" d="M 93.535156 122.082031 C 96.246094 122.082031 98.441406 124.273438 98.441406 126.980469 C 98.441406 129.683594 96.246094 131.875 93.535156 131.875 C 90.824219 131.875 88.628906 129.683594 88.628906 126.980469 C 88.628906 124.273438 90.824219 122.082031 93.535156 122.082031 Z M 93.535156 122.082031 "/>
<path style=" stroke:none;fill-rule:nonzero;fill:rgb(100%,0%,0%);fill-opacity:1;" d="M 90.253906 97.941406 C 91.667969 100.25 90.9375 103.261719 88.625 104.675781 C 86.316406 106.085938 83.292969 105.355469 81.882812 103.050781 C 80.46875 100.742188 81.199219 97.726562 83.507812 96.316406 C 85.820312 94.90625 88.839844 95.632812 90.253906 97.941406 Z M 90.253906 97.941406 "/>
<path style=" stroke:none;fill-rule:nonzero;fill:rgb(100%,0%,0%);fill-opacity:1;" d="M 83.617188 74.398438 C 83.617188 77.101562 81.417969 79.296875 78.710938 79.296875 C 76 79.296875 73.804688 77.101562 73.804688 74.398438 C 73.804688 71.691406 76 69.5 78.710938 69.5 C 81.417969 69.5 83.617188 71.691406 83.617188 74.398438 Z M 83.617188 74.398438 "/>
<path style=" stroke:none;fill-rule:nonzero;fill:rgb(100%,0%,0%);fill-opacity:1;" d="M 76.113281 47.78125 C 76.113281 50.488281 73.914062 52.679688 71.207031 52.679688 C 68.496094 52.679688 66.300781 50.488281 66.300781 47.78125 C 66.300781 45.078125 68.496094 42.882812 71.207031 42.882812 C 73.914062 42.882812 76.113281 45.078125 76.113281 47.78125 Z M 76.113281 47.78125 "/>
<path style=" stroke:none;fill-rule:nonzero;fill:rgb(100%,0%,0%);fill-opacity:1;" d="M 64.445312 18.898438 C 67.152344 18.898438 69.351562 21.09375 69.351562 23.796875 C 69.351562 26.503906 67.152344 28.695312 64.445312 28.695312 C 61.734375 28.695312 59.539062 26.503906 59.539062 23.796875 C 59.539062 21.09375 61.734375 18.898438 64.445312 18.898438 Z M 64.445312 18.898438 "/>
<path style=" stroke:none;fill-rule:nonzero;fill:rgb(100%,0%,0%);fill-opacity:1;" d="M 11.109375 140.074219 C 11.109375 142.78125 8.914062 144.972656 6.203125 144.972656 C 3.492188 144.972656 1.296875 142.78125 1.296875 140.074219 C 1.296875 137.371094 3.492188 135.175781 6.203125 135.175781 C 8.914062 135.175781 11.109375 137.371094 11.109375 140.074219 Z M 11.109375 140.074219 "/>
<path style=" stroke:none;fill-rule:nonzero;fill:rgb(100%,0%,0%);fill-opacity:1;" d="M 18.578125 113.589844 C 18.578125 116.296875 16.378906 118.488281 13.671875 118.488281 C 10.960938 118.488281 8.765625 116.296875 8.765625 113.589844 C 8.765625 110.886719 10.960938 108.691406 13.671875 108.691406 C 16.378906 108.691406 18.578125 110.886719 18.578125 113.589844 Z M 18.578125 113.589844 "/>
<path style=" stroke:none;fill-rule:nonzero;fill:rgb(100%,0%,0%);fill-opacity:1;" d="M 25.933594 87.492188 C 25.933594 90.199219 23.738281 92.390625 21.027344 92.390625 C 18.316406 92.390625 16.121094 90.199219 16.121094 87.492188 C 16.121094 84.789062 18.316406 82.59375 21.027344 82.59375 C 23.738281 82.59375 25.933594 84.789062 25.933594 87.492188 Z M 25.933594 87.492188 "/>
<path style=" stroke:none;fill-rule:nonzero;fill:rgb(100%,0%,0%);fill-opacity:1;" d="M 33.4375 60.875 C 33.4375 63.582031 31.242188 65.773438 28.53125 65.773438 C 25.820312 65.773438 23.625 63.582031 23.625 60.875 C 23.625 58.171875 25.820312 55.980469 28.53125 55.980469 C 31.242188 55.980469 33.4375 58.171875 33.4375 60.875 Z M 33.4375 60.875 "/>
<path style=" stroke:none;fill-rule:nonzero;fill:rgb(100%,0%,0%);fill-opacity:1;" d="M 40.199219 36.890625 C 40.199219 39.597656 38.003906 41.789062 35.292969 41.789062 C 32.585938 41.789062 30.386719 39.597656 30.386719 36.890625 C 30.386719 34.1875 32.585938 31.996094 35.292969 31.996094 C 38.003906 31.996094 40.199219 34.1875 40.199219 36.890625 Z M 40.199219 36.890625 "/>
<path style=" stroke:none;fill-rule:nonzero;fill:rgb(100%,0%,0%);fill-opacity:1;" d="M 55.1875 10.964844 C 55.1875 13.671875 52.992188 15.863281 50.28125 15.863281 C 47.570312 15.863281 45.375 13.671875 45.375 10.964844 C 45.375 8.261719 47.570312 6.070312 50.28125 6.070312 C 52.992188 6.070312 55.1875 8.261719 55.1875 10.964844 Z M 55.1875 10.964844 "/>
<path style=" stroke:none;fill-rule:nonzero;fill:rgb(0%,77.254903%,0%);fill-opacity:0.52071;" d="M 67.003906 147.863281 L 66.3125 148.988281 C 66.117188 150.355469 65.542969 152.117188 65.699219 153.53125 C 68.339844 156.347656 71.042969 159.1875 74.054688 161.652344 C 71.890625 157.90625 69.296875 154.273438 68.210938 149.984375 L 80.800781 155.308594 C 80.964844 154.746094 81.230469 154.226562 81.574219 153.765625 Z M 67.003906 147.863281 "/>
<path style=" stroke:none;fill-rule:nonzero;fill:rgb(100%,0%,0%);fill-opacity:0.521569;" d="M 85.503906 151.804688 C 83.898438 151.804688 82.472656 152.578125 81.574219 153.765625 C 81.230469 154.226562 80.964844 154.746094 80.800781 155.308594 C 80.667969 155.75 80.597656 156.21875 80.597656 156.703125 C 80.597656 159.410156 82.792969 161.601562 85.503906 161.601562 C 88.214844 161.601562 90.410156 159.410156 90.410156 156.703125 C 90.410156 154 88.214844 151.804688 85.503906 151.804688 Z M 85.503906 151.804688 "/>
</g>
</svg>
