<?xml version="1.0" encoding="UTF-8"?>
<svg xmlns="http://www.w3.org/2000/svg" xmlns:xlink="http://www.w3.org/1999/xlink" width="100px" height="188px" viewBox="0 0 100 188" version="1.1">
<g id="surface1">
<path style=" stroke:none;fill-rule:nonzero;fill:rgb(0%,76.47059%,0%);fill-opacity:1;" d="M 21.261719 2.320312 C 21.625 2.320312 22.402344 2.320312 22.816406 2.320312 C 22.867188 8.972656 22.816406 15.566406 22.761719 22.21875 C 25.921875 21.542969 28.980469 23.359375 31.828125 24.503906 C 29.136719 24.453125 26.441406 24.242188 23.746094 24.140625 C 27.476562 26.945312 31.3125 29.59375 34.9375 32.554688 C 34.523438 32.917969 34.160156 33.28125 33.796875 33.644531 C 30.121094 30.996094 26.546875 28.140625 22.867188 25.542969 C 22.816406 29.28125 22.761719 33.023438 22.710938 36.761719 C 25.921875 36.085938 28.929688 37.90625 31.828125 39.046875 C 29.136719 38.996094 26.441406 38.789062 23.746094 38.683594 C 27.476562 41.488281 31.3125 44.140625 34.9375 47.101562 C 34.523438 47.464844 34.160156 47.828125 33.796875 48.191406 C 30.121094 45.542969 26.546875 42.683594 22.867188 40.085938 C 22.816406 43.828125 22.761719 47.566406 22.710938 51.308594 C 25.921875 50.632812 28.929688 52.453125 31.828125 53.59375 C 29.136719 53.542969 26.441406 53.335938 23.746094 53.230469 C 27.476562 56.035156 31.3125 58.683594 34.9375 61.644531 C 34.523438 62.007812 34.160156 62.375 33.796875 62.738281 C 30.121094 60.085938 26.546875 57.230469 22.867188 54.632812 C 22.816406 58.375 22.761719 62.113281 22.710938 65.855469 C 25.921875 65.179688 28.929688 66.996094 31.828125 68.140625 C 29.136719 68.085938 26.441406 67.878906 23.746094 67.777344 C 27.476562 70.582031 31.3125 73.230469 34.9375 76.191406 C 34.523438 76.554688 34.160156 76.917969 33.796875 77.28125 C 30.121094 74.632812 26.546875 71.777344 22.867188 69.179688 C 22.816406 72.917969 22.761719 76.660156 22.710938 80.398438 C 25.921875 79.722656 28.929688 81.542969 31.828125 82.683594 C 29.136719 82.632812 26.441406 82.425781 23.746094 82.320312 C 27.476562 85.125 31.3125 87.777344 34.9375 90.738281 C 34.523438 91.101562 34.160156 91.464844 33.796875 91.828125 C 30.121094 89.179688 26.546875 86.320312 22.867188 83.722656 C 22.816406 87.464844 22.761719 91.203125 22.710938 94.945312 C 25.921875 94.269531 28.929688 96.085938 31.828125 97.230469 C 29.136719 97.179688 26.441406 96.972656 23.746094 96.867188 C 27.476562 99.671875 31.3125 102.320312 34.9375 105.28125 C 34.523438 105.644531 34.160156 106.011719 33.796875 106.375 C 30.121094 103.722656 26.546875 100.867188 22.867188 98.269531 C 22.816406 102.007812 22.761719 105.75 22.710938 109.488281 C 25.921875 108.8125 28.929688 110.632812 31.828125 111.777344 C 29.136719 111.722656 26.441406 111.515625 23.746094 111.410156 C 27.476562 114.21875 31.3125 116.867188 34.9375 119.828125 C 34.523438 120.191406 34.160156 120.554688 33.796875 120.917969 C 30.121094 118.269531 26.546875 115.414062 22.867188 112.816406 C 22.816406 116.554688 22.761719 120.296875 22.710938 124.035156 C 25.921875 123.359375 28.929688 125.179688 31.828125 126.320312 C 29.136719 126.269531 26.441406 126.0625 23.746094 125.957031 C 27.476562 128.761719 31.3125 131.410156 34.9375 134.375 C 34.523438 134.738281 34.160156 135.101562 33.796875 135.464844 C 30.121094 132.816406 26.546875 129.957031 22.867188 127.359375 C 22.816406 131.101562 22.761719 134.839844 22.710938 138.582031 C 25.921875 137.90625 28.929688 139.722656 31.828125 140.867188 C 29.136719 140.816406 26.441406 140.605469 23.746094 140.503906 C 27.476562 143.308594 31.3125 145.957031 34.9375 148.917969 C 34.523438 149.28125 34.160156 149.644531 33.796875 150.007812 C 30.121094 147.359375 26.546875 144.503906 22.867188 141.90625 C 22.816406 145.644531 22.761719 149.386719 22.710938 153.125 C 25.921875 152.449219 28.929688 154.269531 31.828125 155.414062 C 29.136719 155.359375 26.441406 155.152344 23.746094 155.046875 C 27.476562 157.851562 31.3125 160.503906 34.9375 163.464844 C 34.523438 163.828125 34.160156 164.191406 33.796875 164.554688 C 30.121094 161.90625 26.546875 159.046875 22.867188 156.453125 C 22.816406 160.191406 22.761719 163.933594 22.710938 167.671875 C 25.921875 166.996094 28.929688 168.8125 31.828125 169.957031 C 29.136719 169.90625 26.441406 169.699219 23.746094 169.59375 C 27.476562 172.398438 31.3125 175.046875 34.9375 178.007812 C 34.523438 178.371094 34.160156 178.738281 33.796875 179.101562 C 30.121094 176.453125 26.597656 173.644531 22.867188 170.996094 C 22.867188 173.023438 22.816406 176.972656 22.761719 178.945312 C 22.402344 178.945312 21.675781 178.945312 21.261719 178.945312 C 21.261719 174.21875 21.261719 169.488281 21.207031 164.816406 C 17.476562 167.359375 13.957031 170.21875 10.277344 172.867188 C 9.914062 172.503906 9.550781 172.140625 9.136719 171.777344 C 12.816406 168.867188 16.597656 166.113281 20.378906 163.359375 C 17.6875 163.359375 14.992188 163.515625 12.296875 163.722656 C 15.25 162.738281 18.152344 160.554688 21.417969 161.4375 C 21.363281 157.699219 21.3125 153.957031 21.207031 150.269531 C 17.476562 152.816406 13.957031 155.671875 10.277344 158.320312 C 9.914062 157.957031 9.550781 157.59375 9.136719 157.230469 C 12.816406 154.320312 16.597656 151.566406 20.378906 148.8125 C 17.6875 148.8125 14.992188 148.96875 12.296875 149.179688 C 15.25 148.191406 18.152344 146.011719 21.417969 146.894531 C 21.363281 143.152344 21.3125 139.410156 21.207031 135.722656 C 17.476562 138.269531 13.957031 141.125 10.277344 143.777344 C 9.914062 143.414062 9.550781 143.046875 9.136719 142.683594 C 12.816406 139.777344 16.597656 137.023438 20.378906 134.269531 C 17.6875 134.269531 14.992188 134.425781 12.296875 134.632812 C 15.25 133.644531 18.152344 131.464844 21.417969 132.347656 C 21.363281 128.605469 21.3125 124.867188 21.207031 121.179688 C 17.476562 123.722656 13.957031 126.582031 10.277344 129.230469 C 9.914062 128.867188 9.550781 128.503906 9.136719 128.140625 C 12.816406 125.230469 16.597656 122.476562 20.378906 119.722656 C 17.6875 119.722656 14.992188 119.878906 12.296875 120.085938 C 15.25 119.101562 18.152344 116.917969 21.417969 117.800781 C 21.363281 114.0625 21.3125 110.320312 21.207031 106.632812 C 17.476562 109.179688 13.957031 112.035156 10.277344 114.683594 C 9.914062 114.320312 9.550781 113.957031 9.136719 113.59375 C 12.816406 110.683594 16.597656 107.933594 20.378906 105.179688 C 17.6875 105.179688 14.992188 105.335938 12.296875 105.542969 C 15.25 104.554688 18.152344 102.375 21.417969 103.257812 C 21.363281 99.515625 21.3125 95.777344 21.207031 92.085938 C 17.476562 94.632812 13.957031 97.492188 10.277344 100.140625 C 9.914062 99.777344 9.550781 99.410156 9.136719 99.046875 C 12.816406 96.140625 16.597656 93.386719 20.378906 90.632812 C 17.6875 90.632812 14.992188 90.789062 12.296875 90.996094 C 15.25 90.007812 18.152344 87.828125 21.417969 88.710938 C 21.363281 84.972656 21.3125 81.230469 21.207031 77.542969 C 17.476562 80.085938 13.957031 82.945312 10.277344 85.59375 C 9.914062 85.230469 9.550781 84.867188 9.136719 84.503906 C 12.816406 81.59375 16.597656 78.839844 20.378906 76.085938 C 17.6875 76.085938 14.992188 76.242188 12.296875 76.449219 C 15.25 75.464844 18.152344 73.28125 21.417969 74.164062 C 21.363281 70.425781 21.3125 66.683594 21.207031 62.996094 C 17.476562 65.542969 13.957031 68.398438 10.277344 71.046875 C 9.914062 70.683594 9.550781 70.320312 9.136719 69.957031 C 12.816406 67.046875 16.597656 64.296875 20.378906 61.542969 C 17.6875 61.542969 14.992188 61.699219 12.296875 61.90625 C 15.25 60.917969 18.152344 58.738281 21.417969 59.621094 C 21.363281 55.878906 21.3125 52.140625 21.207031 48.453125 C 17.476562 50.996094 13.957031 53.855469 10.277344 56.503906 C 9.914062 56.140625 9.550781 55.777344 9.136719 55.414062 C 12.816406 52.503906 16.597656 49.75 20.378906 46.996094 C 17.6875 46.996094 14.992188 47.152344 12.296875 47.359375 C 15.25 46.375 18.152344 44.191406 21.417969 45.074219 C 21.363281 41.335938 21.3125 37.59375 21.207031 33.90625 C 17.476562 36.449219 13.957031 39.308594 10.277344 41.957031 C 9.914062 41.59375 9.550781 41.230469 9.136719 40.867188 C 12.816406 37.957031 16.597656 35.203125 20.378906 32.453125 C 17.6875 32.453125 14.992188 32.605469 12.296875 32.816406 C 15.25 31.828125 18.152344 29.644531 21.417969 30.527344 C 21.363281 26.789062 21.3125 23.046875 21.207031 19.359375 C 17.476562 21.90625 13.957031 24.761719 10.277344 27.414062 C 9.914062 27.046875 9.550781 26.683594 9.136719 26.320312 C 12.816406 23.414062 16.597656 20.660156 20.378906 17.90625 C 17.6875 17.90625 14.992188 18.0625 12.296875 18.269531 C 15.25 17.28125 18.152344 15.101562 21.363281 15.984375 C 21.261719 11.414062 21.261719 6.894531 21.261719 2.320312 Z M 21.261719 2.320312 "/>
<path style=" stroke:none;fill-rule:nonzero;fill:rgb(100%,0%,0%);fill-opacity:1;" d="M 10.742188 29.855469 C 10.742188 32.449219 8.644531 34.554688 6.058594 34.554688 C 3.46875 34.554688 1.371094 32.449219 1.371094 29.855469 C 1.371094 27.261719 3.46875 25.160156 6.058594 25.160156 C 8.644531 25.160156 10.742188 27.261719 10.742188 29.855469 Z M 10.742188 29.855469 "/>
<path style=" stroke:none;fill-rule:nonzero;fill:rgb(100%,0%,0%);fill-opacity:1;" d="M 10.742188 44.375 C 10.742188 46.96875 8.644531 49.074219 6.058594 49.074219 C 3.46875 49.074219 1.371094 46.96875 1.371094 44.375 C 1.371094 41.78125 3.46875 39.675781 6.058594 39.675781 C 8.644531 39.675781 10.742188 41.78125 10.742188 44.375 Z M 10.742188 44.375 "/>
<path style=" stroke:none;fill-rule:nonzero;fill:rgb(100%,0%,0%);fill-opacity:1;" d="M 10.742188 58.894531 C 10.742188 61.488281 8.644531 63.589844 6.058594 63.589844 C 3.46875 63.589844 1.371094 61.488281 1.371094 58.894531 C 1.371094 56.300781 3.46875 54.195312 6.058594 54.195312 C 8.644531 54.195312 10.742188 56.300781 10.742188 58.894531 Z M 10.742188 58.894531 "/>
<path style=" stroke:none;fill-rule:nonzero;fill:rgb(100%,0%,0%);fill-opacity:1;" d="M 10.742188 73.414062 C 10.742188 76.007812 8.644531 78.109375 6.058594 78.109375 C 3.46875 78.109375 1.371094 76.007812 1.371094 73.414062 C 1.371094 70.820312 3.46875 68.714844 6.058594 68.714844 C 8.644531 68.714844 10.742188 70.820312 10.742188 73.414062 Z M 10.742188 73.414062 "/>
<path style=" stroke:none;fill-rule:nonzero;fill:rgb(100%,0%,0%);fill-opacity:1;" d="M 10.742188 87.933594 C 10.742188 90.527344 8.644531 92.628906 6.058594 92.628906 C 3.46875 92.628906 1.371094 90.527344 1.371094 87.933594 C 1.371094 85.335938 3.46875 83.234375 6.058594 83.234375 C 8.644531 83.234375 10.742188 85.335938 10.742188 87.933594 Z M 10.742188 87.933594 "/>
<path style=" stroke:none;fill-rule:nonzero;fill:rgb(100%,0%,0%);fill-opacity:1;" d="M 10.742188 102.449219 C 10.742188 105.046875 8.644531 107.148438 6.058594 107.148438 C 3.46875 107.148438 1.371094 105.046875 1.371094 102.449219 C 1.371094 99.855469 3.46875 97.753906 6.058594 97.753906 C 8.644531 97.753906 10.742188 99.855469 10.742188 102.449219 Z M 10.742188 102.449219 "/>
<path style=" stroke:none;fill-rule:nonzero;fill:rgb(100%,0%,0%);fill-opacity:1;" d="M 10.742188 116.96875 C 10.742188 119.5625 8.644531 121.667969 6.058594 121.667969 C 3.46875 121.667969 1.371094 119.5625 1.371094 116.96875 C 1.371094 114.375 3.46875 112.273438 6.058594 112.273438 C 8.644531 112.273438 10.742188 114.375 10.742188 116.96875 Z M 10.742188 116.96875 "/>
<path style=" stroke:none;fill-rule:nonzero;fill:rgb(100%,0%,0%);fill-opacity:1;" d="M 10.742188 131.488281 C 10.742188 134.082031 8.644531 136.1875 6.058594 136.1875 C 3.46875 136.1875 1.371094 134.082031 1.371094 131.488281 C 1.371094 128.894531 3.46875 126.789062 6.058594 126.789062 C 8.644531 126.789062 10.742188 128.894531 10.742188 131.488281 Z M 10.742188 131.488281 "/>
<path style=" stroke:none;fill-rule:nonzero;fill:rgb(100%,0%,0%);fill-opacity:1;" d="M 10.742188 146.007812 C 10.742188 148.601562 8.644531 150.703125 6.058594 150.703125 C 3.46875 150.703125 1.371094 148.601562 1.371094 146.007812 C 1.371094 143.414062 3.46875 141.308594 6.058594 141.308594 C 8.644531 141.308594 10.742188 143.414062 10.742188 146.007812 Z M 10.742188 146.007812 "/>
<path style=" stroke:none;fill-rule:nonzero;fill:rgb(100%,0%,0%);fill-opacity:1;" d="M 10.742188 160.527344 C 10.742188 163.121094 8.644531 165.222656 6.058594 165.222656 C 3.46875 165.222656 1.371094 163.121094 1.371094 160.527344 C 1.371094 157.929688 3.46875 155.828125 6.058594 155.828125 C 8.644531 155.828125 10.742188 157.929688 10.742188 160.527344 Z M 10.742188 160.527344 "/>
<path style=" stroke:none;fill-rule:nonzero;fill:rgb(100%,0%,0%);fill-opacity:1;" d="M 10.742188 175.046875 C 10.742188 177.640625 8.644531 179.742188 6.058594 179.742188 C 3.46875 179.742188 1.371094 177.640625 1.371094 175.046875 C 1.371094 172.449219 3.46875 170.347656 6.058594 170.347656 C 8.644531 170.347656 10.742188 172.449219 10.742188 175.046875 Z M 10.742188 175.046875 "/>
<path style=" stroke:none;fill-rule:nonzero;fill:rgb(100%,0%,0%);fill-opacity:1;" d="M 42.257812 36.234375 C 42.257812 38.828125 40.160156 40.929688 37.574219 40.929688 C 34.984375 40.929688 32.886719 38.828125 32.886719 36.234375 C 32.886719 33.640625 34.984375 31.535156 37.574219 31.535156 C 40.160156 31.535156 42.257812 33.640625 42.257812 36.234375 Z M 42.257812 36.234375 "/>
<path style=" stroke:none;fill-rule:nonzero;fill:rgb(100%,0%,0%);fill-opacity:1;" d="M 42.257812 50.753906 C 42.257812 53.347656 40.160156 55.449219 37.574219 55.449219 C 34.984375 55.449219 32.886719 53.347656 32.886719 50.753906 C 32.886719 48.15625 34.984375 46.054688 37.574219 46.054688 C 40.160156 46.054688 42.257812 48.15625 42.257812 50.753906 Z M 42.257812 50.753906 "/>
<path style=" stroke:none;fill-rule:nonzero;fill:rgb(100%,0%,0%);fill-opacity:1;" d="M 42.257812 65.269531 C 42.257812 67.867188 40.160156 69.96875 37.574219 69.96875 C 34.984375 69.96875 32.886719 67.867188 32.886719 65.269531 C 32.886719 62.675781 34.984375 60.574219 37.574219 60.574219 C 40.160156 60.574219 42.257812 62.675781 42.257812 65.269531 Z M 42.257812 65.269531 "/>
<path style=" stroke:none;fill-rule:nonzero;fill:rgb(100%,0%,0%);fill-opacity:1;" d="M 42.257812 79.789062 C 42.257812 82.382812 40.160156 84.488281 37.574219 84.488281 C 34.984375 84.488281 32.886719 82.382812 32.886719 79.789062 C 32.886719 77.195312 34.984375 75.09375 37.574219 75.09375 C 40.160156 75.09375 42.257812 77.195312 42.257812 79.789062 Z M 42.257812 79.789062 "/>
<path style=" stroke:none;fill-rule:nonzero;fill:rgb(100%,0%,0%);fill-opacity:1;" d="M 42.257812 94.308594 C 42.257812 96.902344 40.160156 99.007812 37.574219 99.007812 C 34.984375 99.007812 32.886719 96.902344 32.886719 94.308594 C 32.886719 91.714844 34.984375 89.613281 37.574219 89.613281 C 40.160156 89.613281 42.257812 91.714844 42.257812 94.308594 Z M 42.257812 94.308594 "/>
<path style=" stroke:none;fill-rule:nonzero;fill:rgb(100%,0%,0%);fill-opacity:1;" d="M 42.257812 108.828125 C 42.257812 111.421875 40.160156 113.527344 37.574219 113.527344 C 34.984375 113.527344 32.886719 111.421875 32.886719 108.828125 C 32.886719 106.234375 34.984375 104.128906 37.574219 104.128906 C 40.160156 104.128906 42.257812 106.234375 42.257812 108.828125 Z M 42.257812 108.828125 "/>
<path style=" stroke:none;fill-rule:nonzero;fill:rgb(100%,0%,0%);fill-opacity:1;" d="M 42.257812 123.347656 C 42.257812 125.941406 40.160156 128.042969 37.574219 128.042969 C 34.984375 128.042969 32.886719 125.941406 32.886719 123.347656 C 32.886719 120.753906 34.984375 118.648438 37.574219 118.648438 C 40.160156 118.648438 42.257812 120.753906 42.257812 123.347656 Z M 42.257812 123.347656 "/>
<path style=" stroke:none;fill-rule:nonzero;fill:rgb(100%,0%,0%);fill-opacity:1;" d="M 42.257812 137.867188 C 42.257812 140.460938 40.160156 142.5625 37.574219 142.5625 C 34.984375 142.5625 32.886719 140.460938 32.886719 137.867188 C 32.886719 135.269531 34.984375 133.167969 37.574219 133.167969 C 40.160156 133.167969 42.257812 135.269531 42.257812 137.867188 Z M 42.257812 137.867188 "/>
<path style=" stroke:none;fill-rule:nonzero;fill:rgb(100%,0%,0%);fill-opacity:1;" d="M 42.257812 152.382812 C 42.257812 154.980469 40.160156 157.082031 37.574219 157.082031 C 34.984375 157.082031 32.886719 154.980469 32.886719 152.382812 C 32.886719 149.789062 34.984375 147.6875 37.574219 147.6875 C 40.160156 147.6875 42.257812 149.789062 42.257812 152.382812 Z M 42.257812 152.382812 "/>
<path style=" stroke:none;fill-rule:nonzero;fill:rgb(100%,0%,0%);fill-opacity:1;" d="M 42.257812 166.902344 C 42.257812 169.496094 40.160156 171.601562 37.574219 171.601562 C 34.984375 171.601562 32.886719 169.496094 32.886719 166.902344 C 32.886719 164.308594 34.984375 162.207031 37.574219 162.207031 C 40.160156 162.207031 42.257812 164.308594 42.257812 166.902344 Z M 42.257812 166.902344 "/>
<path style=" stroke:none;fill-rule:nonzero;fill:rgb(100%,0%,0%);fill-opacity:1;" d="M 42.257812 181.421875 C 42.257812 184.015625 40.160156 186.121094 37.574219 186.121094 C 34.984375 186.121094 32.886719 184.015625 32.886719 181.421875 C 32.886719 178.828125 34.984375 176.726562 37.574219 176.726562 C 40.160156 176.726562 42.257812 178.828125 42.257812 181.421875 Z M 42.257812 181.421875 "/>
<path style=" stroke:none;fill-rule:nonzero;fill:rgb(0%,76.47059%,0%);fill-opacity:1;" d="M 83.28125 1.253906 L 84.910156 1.253906 L 84.910156 183.710938 L 83.28125 183.710938 Z M 83.28125 1.253906 "/>
<path style=" stroke:none;fill-rule:nonzero;fill:rgb(0%,76.47059%,0%);fill-opacity:1;" d="M 83.308594 23.621094 C 82.425781 23.621094 81.546875 23.675781 80.664062 23.675781 C 78.957031 23.882812 77.195312 24.140625 75.535156 24.609375 C 73.308594 25.390625 71.078125 26.375 68.695312 26.792969 C 72.117188 24.246094 75.949219 22.425781 79.679688 20.402344 C 80.871094 20.972656 82.117188 21.597656 83.308594 22.167969 Z M 83.308594 23.621094 "/>
<path style=" stroke:none;fill-rule:nonzero;fill:rgb(100%,0%,0%);fill-opacity:1;" d="M 83.578125 27.703125 C 83.578125 30.300781 81.480469 32.402344 78.890625 32.402344 C 76.304688 32.402344 74.207031 30.300781 74.207031 27.703125 C 74.207031 25.109375 76.304688 23.007812 78.890625 23.007812 C 81.480469 23.007812 83.578125 25.109375 83.578125 27.703125 Z M 83.578125 27.703125 "/>
<path style=" stroke:none;fill-rule:nonzero;fill:rgb(0%,76.47059%,0%);fill-opacity:1;" d="M 83.308594 38.039062 C 82.425781 38.039062 81.546875 38.089844 80.664062 38.089844 C 78.957031 38.296875 77.195312 38.558594 75.535156 39.027344 C 73.308594 39.804688 71.078125 40.792969 68.695312 41.207031 C 72.117188 38.664062 75.949219 36.84375 79.679688 34.816406 C 80.871094 35.390625 82.117188 36.011719 83.308594 36.585938 Z M 83.308594 38.039062 "/>
<path style=" stroke:none;fill-rule:nonzero;fill:rgb(100%,0%,0%);fill-opacity:1;" d="M 83.578125 42.121094 C 83.578125 44.714844 81.480469 46.820312 78.890625 46.820312 C 76.304688 46.820312 74.207031 44.714844 74.207031 42.121094 C 74.207031 39.527344 76.304688 37.421875 78.890625 37.421875 C 81.480469 37.421875 83.578125 39.527344 83.578125 42.121094 Z M 83.578125 42.121094 "/>
<path style=" stroke:none;fill-rule:nonzero;fill:rgb(0%,76.47059%,0%);fill-opacity:1;" d="M 83.308594 52.457031 C 82.425781 52.457031 81.546875 52.507812 80.664062 52.507812 C 78.957031 52.714844 77.195312 52.976562 75.535156 53.441406 C 73.308594 54.222656 71.078125 55.207031 68.695312 55.625 C 72.117188 53.078125 75.949219 51.261719 79.679688 49.234375 C 80.871094 49.804688 82.117188 50.429688 83.308594 51 Z M 83.308594 52.457031 "/>
<path style=" stroke:none;fill-rule:nonzero;fill:rgb(100%,0%,0%);fill-opacity:1;" d="M 83.578125 56.539062 C 83.578125 59.132812 81.480469 61.234375 78.890625 61.234375 C 76.304688 61.234375 74.207031 59.132812 74.207031 56.539062 C 74.207031 53.941406 76.304688 51.839844 78.890625 51.839844 C 81.480469 51.839844 83.578125 53.941406 83.578125 56.539062 Z M 83.578125 56.539062 "/>
<path style=" stroke:none;fill-rule:nonzero;fill:rgb(0%,76.47059%,0%);fill-opacity:1;" d="M 83.308594 66.871094 C 82.425781 66.871094 81.546875 66.921875 80.664062 66.921875 C 78.957031 67.132812 77.195312 67.390625 75.535156 67.859375 C 73.308594 68.636719 71.078125 69.625 68.695312 70.039062 C 72.117188 67.496094 75.949219 65.675781 79.679688 63.652344 C 80.871094 64.222656 82.117188 64.847656 83.308594 65.417969 Z M 83.308594 66.871094 "/>
<path style=" stroke:none;fill-rule:nonzero;fill:rgb(100%,0%,0%);fill-opacity:1;" d="M 83.578125 70.953125 C 83.578125 73.546875 81.480469 75.652344 78.890625 75.652344 C 76.304688 75.652344 74.207031 73.546875 74.207031 70.953125 C 74.207031 68.359375 76.304688 66.257812 78.890625 66.257812 C 81.480469 66.257812 83.578125 68.359375 83.578125 70.953125 Z M 83.578125 70.953125 "/>
<path style=" stroke:none;fill-rule:nonzero;fill:rgb(0%,76.47059%,0%);fill-opacity:1;" d="M 83.308594 81.289062 C 82.425781 81.289062 81.546875 81.339844 80.664062 81.339844 C 78.957031 81.546875 77.195312 81.808594 75.535156 82.273438 C 73.308594 83.054688 71.078125 84.042969 68.695312 84.457031 C 72.117188 81.910156 75.949219 80.09375 79.679688 78.066406 C 80.871094 78.636719 82.117188 79.261719 83.308594 79.832031 Z M 83.308594 81.289062 "/>
<path style=" stroke:none;fill-rule:nonzero;fill:rgb(100%,0%,0%);fill-opacity:1;" d="M 83.578125 85.371094 C 83.578125 87.964844 81.480469 90.066406 78.890625 90.066406 C 76.304688 90.066406 74.207031 87.964844 74.207031 85.371094 C 74.207031 82.777344 76.304688 80.671875 78.890625 80.671875 C 81.480469 80.671875 83.578125 82.777344 83.578125 85.371094 Z M 83.578125 85.371094 "/>
<path style=" stroke:none;fill-rule:nonzero;fill:rgb(0%,76.47059%,0%);fill-opacity:1;" d="M 83.308594 95.703125 C 82.425781 95.703125 81.546875 95.757812 80.664062 95.757812 C 78.957031 95.964844 77.195312 96.222656 75.535156 96.691406 C 73.308594 97.46875 71.078125 98.457031 68.695312 98.875 C 72.117188 96.328125 75.949219 94.507812 79.679688 92.484375 C 80.871094 93.054688 82.117188 93.679688 83.308594 94.25 Z M 83.308594 95.703125 "/>
<path style=" stroke:none;fill-rule:nonzero;fill:rgb(100%,0%,0%);fill-opacity:1;" d="M 83.578125 99.785156 C 83.578125 102.378906 81.480469 104.484375 78.890625 104.484375 C 76.304688 104.484375 74.207031 102.378906 74.207031 99.785156 C 74.207031 97.191406 76.304688 95.089844 78.890625 95.089844 C 81.480469 95.089844 83.578125 97.191406 83.578125 99.785156 Z M 83.578125 99.785156 "/>
<path style=" stroke:none;fill-rule:nonzero;fill:rgb(0%,76.47059%,0%);fill-opacity:1;" d="M 83.308594 110.121094 C 82.425781 110.121094 81.546875 110.171875 80.664062 110.171875 C 78.957031 110.378906 77.195312 110.640625 75.535156 111.105469 C 73.308594 111.886719 71.078125 112.875 68.695312 113.289062 C 72.117188 110.746094 75.949219 108.925781 79.679688 106.898438 C 80.871094 107.472656 82.117188 108.09375 83.308594 108.667969 Z M 83.308594 110.121094 "/>
<path style=" stroke:none;fill-rule:nonzero;fill:rgb(100%,0%,0%);fill-opacity:1;" d="M 83.578125 114.203125 C 83.578125 116.796875 81.480469 118.902344 78.890625 118.902344 C 76.304688 118.902344 74.207031 116.796875 74.207031 114.203125 C 74.207031 111.609375 76.304688 109.503906 78.890625 109.503906 C 81.480469 109.503906 83.578125 111.609375 83.578125 114.203125 Z M 83.578125 114.203125 "/>
<path style=" stroke:none;fill-rule:nonzero;fill:rgb(0%,76.47059%,0%);fill-opacity:1;" d="M 83.308594 124.535156 C 82.425781 124.535156 81.546875 124.589844 80.664062 124.589844 C 78.957031 124.796875 77.195312 125.054688 75.535156 125.523438 C 73.308594 126.304688 71.078125 127.289062 68.695312 127.707031 C 72.117188 125.160156 75.949219 123.34375 79.679688 121.316406 C 80.871094 121.886719 82.117188 122.511719 83.308594 123.082031 Z M 83.308594 124.535156 "/>
<path style=" stroke:none;fill-rule:nonzero;fill:rgb(100%,0%,0%);fill-opacity:1;" d="M 83.578125 128.621094 C 83.578125 131.214844 81.480469 133.316406 78.890625 133.316406 C 76.304688 133.316406 74.207031 131.214844 74.207031 128.621094 C 74.207031 126.023438 76.304688 123.921875 78.890625 123.921875 C 81.480469 123.921875 83.578125 126.023438 83.578125 128.621094 Z M 83.578125 128.621094 "/>
<path style=" stroke:none;fill-rule:nonzero;fill:rgb(0%,76.47059%,0%);fill-opacity:1;" d="M 83.308594 138.953125 C 82.425781 138.953125 81.546875 139.003906 80.664062 139.003906 C 78.957031 139.214844 77.195312 139.472656 75.535156 139.941406 C 73.308594 140.71875 71.078125 141.707031 68.695312 142.121094 C 72.117188 139.578125 75.949219 137.757812 79.679688 135.734375 C 80.871094 136.304688 82.117188 136.925781 83.308594 137.5 Z M 83.308594 138.953125 "/>
<path style=" stroke:none;fill-rule:nonzero;fill:rgb(100%,0%,0%);fill-opacity:1;" d="M 83.578125 143.035156 C 83.578125 145.628906 81.480469 147.734375 78.890625 147.734375 C 76.304688 147.734375 74.207031 145.628906 74.207031 143.035156 C 74.207031 140.441406 76.304688 138.339844 78.890625 138.339844 C 81.480469 138.339844 83.578125 140.441406 83.578125 143.035156 Z M 83.578125 143.035156 "/>
<path style=" stroke:none;fill-rule:nonzero;fill:rgb(0%,76.47059%,0%);fill-opacity:1;" d="M 83.308594 153.371094 C 82.425781 153.371094 81.546875 153.421875 80.664062 153.421875 C 78.957031 153.628906 77.195312 153.890625 75.535156 154.355469 C 73.308594 155.136719 71.078125 156.121094 68.695312 156.539062 C 72.117188 153.992188 75.949219 152.175781 79.679688 150.148438 C 80.871094 150.71875 82.117188 151.34375 83.308594 151.914062 Z M 83.308594 153.371094 "/>
<path style=" stroke:none;fill-rule:nonzero;fill:rgb(100%,0%,0%);fill-opacity:1;" d="M 83.578125 157.453125 C 83.578125 160.046875 81.480469 162.148438 78.890625 162.148438 C 76.304688 162.148438 74.207031 160.046875 74.207031 157.453125 C 74.207031 154.855469 76.304688 152.753906 78.890625 152.753906 C 81.480469 152.753906 83.578125 154.855469 83.578125 157.453125 Z M 83.578125 157.453125 "/>
<path style=" stroke:none;fill-rule:nonzero;fill:rgb(0%,76.47059%,0%);fill-opacity:1;" d="M 83.308594 167.785156 C 82.425781 167.785156 81.546875 167.835938 80.664062 167.835938 C 78.957031 168.046875 77.195312 168.304688 75.535156 168.773438 C 73.308594 169.550781 71.078125 170.539062 68.695312 170.953125 C 72.117188 168.410156 75.949219 166.589844 79.679688 164.566406 C 80.871094 165.136719 82.117188 165.761719 83.308594 166.332031 Z M 83.308594 167.785156 "/>
<path style=" stroke:none;fill-rule:nonzero;fill:rgb(100%,0%,0%);fill-opacity:1;" d="M 83.578125 171.867188 C 83.578125 174.460938 81.480469 176.566406 78.890625 176.566406 C 76.304688 176.566406 74.207031 174.460938 74.207031 171.867188 C 74.207031 169.273438 76.304688 167.171875 78.890625 167.171875 C 81.480469 167.171875 83.578125 169.273438 83.578125 171.867188 Z M 83.578125 171.867188 "/>
<path style=" stroke:none;fill-rule:nonzero;fill:rgb(0%,76.47059%,0%);fill-opacity:1;" d="M 84.855469 30.894531 C 85.734375 30.894531 86.617188 30.949219 87.496094 30.949219 C 89.207031 31.15625 90.96875 31.414062 92.625 31.882812 C 94.855469 32.660156 97.082031 33.648438 99.464844 34.0625 C 96.046875 31.519531 92.210938 29.699219 88.480469 27.675781 C 87.289062 28.246094 86.046875 28.871094 84.855469 29.441406 Z M 84.855469 30.894531 "/>
<path style=" stroke:none;fill-rule:nonzero;fill:rgb(100%,0%,0%);fill-opacity:1;" d="M 93.953125 34.976562 C 93.953125 37.570312 91.855469 39.675781 89.269531 39.675781 C 86.683594 39.675781 84.585938 37.570312 84.585938 34.976562 C 84.585938 32.382812 86.683594 30.28125 89.269531 30.28125 C 91.855469 30.28125 93.953125 32.382812 93.953125 34.976562 Z M 93.953125 34.976562 "/>
<path style=" stroke:none;fill-rule:nonzero;fill:rgb(0%,76.47059%,0%);fill-opacity:1;" d="M 84.855469 45.3125 C 85.734375 45.3125 86.617188 45.363281 87.496094 45.363281 C 89.207031 45.570312 90.96875 45.832031 92.625 46.296875 C 94.855469 47.078125 97.082031 48.066406 99.464844 48.480469 C 96.046875 45.933594 92.210938 44.117188 88.480469 42.089844 C 87.289062 42.664062 86.046875 43.285156 84.855469 43.855469 Z M 84.855469 45.3125 "/>
<path style=" stroke:none;fill-rule:nonzero;fill:rgb(100%,0%,0%);fill-opacity:1;" d="M 93.953125 49.394531 C 93.953125 51.988281 91.855469 54.089844 89.269531 54.089844 C 86.683594 54.089844 84.585938 51.988281 84.585938 49.394531 C 84.585938 46.800781 86.683594 44.695312 89.269531 44.695312 C 91.855469 44.695312 93.953125 46.800781 93.953125 49.394531 Z M 93.953125 49.394531 "/>
<path style=" stroke:none;fill-rule:nonzero;fill:rgb(0%,76.47059%,0%);fill-opacity:1;" d="M 84.855469 59.726562 C 85.734375 59.726562 86.617188 59.78125 87.496094 59.78125 C 89.207031 59.988281 90.96875 60.246094 92.625 60.714844 C 94.855469 61.496094 97.082031 62.480469 99.464844 62.898438 C 96.046875 60.351562 92.210938 58.53125 88.480469 56.507812 C 87.289062 57.078125 86.046875 57.703125 84.855469 58.273438 Z M 84.855469 59.726562 "/>
<path style=" stroke:none;fill-rule:nonzero;fill:rgb(100%,0%,0%);fill-opacity:1;" d="M 93.953125 63.808594 C 93.953125 66.40625 91.855469 68.507812 89.269531 68.507812 C 86.683594 68.507812 84.585938 66.40625 84.585938 63.808594 C 84.585938 61.214844 86.683594 59.113281 89.269531 59.113281 C 91.855469 59.113281 93.953125 61.214844 93.953125 63.808594 Z M 93.953125 63.808594 "/>
<path style=" stroke:none;fill-rule:nonzero;fill:rgb(0%,76.47059%,0%);fill-opacity:1;" d="M 84.855469 74.144531 C 85.734375 74.144531 86.617188 74.195312 87.496094 74.195312 C 89.207031 74.402344 90.96875 74.664062 92.625 75.132812 C 94.855469 75.910156 97.082031 76.898438 99.464844 77.3125 C 96.046875 74.769531 92.210938 72.949219 88.480469 70.921875 C 87.289062 71.496094 86.046875 72.117188 84.855469 72.691406 Z M 84.855469 74.144531 "/>
<path style=" stroke:none;fill-rule:nonzero;fill:rgb(100%,0%,0%);fill-opacity:1;" d="M 93.953125 78.226562 C 93.953125 80.820312 91.855469 82.925781 89.269531 82.925781 C 86.683594 82.925781 84.585938 80.820312 84.585938 78.226562 C 84.585938 75.632812 86.683594 73.527344 89.269531 73.527344 C 91.855469 73.527344 93.953125 75.632812 93.953125 78.226562 Z M 93.953125 78.226562 "/>
<path style=" stroke:none;fill-rule:nonzero;fill:rgb(0%,76.47059%,0%);fill-opacity:1;" d="M 84.855469 88.5625 C 85.734375 88.5625 86.617188 88.613281 87.496094 88.613281 C 89.207031 88.820312 90.96875 89.082031 92.625 89.546875 C 94.855469 90.328125 97.082031 91.3125 99.464844 91.730469 C 96.046875 89.183594 92.210938 87.367188 88.480469 85.339844 C 87.289062 85.910156 86.046875 86.535156 84.855469 87.105469 Z M 84.855469 88.5625 "/>
<path style=" stroke:none;fill-rule:nonzero;fill:rgb(100%,0%,0%);fill-opacity:1;" d="M 93.953125 92.644531 C 93.953125 95.238281 91.855469 97.339844 89.269531 97.339844 C 86.683594 97.339844 84.585938 95.238281 84.585938 92.644531 C 84.585938 90.046875 86.683594 87.945312 89.269531 87.945312 C 91.855469 87.945312 93.953125 90.046875 93.953125 92.644531 Z M 93.953125 92.644531 "/>
<path style=" stroke:none;fill-rule:nonzero;fill:rgb(0%,76.47059%,0%);fill-opacity:1;" d="M 84.855469 102.976562 C 85.734375 102.976562 86.617188 103.027344 87.496094 103.027344 C 89.207031 103.238281 90.96875 103.496094 92.625 103.964844 C 94.855469 104.742188 97.082031 105.730469 99.464844 106.144531 C 96.046875 103.601562 92.210938 101.78125 88.480469 99.757812 C 87.289062 100.328125 86.046875 100.949219 84.855469 101.523438 Z M 84.855469 102.976562 "/>
<path style=" stroke:none;fill-rule:nonzero;fill:rgb(100%,0%,0%);fill-opacity:1;" d="M 93.953125 107.058594 C 93.953125 109.652344 91.855469 111.757812 89.269531 111.757812 C 86.683594 111.757812 84.585938 109.652344 84.585938 107.058594 C 84.585938 104.464844 86.683594 102.363281 89.269531 102.363281 C 91.855469 102.363281 93.953125 104.464844 93.953125 107.058594 Z M 93.953125 107.058594 "/>
<path style=" stroke:none;fill-rule:nonzero;fill:rgb(0%,76.47059%,0%);fill-opacity:1;" d="M 84.855469 117.394531 C 85.734375 117.394531 86.617188 117.445312 87.496094 117.445312 C 89.207031 117.652344 90.96875 117.914062 92.625 118.378906 C 94.855469 119.160156 97.082031 120.148438 99.464844 120.5625 C 96.046875 118.015625 92.210938 116.199219 88.480469 114.171875 C 87.289062 114.742188 86.046875 115.367188 84.855469 115.9375 Z M 84.855469 117.394531 "/>
<path style=" stroke:none;fill-rule:nonzero;fill:rgb(100%,0%,0%);fill-opacity:1;" d="M 93.953125 121.476562 C 93.953125 124.070312 91.855469 126.171875 89.269531 126.171875 C 86.683594 126.171875 84.585938 124.070312 84.585938 121.476562 C 84.585938 118.882812 86.683594 116.777344 89.269531 116.777344 C 91.855469 116.777344 93.953125 118.882812 93.953125 121.476562 Z M 93.953125 121.476562 "/>
<path style=" stroke:none;fill-rule:nonzero;fill:rgb(0%,76.47059%,0%);fill-opacity:1;" d="M 84.855469 131.808594 C 85.734375 131.808594 86.617188 131.863281 87.496094 131.863281 C 89.207031 132.070312 90.96875 132.328125 92.625 132.796875 C 94.855469 133.574219 97.082031 134.5625 99.464844 134.980469 C 96.046875 132.433594 92.210938 130.613281 88.480469 128.589844 C 87.289062 129.160156 86.046875 129.785156 84.855469 130.355469 Z M 84.855469 131.808594 "/>
<path style=" stroke:none;fill-rule:nonzero;fill:rgb(100%,0%,0%);fill-opacity:1;" d="M 93.953125 135.890625 C 93.953125 138.488281 91.855469 140.589844 89.269531 140.589844 C 86.683594 140.589844 84.585938 138.488281 84.585938 135.890625 C 84.585938 133.296875 86.683594 131.195312 89.269531 131.195312 C 91.855469 131.195312 93.953125 133.296875 93.953125 135.890625 Z M 93.953125 135.890625 "/>
<path style=" stroke:none;fill-rule:nonzero;fill:rgb(0%,76.47059%,0%);fill-opacity:1;" d="M 84.855469 146.226562 C 85.734375 146.226562 86.617188 146.277344 87.496094 146.277344 C 89.207031 146.484375 90.96875 146.746094 92.625 147.214844 C 94.855469 147.992188 97.082031 148.980469 99.464844 149.394531 C 96.046875 146.847656 92.210938 145.03125 88.480469 143.003906 C 87.289062 143.578125 86.046875 144.199219 84.855469 144.769531 Z M 84.855469 146.226562 "/>
<path style=" stroke:none;fill-rule:nonzero;fill:rgb(100%,0%,0%);fill-opacity:1;" d="M 93.953125 150.308594 C 93.953125 152.902344 91.855469 155.003906 89.269531 155.003906 C 86.683594 155.003906 84.585938 152.902344 84.585938 150.308594 C 84.585938 147.714844 86.683594 145.609375 89.269531 145.609375 C 91.855469 145.609375 93.953125 147.714844 93.953125 150.308594 Z M 93.953125 150.308594 "/>
<path style=" stroke:none;fill-rule:nonzero;fill:rgb(0%,76.47059%,0%);fill-opacity:1;" d="M 84.855469 160.644531 C 85.734375 160.644531 86.617188 160.695312 87.496094 160.695312 C 89.207031 160.902344 90.96875 161.164062 92.625 161.628906 C 94.855469 162.410156 97.082031 163.394531 99.464844 163.8125 C 96.046875 161.265625 92.210938 159.449219 88.480469 157.421875 C 87.289062 157.992188 86.046875 158.617188 84.855469 159.1875 Z M 84.855469 160.644531 "/>
<path style=" stroke:none;fill-rule:nonzero;fill:rgb(100%,0%,0%);fill-opacity:1;" d="M 93.953125 164.722656 C 93.953125 167.320312 91.855469 169.421875 89.269531 169.421875 C 86.683594 169.421875 84.585938 167.320312 84.585938 164.722656 C 84.585938 162.128906 86.683594 160.027344 89.269531 160.027344 C 91.855469 160.027344 93.953125 162.128906 93.953125 164.722656 Z M 93.953125 164.722656 "/>
<path style=" stroke:none;fill-rule:nonzero;fill:rgb(0%,76.47059%,0%);fill-opacity:1;" d="M 84.855469 175.058594 C 85.734375 175.058594 86.617188 175.109375 87.496094 175.109375 C 89.207031 175.320312 90.96875 175.578125 92.625 176.046875 C 94.855469 176.824219 97.082031 177.8125 99.464844 178.226562 C 96.046875 175.683594 92.210938 173.863281 88.480469 171.835938 C 87.289062 172.410156 86.046875 173.03125 84.855469 173.605469 Z M 84.855469 175.058594 "/>
<path style=" stroke:none;fill-rule:nonzero;fill:rgb(100%,0%,0%);fill-opacity:1;" d="M 93.953125 179.140625 C 93.953125 181.734375 91.855469 183.839844 89.269531 183.839844 C 86.683594 183.839844 84.585938 181.734375 84.585938 179.140625 C 84.585938 176.546875 86.683594 174.445312 89.269531 174.445312 C 91.855469 174.445312 93.953125 176.546875 93.953125 179.140625 Z M 93.953125 179.140625 "/>
</g>
</svg>
