<?xml version="1.0" encoding="UTF-8"?>
<svg xmlns="http://www.w3.org/2000/svg" xmlns:xlink="http://www.w3.org/1999/xlink" width="100px" height="84px" viewBox="0 0 100 84" version="1.1">
<g id="surface1">
<path style="fill:none;stroke-width:2.112098;stroke-linecap:butt;stroke-linejoin:miter;stroke:rgb(0%,76.862746%,0%);stroke-opacity:1;stroke-miterlimit:4;" d="M 283.515625 418.945312 L 24.902344 30.039062 " transform="matrix(0.2,0,0,0.2,0,0)"/>
<path style="fill:none;stroke-width:2.112098;stroke-linecap:butt;stroke-linejoin:miter;stroke:rgb(0%,76.862746%,0%);stroke-opacity:1;stroke-miterlimit:4;" d="M 248.476562 365.175781 L 475.46875 30.78125 " transform="matrix(0.2,0,0,0.2,0,0)"/>
<path style="fill:none;stroke-width:2.112098;stroke-linecap:butt;stroke-linejoin:miter;stroke:rgb(0%,76.862746%,0%);stroke-opacity:1;stroke-miterlimit:4;" d="M 290.742188 302.148438 L 109.160156 29.296875 " transform="matrix(0.2,0,0,0.2,0,0)"/>
<path style="fill:none;stroke-width:2.112098;stroke-linecap:butt;stroke-linejoin:miter;stroke:rgb(0%,76.862746%,0%);stroke-opacity:1;stroke-miterlimit:4;" d="M 249.160156 238.789062 L 384.628906 30.78125 " transform="matrix(0.2,0,0,0.2,0,0)"/>
<path style="fill:none;stroke-width:2.112098;stroke-linecap:butt;stroke-linejoin:miter;stroke:rgb(0%,76.862746%,0%);stroke-opacity:1;stroke-miterlimit:4;" d="M 290.058594 174.921875 L 194.140625 30.039062 " transform="matrix(0.2,0,0,0.2,0,0)"/>
<path style="fill:none;stroke-width:2.112098;stroke-linecap:butt;stroke-linejoin:miter;stroke:rgb(0%,76.862746%,0%);stroke-opacity:1;stroke-miterlimit:4;" d="M 252.8125 117.96875 L 312.089844 30.039062 " transform="matrix(0.2,0,0,0.2,0,0)"/>
<path style="fill:none;stroke-width:2.112098;stroke-linecap:butt;stroke-linejoin:miter;stroke:rgb(0%,76.862746%,0%);stroke-opacity:1;stroke-miterlimit:4;" d="M 283.515625 71.601562 L 254.0625 29.6875 " transform="matrix(0.2,0,0,0.2,0,0)"/>
<path style=" stroke:none;fill-rule:nonzero;fill:rgb(100%,0%,0%);fill-opacity:1;" d="M 6.296875 3.5625 C 6.296875 5.324219 4.886719 6.75 3.148438 6.75 C 1.410156 6.75 0 5.324219 0 3.5625 C 0 1.800781 1.410156 0.375 3.148438 0.375 C 4.886719 0.375 6.296875 1.800781 6.296875 3.5625 Z M 6.296875 3.5625 "/>
<path style=" stroke:none;fill-rule:nonzero;fill:rgb(100%,0%,0%);fill-opacity:1;" d="M 23.222656 3.484375 C 23.222656 5.246094 21.8125 6.675781 20.074219 6.675781 C 18.335938 6.675781 16.925781 5.246094 16.925781 3.484375 C 16.925781 1.722656 18.335938 0.296875 20.074219 0.296875 C 21.8125 0.296875 23.222656 1.722656 23.222656 3.484375 Z M 23.222656 3.484375 "/>
<path style=" stroke:none;fill-rule:nonzero;fill:rgb(100%,0%,0%);fill-opacity:1;" d="M 40.804688 3.1875 C 40.804688 4.949219 39.394531 6.378906 37.65625 6.378906 C 35.917969 6.378906 34.507812 4.949219 34.507812 3.1875 C 34.507812 1.425781 35.917969 0 37.65625 0 C 39.394531 0 40.804688 1.425781 40.804688 3.1875 Z M 40.804688 3.1875 "/>
<path style=" stroke:none;fill-rule:nonzero;fill:rgb(100%,0%,0%);fill-opacity:1;" d="M 52.527344 3.1875 C 52.527344 4.949219 51.117188 6.378906 49.378906 6.378906 C 47.640625 6.378906 46.230469 4.949219 46.230469 3.1875 C 46.230469 1.425781 47.640625 0 49.378906 0 C 51.117188 0 52.527344 1.425781 52.527344 3.1875 Z M 52.527344 3.1875 "/>
<path style=" stroke:none;fill-rule:nonzero;fill:rgb(100%,0%,0%);fill-opacity:1;" d="M 67.179688 3.1875 C 67.179688 4.949219 65.769531 6.378906 64.03125 6.378906 C 62.292969 6.378906 60.882812 4.949219 60.882812 3.1875 C 60.882812 1.425781 62.292969 0 64.03125 0 C 65.769531 0 67.179688 1.425781 67.179688 3.1875 Z M 67.179688 3.1875 "/>
<path style=" stroke:none;fill-rule:nonzero;fill:rgb(100%,0%,0%);fill-opacity:1;" d="M 81.832031 3.484375 C 81.832031 5.246094 80.421875 6.675781 78.683594 6.675781 C 76.945312 6.675781 75.535156 5.246094 75.535156 3.484375 C 75.535156 1.722656 76.945312 0.296875 78.683594 0.296875 C 80.421875 0.296875 81.832031 1.722656 81.832031 3.484375 Z M 81.832031 3.484375 "/>
<path style=" stroke:none;fill-rule:nonzero;fill:rgb(100%,0%,0%);fill-opacity:1;" d="M 100 3.484375 C 100 5.246094 98.589844 6.675781 96.851562 6.675781 C 95.113281 6.675781 93.703125 5.246094 93.703125 3.484375 C 93.703125 1.722656 95.113281 0.296875 96.851562 0.296875 C 98.589844 0.296875 100 1.722656 100 3.484375 Z M 100 3.484375 "/>
<path style=" stroke:none;fill-rule:evenodd;fill:rgb(0%,76.862746%,0%);fill-opacity:1;" d="M 58.421875 60.441406 L 54.511719 59.480469 L 48.800781 57.347656 L 55.332031 61.464844 Z M 58.421875 60.441406 "/>
<path style=" stroke:none;fill-rule:evenodd;fill:rgb(0%,76.862746%,0%);fill-opacity:1;" d="M 58.175781 35.128906 L 54.265625 34.167969 L 48.554688 32.035156 L 55.085938 36.152344 Z M 58.175781 35.128906 "/>
<path style=" stroke:none;fill-rule:evenodd;fill:rgb(0%,76.862746%,0%);fill-opacity:1;" d="M 56.9375 14.460938 L 53.027344 13.503906 L 47.316406 11.367188 L 53.847656 15.488281 Z M 56.9375 14.460938 "/>
<path style=" stroke:none;fill-rule:evenodd;fill:rgb(0%,76.862746%,0%);fill-opacity:1;" d="M 50.496094 23.628906 L 54.40625 22.671875 L 60.117188 20.535156 L 53.585938 24.65625 Z M 50.496094 23.628906 "/>
<path style=" stroke:none;fill-rule:evenodd;fill:rgb(0%,76.862746%,0%);fill-opacity:1;" d="M 49.753906 47.871094 L 53.660156 46.910156 L 59.371094 44.777344 L 52.839844 48.894531 Z M 49.753906 47.871094 "/>
<path style=" stroke:none;fill-rule:evenodd;fill:rgb(0%,76.862746%,0%);fill-opacity:1;" d="M 49.339844 73.105469 L 53.25 72.144531 L 58.960938 70.011719 L 52.429688 74.128906 Z M 49.339844 73.105469 "/>
</g>
</svg>
