<?xml version="1.0" encoding="UTF-8"?>
<svg xmlns="http://www.w3.org/2000/svg" xmlns:xlink="http://www.w3.org/1999/xlink" width="100px" height="166px" viewBox="0 0 100 166" version="1.1">
<g id="surface1">
<path style="fill:none;stroke-width:1.707517;stroke-linecap:butt;stroke-linejoin:miter;stroke:rgb(0%,76.862746%,0%);stroke-opacity:1;stroke-miterlimit:4;" d="M 195.793005 276.033426 L 120.628663 202.534198 " transform="matrix(0.594531,0,0,0.547944,-66.315085,-1.68046)"/>
<path style=" stroke:none;fill-rule:evenodd;fill:rgb(0%,76.862746%,0%);fill-opacity:1;" d="M 20.183594 123.089844 L 25.203125 117.4375 L 29.195312 109.679688 L 25.746094 121.636719 Z M 20.183594 123.089844 "/>
<path style=" stroke:none;fill-rule:nonzero;fill:rgb(100%,0%,0%);fill-opacity:1;" d="M 23.9375 113.292969 C 25.605469 114.796875 25.496094 117.394531 23.6875 119.09375 C 21.882812 120.789062 19.066406 120.945312 17.402344 119.4375 C 15.734375 117.933594 15.847656 115.335938 17.652344 113.636719 C 19.457031 111.9375 22.273438 111.785156 23.9375 113.292969 Z M 23.9375 113.292969 "/>
<path style=" stroke:none;fill-rule:evenodd;fill:rgb(0%,76.862746%,0%);fill-opacity:1;" d="M 31.074219 132.9375 L 36.09375 127.285156 L 40.085938 119.527344 L 36.636719 131.480469 Z M 31.074219 132.9375 "/>
<path style=" stroke:none;fill-rule:nonzero;fill:rgb(100%,0%,0%);fill-opacity:1;" d="M 34.828125 123.136719 C 36.496094 124.644531 36.386719 127.242188 34.578125 128.9375 C 32.773438 130.636719 29.957031 130.789062 28.292969 129.285156 C 26.625 127.777344 26.738281 125.179688 28.542969 123.484375 C 30.347656 121.785156 33.164062 121.632812 34.828125 123.136719 Z M 34.828125 123.136719 "/>
<path style=" stroke:none;fill-rule:evenodd;fill:rgb(0%,76.862746%,0%);fill-opacity:1;" d="M 14.371094 117.824219 L 8.335938 122.558594 L 0 126.390625 L 12.902344 122.976562 Z M 14.371094 117.824219 "/>
<path style=" stroke:none;fill-rule:nonzero;fill:rgb(100%,0%,0%);fill-opacity:1;" d="M 3.8125 121.476562 C 5.480469 122.984375 8.296875 122.828125 10.101562 121.132812 C 11.90625 119.433594 12.019531 116.835938 10.351562 115.332031 C 8.6875 113.824219 5.871094 113.980469 4.066406 115.675781 C 2.257812 117.375 2.148438 119.972656 3.8125 121.476562 Z M 3.8125 121.476562 "/>
<path style=" stroke:none;fill-rule:evenodd;fill:rgb(0%,76.862746%,0%);fill-opacity:1;" d="M 25.132812 127.550781 L 19.097656 132.285156 L 10.761719 136.117188 L 23.664062 132.703125 Z M 25.132812 127.550781 "/>
<path style=" stroke:none;fill-rule:nonzero;fill:rgb(100%,0%,0%);fill-opacity:1;" d="M 14.578125 131.203125 C 16.242188 132.710938 19.058594 132.554688 20.863281 130.859375 C 22.671875 129.160156 22.78125 126.5625 21.113281 125.058594 C 19.449219 123.550781 16.632812 123.707031 14.828125 125.402344 C 13.023438 127.101562 12.910156 129.699219 14.578125 131.203125 Z M 14.578125 131.203125 "/>
<path style=" stroke:none;fill-rule:evenodd;fill:rgb(0%,76.862746%,0%);fill-opacity:1;" d="M 35.894531 137.277344 L 29.863281 142.011719 L 21.527344 145.84375 L 34.425781 142.429688 Z M 35.894531 137.277344 "/>
<path style=" stroke:none;fill-rule:nonzero;fill:rgb(100%,0%,0%);fill-opacity:1;" d="M 25.339844 140.929688 C 27.003906 142.4375 29.820312 142.285156 31.628906 140.585938 C 33.433594 138.886719 33.546875 136.289062 31.878906 134.785156 C 30.214844 133.277344 27.398438 133.433594 25.589844 135.128906 C 23.785156 136.828125 23.671875 139.425781 25.339844 140.929688 Z M 25.339844 140.929688 "/>
<path style="fill:none;stroke-width:1.707517;stroke-linecap:butt;stroke-linejoin:miter;stroke:rgb(0%,76.862746%,0%);stroke-opacity:1;stroke-miterlimit:4;" d="M 195.49077 239.754321 L 270.655112 166.255094 " transform="matrix(0.594531,0,0,0.547944,-66.315085,-1.68046)"/>
<path style=" stroke:none;fill-rule:evenodd;fill:rgb(0%,76.862746%,0%);fill-opacity:1;" d="M 79.953125 103.335938 L 74.9375 97.683594 L 70.941406 89.925781 L 74.394531 101.882812 Z M 79.953125 103.335938 "/>
<path style=" stroke:none;fill-rule:nonzero;fill:rgb(100%,0%,0%);fill-opacity:1;" d="M 76.199219 93.539062 C 74.53125 95.042969 74.644531 97.640625 76.449219 99.339844 C 78.257812 101.035156 81.070312 101.191406 82.738281 99.683594 C 84.40625 98.179688 84.292969 95.582031 82.484375 93.882812 C 80.679688 92.183594 77.863281 92.03125 76.199219 93.539062 Z M 76.199219 93.539062 "/>
<path style=" stroke:none;fill-rule:evenodd;fill:rgb(0%,76.862746%,0%);fill-opacity:1;" d="M 69.15625 112.96875 L 64.136719 107.316406 L 60.144531 99.5625 L 63.59375 111.515625 Z M 69.15625 112.96875 "/>
<path style=" stroke:none;fill-rule:nonzero;fill:rgb(100%,0%,0%);fill-opacity:1;" d="M 65.402344 103.171875 C 63.734375 104.675781 63.84375 107.273438 65.652344 108.972656 C 67.457031 110.671875 70.273438 110.824219 71.9375 109.316406 C 73.605469 107.8125 73.492188 105.214844 71.6875 103.515625 C 69.882812 101.820312 67.066406 101.664062 65.402344 103.171875 Z M 65.402344 103.171875 "/>
<path style=" stroke:none;fill-rule:evenodd;fill:rgb(0%,76.862746%,0%);fill-opacity:1;" d="M 85.628906 97.941406 L 91.664062 102.679688 L 100 106.507812 L 87.097656 103.097656 Z M 85.628906 97.941406 "/>
<path style=" stroke:none;fill-rule:nonzero;fill:rgb(100%,0%,0%);fill-opacity:1;" d="M 96.1875 101.59375 C 94.519531 103.101562 91.703125 102.949219 89.898438 101.25 C 88.09375 99.554688 87.980469 96.957031 89.648438 95.449219 C 91.3125 93.945312 94.128906 94.097656 95.933594 95.796875 C 97.742188 97.492188 97.851562 100.089844 96.1875 101.59375 Z M 96.1875 101.59375 "/>
<path style=" stroke:none;fill-rule:evenodd;fill:rgb(0%,76.862746%,0%);fill-opacity:1;" d="M 74.867188 107.667969 L 80.902344 112.40625 L 89.238281 116.238281 L 76.335938 112.824219 Z M 74.867188 107.667969 "/>
<path style=" stroke:none;fill-rule:nonzero;fill:rgb(100%,0%,0%);fill-opacity:1;" d="M 85.421875 111.324219 C 83.757812 112.828125 80.941406 112.675781 79.136719 110.976562 C 77.328125 109.28125 77.21875 106.683594 78.886719 105.175781 C 80.550781 103.671875 83.367188 103.824219 85.171875 105.523438 C 86.976562 107.21875 87.089844 109.816406 85.421875 111.324219 Z M 85.421875 111.324219 "/>
<path style=" stroke:none;fill-rule:evenodd;fill:rgb(0%,76.862746%,0%);fill-opacity:1;" d="M 64.105469 117.398438 L 70.136719 122.132812 L 78.472656 125.964844 L 65.574219 122.550781 Z M 64.105469 117.398438 "/>
<path style=" stroke:none;fill-rule:nonzero;fill:rgb(100%,0%,0%);fill-opacity:1;" d="M 74.660156 121.050781 C 72.996094 122.554688 70.179688 122.402344 68.371094 120.703125 C 66.566406 119.007812 66.453125 116.410156 68.121094 114.90625 C 69.789062 113.398438 72.601562 113.550781 74.410156 115.25 C 76.214844 116.945312 76.328125 119.542969 74.660156 121.050781 Z M 74.660156 121.050781 "/>
<path style="fill:none;stroke-width:1.707518;stroke-linecap:butt;stroke-linejoin:miter;stroke:rgb(0%,76.862746%,0%);stroke-opacity:1;stroke-miterlimit:4;" d="M 195.589325 207.609994 L 139.216068 152.489137 " transform="matrix(0.594531,0,0,0.547944,-66.315085,-1.68046)"/>
<path style=" stroke:none;fill-rule:evenodd;fill:rgb(0%,76.862746%,0%);fill-opacity:1;" d="M 25.695312 90.886719 L 30.714844 85.234375 L 34.707031 77.476562 L 31.257812 89.429688 Z M 25.695312 90.886719 "/>
<path style=" stroke:none;fill-rule:nonzero;fill:rgb(100%,0%,0%);fill-opacity:1;" d="M 29.453125 81.085938 C 31.121094 82.59375 31.007812 85.191406 29.199219 86.886719 C 27.394531 88.585938 24.578125 88.738281 22.914062 87.234375 C 21.246094 85.726562 21.359375 83.128906 23.164062 81.433594 C 24.972656 79.734375 27.785156 79.582031 29.453125 81.085938 Z M 29.453125 81.085938 "/>
<path style=" stroke:none;fill-rule:evenodd;fill:rgb(0%,76.862746%,0%);fill-opacity:1;" d="M 36.355469 100.308594 L 41.375 94.65625 L 45.367188 86.898438 L 41.917969 98.851562 Z M 36.355469 100.308594 "/>
<path style=" stroke:none;fill-rule:nonzero;fill:rgb(100%,0%,0%);fill-opacity:1;" d="M 40.113281 90.507812 C 41.78125 92.015625 41.667969 94.613281 39.859375 96.308594 C 38.054688 98.007812 35.238281 98.160156 33.574219 96.65625 C 31.90625 95.148438 32.019531 92.550781 33.824219 90.855469 C 35.632812 89.15625 38.445312 89.003906 40.113281 90.507812 Z M 40.113281 90.507812 "/>
<path style=" stroke:none;fill-rule:evenodd;fill:rgb(0%,76.862746%,0%);fill-opacity:1;" d="M 30.597656 95.09375 L 24.566406 99.828125 L 16.230469 103.660156 L 29.128906 100.246094 Z M 30.597656 95.09375 "/>
<path style=" stroke:none;fill-rule:nonzero;fill:rgb(100%,0%,0%);fill-opacity:1;" d="M 20.042969 98.746094 C 21.710938 100.253906 24.523438 100.097656 26.332031 98.398438 C 28.136719 96.703125 28.25 94.105469 26.582031 92.601562 C 24.917969 91.09375 22.101562 91.246094 20.296875 92.945312 C 18.488281 94.644531 18.375 97.238281 20.042969 98.746094 Z M 20.042969 98.746094 "/>
<path style=" stroke:none;fill-rule:evenodd;fill:rgb(0%,76.862746%,0%);fill-opacity:1;" d="M 41.363281 104.820312 L 35.328125 109.554688 L 26.992188 113.386719 L 39.894531 109.972656 Z M 41.363281 104.820312 "/>
<path style=" stroke:none;fill-rule:nonzero;fill:rgb(100%,0%,0%);fill-opacity:1;" d="M 30.808594 108.472656 C 32.472656 109.980469 35.289062 109.824219 37.09375 108.125 C 38.898438 106.429688 39.011719 103.832031 37.34375 102.328125 C 35.679688 100.820312 32.863281 100.972656 31.058594 102.671875 C 29.25 104.371094 29.140625 106.96875 30.808594 108.472656 Z M 30.808594 108.472656 "/>
<path style="fill:none;stroke-width:1.707518;stroke-linecap:butt;stroke-linejoin:miter;stroke:rgb(0%,76.862746%,0%);stroke-opacity:1;stroke-miterlimit:4;" d="M 195.563044 169.741138 L 251.9363 114.620282 " transform="matrix(0.594531,0,0,0.547944,-66.315085,-1.68046)"/>
<path style=" stroke:none;fill-rule:evenodd;fill:rgb(0%,76.862746%,0%);fill-opacity:1;" d="M 74.089844 70.222656 L 69.070312 64.570312 L 65.078125 56.8125 L 68.527344 68.765625 Z M 74.089844 70.222656 "/>
<path style=" stroke:none;fill-rule:nonzero;fill:rgb(100%,0%,0%);fill-opacity:1;" d="M 70.332031 60.421875 C 68.664062 61.929688 68.777344 64.527344 70.582031 66.222656 C 72.390625 67.921875 75.207031 68.074219 76.871094 66.570312 C 78.539062 65.0625 78.425781 62.464844 76.621094 60.769531 C 74.8125 59.070312 71.996094 58.917969 70.332031 60.421875 Z M 70.332031 60.421875 "/>
<path style=" stroke:none;fill-rule:evenodd;fill:rgb(0%,76.862746%,0%);fill-opacity:1;" d="M 63.519531 79.6875 L 58.5 74.035156 L 54.507812 66.277344 L 57.957031 78.230469 Z M 63.519531 79.6875 "/>
<path style=" stroke:none;fill-rule:nonzero;fill:rgb(100%,0%,0%);fill-opacity:1;" d="M 59.765625 69.886719 C 58.097656 71.394531 58.207031 73.992188 60.015625 75.6875 C 61.820312 77.386719 64.636719 77.539062 66.300781 76.03125 C 67.96875 74.527344 67.855469 71.929688 66.050781 70.234375 C 64.246094 68.535156 61.429688 68.382812 59.765625 69.886719 Z M 59.765625 69.886719 "/>
<path style=" stroke:none;fill-rule:evenodd;fill:rgb(0%,76.862746%,0%);fill-opacity:1;" d="M 69.324219 74.34375 L 75.355469 79.078125 L 83.691406 82.910156 L 70.792969 79.496094 Z M 69.324219 74.34375 "/>
<path style=" stroke:none;fill-rule:nonzero;fill:rgb(100%,0%,0%);fill-opacity:1;" d="M 79.878906 77.996094 C 78.214844 79.503906 75.398438 79.347656 73.589844 77.652344 C 71.785156 75.953125 71.671875 73.355469 73.339844 71.851562 C 75.003906 70.34375 77.820312 70.5 79.628906 72.195312 C 81.433594 73.894531 81.546875 76.492188 79.878906 77.996094 Z M 79.878906 77.996094 "/>
<path style=" stroke:none;fill-rule:evenodd;fill:rgb(0%,76.862746%,0%);fill-opacity:1;" d="M 58.558594 84.070312 L 64.59375 88.804688 L 72.929688 92.636719 L 60.027344 89.222656 Z M 58.558594 84.070312 "/>
<path style=" stroke:none;fill-rule:nonzero;fill:rgb(100%,0%,0%);fill-opacity:1;" d="M 69.117188 87.722656 C 67.449219 89.230469 64.636719 89.074219 62.828125 87.378906 C 61.023438 85.679688 60.910156 83.082031 62.578125 81.578125 C 64.242188 80.070312 67.058594 80.226562 68.863281 81.921875 C 70.671875 83.621094 70.78125 86.21875 69.117188 87.722656 Z M 69.117188 87.722656 "/>
<path style="fill:none;stroke-width:1.707518;stroke-linecap:butt;stroke-linejoin:miter;stroke:rgb(0%,76.862746%,0%);stroke-opacity:1;stroke-miterlimit:4;" d="M 195.70102 108.52505 L 245.024334 60.290737 " transform="matrix(0.594531,0,0,0.547944,-66.315085,-1.68046)"/>
<path style=" stroke:none;fill-rule:evenodd;fill:rgb(0%,76.862746%,0%);fill-opacity:1;" d="M 63.648438 46.183594 L 58.628906 40.53125 L 54.636719 32.773438 L 58.085938 44.730469 Z M 63.648438 46.183594 "/>
<path style=" stroke:none;fill-rule:nonzero;fill:rgb(100%,0%,0%);fill-opacity:1;" d="M 59.890625 36.386719 C 58.222656 37.890625 58.335938 40.488281 60.140625 42.183594 C 61.949219 43.882812 64.765625 44.039062 66.429688 42.53125 C 68.097656 41.027344 67.984375 38.429688 66.179688 36.730469 C 64.371094 35.03125 61.554688 34.878906 59.890625 36.386719 Z M 59.890625 36.386719 "/>
<path style=" stroke:none;fill-rule:evenodd;fill:rgb(0%,76.862746%,0%);fill-opacity:1;" d="M 69.402344 40.796875 L 75.4375 45.535156 L 83.773438 49.363281 L 70.871094 45.953125 Z M 69.402344 40.796875 "/>
<path style=" stroke:none;fill-rule:nonzero;fill:rgb(100%,0%,0%);fill-opacity:1;" d="M 79.960938 44.449219 C 78.292969 45.957031 75.480469 45.804688 73.671875 44.105469 C 71.867188 42.40625 71.753906 39.8125 73.421875 38.304688 C 75.085938 36.796875 77.902344 36.953125 79.707031 38.652344 C 81.515625 40.347656 81.625 42.945312 79.960938 44.449219 Z M 79.960938 44.449219 "/>
<path style=" stroke:none;fill-rule:evenodd;fill:rgb(0%,76.862746%,0%);fill-opacity:1;" d="M 58.640625 50.523438 L 64.675781 55.261719 L 73.011719 59.089844 L 60.109375 55.679688 Z M 58.640625 50.523438 "/>
<path style=" stroke:none;fill-rule:nonzero;fill:rgb(100%,0%,0%);fill-opacity:1;" d="M 69.195312 54.175781 C 67.53125 55.683594 64.714844 55.53125 62.910156 53.832031 C 61.101562 52.136719 60.992188 49.539062 62.660156 48.03125 C 64.324219 46.527344 67.140625 46.679688 68.945312 48.378906 C 70.75 50.074219 70.863281 52.671875 69.195312 54.175781 Z M 69.195312 54.175781 "/>
<path style="fill:none;stroke-width:1.707518;stroke-linecap:butt;stroke-linejoin:miter;stroke:rgb(0%,76.862746%,0%);stroke-opacity:1;stroke-miterlimit:4;" d="M 195.799575 139.92797 L 146.476261 91.693656 " transform="matrix(0.594531,0,0,0.547944,-66.315085,-1.68046)"/>
<path style=" stroke:none;fill-rule:evenodd;fill:rgb(0%,76.862746%,0%);fill-opacity:1;" d="M 36.433594 63.261719 L 41.453125 57.609375 L 45.445312 49.851562 L 41.996094 61.808594 Z M 36.433594 63.261719 "/>
<path style=" stroke:none;fill-rule:nonzero;fill:rgb(100%,0%,0%);fill-opacity:1;" d="M 40.191406 53.464844 C 41.859375 54.96875 41.746094 57.566406 39.941406 59.265625 C 38.132812 60.960938 35.316406 61.117188 33.652344 59.609375 C 31.984375 58.105469 32.097656 55.507812 33.902344 53.808594 C 35.710938 52.113281 38.527344 51.957031 40.191406 53.464844 Z M 40.191406 53.464844 "/>
<path style=" stroke:none;fill-rule:evenodd;fill:rgb(0%,76.862746%,0%);fill-opacity:1;" d="M 30.722656 58.003906 L 24.691406 62.738281 L 16.355469 66.570312 L 29.253906 63.15625 Z M 30.722656 58.003906 "/>
<path style=" stroke:none;fill-rule:nonzero;fill:rgb(100%,0%,0%);fill-opacity:1;" d="M 20.167969 61.65625 C 21.832031 63.164062 24.648438 63.011719 26.457031 61.3125 C 28.261719 59.613281 28.375 57.015625 26.707031 55.511719 C 25.042969 54.003906 22.226562 54.160156 20.417969 55.855469 C 18.613281 57.554688 18.5 60.152344 20.167969 61.65625 Z M 20.167969 61.65625 "/>
<path style=" stroke:none;fill-rule:evenodd;fill:rgb(0%,76.862746%,0%);fill-opacity:1;" d="M 41.488281 67.730469 L 35.453125 72.46875 L 27.117188 76.296875 L 40.019531 72.882812 Z M 41.488281 67.730469 "/>
<path style=" stroke:none;fill-rule:nonzero;fill:rgb(100%,0%,0%);fill-opacity:1;" d="M 30.933594 71.382812 C 32.597656 72.890625 35.414062 72.738281 37.21875 71.039062 C 39.023438 69.339844 39.136719 66.742188 37.46875 65.238281 C 35.804688 63.730469 32.988281 63.886719 31.183594 65.585938 C 29.375 67.28125 29.265625 69.878906 30.933594 71.382812 Z M 30.933594 71.382812 "/>
<path style="fill:none;stroke-width:1.707518;stroke-linecap:butt;stroke-linejoin:miter;stroke:rgb(0%,76.862746%,0%);stroke-opacity:1;stroke-miterlimit:4;" d="M 196.174082 49.362093 L 233.171496 13.189922 " transform="matrix(0.594531,0,0,0.547944,-66.315085,-1.68046)"/>
<path style=" stroke:none;fill-rule:evenodd;fill:rgb(0%,76.862746%,0%);fill-opacity:1;" d="M 60.402344 16.941406 L 55.382812 11.289062 L 51.390625 3.535156 L 54.839844 15.488281 Z M 60.402344 16.941406 "/>
<path style=" stroke:none;fill-rule:nonzero;fill:rgb(100%,0%,0%);fill-opacity:1;" d="M 56.648438 7.144531 C 54.980469 8.648438 55.09375 11.246094 56.898438 12.945312 C 58.703125 14.644531 61.519531 14.796875 63.183594 13.289062 C 64.851562 11.785156 64.742188 9.1875 62.933594 7.488281 C 61.128906 5.792969 58.3125 5.636719 56.648438 7.144531 Z M 56.648438 7.144531 "/>
<path style=" stroke:none;fill-rule:evenodd;fill:rgb(0%,76.862746%,0%);fill-opacity:1;" d="M 66.023438 11.683594 L 72.054688 16.421875 L 80.390625 20.25 L 67.492188 16.839844 Z M 66.023438 11.683594 "/>
<path style=" stroke:none;fill-rule:nonzero;fill:rgb(100%,0%,0%);fill-opacity:1;" d="M 76.578125 15.335938 C 74.910156 16.84375 72.097656 16.691406 70.289062 14.992188 C 68.484375 13.296875 68.371094 10.699219 70.039062 9.191406 C 71.703125 7.683594 74.519531 7.839844 76.324219 9.539062 C 78.132812 11.234375 78.246094 13.832031 76.578125 15.335938 Z M 76.578125 15.335938 "/>
<path style="fill:none;stroke-width:1.707518;stroke-linecap:butt;stroke-linejoin:miter;stroke:rgb(0%,76.862746%,0%);stroke-opacity:1;stroke-miterlimit:4;" d="M 195.858708 76.544688 L 158.867865 40.365388 " transform="matrix(0.594531,0,0,0.547944,-66.315085,-1.68046)"/>
<path style=" stroke:none;fill-rule:evenodd;fill:rgb(0%,76.862746%,0%);fill-opacity:1;" d="M 40.042969 31.878906 L 45.0625 26.226562 L 49.054688 18.46875 L 45.605469 30.421875 Z M 40.042969 31.878906 "/>
<path style=" stroke:none;fill-rule:nonzero;fill:rgb(100%,0%,0%);fill-opacity:1;" d="M 43.800781 22.082031 C 45.46875 23.585938 45.355469 26.183594 43.550781 27.878906 C 41.742188 29.578125 38.925781 29.734375 37.261719 28.226562 C 35.59375 26.71875 35.707031 24.125 37.511719 22.425781 C 39.320312 20.726562 42.132812 20.574219 43.800781 22.082031 Z M 43.800781 22.082031 "/>
<path style=" stroke:none;fill-rule:evenodd;fill:rgb(0%,76.862746%,0%);fill-opacity:1;" d="M 34.425781 26.578125 L 28.390625 31.3125 L 20.054688 35.144531 L 32.957031 31.730469 Z M 34.425781 26.578125 "/>
<path style=" stroke:none;fill-rule:nonzero;fill:rgb(100%,0%,0%);fill-opacity:1;" d="M 23.871094 30.230469 C 25.535156 31.738281 28.351562 31.582031 30.15625 29.886719 C 31.964844 28.1875 32.074219 25.589844 30.40625 24.085938 C 28.742188 22.578125 25.925781 22.734375 24.121094 24.429688 C 22.316406 26.128906 22.203125 28.726562 23.871094 30.230469 Z M 23.871094 30.230469 "/>
<path style="fill:none;stroke-width:1.71;stroke-linecap:butt;stroke-linejoin:miter;stroke:rgb(0%,76.862746%,0%);stroke-opacity:1;stroke-miterlimit:4;" d="M 195.411927 305.126573 L 195.944122 3.957963 " transform="matrix(0.594531,0,0,0.547944,-66.315085,-1.68046)"/>
</g>
</svg>
