<?xml version="1.0" encoding="UTF-8"?>
<svg xmlns="http://www.w3.org/2000/svg" xmlns:xlink="http://www.w3.org/1999/xlink" width="100px" height="80px" viewBox="0 0 100 80" version="1.1">
<g id="surface1">
<path style=" stroke:none;fill-rule:evenodd;fill:rgb(0%,76.862746%,0%);fill-opacity:1;" d="M 49.871094 53.128906 L 51.871094 53.3125 L 55.015625 53.402344 L 51.050781 54.609375 Z M 49.871094 53.128906 "/>
<path style=" stroke:none;fill-rule:evenodd;fill:rgb(0%,76.862746%,0%);fill-opacity:1;" d="M 50.183594 53.140625 L 48.179688 53.328125 L 45.035156 53.414062 L 49 54.625 Z M 50.183594 53.140625 "/>
<path style="fill:none;stroke-width:1.649281;stroke-linecap:butt;stroke-linejoin:miter;stroke:rgb(0%,76.862746%,0%);stroke-opacity:1;stroke-miterlimit:4;" d="M 250.15625 265.3125 L 59.511719 217.402344 " transform="matrix(0.2,0,0,0.2,0,0)"/>
<path style="fill:none;stroke-width:1.649281;stroke-linecap:butt;stroke-linejoin:miter;stroke:rgb(0%,76.862746%,0%);stroke-opacity:1;stroke-miterlimit:4;" d="M 60.214844 217.363281 L 46.777344 178.027344 " transform="matrix(0.2,0,0,0.2,0,0)"/>
<path style=" stroke:none;fill-rule:nonzero;fill:rgb(100%,0%,0%);fill-opacity:1;" d="M 10.738281 33.5625 C 10.738281 34.878906 9.738281 35.945312 8.503906 35.945312 C 7.269531 35.945312 6.269531 34.878906 6.269531 33.5625 C 6.269531 32.242188 7.269531 31.175781 8.503906 31.175781 C 9.738281 31.175781 10.738281 32.242188 10.738281 33.5625 Z M 10.738281 33.5625 "/>
<path style="fill:none;stroke-width:1.649281;stroke-linecap:butt;stroke-linejoin:miter;stroke:rgb(0%,76.862746%,0%);stroke-opacity:1;stroke-miterlimit:4;" d="M 60.488281 217.929688 L 28.105469 194.257812 " transform="matrix(0.2,0,0,0.2,0,0)"/>
<path style=" stroke:none;fill-rule:nonzero;fill:rgb(100%,0%,0%);fill-opacity:1;" d="M 5.636719 36.328125 C 6.351562 37.402344 6.121094 38.890625 5.117188 39.65625 C 4.113281 40.421875 2.714844 40.175781 1.996094 39.101562 C 1.28125 38.03125 1.511719 36.542969 2.515625 35.777344 C 3.519531 35.011719 4.917969 35.257812 5.636719 36.328125 Z M 5.636719 36.328125 "/>
<path style="fill:none;stroke-width:1.649282;stroke-linecap:butt;stroke-linejoin:miter;stroke:rgb(0%,76.862746%,0%);stroke-opacity:1;stroke-miterlimit:4;" d="M 60.019531 217.167969 L 33.125 247.675781 " transform="matrix(0.2,0,0,0.2,0,0)"/>
<path style=" stroke:none;fill-rule:nonzero;fill:rgb(100%,0%,0%);fill-opacity:1;" d="M 7.140625 51.996094 C 7.628906 50.785156 7.101562 49.382812 5.96875 48.863281 C 4.832031 48.34375 3.519531 48.902344 3.03125 50.113281 C 2.546875 51.324219 3.070312 52.726562 4.203125 53.246094 C 5.339844 53.765625 6.652344 53.207031 7.140625 51.996094 Z M 7.140625 51.996094 "/>
<path style="fill:none;stroke-width:1.649283;stroke-linecap:butt;stroke-linejoin:miter;stroke:rgb(0%,76.862746%,0%);stroke-opacity:1;stroke-miterlimit:4;" d="M 60.488281 216.953125 L 21.621094 222.910156 " transform="matrix(0.2,0,0,0.2,0,0)"/>
<path style=" stroke:none;fill-rule:nonzero;fill:rgb(100%,0%,0%);fill-opacity:1;" d="M 3.292969 46.847656 C 4.378906 46.226562 4.789062 44.78125 4.207031 43.621094 C 3.625 42.457031 2.269531 42.019531 1.179688 42.644531 C 0.09375 43.265625 -0.316406 44.710938 0.265625 45.871094 C 0.847656 47.03125 2.203125 47.46875 3.292969 46.847656 Z M 3.292969 46.847656 "/>
<path style=" stroke:none;fill-rule:evenodd;fill:rgb(0%,76.862746%,0%);fill-opacity:1;" d="M 11.929688 43.757812 L 12.464844 41.691406 L 13.125 38.410156 L 13.511719 42.789062 Z M 11.929688 43.757812 "/>
<path style=" stroke:none;fill-rule:evenodd;fill:rgb(0%,76.862746%,0%);fill-opacity:1;" d="M 12.074219 43.175781 L 11.875 45.308594 L 11.378906 48.621094 L 13.222656 44.6875 Z M 12.074219 43.175781 "/>
<path style="fill:none;stroke-width:1.64928;stroke-linecap:butt;stroke-linejoin:miter;stroke:rgb(0%,76.862746%,0%);stroke-opacity:1;stroke-miterlimit:4;" d="M 250.546875 265.351562 L 105.507812 124.921875 " transform="matrix(0.2,0,0,0.2,0,0)"/>
<path style="fill:none;stroke-width:1.64928;stroke-linecap:butt;stroke-linejoin:miter;stroke:rgb(0%,76.862746%,0%);stroke-opacity:1;stroke-miterlimit:4;" d="M 106.132812 125.253906 L 112.265625 83.886719 " transform="matrix(0.2,0,0,0.2,0,0)"/>
<path style=" stroke:none;fill-rule:nonzero;fill:rgb(100%,0%,0%);fill-opacity:1;" d="M 24.589844 15.707031 C 23.992188 16.859375 22.632812 17.273438 21.550781 16.636719 C 20.472656 16 20.078125 14.546875 20.679688 13.394531 C 21.277344 12.242188 22.636719 11.828125 23.71875 12.464844 C 24.796875 13.101562 25.1875 14.554688 24.589844 15.707031 Z M 24.589844 15.707031 "/>
<path style="fill:none;stroke-width:1.64928;stroke-linecap:butt;stroke-linejoin:miter;stroke:rgb(0%,76.862746%,0%);stroke-opacity:1;stroke-miterlimit:4;" d="M 106.132812 125.878906 L 88.554688 88.4375 " transform="matrix(0.2,0,0,0.2,0,0)"/>
<path style=" stroke:none;fill-rule:nonzero;fill:rgb(100%,0%,0%);fill-opacity:1;" d="M 18.867188 15.488281 C 19.007812 16.796875 18.128906 17.980469 16.902344 18.132812 C 15.675781 18.285156 14.566406 17.34375 14.425781 16.035156 C 14.28125 14.726562 15.164062 13.546875 16.390625 13.394531 C 17.617188 13.242188 18.726562 14.179688 18.867188 15.488281 Z M 18.867188 15.488281 "/>
<path style="fill:none;stroke-width:1.64928;stroke-linecap:butt;stroke-linejoin:miter;stroke:rgb(0%,76.862746%,0%);stroke-opacity:1;stroke-miterlimit:4;" d="M 106.054688 124.980469 L 68.671875 137.773438 " transform="matrix(0.2,0,0,0.2,0,0)"/>
<path style=" stroke:none;fill-rule:nonzero;fill:rgb(100%,0%,0%);fill-opacity:1;" d="M 13.070312 29.972656 C 14.042969 29.167969 14.222656 27.667969 13.464844 26.628906 C 12.710938 25.585938 11.304688 25.398438 10.328125 26.203125 C 9.351562 27.011719 9.175781 28.507812 9.933594 29.550781 C 10.6875 30.589844 12.09375 30.78125 13.070312 29.972656 Z M 13.070312 29.972656 "/>
<path style="fill:none;stroke-width:1.649282;stroke-linecap:butt;stroke-linejoin:miter;stroke:rgb(0%,76.862746%,0%);stroke-opacity:1;stroke-miterlimit:4;" d="M 106.5625 125.039062 L 69.863281 110.15625 " transform="matrix(0.2,0,0,0.2,0,0)"/>
<path style=" stroke:none;fill-rule:nonzero;fill:rgb(100%,0%,0%);fill-opacity:1;" d="M 12.039062 23.480469 C 13.273438 23.5 14.289062 22.445312 14.304688 21.128906 C 14.324219 19.8125 13.335938 18.730469 12.101562 18.710938 C 10.867188 18.691406 9.851562 19.746094 9.835938 21.0625 C 9.816406 22.378906 10.804688 23.460938 12.039062 23.480469 Z M 12.039062 23.480469 "/>
<path style=" stroke:none;fill-rule:evenodd;fill:rgb(0%,76.862746%,0%);fill-opacity:1;" d="M 21 25.238281 L 22.40625 23.710938 L 24.472656 21.179688 L 22.824219 25.210938 Z M 21 25.238281 "/>
<path style=" stroke:none;fill-rule:evenodd;fill:rgb(0%,76.862746%,0%);fill-opacity:1;" d="M 21.390625 24.804688 L 20.25 26.570312 L 18.308594 29.210938 L 21.707031 26.722656 Z M 21.390625 24.804688 "/>
<path style="fill:none;stroke-width:1.649281;stroke-linecap:butt;stroke-linejoin:miter;stroke:rgb(0%,76.862746%,0%);stroke-opacity:1;stroke-miterlimit:4;" d="M 250.3125 265.078125 L 198.339844 63.613281 " transform="matrix(0.2,0,0,0.2,0,0)"/>
<path style="fill:none;stroke-width:1.649281;stroke-linecap:butt;stroke-linejoin:miter;stroke:rgb(0%,76.862746%,0%);stroke-opacity:1;stroke-miterlimit:4;" d="M 198.710938 64.257812 L 224.648438 32.8125 " transform="matrix(0.2,0,0,0.2,0,0)"/>
<path style=" stroke:none;fill-rule:nonzero;fill:rgb(100%,0%,0%);fill-opacity:1;" d="M 47.273438 6.882812 C 46.191406 7.511719 44.832031 7.085938 44.238281 5.929688 C 43.648438 4.773438 44.046875 3.324219 45.128906 2.695312 C 46.214844 2.0625 47.570312 2.488281 48.164062 3.644531 C 48.753906 4.800781 48.355469 6.25 47.273438 6.882812 Z M 47.273438 6.882812 "/>
<path style="fill:none;stroke-width:1.649282;stroke-linecap:butt;stroke-linejoin:miter;stroke:rgb(0%,76.862746%,0%);stroke-opacity:1;stroke-miterlimit:4;" d="M 198.378906 64.785156 L 202.34375 23.125 " transform="matrix(0.2,0,0,0.2,0,0)"/>
<path style=" stroke:none;fill-rule:nonzero;fill:rgb(100%,0%,0%);fill-opacity:1;" d="M 42.550781 3.429688 C 42.011719 4.613281 40.675781 5.109375 39.5625 4.539062 C 38.453125 3.964844 37.984375 2.539062 38.523438 1.351562 C 39.0625 0.167969 40.398438 -0.332031 41.507812 0.242188 C 42.621094 0.816406 43.085938 2.242188 42.550781 3.429688 Z M 42.550781 3.429688 "/>
<path style="fill:none;stroke-width:1.649282;stroke-linecap:butt;stroke-linejoin:miter;stroke:rgb(0%,76.862746%,0%);stroke-opacity:1;stroke-miterlimit:4;" d="M 198.769531 63.984375 L 160.78125 53.417969 " transform="matrix(0.2,0,0,0.2,0,0)"/>
<path style=" stroke:none;fill-rule:nonzero;fill:rgb(100%,0%,0%);fill-opacity:1;" d="M 30.382812 12.347656 C 31.609375 12.222656 32.511719 11.058594 32.394531 9.746094 C 32.28125 8.4375 31.1875 7.472656 29.960938 7.597656 C 28.730469 7.722656 27.828125 8.886719 27.945312 10.195312 C 28.0625 11.507812 29.152344 12.46875 30.382812 12.347656 Z M 30.382812 12.347656 "/>
<path style="fill:none;stroke-width:1.649283;stroke-linecap:butt;stroke-linejoin:miter;stroke:rgb(0%,76.862746%,0%);stroke-opacity:1;stroke-miterlimit:4;" d="M 199.179688 64.316406 L 175.664062 30.78125 " transform="matrix(0.2,0,0,0.2,0,0)"/>
<path style=" stroke:none;fill-rule:nonzero;fill:rgb(100%,0%,0%);fill-opacity:1;" d="M 32.773438 6.273438 C 33.804688 6.996094 35.191406 6.6875 35.867188 5.585938 C 36.542969 4.480469 36.253906 3.003906 35.21875 2.28125 C 34.1875 1.5625 32.800781 1.871094 32.125 2.972656 C 31.449219 4.074219 31.738281 5.554688 32.773438 6.273438 Z M 32.773438 6.273438 "/>
<path style=" stroke:none;fill-rule:evenodd;fill:rgb(0%,76.862746%,0%);fill-opacity:1;" d="M 39.453125 12.878906 L 41.410156 12.394531 L 44.425781 11.4375 L 41.007812 13.898438 Z M 39.453125 12.878906 "/>
<path style=" stroke:none;fill-rule:evenodd;fill:rgb(0%,76.862746%,0%);fill-opacity:1;" d="M 40.003906 12.738281 L 38.152344 13.574219 L 35.1875 14.695312 L 39.308594 14.539062 Z M 40.003906 12.738281 "/>
<path style="fill:none;stroke-width:1.649281;stroke-linecap:butt;stroke-linejoin:miter;stroke:rgb(0%,76.862746%,0%);stroke-opacity:1;stroke-miterlimit:4;" d="M 249.84375 265.273438 L 440.488281 217.382812 " transform="matrix(0.2,0,0,0.2,0,0)"/>
<path style="fill:none;stroke-width:1.649281;stroke-linecap:butt;stroke-linejoin:miter;stroke:rgb(0%,76.862746%,0%);stroke-opacity:1;stroke-miterlimit:4;" d="M 439.785156 217.34375 L 453.222656 177.988281 " transform="matrix(0.2,0,0,0.2,0,0)"/>
<path style=" stroke:none;fill-rule:nonzero;fill:rgb(100%,0%,0%);fill-opacity:1;" d="M 89.261719 33.554688 C 89.261719 34.875 90.261719 35.941406 91.496094 35.941406 C 92.730469 35.941406 93.730469 34.875 93.730469 33.554688 C 93.730469 32.238281 92.730469 31.171875 91.496094 31.171875 C 90.261719 31.171875 89.261719 32.238281 89.261719 33.554688 Z M 89.261719 33.554688 "/>
<path style="fill:none;stroke-width:1.649281;stroke-linecap:butt;stroke-linejoin:miter;stroke:rgb(0%,76.862746%,0%);stroke-opacity:1;stroke-miterlimit:4;" d="M 439.511719 217.910156 L 471.894531 194.21875 " transform="matrix(0.2,0,0,0.2,0,0)"/>
<path style=" stroke:none;fill-rule:nonzero;fill:rgb(100%,0%,0%);fill-opacity:1;" d="M 94.363281 36.324219 C 93.648438 37.394531 93.878906 38.886719 94.882812 39.652344 C 95.886719 40.417969 97.285156 40.171875 98.003906 39.097656 C 98.71875 38.027344 98.488281 36.539062 97.484375 35.769531 C 96.480469 35.003906 95.082031 35.253906 94.363281 36.324219 Z M 94.363281 36.324219 "/>
<path style="fill:none;stroke-width:1.649282;stroke-linecap:butt;stroke-linejoin:miter;stroke:rgb(0%,76.862746%,0%);stroke-opacity:1;stroke-miterlimit:4;" d="M 439.980469 217.148438 L 466.875 247.65625 " transform="matrix(0.2,0,0,0.2,0,0)"/>
<path style=" stroke:none;fill-rule:nonzero;fill:rgb(100%,0%,0%);fill-opacity:1;" d="M 92.859375 51.992188 C 92.371094 50.78125 92.898438 49.378906 94.03125 48.859375 C 95.167969 48.339844 96.480469 48.898438 96.96875 50.109375 C 97.453125 51.320312 96.929688 52.722656 95.796875 53.242188 C 94.660156 53.761719 93.347656 53.203125 92.859375 51.992188 Z M 92.859375 51.992188 "/>
<path style="fill:none;stroke-width:1.649283;stroke-linecap:butt;stroke-linejoin:miter;stroke:rgb(0%,76.862746%,0%);stroke-opacity:1;stroke-miterlimit:4;" d="M 439.511719 216.933594 L 478.378906 222.890625 " transform="matrix(0.2,0,0,0.2,0,0)"/>
<path style=" stroke:none;fill-rule:nonzero;fill:rgb(100%,0%,0%);fill-opacity:1;" d="M 96.707031 46.84375 C 95.621094 46.21875 95.210938 44.773438 95.792969 43.613281 C 96.375 42.453125 97.730469 42.015625 98.820312 42.636719 C 99.910156 43.257812 100.316406 44.703125 99.734375 45.867188 C 99.152344 47.027344 97.796875 47.464844 96.707031 46.84375 Z M 96.707031 46.84375 "/>
<path style=" stroke:none;fill-rule:evenodd;fill:rgb(0%,76.862746%,0%);fill-opacity:1;" d="M 88.070312 43.753906 L 87.535156 41.6875 L 86.875 38.40625 L 86.488281 42.785156 Z M 88.070312 43.753906 "/>
<path style=" stroke:none;fill-rule:evenodd;fill:rgb(0%,76.862746%,0%);fill-opacity:1;" d="M 87.925781 43.167969 L 88.125 45.304688 L 88.621094 48.617188 L 86.777344 44.683594 Z M 87.925781 43.167969 "/>
<path style="fill:none;stroke-width:1.64928;stroke-linecap:butt;stroke-linejoin:miter;stroke:rgb(0%,76.862746%,0%);stroke-opacity:1;stroke-miterlimit:4;" d="M 249.453125 265.332031 L 394.492188 124.902344 " transform="matrix(0.2,0,0,0.2,0,0)"/>
<path style="fill:none;stroke-width:1.64928;stroke-linecap:butt;stroke-linejoin:miter;stroke:rgb(0%,76.862746%,0%);stroke-opacity:1;stroke-miterlimit:4;" d="M 393.867188 125.234375 L 387.734375 83.867188 " transform="matrix(0.2,0,0,0.2,0,0)"/>
<path style=" stroke:none;fill-rule:nonzero;fill:rgb(100%,0%,0%);fill-opacity:1;" d="M 75.410156 15.703125 C 76.007812 16.851562 77.367188 17.269531 78.449219 16.632812 C 79.527344 15.992188 79.921875 14.542969 79.320312 13.390625 C 78.722656 12.238281 77.363281 11.820312 76.28125 12.460938 C 75.203125 13.097656 74.8125 14.550781 75.410156 15.703125 Z M 75.410156 15.703125 "/>
<path style="fill:none;stroke-width:1.64928;stroke-linecap:butt;stroke-linejoin:miter;stroke:rgb(0%,76.862746%,0%);stroke-opacity:1;stroke-miterlimit:4;" d="M 393.867188 125.859375 L 411.445312 88.417969 " transform="matrix(0.2,0,0,0.2,0,0)"/>
<path style=" stroke:none;fill-rule:nonzero;fill:rgb(100%,0%,0%);fill-opacity:1;" d="M 81.132812 15.484375 C 80.992188 16.792969 81.871094 17.976562 83.097656 18.128906 C 84.324219 18.277344 85.433594 17.339844 85.574219 16.03125 C 85.71875 14.722656 84.835938 13.539062 83.609375 13.390625 C 82.382812 13.238281 81.273438 14.175781 81.132812 15.484375 Z M 81.132812 15.484375 "/>
<path style="fill:none;stroke-width:1.64928;stroke-linecap:butt;stroke-linejoin:miter;stroke:rgb(0%,76.862746%,0%);stroke-opacity:1;stroke-miterlimit:4;" d="M 393.945312 124.960938 L 431.328125 137.753906 " transform="matrix(0.2,0,0,0.2,0,0)"/>
<path style=" stroke:none;fill-rule:nonzero;fill:rgb(100%,0%,0%);fill-opacity:1;" d="M 86.929688 29.96875 C 85.953125 29.160156 85.777344 27.664062 86.535156 26.621094 C 87.289062 25.582031 88.695312 25.390625 89.671875 26.199219 C 90.644531 27.007812 90.824219 28.503906 90.066406 29.546875 C 89.3125 30.585938 87.90625 30.777344 86.929688 29.96875 Z M 86.929688 29.96875 "/>
<path style="fill:none;stroke-width:1.649282;stroke-linecap:butt;stroke-linejoin:miter;stroke:rgb(0%,76.862746%,0%);stroke-opacity:1;stroke-miterlimit:4;" d="M 393.4375 125.019531 L 430.136719 110.136719 " transform="matrix(0.2,0,0,0.2,0,0)"/>
<path style=" stroke:none;fill-rule:nonzero;fill:rgb(100%,0%,0%);fill-opacity:1;" d="M 87.960938 23.476562 C 86.726562 23.492188 85.710938 22.441406 85.695312 21.125 C 85.675781 19.808594 86.664062 18.722656 87.898438 18.707031 C 89.132812 18.6875 90.148438 19.738281 90.164062 21.058594 C 90.183594 22.375 89.195312 23.457031 87.960938 23.476562 Z M 87.960938 23.476562 "/>
<path style=" stroke:none;fill-rule:evenodd;fill:rgb(0%,76.862746%,0%);fill-opacity:1;" d="M 79 25.234375 L 77.59375 23.707031 L 75.527344 21.175781 L 77.175781 25.207031 Z M 79 25.234375 "/>
<path style=" stroke:none;fill-rule:evenodd;fill:rgb(0%,76.862746%,0%);fill-opacity:1;" d="M 78.609375 24.800781 L 79.75 26.566406 L 81.691406 29.207031 L 78.292969 26.71875 Z M 78.609375 24.800781 "/>
<path style="fill:none;stroke-width:1.649281;stroke-linecap:butt;stroke-linejoin:miter;stroke:rgb(0%,76.862746%,0%);stroke-opacity:1;stroke-miterlimit:4;" d="M 249.6875 265.058594 L 301.660156 63.59375 " transform="matrix(0.2,0,0,0.2,0,0)"/>
<path style="fill:none;stroke-width:1.649281;stroke-linecap:butt;stroke-linejoin:miter;stroke:rgb(0%,76.862746%,0%);stroke-opacity:1;stroke-miterlimit:4;" d="M 301.289062 64.238281 L 275.351562 32.792969 " transform="matrix(0.2,0,0,0.2,0,0)"/>
<path style=" stroke:none;fill-rule:nonzero;fill:rgb(100%,0%,0%);fill-opacity:1;" d="M 52.726562 6.875 C 53.808594 7.507812 55.167969 7.082031 55.761719 5.925781 C 56.351562 4.769531 55.953125 3.320312 54.871094 2.691406 C 53.785156 2.058594 52.429688 2.484375 51.835938 3.640625 C 51.246094 4.796875 51.644531 6.246094 52.726562 6.875 Z M 52.726562 6.875 "/>
<path style="fill:none;stroke-width:1.649282;stroke-linecap:butt;stroke-linejoin:miter;stroke:rgb(0%,76.862746%,0%);stroke-opacity:1;stroke-miterlimit:4;" d="M 301.621094 64.765625 L 297.65625 23.105469 " transform="matrix(0.2,0,0,0.2,0,0)"/>
<path style=" stroke:none;fill-rule:nonzero;fill:rgb(100%,0%,0%);fill-opacity:1;" d="M 57.449219 3.421875 C 57.988281 4.609375 59.324219 5.105469 60.4375 4.53125 C 61.546875 3.960938 62.015625 2.53125 61.476562 1.347656 C 60.9375 0.160156 59.601562 -0.335938 58.492188 0.238281 C 57.378906 0.8125 56.914062 2.238281 57.449219 3.421875 Z M 57.449219 3.421875 "/>
<path style="fill:none;stroke-width:1.649282;stroke-linecap:butt;stroke-linejoin:miter;stroke:rgb(0%,76.862746%,0%);stroke-opacity:1;stroke-miterlimit:4;" d="M 301.230469 63.945312 L 339.21875 53.398438 " transform="matrix(0.2,0,0,0.2,0,0)"/>
<path style=" stroke:none;fill-rule:nonzero;fill:rgb(100%,0%,0%);fill-opacity:1;" d="M 69.617188 12.339844 C 68.390625 12.21875 67.488281 11.054688 67.605469 9.742188 C 67.71875 8.429688 68.8125 7.46875 70.039062 7.59375 C 71.269531 7.71875 72.171875 8.878906 72.054688 10.191406 C 71.9375 11.503906 70.847656 12.464844 69.617188 12.339844 Z M 69.617188 12.339844 "/>
<path style="fill:none;stroke-width:1.649283;stroke-linecap:butt;stroke-linejoin:miter;stroke:rgb(0%,76.862746%,0%);stroke-opacity:1;stroke-miterlimit:4;" d="M 300.820312 64.296875 L 324.335938 30.761719 " transform="matrix(0.2,0,0,0.2,0,0)"/>
<path style=" stroke:none;fill-rule:nonzero;fill:rgb(100%,0%,0%);fill-opacity:1;" d="M 67.226562 6.269531 C 66.195312 6.992188 64.808594 6.683594 64.132812 5.578125 C 63.457031 4.476562 63.746094 3 64.78125 2.277344 C 65.8125 1.558594 67.199219 1.867188 67.875 2.96875 C 68.550781 4.070312 68.261719 5.546875 67.226562 6.269531 Z M 67.226562 6.269531 "/>
<path style=" stroke:none;fill-rule:evenodd;fill:rgb(0%,76.862746%,0%);fill-opacity:1;" d="M 60.546875 12.875 L 58.589844 12.386719 L 55.574219 11.433594 L 58.992188 13.894531 Z M 60.546875 12.875 "/>
<path style=" stroke:none;fill-rule:evenodd;fill:rgb(0%,76.862746%,0%);fill-opacity:1;" d="M 59.996094 12.734375 L 61.847656 13.570312 L 64.8125 14.691406 L 60.691406 14.53125 Z M 59.996094 12.734375 "/>
<path style="fill:none;stroke-width:1.649281;stroke-linecap:butt;stroke-linejoin:miter;stroke:rgb(0%,76.862746%,0%);stroke-opacity:1;stroke-miterlimit:4;" d="M 250.78125 399.179688 L 250.097656 264.394531 " transform="matrix(0.2,0,0,0.2,0,0)"/>
</g>
</svg>
