<?xml version="1.0" encoding="UTF-8"?>
<svg xmlns="http://www.w3.org/2000/svg" xmlns:xlink="http://www.w3.org/1999/xlink" width="100px" height="140px" viewBox="0 0 100 140" version="1.1">
<g id="surface1">
<path style=" stroke:none;fill-rule:nonzero;fill:rgb(100%,0%,0%);fill-opacity:1;" d="M 26.921875 103.363281 C 26.921875 104.695312 25.84375 105.773438 24.515625 105.773438 C 23.183594 105.773438 22.109375 104.695312 22.109375 103.363281 C 22.109375 102.03125 23.183594 100.949219 24.515625 100.949219 C 25.84375 100.949219 26.921875 102.03125 26.921875 103.363281 Z M 26.921875 103.363281 "/>
<path style=" stroke:none;fill-rule:nonzero;fill:rgb(100%,0%,0%);fill-opacity:1;" d="M 31.644531 105.582031 C 31.644531 106.914062 30.566406 107.992188 29.238281 107.992188 C 27.910156 107.992188 26.832031 106.914062 26.832031 105.582031 C 26.832031 104.25 27.910156 103.171875 29.238281 103.171875 C 30.566406 103.171875 31.644531 104.25 31.644531 105.582031 Z M 31.644531 105.582031 "/>
<path style=" stroke:none;fill-rule:nonzero;fill:rgb(100%,0%,0%);fill-opacity:1;" d="M 23.972656 99.078125 C 23.972656 100.410156 22.894531 101.488281 21.566406 101.488281 C 20.238281 101.488281 19.160156 100.410156 19.160156 99.078125 C 19.160156 97.746094 20.238281 96.667969 21.566406 96.667969 C 22.894531 96.667969 23.972656 97.746094 23.972656 99.078125 Z M 23.972656 99.078125 "/>
<path style=" stroke:none;fill-rule:nonzero;fill:rgb(100%,0%,0%);fill-opacity:1;" d="M 13.5625 88.421875 C 13.5625 89.753906 12.484375 90.835938 11.152344 90.835938 C 9.824219 90.835938 8.746094 89.753906 8.746094 88.421875 C 8.746094 87.089844 9.824219 86.011719 11.152344 86.011719 C 12.484375 86.011719 13.5625 87.089844 13.5625 88.421875 Z M 13.5625 88.421875 "/>
<path style=" stroke:none;fill-rule:nonzero;fill:rgb(100%,0%,0%);fill-opacity:1;" d="M 17.714844 91.804688 C 17.714844 93.136719 16.636719 94.214844 15.308594 94.214844 C 13.976562 94.214844 12.902344 93.136719 12.902344 91.804688 C 12.902344 90.472656 13.976562 89.394531 15.308594 89.394531 C 16.636719 89.394531 17.714844 90.472656 17.714844 91.804688 Z M 17.714844 91.804688 "/>
<path style=" stroke:none;fill-rule:nonzero;fill:rgb(100%,0%,0%);fill-opacity:1;" d="M 12.179688 83.339844 C 12.179688 84.671875 11.101562 85.75 9.773438 85.75 C 8.445312 85.75 7.367188 84.671875 7.367188 83.339844 C 7.367188 82.007812 8.445312 80.929688 9.773438 80.929688 C 11.101562 80.929688 12.179688 82.007812 12.179688 83.339844 Z M 12.179688 83.339844 "/>
<path style=" stroke:none;fill-rule:nonzero;fill:rgb(100%,0%,0%);fill-opacity:1;" d="M 6.414062 66.621094 C 6.414062 67.953125 5.335938 69.03125 4.007812 69.03125 C 2.675781 69.03125 1.601562 67.953125 1.601562 66.621094 C 1.601562 65.289062 2.675781 64.210938 4.007812 64.210938 C 5.335938 64.210938 6.414062 65.289062 6.414062 66.621094 Z M 6.414062 66.621094 "/>
<path style=" stroke:none;fill-rule:nonzero;fill:rgb(100%,0%,0%);fill-opacity:1;" d="M 8.269531 71.410156 C 8.269531 72.742188 7.191406 73.820312 5.863281 73.820312 C 4.53125 73.820312 3.457031 72.742188 3.457031 71.410156 C 3.457031 70.078125 4.53125 68.996094 5.863281 68.996094 C 7.191406 68.996094 8.269531 70.078125 8.269531 71.410156 Z M 8.269531 71.410156 "/>
<path style=" stroke:none;fill-rule:nonzero;fill:rgb(100%,0%,0%);fill-opacity:1;" d="M 7.765625 61.507812 C 7.765625 62.839844 6.6875 63.921875 5.359375 63.921875 C 4.03125 63.921875 2.953125 62.839844 2.953125 61.507812 C 2.953125 60.175781 4.03125 59.097656 5.359375 59.097656 C 6.6875 59.097656 7.765625 60.175781 7.765625 61.507812 Z M 7.765625 61.507812 "/>
<path style=" stroke:none;fill-rule:nonzero;fill:rgb(100%,0%,0%);fill-opacity:1;" d="M 7.324219 47.554688 C 7.324219 48.886719 6.246094 49.964844 4.917969 49.964844 C 3.589844 49.964844 2.511719 48.886719 2.511719 47.554688 C 2.511719 46.222656 3.589844 45.140625 4.917969 45.140625 C 6.246094 45.140625 7.324219 46.222656 7.324219 47.554688 Z M 7.324219 47.554688 "/>
<path style=" stroke:none;fill-rule:nonzero;fill:rgb(100%,0%,0%);fill-opacity:1;" d="M 8.441406 52.515625 C 8.441406 53.847656 7.367188 54.925781 6.035156 54.925781 C 4.707031 54.925781 3.628906 53.847656 3.628906 52.515625 C 3.628906 51.183594 4.707031 50.105469 6.035156 50.105469 C 7.367188 50.105469 8.441406 51.183594 8.441406 52.515625 Z M 8.441406 52.515625 "/>
<path style=" stroke:none;fill-rule:nonzero;fill:rgb(100%,0%,0%);fill-opacity:1;" d="M 8.894531 42.574219 C 8.894531 43.90625 7.816406 44.984375 6.488281 44.984375 C 5.160156 44.984375 4.082031 43.90625 4.082031 42.574219 C 4.082031 41.242188 5.160156 40.160156 6.488281 40.160156 C 7.816406 40.160156 8.894531 41.242188 8.894531 42.574219 Z M 8.894531 42.574219 "/>
<path style=" stroke:none;fill-rule:nonzero;fill:rgb(100%,0%,0%);fill-opacity:1;" d="M 14.496094 29.835938 C 14.496094 31.167969 13.417969 32.246094 12.089844 32.246094 C 10.757812 32.246094 9.679688 31.167969 9.679688 29.835938 C 9.679688 28.503906 10.757812 27.425781 12.089844 27.425781 C 13.417969 27.425781 14.496094 28.503906 14.496094 29.835938 Z M 14.496094 29.835938 "/>
<path style=" stroke:none;fill-rule:nonzero;fill:rgb(100%,0%,0%);fill-opacity:1;" d="M 21.171875 22.042969 C 21.171875 23.375 20.097656 24.453125 18.765625 24.453125 C 17.4375 24.453125 16.359375 23.375 16.359375 22.042969 C 16.359375 20.710938 17.4375 19.632812 18.765625 19.632812 C 20.097656 19.632812 21.171875 20.710938 21.171875 22.042969 Z M 21.171875 22.042969 "/>
<path style=" stroke:none;fill-rule:nonzero;fill:rgb(100%,0%,0%);fill-opacity:1;" d="M 16.542969 25.074219 C 16.542969 26.402344 15.464844 27.484375 14.136719 27.484375 C 12.808594 27.484375 11.730469 26.402344 11.730469 25.074219 C 11.730469 23.742188 12.808594 22.660156 14.136719 22.660156 C 15.464844 22.660156 16.542969 23.742188 16.542969 25.074219 Z M 16.542969 25.074219 "/>
<path style=" stroke:none;fill-rule:nonzero;fill:rgb(100%,0%,0%);fill-opacity:1;" d="M 27.53125 16.078125 C 27.53125 17.410156 26.453125 18.492188 25.121094 18.492188 C 23.792969 18.492188 22.714844 17.410156 22.714844 16.078125 C 22.714844 14.75 23.792969 13.667969 25.121094 13.667969 C 26.453125 13.667969 27.53125 14.75 27.53125 16.078125 Z M 27.53125 16.078125 "/>
<path style=" stroke:none;fill-rule:nonzero;fill:rgb(100%,0%,0%);fill-opacity:1;" d="M 35.554688 9.855469 C 35.554688 11.1875 34.476562 12.265625 33.148438 12.265625 C 31.820312 12.265625 30.742188 11.1875 30.742188 9.855469 C 30.742188 8.523438 31.820312 7.441406 33.148438 7.441406 C 34.476562 7.441406 35.554688 8.523438 35.554688 9.855469 Z M 35.554688 9.855469 "/>
<path style=" stroke:none;fill-rule:nonzero;fill:rgb(100%,0%,0%);fill-opacity:1;" d="M 30.707031 11.75 C 30.707031 13.082031 29.628906 14.164062 28.300781 14.164062 C 26.972656 14.164062 25.894531 13.082031 25.894531 11.75 C 25.894531 10.417969 26.972656 9.339844 28.300781 9.339844 C 29.628906 9.339844 30.707031 10.417969 30.707031 11.75 Z M 30.707031 11.75 "/>
<path style=" stroke:none;fill-rule:nonzero;fill:rgb(100%,0%,0%);fill-opacity:1;" d="M 52.902344 5.546875 C 52.902344 6.875 51.828125 7.957031 50.496094 7.957031 C 49.167969 7.957031 48.089844 6.875 48.089844 5.546875 C 48.089844 4.214844 49.167969 3.132812 50.496094 3.132812 C 51.828125 3.132812 52.902344 4.214844 52.902344 5.546875 Z M 52.902344 5.546875 "/>
<path style=" stroke:none;fill-rule:nonzero;fill:rgb(100%,0%,0%);fill-opacity:1;" d="M 57.890625 6.894531 C 57.890625 8.226562 56.8125 9.304688 55.480469 9.304688 C 54.152344 9.304688 53.074219 8.226562 53.074219 6.894531 C 53.074219 5.5625 54.152344 4.484375 55.480469 4.484375 C 56.8125 4.484375 57.890625 5.5625 57.890625 6.894531 Z M 57.890625 6.894531 "/>
<path style=" stroke:none;fill-rule:nonzero;fill:rgb(100%,0%,0%);fill-opacity:1;" d="M 47.871094 6.875 C 47.871094 8.207031 46.792969 9.289062 45.460938 9.289062 C 44.132812 9.289062 43.054688 8.207031 43.054688 6.875 C 43.054688 5.542969 44.132812 4.464844 45.460938 4.464844 C 46.792969 4.464844 47.871094 5.542969 47.871094 6.875 Z M 47.871094 6.875 "/>
<path style=" stroke:none;fill-rule:nonzero;fill:rgb(100%,0%,0%);fill-opacity:1;" d="M 75.195312 11.640625 C 75.195312 12.972656 74.117188 14.050781 72.789062 14.050781 C 71.457031 14.050781 70.378906 12.972656 70.378906 11.640625 C 70.378906 10.308594 71.457031 9.226562 72.789062 9.226562 C 74.117188 9.226562 75.195312 10.308594 75.195312 11.640625 Z M 75.195312 11.640625 "/>
<path style=" stroke:none;fill-rule:nonzero;fill:rgb(100%,0%,0%);fill-opacity:1;" d="M 78.222656 16.078125 C 78.222656 17.410156 77.144531 18.492188 75.816406 18.492188 C 74.488281 18.492188 73.410156 17.410156 73.410156 16.078125 C 73.410156 14.746094 74.488281 13.667969 75.816406 13.667969 C 77.144531 13.667969 78.222656 14.746094 78.222656 16.078125 Z M 78.222656 16.078125 "/>
<path style=" stroke:none;fill-rule:nonzero;fill:rgb(100%,0%,0%);fill-opacity:1;" d="M 70.289062 9.878906 C 70.289062 11.210938 69.210938 12.289062 67.882812 12.289062 C 66.554688 12.289062 65.476562 11.210938 65.476562 9.878906 C 65.476562 8.546875 66.554688 7.46875 67.882812 7.46875 C 69.210938 7.46875 70.289062 8.546875 70.289062 9.878906 Z M 70.289062 9.878906 "/>
<path style=" stroke:none;fill-rule:nonzero;fill:rgb(100%,0%,0%);fill-opacity:1;" d="M 89.316406 24.917969 C 89.316406 26.25 88.238281 27.328125 86.90625 27.328125 C 85.578125 27.328125 84.5 26.25 84.5 24.917969 C 84.5 23.585938 85.578125 22.503906 86.90625 22.503906 C 88.238281 22.503906 89.316406 23.585938 89.316406 24.917969 Z M 89.316406 24.917969 "/>
<path style=" stroke:none;fill-rule:nonzero;fill:rgb(100%,0%,0%);fill-opacity:1;" d="M 91.476562 29.878906 C 91.476562 31.210938 90.398438 32.289062 89.066406 32.289062 C 87.738281 32.289062 86.660156 31.210938 86.660156 29.878906 C 86.660156 28.546875 87.738281 27.46875 89.066406 27.46875 C 90.398438 27.46875 91.476562 28.546875 91.476562 29.878906 Z M 91.476562 29.878906 "/>
<path style=" stroke:none;fill-rule:nonzero;fill:rgb(100%,0%,0%);fill-opacity:1;" d="M 84.714844 21.980469 C 84.714844 23.3125 83.636719 24.394531 82.308594 24.394531 C 80.980469 24.394531 79.902344 23.3125 79.902344 21.980469 C 79.902344 20.648438 80.980469 19.570312 82.308594 19.570312 C 83.636719 19.570312 84.714844 20.648438 84.714844 21.980469 Z M 84.714844 21.980469 "/>
<path style=" stroke:none;fill-rule:nonzero;fill:rgb(100%,0%,0%);fill-opacity:1;" d="M 97.527344 52.558594 C 97.527344 53.890625 96.449219 54.972656 95.121094 54.972656 C 93.792969 54.972656 92.714844 53.890625 92.714844 52.558594 C 92.714844 51.226562 93.792969 50.148438 95.121094 50.148438 C 96.449219 50.148438 97.527344 51.226562 97.527344 52.558594 Z M 97.527344 52.558594 "/>
<path style=" stroke:none;fill-rule:nonzero;fill:rgb(100%,0%,0%);fill-opacity:1;" d="M 98.46875 47.464844 C 98.46875 48.796875 97.394531 49.878906 96.0625 49.878906 C 94.734375 49.878906 93.65625 48.796875 93.65625 47.464844 C 93.65625 46.136719 94.734375 45.054688 96.0625 45.054688 C 97.394531 45.054688 98.46875 46.136719 98.46875 47.464844 Z M 98.46875 47.464844 "/>
<path style=" stroke:none;fill-rule:nonzero;fill:rgb(100%,0%,0%);fill-opacity:1;" d="M 96.96875 42.484375 C 96.96875 43.816406 95.890625 44.898438 94.5625 44.898438 C 93.230469 44.898438 92.15625 43.816406 92.15625 42.484375 C 92.15625 41.152344 93.230469 40.074219 94.5625 40.074219 C 95.890625 40.074219 96.96875 41.152344 96.96875 42.484375 Z M 96.96875 42.484375 "/>
<path style=" stroke:none;fill-rule:nonzero;fill:rgb(100%,0%,0%);fill-opacity:1;" d="M 97.746094 71.367188 C 97.746094 72.699219 96.667969 73.777344 95.335938 73.777344 C 94.007812 73.777344 92.929688 72.699219 92.929688 71.367188 C 92.929688 70.035156 94.007812 68.953125 95.335938 68.953125 C 96.667969 68.953125 97.746094 70.035156 97.746094 71.367188 Z M 97.746094 71.367188 "/>
<path style=" stroke:none;fill-rule:nonzero;fill:rgb(100%,0%,0%);fill-opacity:1;" d="M 99.382812 66.359375 C 99.382812 67.691406 98.304688 68.769531 96.976562 68.769531 C 95.648438 68.769531 94.570312 67.691406 94.570312 66.359375 C 94.570312 65.027344 95.648438 63.949219 96.976562 63.949219 C 98.304688 63.949219 99.382812 65.027344 99.382812 66.359375 Z M 99.382812 66.359375 "/>
<path style=" stroke:none;fill-rule:nonzero;fill:rgb(100%,0%,0%);fill-opacity:1;" d="M 98.183594 61.246094 C 98.183594 62.578125 97.105469 63.660156 95.777344 63.660156 C 94.449219 63.660156 93.371094 62.578125 93.371094 61.246094 C 93.371094 59.917969 94.449219 58.835938 95.777344 58.835938 C 97.105469 58.835938 98.183594 59.917969 98.183594 61.246094 Z M 98.183594 61.246094 "/>
<path style=" stroke:none;fill-rule:nonzero;fill:rgb(100%,0%,0%);fill-opacity:1;" d="M 93.488281 83.25 C 93.488281 84.582031 92.410156 85.660156 91.078125 85.660156 C 89.75 85.660156 88.671875 84.582031 88.671875 83.25 C 88.671875 81.917969 89.75 80.839844 91.078125 80.839844 C 92.410156 80.839844 93.488281 81.917969 93.488281 83.25 Z M 93.488281 83.25 "/>
<path style=" stroke:none;fill-rule:nonzero;fill:rgb(100%,0%,0%);fill-opacity:1;" d="M 88.214844 91.871094 C 88.214844 93.203125 87.140625 94.28125 85.808594 94.28125 C 84.480469 94.28125 83.402344 93.203125 83.402344 91.871094 C 83.402344 90.539062 84.480469 89.457031 85.808594 89.457031 C 87.140625 89.457031 88.214844 90.539062 88.214844 91.871094 Z M 88.214844 91.871094 "/>
<path style=" stroke:none;fill-rule:nonzero;fill:rgb(100%,0%,0%);fill-opacity:1;" d="M 92.40625 88.367188 C 92.40625 89.699219 91.328125 90.78125 90 90.78125 C 88.667969 90.78125 87.59375 89.699219 87.59375 88.367188 C 87.59375 87.035156 88.667969 85.957031 90 85.957031 C 91.328125 85.957031 92.40625 87.035156 92.40625 88.367188 Z M 92.40625 88.367188 "/>
<path style=" stroke:none;fill-rule:nonzero;fill:rgb(100%,0%,0%);fill-opacity:1;" d="M 74.0625 105.714844 C 74.0625 107.046875 72.988281 108.125 71.65625 108.125 C 70.328125 108.125 69.25 107.046875 69.25 105.714844 C 69.25 104.382812 70.328125 103.300781 71.65625 103.300781 C 72.988281 103.300781 74.0625 104.382812 74.0625 105.714844 Z M 74.0625 105.714844 "/>
<path style=" stroke:none;fill-rule:nonzero;fill:rgb(100%,0%,0%);fill-opacity:1;" d="M 78.875 103.535156 C 78.875 104.867188 77.796875 105.949219 76.46875 105.949219 C 75.140625 105.949219 74.0625 104.867188 74.0625 103.535156 C 74.0625 102.203125 75.140625 101.125 76.46875 101.125 C 77.796875 101.125 78.875 102.203125 78.875 103.535156 Z M 78.875 103.535156 "/>
<path style=" stroke:none;fill-rule:nonzero;fill:rgb(100%,0%,0%);fill-opacity:1;" d="M 81.933594 99.078125 C 81.933594 100.410156 80.855469 101.488281 79.527344 101.488281 C 78.199219 101.488281 77.121094 100.410156 77.121094 99.078125 C 77.121094 97.746094 78.199219 96.667969 79.527344 96.667969 C 80.855469 96.667969 81.933594 97.746094 81.933594 99.078125 Z M 81.933594 99.078125 "/>
<path style=" stroke:none;fill-rule:nonzero;fill:rgb(0%,76.862746%,0%);fill-opacity:1;" d="M 41.570312 7.722656 C 42.359375 9.761719 43.1875 11.839844 43.808594 13.917969 C 44.558594 12.253906 45.136719 10.507812 46.21875 9.011719 C 46.839844 8.761719 47.460938 8.472656 48.085938 8.222656 C 48.332031 8.097656 48.625 8.015625 48.957031 7.972656 C 49.742188 7.972656 51.363281 7.972656 52.152344 7.972656 C 52.441406 8.015625 52.730469 8.097656 52.980469 8.222656 C 53.601562 8.472656 54.226562 8.722656 54.847656 9.011719 C 55.925781 10.46875 56.507812 12.253906 57.214844 13.917969 C 57.917969 11.839844 58.664062 9.71875 59.414062 7.640625 C 58.789062 12.503906 58.042969 17.617188 54.597656 21.402344 C 56.132812 21.609375 57.667969 21.941406 59.203125 22.316406 C 59.039062 16.996094 61.941406 12.464844 64.476562 8.097656 C 63.894531 10.09375 63.105469 12.007812 62.316406 13.917969 C 63.933594 13.085938 65.636719 12.339844 67.503906 12.089844 C 68.042969 12.214844 68.582031 12.339844 69.164062 12.503906 C 69.535156 12.589844 69.953125 12.710938 70.324219 12.878906 C 70.988281 13.292969 71.613281 13.753906 72.191406 14.210938 C 72.980469 15.039062 73.519531 16.039062 73.851562 17.121094 L 73.851562 17.578125 C 73.851562 19.15625 73.769531 20.777344 73.4375 22.359375 C 74.972656 20.902344 76.550781 19.488281 78.25 18.199219 C 75.304688 21.734375 72.316406 25.808594 67.546875 26.929688 C 69.039062 28.386719 70.53125 29.882812 71.984375 31.378906 C 72.609375 26.265625 76.757812 22.691406 80.285156 19.363281 C 78.957031 21.441406 77.421875 23.4375 76.011719 25.476562 C 77.792969 24.8125 79.660156 24.351562 81.570312 24.1875 C 81.695312 24.230469 82.027344 24.269531 82.191406 24.3125 C 82.980469 24.644531 83.726562 25.101562 84.351562 25.726562 C 84.765625 26.183594 85.179688 26.640625 85.59375 27.097656 C 85.96875 27.597656 86.34375 28.179688 86.507812 28.800781 C 86.675781 29.632812 86.757812 30.421875 86.839844 31.253906 C 86.839844 32.875 85.886719 34.246094 85.347656 35.703125 C 87.296875 34.707031 89.164062 33.625 91.15625 32.792969 C 88.832031 34.828125 86.300781 36.824219 83.355469 37.949219 C 81.28125 38.570312 79.082031 38.363281 76.921875 38.363281 C 77.878906 40.316406 78.832031 42.3125 79.828125 44.265625 C 81.570312 42.855469 83.394531 41.441406 85.429688 40.441406 C 88.335938 39.484375 91.363281 38.988281 94.390625 38.570312 C 92.027344 39.445312 89.621094 40.316406 87.214844 41.148438 C 89.207031 41.691406 91.488281 42.105469 92.691406 43.933594 C 92.816406 44.183594 93.0625 44.683594 93.148438 44.933594 C 93.355469 45.390625 93.5625 45.847656 93.6875 46.304688 C 93.8125 47.261719 93.894531 48.214844 93.9375 49.132812 C 93.9375 49.339844 93.851562 49.753906 93.851562 49.960938 C 93.519531 50.628906 93.148438 51.25 92.773438 51.875 C 91.984375 53.164062 90.65625 53.953125 89.414062 54.703125 C 91.820312 54.953125 94.183594 55.324219 96.550781 55.824219 C 91.320312 56.03125 85.679688 56.117188 81.074219 53.207031 C 81.488281 55.824219 81.695312 58.484375 81.613281 61.144531 C 85.222656 57.28125 91.03125 58.484375 95.679688 58.109375 C 94.144531 58.527344 92.566406 58.859375 91.074219 59.398438 C 91.984375 60.398438 93.023438 61.230469 93.769531 62.351562 C 93.976562 62.933594 94.183594 63.472656 94.351562 64.054688 C 94.476562 64.511719 94.597656 64.929688 94.640625 65.386719 C 94.640625 66.300781 94.640625 67.214844 94.515625 68.128906 C 94.433594 68.503906 94.226562 68.835938 94.019531 69.167969 C 93.601562 69.75 93.148438 70.332031 92.648438 70.875 C 91.945312 71.621094 91.074219 72.121094 90.203125 72.660156 C 92.070312 73.121094 93.894531 73.578125 95.71875 74.160156 C 91.363281 73.785156 86.300781 74.449219 82.855469 71.207031 C 82.066406 70.542969 81.40625 69.75 80.738281 68.960938 C 80.117188 71.414062 79.453125 73.824219 78.625 76.195312 C 80.988281 76.195312 83.480469 75.695312 85.71875 76.613281 C 88.417969 77.652344 90.824219 79.3125 93.148438 80.976562 C 91.15625 80.226562 89.246094 79.273438 87.296875 78.441406 C 87.917969 79.6875 88.707031 80.976562 88.875 82.390625 C 88.875 83.347656 88.832031 84.304688 88.75 85.257812 C 88.667969 85.550781 88.582031 85.839844 88.457031 86.089844 C 88.25 86.628906 88 87.128906 87.753906 87.628906 C 87.171875 88.417969 86.382812 89.082031 85.472656 89.457031 C 85.222656 89.539062 84.683594 89.664062 84.433594 89.707031 C 82.898438 89.957031 81.363281 89.914062 79.828125 89.871094 C 80.949219 91.246094 82.027344 92.574219 83.0625 93.988281 C 79.453125 91.121094 74.265625 88.167969 75.054688 82.679688 C 73.355469 84.800781 71.613281 86.796875 69.785156 88.75 C 74.515625 89.539062 78.664062 92.285156 81.113281 96.402344 C 79.535156 95.359375 78.085938 94.15625 76.589844 93.035156 C 76.921875 94.652344 77.339844 96.316406 77.253906 98.023438 C 77.253906 98.1875 77.171875 98.5625 77.171875 98.726562 C 76.839844 99.601562 76.34375 100.390625 75.679688 101.054688 C 75.179688 101.554688 74.640625 102.054688 74.101562 102.554688 C 73.769531 102.804688 73.355469 103.011719 72.9375 103.09375 C 72.109375 103.21875 71.28125 103.300781 70.410156 103.34375 C 68.914062 103.34375 67.503906 102.71875 66.09375 102.21875 C 66.882812 103.632812 67.667969 105.046875 68.457031 106.460938 C 66.757812 104.546875 65.054688 102.554688 63.769531 100.308594 C 62.980469 98.144531 63.519531 95.777344 63.519531 93.53125 C 59.828125 95.484375 55.71875 96.441406 51.613281 96.859375 C 51.527344 111.199219 51.570312 125.585938 51.570312 139.96875 L 49.496094 139.96875 C 49.496094 125.625 49.496094 111.242188 49.496094 96.898438 C 45.304688 96.609375 41.28125 95.402344 37.542969 93.53125 C 37.542969 95.777344 38.085938 98.144531 37.296875 100.308594 C 36.007812 102.554688 34.308594 104.546875 32.605469 106.460938 C 33.394531 105.046875 34.183594 103.632812 34.972656 102.21875 C 33.5625 102.71875 32.152344 103.34375 30.613281 103.34375 C 29.785156 103.300781 28.996094 103.21875 28.167969 103.136719 C 27.753906 103.011719 27.296875 102.84375 26.964844 102.554688 C 26.425781 102.054688 25.886719 101.554688 25.386719 101.054688 C 24.722656 100.390625 24.226562 99.601562 23.894531 98.726562 C 23.851562 98.5625 23.808594 98.1875 23.769531 98.023438 C 23.726562 96.316406 24.015625 94.652344 24.472656 92.992188 C 22.980469 94.15625 21.527344 95.359375 19.953125 96.402344 C 21.195312 94.695312 22.480469 93.035156 24.101562 91.660156 C 26.214844 90.125 28.746094 89.414062 31.238281 88.710938 C 29.410156 86.796875 27.628906 84.84375 26.007812 82.679688 C 25.59375 84.386719 26.09375 86.464844 24.847656 87.878906 C 22.9375 90.246094 20.492188 92.160156 18.042969 93.988281 C 19.121094 92.617188 20.199219 91.203125 21.277344 89.832031 C 19.742188 89.871094 18.167969 90.082031 16.632812 89.75 C 16.382812 89.664062 15.84375 89.539062 15.59375 89.457031 C 14.679688 89.082031 13.894531 88.417969 13.3125 87.628906 C 13.0625 87.128906 12.8125 86.628906 12.605469 86.089844 C 12.480469 85.839844 12.398438 85.550781 12.316406 85.257812 C 12.234375 84.304688 12.191406 83.304688 12.191406 82.347656 C 12.359375 80.933594 13.144531 79.730469 13.769531 78.441406 C 11.816406 79.3125 9.910156 80.269531 7.917969 80.976562 C 10.53125 79.1875 13.144531 77.152344 16.257812 76.363281 C 18.292969 76.03125 20.40625 76.070312 22.480469 76.152344 C 21.652344 73.785156 20.90625 71.414062 20.28125 68.960938 C 18.746094 70.542969 17.296875 72.371094 15.097656 73.078125 C 11.941406 73.867188 8.664062 73.949219 5.386719 74.199219 C 7.210938 73.660156 8.996094 73.121094 10.824219 72.621094 C 9.992188 72.078125 9.078125 71.621094 8.414062 70.875 C 7.917969 70.332031 7.460938 69.75 7.046875 69.167969 C 6.839844 68.835938 6.671875 68.503906 6.546875 68.128906 C 6.425781 67.214844 6.382812 66.257812 6.382812 65.34375 C 6.382812 64.886719 6.507812 64.472656 6.671875 64.054688 C 6.921875 63.433594 7.253906 62.808594 7.542969 62.226562 C 8.167969 61.0625 9.203125 60.230469 10.117188 59.316406 C 8.5 58.941406 6.921875 58.609375 5.34375 58.195312 C 10.117188 58.234375 15.882812 57.238281 19.453125 61.269531 C 19.453125 58.570312 19.410156 55.867188 19.953125 53.246094 C 15.261719 55.78125 9.742188 55.90625 4.515625 55.90625 C 6.878906 55.449219 9.289062 55.035156 11.652344 54.742188 C 10.40625 53.953125 9.078125 53.164062 8.292969 51.875 C 7.917969 51.25 7.542969 50.628906 7.210938 49.960938 C 7.171875 49.753906 7.128906 49.339844 7.128906 49.132812 C 7.171875 48.175781 7.253906 47.261719 7.417969 46.304688 C 7.503906 45.804688 7.710938 45.390625 7.917969 44.933594 C 8 44.683594 8.25 44.183594 8.375 43.933594 C 9.578125 42.105469 11.859375 41.691406 13.808594 41.191406 C 11.402344 40.316406 8.996094 39.570312 6.632812 38.613281 C 9.039062 38.902344 11.402344 39.238281 13.769531 39.820312 C 16.632812 40.566406 18.957031 42.5625 21.320312 44.308594 C 22.273438 42.355469 23.1875 40.359375 24.101562 38.363281 C 21.570312 38.28125 18.957031 38.445312 16.589844 37.40625 C 14.140625 36.242188 11.941406 34.582031 9.910156 32.792969 C 11.902344 33.625 13.769531 34.707031 15.71875 35.703125 C 15.179688 34.246094 14.226562 32.875 14.226562 31.253906 C 14.265625 30.464844 14.390625 29.632812 14.558594 28.84375 C 14.679688 28.179688 15.054688 27.597656 15.46875 27.097656 C 15.882812 26.640625 16.257812 26.183594 16.714844 25.726562 C 17.296875 25.101562 18.085938 24.6875 18.914062 24.394531 C 19.078125 24.351562 19.410156 24.3125 19.535156 24.3125 C 21.445312 24.269531 23.3125 24.769531 25.011719 25.515625 C 23.601562 23.480469 22.191406 21.441406 20.863281 19.363281 C 24.226562 22.816406 28.664062 26.183594 28.996094 31.460938 C 30.53125 29.882812 32.027344 28.386719 33.601562 26.847656 C 28.832031 25.808594 25.675781 21.777344 22.773438 18.160156 C 24.472656 19.488281 26.132812 20.820312 27.667969 22.359375 C 27.421875 20.777344 27.210938 19.15625 27.210938 17.578125 L 27.210938 17.121094 C 27.542969 16.039062 28.082031 15.039062 28.871094 14.210938 C 29.453125 13.753906 30.074219 13.292969 30.738281 12.878906 C 31.195312 12.671875 31.695312 12.546875 32.191406 12.421875 C 32.648438 12.296875 33.144531 12.214844 33.601562 12.128906 C 35.429688 12.339844 37.089844 13.128906 38.75 13.917969 C 37.960938 12.007812 37.253906 10.050781 36.632812 8.097656 C 39.078125 12.546875 42.109375 16.996094 41.777344 22.316406 C 43.355469 21.984375 44.890625 21.691406 46.464844 21.441406 C 42.855469 17.785156 42.484375 12.503906 41.570312 7.722656 Z M 41.570312 7.722656 "/>
<path style=" stroke:none;fill-rule:nonzero;fill:rgb(0%,88.235295%,0%);fill-opacity:1;" d="M 47.585938 23.355469 C 56.132812 22.023438 64.597656 26.015625 70.160156 32.378906 C 77.878906 40.277344 80.242188 51.957031 79.785156 62.644531 C 78.875 72.039062 75.097656 81.433594 67.878906 87.710938 C 60.324219 95.027344 47.917969 96.941406 38.75 91.660156 C 29.371094 86.503906 23.1875 76.445312 21.777344 65.925781 C 19.867188 53.703125 22.855469 39.820312 32.152344 31.128906 C 36.21875 26.929688 41.695312 23.855469 47.585938 23.355469 Z M 47.585938 23.355469 "/>
<path style=" stroke:none;fill-rule:nonzero;fill:rgb(0%,88.235295%,0%);fill-opacity:1;" d="M 28.914062 91.121094 C 31.859375 90.082031 35.136719 91.953125 36.007812 94.820312 C 36.382812 96.734375 36.382812 98.976562 35.011719 100.515625 C 32.691406 103.507812 27.460938 103.21875 25.46875 100.015625 C 23.269531 96.859375 25.011719 91.703125 28.914062 91.121094 Z M 28.914062 91.121094 "/>
<path style=" stroke:none;fill-rule:nonzero;fill:rgb(0%,88.235295%,0%);fill-opacity:1;" d="M 49.246094 8.804688 C 52.691406 7.765625 56.507812 10.800781 56.132812 14.417969 C 56.382812 17.035156 54.390625 19.613281 51.820312 20.03125 C 48.375 21.070312 44.558594 18.035156 44.929688 14.417969 C 44.683594 11.796875 46.671875 9.21875 49.246094 8.804688 Z M 49.246094 8.804688 "/>
<path style=" stroke:none;fill-rule:nonzero;fill:rgb(0%,88.235295%,0%);fill-opacity:1;" d="M 32.234375 13.335938 C 35.054688 12.421875 38.207031 14.085938 39.246094 16.785156 C 39.742188 18.742188 39.742188 21.152344 38.332031 22.773438 C 36.007812 25.765625 30.78125 25.476562 28.789062 22.273438 C 26.671875 19.28125 28.25 13.628906 32.234375 13.335938 Z M 32.234375 13.335938 "/>
<path style=" stroke:none;fill-rule:nonzero;fill:rgb(0%,88.235295%,0%);fill-opacity:1;" d="M 65.429688 13.378906 C 67.628906 13.003906 70.699219 12.921875 71.902344 15.25 C 74.597656 18.160156 73.0625 23.6875 69.164062 24.5625 C 66.839844 25.351562 64.226562 24.6875 62.730469 22.773438 C 60.199219 19.820312 61.570312 14.375 65.429688 13.378906 Z M 65.429688 13.378906 "/>
<path style=" stroke:none;fill-rule:nonzero;fill:rgb(0%,88.235295%,0%);fill-opacity:1;" d="M 19.371094 25.433594 C 22.316406 24.394531 25.59375 26.265625 26.464844 29.132812 C 26.839844 31.046875 26.839844 33.292969 25.46875 34.828125 C 23.144531 37.824219 17.917969 37.53125 15.925781 34.332031 C 13.726562 31.171875 15.46875 26.015625 19.371094 25.433594 Z M 19.371094 25.433594 "/>
<path style=" stroke:none;fill-rule:nonzero;fill:rgb(0%,88.235295%,0%);fill-opacity:1;" d="M 78.292969 25.433594 C 81.902344 24.1875 86.425781 27.015625 86.011719 31.046875 C 86.257812 33.664062 84.265625 36.242188 81.695312 36.660156 C 79.289062 37.492188 76.589844 36.410156 75.261719 34.332031 C 73.1875 31.296875 74.683594 26.390625 78.292969 25.433594 Z M 78.292969 25.433594 "/>
<path style=" stroke:none;fill-rule:nonzero;fill:rgb(0%,88.235295%,0%);fill-opacity:1;" d="M 12.316406 42.480469 C 15.261719 41.441406 18.539062 43.3125 19.410156 46.179688 C 19.785156 48.09375 19.785156 50.335938 18.414062 51.875 C 16.09375 54.867188 10.863281 54.578125 8.871094 51.375 C 6.671875 48.214844 8.414062 43.0625 12.316406 42.480469 Z M 12.316406 42.480469 "/>
<path style=" stroke:none;fill-rule:nonzero;fill:rgb(0%,88.235295%,0%);fill-opacity:1;" d="M 85.347656 42.480469 C 88.957031 41.230469 93.480469 44.058594 93.0625 48.09375 C 93.3125 50.710938 91.320312 53.289062 88.75 53.703125 C 86.34375 54.535156 83.644531 53.453125 82.316406 51.375 C 80.242188 48.339844 81.734375 43.4375 85.347656 42.480469 Z M 85.347656 42.480469 "/>
<path style=" stroke:none;fill-rule:nonzero;fill:rgb(0%,88.235295%,0%);fill-opacity:1;" d="M 11.484375 60.355469 C 15.011719 59.191406 19.203125 62.144531 18.789062 65.96875 C 19.246094 70.75 12.316406 73.578125 8.996094 70.375 C 5.636719 67.589844 7.003906 61.019531 11.484375 60.355469 Z M 11.484375 60.355469 "/>
<path style=" stroke:none;fill-rule:nonzero;fill:rgb(0%,88.235295%,0%);fill-opacity:1;" d="M 86.589844 60.355469 C 89.578125 59.398438 93.230469 61.3125 93.6875 64.472656 C 94.765625 67.507812 92.691406 71.082031 89.578125 71.621094 C 86.964844 72.371094 84.390625 70.667969 82.816406 68.753906 C 81.074219 65.636719 82.941406 60.898438 86.589844 60.355469 Z M 86.589844 60.355469 "/>
<path style=" stroke:none;fill-rule:nonzero;fill:rgb(0%,88.235295%,0%);fill-opacity:1;" d="M 17.710938 77.773438 C 22.066406 76.320312 26.175781 81.558594 24.226562 85.507812 C 22.980469 90.207031 15.84375 90.496094 13.683594 86.464844 C 11.609375 83.054688 13.644531 78.191406 17.710938 77.773438 Z M 17.710938 77.773438 "/>
<path style=" stroke:none;fill-rule:nonzero;fill:rgb(0%,88.235295%,0%);fill-opacity:1;" d="M 80.367188 77.816406 C 83.894531 76.777344 88.582031 79.398438 88.085938 83.429688 C 88.75 88.792969 80.574219 91.535156 77.753906 87.128906 C 75.097656 84.09375 76.507812 78.855469 80.367188 77.816406 Z M 80.367188 77.816406 "/>
<path style=" stroke:none;fill-rule:nonzero;fill:rgb(0%,88.235295%,0%);fill-opacity:1;" d="M 68.75 91.121094 C 72.359375 89.871094 76.882812 92.699219 76.464844 96.734375 C 76.714844 99.351562 74.722656 101.929688 72.152344 102.34375 C 69.746094 103.175781 67.046875 102.09375 65.71875 100.015625 C 63.644531 96.984375 65.136719 92.078125 68.75 91.121094 Z M 68.75 91.121094 "/>
</g>
</svg>
