<?xml version="1.0" encoding="UTF-8"?>
<svg xmlns="http://www.w3.org/2000/svg" xmlns:xlink="http://www.w3.org/1999/xlink" width="100px" height="249px" viewBox="0 0 100 249" version="1.1">
<g id="surface1">
<path style=" stroke:none;fill-rule:nonzero;fill:rgb(0%,76.862746%,0%);fill-opacity:1;" d="M 80.382812 123.152344 C 79.804688 121.417969 79.675781 119.621094 78.902344 118.019531 L 78.453125 117.699219 C 78.519531 119.621094 78.453125 121.417969 78.453125 123.34375 C 76.523438 121.613281 74.597656 119.816406 72.667969 118.082031 C 73.890625 120.90625 75.304688 123.664062 77.488281 125.78125 C 73.695312 129.761719 69.839844 133.613281 65.917969 137.398438 C 65.082031 134.382812 65.851562 130.660156 64.246094 127.964844 C 63.988281 127.773438 63.539062 127.453125 63.28125 127.257812 C 63.859375 130.660156 64.308594 134.125 64.503906 137.527344 C 62.445312 135.796875 60.582031 133.804688 58.523438 132.074219 C 59.875 134.832031 61.738281 137.335938 63.472656 139.902344 C 59.359375 144.007812 55.242188 148.179688 51 152.222656 C 50.871094 134.125 50.871094 116.027344 51.066406 97.929688 C 54.730469 100.175781 58.265625 102.488281 61.929688 104.671875 C 58.652344 101.011719 55.117188 97.546875 51.578125 94.082031 C 53.121094 92.476562 54.730469 90.871094 56.335938 89.269531 C 58.136719 91.835938 61.03125 93.183594 63.730469 94.59375 C 61.996094 92.605469 60.257812 90.617188 58.523438 88.625 C 61.738281 89.011719 64.953125 89.460938 68.101562 89.910156 C 67.910156 89.652344 67.589844 89.140625 67.394531 88.882812 C 64.757812 87.40625 61.480469 87.726562 58.585938 87.023438 C 62.894531 82.722656 67.203125 78.421875 71.445312 74.121094 C 72.347656 77.78125 76.269531 78.808594 79.289062 80.347656 C 77.296875 78.164062 75.238281 76.046875 73.246094 73.867188 C 76.074219 74.1875 78.839844 74.570312 81.605469 75.019531 C 81.796875 74.699219 82.183594 74.121094 82.441406 73.800781 C 79.417969 73.289062 76.398438 72.839844 73.375 72.324219 C 77.359375 68.28125 81.347656 64.238281 85.398438 60.261719 C 87.003906 63.46875 90.414062 64.6875 93.433594 66.230469 C 91.503906 64.238281 89.511719 62.3125 87.582031 60.324219 C 88.867188 59.746094 90.734375 60.324219 91.953125 59.425781 C 92.210938 59.296875 92.726562 59.039062 92.917969 58.914062 C 91.121094 58.71875 89.320312 58.527344 87.582031 58.335938 C 90.089844 55.574219 92.664062 52.878906 94.785156 49.863281 C 89.253906 53.523438 85.074219 58.914062 80.382812 63.46875 C 79.804688 61.738281 79.675781 59.941406 78.902344 58.335938 L 78.453125 58.015625 C 78.519531 59.875 78.453125 61.800781 78.453125 63.660156 C 76.523438 61.929688 74.597656 60.195312 72.667969 58.398438 C 73.890625 61.222656 75.304688 63.984375 77.488281 66.101562 C 73.695312 70.078125 69.839844 73.929688 65.917969 77.714844 C 65.082031 74.699219 65.851562 70.976562 64.246094 68.28125 C 63.988281 68.089844 63.539062 67.769531 63.28125 67.578125 C 63.859375 70.976562 64.308594 74.441406 64.503906 77.84375 C 62.445312 76.113281 60.582031 74.121094 58.523438 72.390625 C 59.875 75.148438 61.738281 77.652344 63.472656 80.21875 C 59.359375 84.328125 55.242188 88.496094 51 92.539062 C 50.933594 76.757812 50.9375 60.996094 50.945312 45.230469 C 53.929688 45.101562 56.78125 44.035156 59.539062 42.792969 C 57.085938 42.820312 54.667969 42.804688 52.214844 42.753906 L 61.515625 33.207031 L 60.601562 32.324219 L 50.945312 42.234375 C 50.949219 36.320312 50.953125 30.40625 50.953125 24.492188 C 53.933594 24.359375 56.785156 23.292969 59.539062 22.054688 C 57.085938 22.082031 54.667969 22.066406 52.214844 22.015625 L 55.996094 18.132812 C 55.660156 17.867188 55.378906 17.535156 55.171875 17.15625 L 50.953125 21.484375 C 50.957031 14.328125 50.953125 7.164062 50.9375 0 C 50.421875 0 49.523438 0 49.007812 0 C 48.996094 3.929688 48.992188 7.859375 48.996094 11.785156 L 45.535156 8.234375 C 45.296875 8.585938 44.984375 8.886719 44.625 9.121094 L 48.355469 12.949219 C 45.90625 13 43.488281 13.019531 41.03125 12.992188 C 43.597656 14.144531 46.242188 15.148438 49 15.386719 C 49.007812 21.164062 49.019531 26.9375 49.027344 32.710938 L 39.96875 23.414062 L 39.058594 24.300781 L 48.355469 33.84375 C 45.90625 33.894531 43.488281 33.910156 41.03125 33.882812 C 43.605469 35.042969 46.261719 36.046875 49.03125 36.28125 C 49.03125 41.941406 49.019531 47.59375 48.980469 53.246094 L 39.96875 44 L 39.058594 44.882812 L 48.355469 54.429688 C 45.90625 54.480469 43.488281 54.496094 41.03125 54.46875 C 43.582031 55.617188 46.210938 56.613281 48.949219 56.859375 C 48.949219 57.203125 48.945312 57.542969 48.941406 57.886719 L 48.941406 63.339844 C 48.941406 63.339844 49.070312 99.472656 48.941406 117.570312 C 44.699219 113.527344 40.585938 109.417969 36.46875 105.3125 C 38.207031 102.746094 40.070312 100.175781 41.421875 97.417969 C 39.363281 99.152344 37.5625 101.074219 35.507812 102.871094 C 35.828125 99.40625 36.214844 96.007812 36.726562 92.605469 C 36.46875 92.796875 35.957031 93.117188 35.761719 93.3125 C 34.027344 96.007812 34.734375 99.726562 33.964844 102.746094 C 30.105469 98.894531 26.25 95.042969 22.453125 91.128906 C 24.640625 89.011719 26.054688 86.25 27.277344 83.425781 C 25.347656 85.222656 23.417969 86.957031 21.425781 88.691406 C 21.425781 86.828125 21.492188 84.902344 21.492188 82.976562 L 21.039062 83.363281 C 20.269531 84.96875 20.140625 86.828125 19.691406 88.496094 C 14.996094 83.75 10.496094 78.808594 5.097656 74.957031 C 7.152344 78.039062 9.851562 80.667969 12.359375 83.363281 C 10.5625 83.554688 8.824219 83.75 7.023438 83.941406 C 7.21875 84.070312 7.730469 84.328125 7.988281 84.453125 C 9.273438 85.351562 11.011719 84.777344 12.359375 85.351562 C 10.433594 87.34375 8.4375 89.269531 6.511719 91.257812 C 9.46875 89.652344 12.941406 88.367188 14.417969 85.097656 C 18.46875 89.203125 22.582031 93.246094 26.570312 97.417969 C 23.613281 97.867188 20.589844 98.378906 17.570312 98.828125 C 17.824219 99.085938 18.339844 99.601562 18.53125 99.855469 C 21.234375 99.472656 23.933594 99.152344 26.699219 98.894531 C 24.707031 101.074219 22.710938 103.195312 20.71875 105.375 C 23.613281 103.707031 27.597656 102.746094 28.5 99.152344 C 32.742188 103.449219 37.050781 107.75 41.355469 112.050781 C 38.464844 112.820312 35.25 112.5625 32.546875 113.910156 C 32.355469 114.167969 32.035156 114.617188 31.839844 114.875 C 34.992188 114.425781 38.207031 113.976562 41.421875 113.65625 C 39.75 115.644531 37.949219 117.632812 36.214844 119.621094 C 38.847656 118.210938 41.742188 116.925781 43.476562 114.425781 C 45.148438 115.902344 46.820312 117.375 48.429688 118.851562 C 44.957031 122.445312 41.421875 125.976562 38.078125 129.699219 C 41.679688 127.515625 45.277344 125.140625 48.941406 123.023438 C 49.070312 141.121094 49.070312 159.152344 48.941406 177.253906 C 44.699219 173.207031 40.585938 169.101562 36.46875 164.996094 C 38.207031 162.429688 40.070312 159.859375 41.421875 157.101562 C 39.363281 158.832031 37.5625 160.757812 35.507812 162.554688 C 35.828125 159.089844 36.214844 155.691406 36.726562 152.289062 C 36.46875 152.480469 35.957031 152.800781 35.761719 152.992188 C 34.027344 155.691406 34.734375 159.410156 33.964844 162.429688 C 30.105469 158.578125 26.25 154.726562 22.453125 150.8125 C 24.640625 148.695312 26.054688 145.933594 27.277344 143.109375 C 25.347656 144.90625 23.417969 146.640625 21.425781 148.375 C 21.425781 146.511719 21.492188 144.585938 21.492188 142.660156 L 21.039062 143.046875 C 20.269531 144.652344 20.140625 146.511719 19.691406 148.179688 C 14.996094 143.429688 10.496094 138.488281 5.097656 134.640625 C 7.152344 137.71875 9.851562 140.351562 12.359375 143.046875 C 10.5625 143.238281 8.824219 143.429688 7.023438 143.625 C 7.21875 143.753906 7.730469 144.007812 7.988281 144.136719 C 9.273438 145.035156 11.011719 144.457031 12.359375 145.035156 C 10.433594 147.027344 8.4375 148.953125 6.511719 150.941406 C 9.46875 149.335938 12.941406 148.050781 14.417969 144.78125 C 18.46875 148.886719 22.582031 152.929688 26.570312 157.101562 C 23.613281 157.550781 20.589844 158.0625 17.570312 158.511719 C 17.824219 158.769531 18.339844 159.285156 18.53125 159.539062 C 21.234375 159.152344 23.933594 158.832031 26.699219 158.578125 C 24.707031 160.757812 22.710938 162.875 20.71875 165.058594 C 23.613281 163.390625 27.597656 162.429688 28.5 158.832031 C 32.742188 163.132812 37.050781 167.433594 41.355469 171.734375 C 38.464844 172.503906 35.25 172.246094 32.546875 173.59375 C 32.355469 173.851562 32.035156 174.300781 31.839844 174.554688 C 34.992188 174.105469 38.207031 173.660156 41.421875 173.339844 C 39.75 175.328125 37.949219 177.316406 36.214844 179.304688 C 38.847656 177.894531 41.742188 176.609375 43.476562 174.105469 C 45.148438 175.585938 46.820312 177.058594 48.429688 178.535156 C 44.957031 182.128906 41.421875 185.660156 38.078125 189.382812 C 41.679688 187.199219 45.277344 184.824219 48.941406 182.707031 C 49.136719 204.785156 48.941406 226.925781 49.007812 249 C 49.523438 249 50.421875 249 50.9375 249 C 50.9375 238.410156 50.871094 227.886719 51.066406 217.296875 C 54.730469 219.542969 58.265625 221.855469 61.929688 224.035156 C 58.652344 220.3125 55.117188 216.914062 51.578125 213.449219 C 53.121094 211.84375 54.730469 210.238281 56.335938 208.632812 C 58.136719 211.203125 61.03125 212.550781 63.730469 213.960938 C 61.996094 211.972656 60.257812 209.980469 58.523438 207.992188 C 61.738281 208.378906 64.953125 208.828125 68.101562 209.277344 C 67.910156 209.019531 67.589844 208.503906 67.394531 208.25 C 64.757812 206.773438 61.480469 207.09375 58.585938 206.386719 C 62.894531 202.089844 67.203125 197.789062 71.445312 193.488281 C 72.347656 197.148438 76.269531 198.171875 79.289062 199.714844 C 77.296875 197.53125 75.238281 195.414062 73.246094 193.230469 C 76.074219 193.554688 78.839844 193.9375 81.605469 194.386719 C 81.796875 194.066406 82.183594 193.488281 82.441406 193.167969 C 79.417969 192.65625 76.398438 192.203125 73.375 191.691406 C 77.359375 187.648438 81.347656 183.605469 85.398438 179.625 C 87.003906 182.835938 90.414062 184.054688 93.433594 185.59375 C 91.503906 183.605469 89.511719 181.679688 87.582031 179.691406 C 88.867188 179.046875 90.734375 179.691406 91.953125 178.792969 C 92.210938 178.664062 92.726562 178.40625 92.917969 178.277344 C 91.121094 178.085938 89.320312 177.894531 87.582031 177.699219 C 90.089844 174.941406 92.664062 172.246094 94.785156 169.230469 C 89.253906 172.886719 85.074219 178.214844 80.382812 182.835938 C 79.804688 181.101562 79.675781 179.304688 78.902344 177.699219 L 78.453125 177.378906 C 78.519531 179.304688 78.453125 181.101562 78.453125 183.027344 C 76.523438 181.292969 74.597656 179.5 72.667969 177.765625 C 73.890625 180.589844 75.304688 183.347656 77.488281 185.464844 C 73.695312 189.445312 69.839844 193.296875 65.917969 197.082031 C 65.082031 194.066406 65.851562 190.34375 64.246094 187.648438 C 63.988281 187.457031 63.539062 187.136719 63.28125 186.941406 C 63.859375 190.34375 64.308594 193.808594 64.503906 197.210938 C 62.445312 195.476562 60.582031 193.488281 58.523438 191.753906 C 59.875 194.515625 61.738281 197.019531 63.472656 199.585938 C 59.359375 203.691406 55.242188 207.863281 51 211.90625 C 50.871094 193.808594 50.871094 175.710938 51.066406 157.613281 C 54.730469 159.859375 58.265625 162.171875 61.929688 164.351562 C 58.652344 160.628906 55.117188 157.230469 51.578125 153.765625 C 53.121094 152.160156 54.730469 150.554688 56.335938 148.953125 C 58.136719 151.519531 61.03125 152.867188 63.730469 154.277344 C 61.996094 152.289062 60.257812 150.296875 58.523438 148.308594 C 61.738281 148.695312 64.953125 149.144531 68.101562 149.59375 C 67.910156 149.335938 67.589844 148.820312 67.394531 148.566406 C 64.757812 147.089844 61.480469 147.410156 58.585938 146.703125 C 62.894531 142.40625 67.203125 138.105469 71.445312 133.804688 C 72.347656 137.464844 76.269531 138.488281 79.289062 140.03125 C 77.296875 137.847656 75.238281 135.730469 73.246094 133.550781 C 76.074219 133.871094 78.839844 134.253906 81.605469 134.703125 C 81.796875 134.382812 82.183594 133.804688 82.441406 133.484375 C 79.417969 132.972656 76.398438 132.519531 73.375 132.007812 C 77.359375 127.964844 81.347656 123.921875 85.398438 119.941406 C 87.003906 123.152344 90.414062 124.371094 93.433594 125.910156 C 91.503906 123.921875 89.511719 121.996094 87.582031 120.007812 C 88.867188 119.429688 90.734375 120.007812 91.953125 119.109375 C 92.210938 118.980469 92.726562 118.722656 92.917969 118.597656 C 91.121094 118.402344 89.320312 118.210938 87.582031 118.019531 C 90.089844 115.257812 92.664062 112.5625 94.785156 109.546875 C 89.253906 113.203125 85.074219 118.597656 80.382812 123.152344 Z M 80.382812 123.152344 "/>
<path style=" stroke:none;fill-rule:nonzero;fill:rgb(99.215686%,0%,0%);fill-opacity:1;" d="M 7.824219 84.917969 C 7.824219 86.652344 6.414062 88.058594 4.675781 88.058594 C 2.9375 88.058594 1.527344 86.652344 1.527344 84.917969 C 1.527344 83.183594 2.9375 81.773438 4.675781 81.773438 C 6.414062 81.773438 7.824219 83.183594 7.824219 84.917969 Z M 7.824219 84.917969 "/>
<path style=" stroke:none;fill-rule:nonzero;fill:rgb(99.215686%,0%,0%);fill-opacity:1;" d="M 24.238281 80.449219 C 24.238281 82.183594 22.828125 83.589844 21.089844 83.589844 C 19.351562 83.589844 17.941406 82.183594 17.941406 80.449219 C 17.941406 78.714844 19.351562 77.308594 21.089844 77.308594 C 22.828125 77.308594 24.238281 78.714844 24.238281 80.449219 Z M 24.238281 80.449219 "/>
<path style=" stroke:none;fill-rule:nonzero;fill:rgb(99.215686%,0%,0%);fill-opacity:1;" d="M 18.390625 99.90625 C 18.390625 101.644531 16.980469 103.050781 15.242188 103.050781 C 13.503906 103.050781 12.09375 101.644531 12.09375 99.90625 C 12.09375 98.171875 13.503906 96.765625 15.242188 96.765625 C 16.980469 96.765625 18.390625 98.171875 18.390625 99.90625 Z M 18.390625 99.90625 "/>
<path style=" stroke:none;fill-rule:nonzero;fill:rgb(99.215686%,0%,0%);fill-opacity:1;" d="M 39.160156 90.582031 C 39.160156 92.316406 37.753906 93.722656 36.015625 93.722656 C 34.277344 93.722656 32.867188 92.316406 32.867188 90.582031 C 32.867188 88.84375 34.277344 87.4375 36.015625 87.4375 C 37.753906 87.4375 39.160156 88.84375 39.160156 90.582031 Z M 39.160156 90.582031 "/>
<path style=" stroke:none;fill-rule:nonzero;fill:rgb(99.215686%,0%,0%);fill-opacity:1;" d="M 32.441406 114.804688 C 32.441406 116.539062 31.03125 117.945312 29.292969 117.945312 C 27.554688 117.945312 26.144531 116.539062 26.144531 114.804688 C 26.144531 113.070312 27.554688 111.660156 29.292969 111.660156 C 31.03125 111.660156 32.441406 113.070312 32.441406 114.804688 Z M 32.441406 114.804688 "/>
<path style=" stroke:none;fill-rule:nonzero;fill:rgb(99.215686%,0%,0%);fill-opacity:1;" d="M 8.144531 144.601562 C 8.144531 146.335938 6.734375 147.742188 4.996094 147.742188 C 3.257812 147.742188 1.851562 146.335938 1.851562 144.601562 C 1.851562 142.863281 3.257812 141.457031 4.996094 141.457031 C 6.734375 141.457031 8.144531 142.863281 8.144531 144.601562 Z M 8.144531 144.601562 "/>
<path style=" stroke:none;fill-rule:nonzero;fill:rgb(99.215686%,0%,0%);fill-opacity:1;" d="M 24.558594 140.132812 C 24.558594 141.867188 23.152344 143.273438 21.414062 143.273438 C 19.675781 143.273438 18.265625 141.867188 18.265625 140.132812 C 18.265625 138.398438 19.675781 136.992188 21.414062 136.992188 C 23.152344 136.992188 24.558594 138.398438 24.558594 140.132812 Z M 24.558594 140.132812 "/>
<path style=" stroke:none;fill-rule:nonzero;fill:rgb(99.215686%,0%,0%);fill-opacity:1;" d="M 18.710938 159.589844 C 18.710938 161.324219 17.300781 162.734375 15.5625 162.734375 C 13.824219 162.734375 12.417969 161.324219 12.417969 159.589844 C 12.417969 157.855469 13.824219 156.449219 15.5625 156.449219 C 17.300781 156.449219 18.710938 157.855469 18.710938 159.589844 Z M 18.710938 159.589844 "/>
<path style=" stroke:none;fill-rule:nonzero;fill:rgb(99.215686%,0%,0%);fill-opacity:1;" d="M 39.484375 150.261719 C 39.484375 152 38.074219 153.40625 36.335938 153.40625 C 34.597656 153.40625 33.1875 152 33.1875 150.261719 C 33.1875 148.527344 34.597656 147.121094 36.335938 147.121094 C 38.074219 147.121094 39.484375 148.527344 39.484375 150.261719 Z M 39.484375 150.261719 "/>
<path style=" stroke:none;fill-rule:nonzero;fill:rgb(99.215686%,0%,0%);fill-opacity:1;" d="M 32.761719 174.488281 C 32.761719 176.222656 31.351562 177.628906 29.613281 177.628906 C 27.875 177.628906 26.464844 176.222656 26.464844 174.488281 C 26.464844 172.75 27.875 171.34375 29.613281 171.34375 C 31.351562 171.34375 32.761719 172.75 32.761719 174.488281 Z M 32.761719 174.488281 "/>
<path style=" stroke:none;fill-rule:nonzero;fill:rgb(99.215686%,0%,0%);fill-opacity:1;" d="M 97.988281 179.09375 C 97.988281 180.828125 96.578125 182.234375 94.839844 182.234375 C 93.101562 182.234375 91.695312 180.828125 91.695312 179.09375 C 91.695312 177.359375 93.101562 175.953125 94.839844 175.953125 C 96.578125 175.953125 97.988281 177.359375 97.988281 179.09375 Z M 97.988281 179.09375 "/>
<path style=" stroke:none;fill-rule:nonzero;fill:rgb(99.215686%,0%,0%);fill-opacity:1;" d="M 81.574219 174.625 C 81.574219 176.363281 80.164062 177.769531 78.425781 177.769531 C 76.6875 177.769531 75.277344 176.363281 75.277344 174.625 C 75.277344 172.890625 76.6875 171.484375 78.425781 171.484375 C 80.164062 171.484375 81.574219 172.890625 81.574219 174.625 Z M 81.574219 174.625 "/>
<path style=" stroke:none;fill-rule:nonzero;fill:rgb(99.215686%,0%,0%);fill-opacity:1;" d="M 87.421875 194.085938 C 87.421875 195.820312 86.011719 197.226562 84.273438 197.226562 C 82.535156 197.226562 81.128906 195.820312 81.128906 194.085938 C 81.128906 192.351562 82.535156 190.945312 84.273438 190.945312 C 86.011719 190.945312 87.421875 192.351562 87.421875 194.085938 Z M 87.421875 194.085938 "/>
<path style=" stroke:none;fill-rule:nonzero;fill:rgb(99.215686%,0%,0%);fill-opacity:1;" d="M 60.355469 184.757812 C 60.355469 186.492188 61.765625 187.898438 63.503906 187.898438 C 65.242188 187.898438 66.652344 186.492188 66.652344 184.757812 C 66.652344 183.023438 65.242188 181.617188 63.503906 181.617188 C 61.765625 181.617188 60.355469 183.023438 60.355469 184.757812 Z M 60.355469 184.757812 "/>
<path style=" stroke:none;fill-rule:nonzero;fill:rgb(99.215686%,0%,0%);fill-opacity:1;" d="M 67.078125 208.980469 C 67.078125 210.714844 68.488281 212.121094 70.226562 212.121094 C 71.964844 212.121094 73.371094 210.714844 73.371094 208.980469 C 73.371094 207.246094 71.964844 205.839844 70.226562 205.839844 C 68.488281 205.839844 67.078125 207.246094 67.078125 208.980469 Z M 67.078125 208.980469 "/>
<path style=" stroke:none;fill-rule:nonzero;fill:rgb(99.215686%,0%,0%);fill-opacity:1;" d="M 97.988281 119.410156 C 97.988281 121.148438 96.578125 122.554688 94.839844 122.554688 C 93.101562 122.554688 91.695312 121.148438 91.695312 119.410156 C 91.695312 117.675781 93.101562 116.269531 94.839844 116.269531 C 96.578125 116.269531 97.988281 117.675781 97.988281 119.410156 Z M 97.988281 119.410156 "/>
<path style=" stroke:none;fill-rule:nonzero;fill:rgb(99.215686%,0%,0%);fill-opacity:1;" d="M 81.574219 114.941406 C 81.574219 116.679688 80.164062 118.085938 78.425781 118.085938 C 76.6875 118.085938 75.277344 116.679688 75.277344 114.941406 C 75.277344 113.207031 76.6875 111.800781 78.425781 111.800781 C 80.164062 111.800781 81.574219 113.207031 81.574219 114.941406 Z M 81.574219 114.941406 "/>
<path style=" stroke:none;fill-rule:nonzero;fill:rgb(99.215686%,0%,0%);fill-opacity:1;" d="M 87.421875 134.402344 C 87.421875 136.136719 86.011719 137.542969 84.273438 137.542969 C 82.535156 137.542969 81.128906 136.136719 81.128906 134.402344 C 81.128906 132.667969 82.535156 131.261719 84.273438 131.261719 C 86.011719 131.261719 87.421875 132.667969 87.421875 134.402344 Z M 87.421875 134.402344 "/>
<path style=" stroke:none;fill-rule:nonzero;fill:rgb(99.215686%,0%,0%);fill-opacity:1;" d="M 60.355469 125.074219 C 60.355469 126.808594 61.765625 128.21875 63.503906 128.21875 C 65.242188 128.21875 66.652344 126.808594 66.652344 125.074219 C 66.652344 123.339844 65.242188 121.933594 63.503906 121.933594 C 61.765625 121.933594 60.355469 123.339844 60.355469 125.074219 Z M 60.355469 125.074219 "/>
<path style=" stroke:none;fill-rule:nonzero;fill:rgb(99.215686%,0%,0%);fill-opacity:1;" d="M 67.078125 149.296875 C 67.078125 151.035156 68.488281 152.441406 70.226562 152.441406 C 71.964844 152.441406 73.371094 151.035156 73.371094 149.296875 C 73.371094 147.5625 71.964844 146.15625 70.226562 146.15625 C 68.488281 146.15625 67.078125 147.5625 67.078125 149.296875 Z M 67.078125 149.296875 "/>
<path style=" stroke:none;fill-rule:nonzero;fill:rgb(99.215686%,0%,0%);fill-opacity:1;" d="M 98.472656 59.566406 C 98.472656 61.304688 97.0625 62.710938 95.324219 62.710938 C 93.585938 62.710938 92.175781 61.304688 92.175781 59.566406 C 92.175781 57.832031 93.585938 56.425781 95.324219 56.425781 C 97.0625 56.425781 98.472656 57.832031 98.472656 59.566406 Z M 98.472656 59.566406 "/>
<path style=" stroke:none;fill-rule:nonzero;fill:rgb(99.215686%,0%,0%);fill-opacity:1;" d="M 82.054688 55.101562 C 82.054688 56.835938 80.648438 58.242188 78.910156 58.242188 C 77.171875 58.242188 75.761719 56.835938 75.761719 55.101562 C 75.761719 53.363281 77.171875 51.957031 78.910156 51.957031 C 80.648438 51.957031 82.054688 53.363281 82.054688 55.101562 Z M 82.054688 55.101562 "/>
<path style=" stroke:none;fill-rule:nonzero;fill:rgb(99.215686%,0%,0%);fill-opacity:1;" d="M 87.902344 74.558594 C 87.902344 76.292969 86.496094 77.699219 84.757812 77.699219 C 83.019531 77.699219 81.609375 76.292969 81.609375 74.558594 C 81.609375 72.824219 83.019531 71.417969 84.757812 71.417969 C 86.496094 71.417969 87.902344 72.824219 87.902344 74.558594 Z M 87.902344 74.558594 "/>
<path style=" stroke:none;fill-rule:nonzero;fill:rgb(99.215686%,0%,0%);fill-opacity:1;" d="M 60.839844 65.230469 C 60.839844 66.964844 62.246094 68.375 63.984375 68.375 C 65.722656 68.375 67.132812 66.964844 67.132812 65.230469 C 67.132812 63.496094 65.722656 62.089844 63.984375 62.089844 C 62.246094 62.089844 60.839844 63.496094 60.839844 65.230469 Z M 60.839844 65.230469 "/>
<path style=" stroke:none;fill-rule:nonzero;fill:rgb(99.215686%,0%,0%);fill-opacity:1;" d="M 67.5625 89.453125 C 67.5625 91.191406 68.96875 92.597656 70.707031 92.597656 C 72.445312 92.597656 73.855469 91.191406 73.855469 89.453125 C 73.855469 87.71875 72.445312 86.3125 70.707031 86.3125 C 68.96875 86.3125 67.5625 87.71875 67.5625 89.453125 Z M 67.5625 89.453125 "/>
<path style=" stroke:none;fill-rule:nonzero;fill:rgb(99.215686%,0%,0%);fill-opacity:1;" d="M 41.949219 44.09375 C 41.949219 45.828125 40.539062 47.234375 38.800781 47.234375 C 37.0625 47.234375 35.65625 45.828125 35.65625 44.09375 C 35.65625 42.359375 37.0625 40.953125 38.800781 40.953125 C 40.539062 40.953125 41.949219 42.359375 41.949219 44.09375 Z M 41.949219 44.09375 "/>
<path style=" stroke:none;fill-rule:nonzero;fill:rgb(99.215686%,0%,0%);fill-opacity:1;" d="M 64.972656 32.121094 C 64.972656 33.855469 63.5625 35.261719 61.824219 35.261719 C 60.085938 35.261719 58.675781 33.855469 58.675781 32.121094 C 58.675781 30.382812 60.085938 28.976562 61.824219 28.976562 C 63.5625 28.976562 64.972656 30.382812 64.972656 32.121094 Z M 64.972656 32.121094 "/>
<path style=" stroke:none;fill-rule:nonzero;fill:rgb(99.215686%,0%,0%);fill-opacity:1;" d="M 55.996094 18.132812 C 56.53125 18.558594 57.210938 18.8125 57.945312 18.8125 C 59.6875 18.8125 61.09375 17.40625 61.09375 15.671875 C 61.09375 14.902344 60.820312 14.203125 60.359375 13.65625 C 60.085938 13.328125 59.742188 13.058594 59.355469 12.863281 C 58.933594 12.652344 58.453125 12.527344 57.945312 12.527344 C 56.207031 12.527344 54.800781 13.9375 54.800781 15.671875 C 54.800781 16.210938 54.933594 16.714844 55.171875 17.15625 C 55.378906 17.535156 55.660156 17.867188 55.996094 18.132812 Z M 55.996094 18.132812 "/>
<path style=" stroke:none;fill-rule:nonzero;fill:rgb(99.215686%,0%,0%);fill-opacity:1;" d="M 45.535156 8.234375 C 45.871094 7.730469 46.070312 7.128906 46.070312 6.480469 C 46.070312 4.746094 44.660156 3.335938 42.921875 3.335938 C 42.304688 3.335938 41.726562 3.519531 41.242188 3.824219 C 40.878906 4.054688 40.566406 4.355469 40.324219 4.707031 C 39.976562 5.210938 39.773438 5.820312 39.773438 6.480469 C 39.773438 8.214844 41.183594 9.621094 42.921875 9.621094 C 43.550781 9.621094 44.132812 9.4375 44.625 9.121094 C 44.984375 8.886719 45.296875 8.585938 45.535156 8.234375 Z M 45.535156 8.234375 "/>
<path style=" stroke:none;fill-rule:nonzero;fill:rgb(99.215686%,0%,0%);fill-opacity:1;" d="M 42.917969 24.742188 C 42.917969 26.476562 41.511719 27.882812 39.773438 27.882812 C 38.03125 27.882812 36.625 26.476562 36.625 24.742188 C 36.625 23.007812 38.03125 21.601562 39.773438 21.601562 C 41.511719 21.601562 42.917969 23.007812 42.917969 24.742188 Z M 42.917969 24.742188 "/>
</g>
</svg>
