<?xml version="1.0" encoding="UTF-8"?>
<svg xmlns="http://www.w3.org/2000/svg" xmlns:xlink="http://www.w3.org/1999/xlink" width="100px" height="76px" viewBox="0 0 100 76" version="1.1">
<g id="surface1">
<path style=" stroke:none;fill-rule:nonzero;fill:rgb(3.137255%,76.862746%,3.137255%);fill-opacity:1;" d="M 97.714844 36.113281 L 97.6875 35.890625 L 93.09375 36.445312 L 96.707031 33.148438 L 96.554688 32.980469 L 92.960938 36.261719 L 92.769531 33.054688 L 91.910156 35.890625 L 92.488281 36.402344 L 82.242188 37.226562 L 88.707031 27.589844 L 88.902344 28.398438 L 91.824219 29.195312 L 89.5 27.605469 L 93.894531 28.472656 L 93.9375 28.253906 L 89.078125 27.296875 L 93.019531 25.785156 L 92.9375 25.574219 L 88.957031 27.101562 L 91.339844 23.085938 L 91.148438 22.972656 L 88.777344 26.964844 L 88.386719 22.074219 L 88.164062 22.09375 L 88.554688 26.957031 L 85.90625 25.148438 L 87.617188 27.566406 L 88.269531 27.441406 L 81.84375 37.023438 L 80.730469 31.816406 L 80.050781 36.535156 L 81.171875 37.253906 L 51.484375 44.542969 C 51.425781 44.425781 51.351562 44.320312 51.269531 44.222656 L 65.90625 18.265625 L 66.359375 19.328125 L 71.207031 19.792969 L 66.441406 17.605469 L 76.5625 16.160156 L 76.121094 16.835938 L 77.550781 19.519531 L 77.039062 16.289062 L 81.136719 20.089844 L 81.285156 19.925781 L 77.117188 16.058594 L 81.519531 16.660156 L 81.550781 16.4375 L 77.101562 15.832031 L 81.214844 13.214844 L 81.097656 13.023438 L 77.035156 15.609375 L 78.898438 11.394531 L 78.695312 11.304688 L 76.890625 15.378906 L 76.421875 12.417969 L 75.84375 15.328125 L 76.402344 15.730469 L 66.214844 17.1875 L 70.816406 8.222656 L 71.144531 8.9375 L 74.167969 9.15625 L 71.050781 7.8125 L 75.175781 6.445312 L 75.105469 6.234375 L 70.941406 7.613281 L 73.605469 3.734375 L 73.421875 3.609375 L 70.769531 7.472656 L 70.699219 3.097656 L 70.476562 3.101562 L 70.546875 7.472656 L 68.183594 4.203125 L 68.003906 4.335938 L 70.277344 7.480469 L 67.585938 6.324219 L 69.726562 8.367188 L 70.375 8.101562 L 65.808594 16.996094 L 61.660156 9.464844 L 62.476562 9.515625 L 64.089844 6.941406 L 61.507812 9.019531 L 62.109375 4.914062 L 61.890625 4.878906 L 61.289062 8.988281 L 59.496094 5.121094 L 59.296875 5.214844 L 61.117188 9.152344 L 57.300781 7.460938 L 57.210938 7.667969 L 61.023438 9.355469 L 56.710938 10.671875 L 56.773438 10.886719 L 60.667969 9.699219 L 58.507812 11.4375 L 61.308594 10.503906 L 61.375 9.875 L 65.367188 17.113281 L 60.742188 14.992188 L 64.101562 18.359375 L 65.195312 17.945312 L 50.734375 43.832031 C 50.539062 43.746094 50.320312 43.699219 50.09375 43.699219 C 49.832031 43.699219 49.589844 43.761719 49.371094 43.871094 L 34.96875 18.386719 L 36.074219 18.808594 L 39.433594 15.441406 L 34.808594 17.5625 L 38.804688 10.320312 L 38.867188 10.953125 L 41.671875 11.886719 L 39.507812 10.144531 L 43.402344 11.332031 L 43.46875 11.117188 L 39.152344 9.804688 L 42.964844 8.117188 L 42.875 7.910156 L 39.058594 9.601562 L 40.882812 5.664062 L 40.679688 5.570312 L 38.886719 9.433594 L 38.289062 5.328125 L 38.066406 5.363281 L 38.667969 9.46875 L 36.085938 7.386719 L 37.703125 9.964844 L 38.515625 9.914062 L 34.367188 17.441406 L 29.800781 8.550781 L 30.449219 8.816406 L 32.589844 6.769531 L 29.898438 7.929688 L 32.171875 4.785156 L 31.992188 4.652344 L 29.628906 7.917969 L 29.699219 3.550781 L 29.476562 3.546875 L 29.40625 7.921875 L 26.753906 4.054688 L 26.570312 4.183594 L 29.234375 8.0625 L 25.070312 6.683594 L 25 6.894531 L 29.128906 8.261719 L 26.011719 9.605469 L 29.035156 9.386719 L 29.359375 8.667969 L 33.960938 17.636719 L 23.773438 16.175781 L 24.332031 15.773438 L 23.753906 12.867188 L 23.285156 15.824219 L 21.480469 11.753906 L 21.277344 11.84375 L 23.144531 16.058594 L 19.082031 13.472656 L 18.960938 13.664062 L 23.078125 16.28125 L 18.625 16.886719 L 18.65625 17.109375 L 23.058594 16.507812 L 18.890625 20.375 L 19.042969 20.539062 L 23.136719 16.738281 L 22.625 19.96875 L 24.054688 17.285156 L 23.613281 16.609375 L 33.734375 18.054688 L 28.96875 20.242188 L 33.816406 19.777344 L 34.273438 18.710938 L 48.839844 44.324219 C 48.777344 44.40625 48.722656 44.496094 48.679688 44.589844 L 19.117188 37.632812 L 20.128906 36.984375 L 19.449219 32.261719 L 18.339844 37.449219 L 18.316406 37.441406 L 11.90625 27.886719 L 12.558594 28.015625 L 14.265625 25.597656 L 11.621094 27.40625 L 12.011719 22.539062 L 11.789062 22.523438 L 11.398438 27.410156 L 9.027344 23.421875 L 8.835938 23.535156 L 11.222656 27.550781 L 7.234375 26.023438 L 7.15625 26.234375 L 11.097656 27.742188 L 6.238281 28.699219 L 6.28125 28.921875 L 10.671875 28.054688 L 8.351562 29.644531 L 11.273438 28.847656 L 11.46875 28.035156 L 17.933594 37.671875 L 7.6875 36.851562 L 8.265625 36.339844 L 7.40625 33.503906 L 7.214844 36.710938 L 3.621094 33.429688 L 3.46875 33.59375 L 7.082031 36.890625 L 2.488281 36.339844 L 2.464844 36.5625 L 7.085938 37.117188 L 3.445312 39.355469 L 3.5625 39.546875 L 7.164062 37.332031 L 4.949219 41.785156 L 5.148438 41.886719 L 7.148438 37.863281 L 6.980469 40.683594 L 8.140625 37.867188 L 7.683594 37.300781 L 17.945312 38.125 L 12.6875 44.828125 L 12.46875 44.140625 L 9.535156 43.792969 L 12.203125 45.164062 L 8.199219 46.253906 L 8.257812 46.472656 L 12.5 45.316406 L 12.519531 45.324219 L 9.957031 48.980469 L 10.140625 49.109375 L 12.714844 45.433594 L 13.042969 49.847656 L 13.265625 49.832031 L 12.945312 45.542969 L 13.046875 45.59375 L 15.597656 48.660156 L 15.769531 48.515625 L 13.554688 45.855469 L 15.910156 47.0625 L 13.808594 44.871094 L 13.0625 45.074219 L 18.074219 38.683594 L 17.027344 43.566406 L 19.550781 39.382812 L 18.898438 38.246094 L 48.558594 45.386719 C 48.582031 45.585938 48.648438 45.773438 48.742188 45.941406 L 44.289062 46.222656 L 48.90625 47.699219 C 48.90625 47.699219 49.441406 47.097656 49.707031 46.804688 C 49.730469 56.53125 49.6875 66.277344 49.707031 76 C 49.886719 76 50.199219 76 50.378906 76 C 50.398438 66.277344 50.355469 56.53125 50.378906 46.804688 C 50.644531 47.097656 51.179688 47.699219 51.179688 47.699219 L 55.796875 46.246094 L 51.429688 45.96875 C 51.535156 45.792969 51.605469 45.59375 51.632812 45.378906 L 81.195312 37.945312 L 80.625 38.933594 L 83.144531 43.117188 L 82.101562 38.230469 L 87.113281 44.625 L 86.367188 44.421875 L 84.265625 46.617188 L 86.621094 45.410156 L 84.40625 48.070312 L 84.578125 48.210938 L 87.125 45.148438 L 87.230469 45.09375 L 86.910156 49.382812 L 87.132812 49.398438 L 87.460938 44.988281 L 90.035156 48.660156 L 90.21875 48.53125 L 87.65625 44.875 L 87.675781 44.867188 L 91.917969 46.023438 L 91.976562 45.808594 L 87.972656 44.714844 L 90.640625 43.347656 L 87.707031 43.691406 L 87.488281 44.382812 L 82.234375 37.675781 L 92.492188 36.851562 L 92.035156 37.421875 L 93.195312 40.234375 L 93.027344 37.414062 L 95.027344 41.4375 L 95.226562 41.335938 L 93.015625 36.886719 L 96.613281 39.097656 L 96.730469 38.90625 L 93.089844 36.671875 Z M 70.703125 7.96875 L 70.714844 8 L 70.675781 7.980469 Z M 29.460938 8.449219 L 29.472656 8.417969 L 29.5 8.429688 Z M 29.460938 8.449219 "/>
<path style=" stroke:none;fill-rule:nonzero;fill:rgb(100%,0%,0%);fill-opacity:1;" d="M 17.335938 48.914062 C 17.335938 49.636719 16.753906 50.21875 16.035156 50.21875 C 15.316406 50.21875 14.734375 49.636719 14.734375 48.914062 C 14.734375 48.191406 15.316406 47.605469 16.035156 47.605469 C 16.753906 47.605469 17.335938 48.191406 17.335938 48.914062 Z M 17.335938 48.914062 "/>
<path style=" stroke:none;fill-rule:nonzero;fill:rgb(100%,0%,0%);fill-opacity:1;" d="M 4.847656 33.453125 C 4.847656 34.175781 4.265625 34.761719 3.546875 34.761719 C 2.828125 34.761719 2.246094 34.175781 2.246094 33.453125 C 2.246094 32.730469 2.828125 32.144531 3.546875 32.144531 C 4.265625 32.144531 4.847656 32.730469 4.847656 33.453125 Z M 4.847656 33.453125 "/>
<path style=" stroke:none;fill-rule:nonzero;fill:rgb(100%,0%,0%);fill-opacity:1;" d="M 3.285156 36.253906 C 3.285156 36.976562 2.703125 37.5625 1.984375 37.5625 C 1.265625 37.5625 0.683594 36.976562 0.683594 36.253906 C 0.683594 35.53125 1.265625 34.945312 1.984375 34.945312 C 2.703125 34.945312 3.285156 35.53125 3.285156 36.253906 Z M 3.285156 36.253906 "/>
<path style=" stroke:none;fill-rule:nonzero;fill:rgb(100%,0%,0%);fill-opacity:1;" d="M 3.957031 40.175781 C 3.957031 40.898438 3.375 41.480469 2.65625 41.480469 C 1.9375 41.480469 1.355469 40.898438 1.355469 40.175781 C 1.355469 39.453125 1.9375 38.867188 2.65625 38.867188 C 3.375 38.867188 3.957031 39.453125 3.957031 40.175781 Z M 3.957031 40.175781 "/>
<path style=" stroke:none;fill-rule:nonzero;fill:rgb(100%,0%,0%);fill-opacity:1;" d="M 6.632812 42.191406 C 6.632812 42.914062 6.050781 43.5 5.332031 43.5 C 4.613281 43.5 4.03125 42.914062 4.03125 42.191406 C 4.03125 41.46875 4.613281 40.882812 5.332031 40.882812 C 6.050781 40.882812 6.632812 41.46875 6.632812 42.191406 Z M 6.632812 42.191406 "/>
<path style=" stroke:none;fill-rule:nonzero;fill:rgb(100%,0%,0%);fill-opacity:1;" d="M 9.417969 46.5625 C 9.417969 47.28125 8.835938 47.867188 8.117188 47.867188 C 7.398438 47.867188 6.816406 47.28125 6.816406 46.5625 C 6.816406 45.839844 7.398438 45.253906 8.117188 45.253906 C 8.835938 45.253906 9.417969 45.839844 9.417969 46.5625 Z M 9.417969 46.5625 "/>
<path style=" stroke:none;fill-rule:nonzero;fill:rgb(100%,0%,0%);fill-opacity:1;" d="M 11.09375 49.363281 C 11.09375 50.082031 10.507812 50.667969 9.792969 50.667969 C 9.074219 50.667969 8.488281 50.082031 8.488281 49.363281 C 8.488281 48.640625 9.074219 48.054688 9.792969 48.054688 C 10.507812 48.054688 11.09375 48.640625 11.09375 49.363281 Z M 11.09375 49.363281 "/>
<path style=" stroke:none;fill-rule:nonzero;fill:rgb(100%,0%,0%);fill-opacity:1;" d="M 14.4375 50.257812 C 14.4375 50.980469 13.855469 51.566406 13.136719 51.566406 C 12.417969 51.566406 11.835938 50.980469 11.835938 50.257812 C 11.835938 49.535156 12.417969 48.949219 13.136719 48.949219 C 13.855469 48.949219 14.4375 49.535156 14.4375 50.257812 Z M 14.4375 50.257812 "/>
<path style=" stroke:none;fill-rule:nonzero;fill:rgb(100%,0%,0%);fill-opacity:1;" d="M 7.746094 28.972656 C 7.746094 29.695312 7.164062 30.277344 6.445312 30.277344 C 5.726562 30.277344 5.144531 29.695312 5.144531 28.972656 C 5.144531 28.25 5.726562 27.664062 6.445312 27.664062 C 7.164062 27.664062 7.746094 28.25 7.746094 28.972656 Z M 7.746094 28.972656 "/>
<path style=" stroke:none;fill-rule:nonzero;fill:rgb(100%,0%,0%);fill-opacity:1;" d="M 20.234375 13.398438 C 20.234375 14.121094 19.652344 14.707031 18.933594 14.707031 C 18.214844 14.707031 17.632812 14.121094 17.632812 13.398438 C 17.632812 12.675781 18.214844 12.09375 18.933594 12.09375 C 19.652344 12.09375 20.234375 12.675781 20.234375 13.398438 Z M 20.234375 13.398438 "/>
<path style=" stroke:none;fill-rule:nonzero;fill:rgb(100%,0%,0%);fill-opacity:1;" d="M 19.230469 16.984375 C 19.230469 17.707031 18.648438 18.292969 17.929688 18.292969 C 17.210938 18.292969 16.628906 17.707031 16.628906 16.984375 C 16.628906 16.261719 17.210938 15.675781 17.929688 15.675781 C 18.648438 15.675781 19.230469 16.261719 19.230469 16.984375 Z M 19.230469 16.984375 "/>
<path style=" stroke:none;fill-rule:nonzero;fill:rgb(100%,0%,0%);fill-opacity:1;" d="M 20.792969 20.234375 C 20.792969 20.957031 20.210938 21.539062 19.492188 21.539062 C 18.773438 21.539062 18.191406 20.957031 18.191406 20.234375 C 18.191406 19.511719 18.773438 18.925781 19.492188 18.925781 C 20.210938 18.925781 20.792969 19.511719 20.792969 20.234375 Z M 20.792969 20.234375 "/>
<path style=" stroke:none;fill-rule:nonzero;fill:rgb(100%,0%,0%);fill-opacity:1;" d="M 13.320312 22.585938 C 13.320312 23.308594 12.738281 23.894531 12.019531 23.894531 C 11.304688 23.894531 10.71875 23.308594 10.71875 22.585938 C 10.71875 21.863281 11.304688 21.277344 12.019531 21.277344 C 12.738281 21.277344 13.320312 21.863281 13.320312 22.585938 Z M 13.320312 22.585938 "/>
<path style=" stroke:none;fill-rule:nonzero;fill:rgb(100%,0%,0%);fill-opacity:1;" d="M 10.199219 23.480469 C 10.199219 24.203125 9.617188 24.789062 8.898438 24.789062 C 8.179688 24.789062 7.597656 24.203125 7.597656 23.480469 C 7.597656 22.761719 8.179688 22.175781 8.898438 22.175781 C 9.617188 22.175781 10.199219 22.761719 10.199219 23.480469 Z M 10.199219 23.480469 "/>
<path style=" stroke:none;fill-rule:nonzero;fill:rgb(100%,0%,0%);fill-opacity:1;" d="M 8.082031 25.722656 C 8.082031 26.445312 7.5 27.03125 6.78125 27.03125 C 6.0625 27.03125 5.480469 26.445312 5.480469 25.722656 C 5.480469 25 6.0625 24.414062 6.78125 24.414062 C 7.5 24.414062 8.082031 25 8.082031 25.722656 Z M 8.082031 25.722656 "/>
<path style=" stroke:none;fill-rule:nonzero;fill:rgb(100%,0%,0%);fill-opacity:1;" d="M 22.6875 11.382812 C 22.6875 12.105469 22.105469 12.691406 21.386719 12.691406 C 20.667969 12.691406 20.085938 12.105469 20.085938 11.382812 C 20.085938 10.660156 20.667969 10.074219 21.386719 10.074219 C 22.105469 10.074219 22.6875 10.660156 22.6875 11.382812 Z M 22.6875 11.382812 "/>
<path style=" stroke:none;fill-rule:nonzero;fill:rgb(100%,0%,0%);fill-opacity:1;" d="M 44.988281 11.269531 C 44.988281 11.992188 44.40625 12.578125 43.6875 12.578125 C 42.96875 12.578125 42.386719 11.992188 42.386719 11.269531 C 42.386719 10.546875 42.96875 9.964844 43.6875 9.964844 C 44.40625 9.964844 44.988281 10.546875 44.988281 11.269531 Z M 44.988281 11.269531 "/>
<path style=" stroke:none;fill-rule:nonzero;fill:rgb(100%,0%,0%);fill-opacity:1;" d="M 44.65625 7.796875 C 44.65625 8.519531 44.070312 9.105469 43.351562 9.105469 C 42.636719 9.105469 42.050781 8.519531 42.050781 7.796875 C 42.050781 7.074219 42.636719 6.492188 43.351562 6.492188 C 44.070312 6.492188 44.65625 7.074219 44.65625 7.796875 Z M 44.65625 7.796875 "/>
<path style=" stroke:none;fill-rule:nonzero;fill:rgb(100%,0%,0%);fill-opacity:1;" d="M 42.535156 4.886719 C 42.535156 5.605469 41.953125 6.191406 41.234375 6.191406 C 40.515625 6.191406 39.933594 5.605469 39.933594 4.886719 C 39.933594 4.164062 40.515625 3.578125 41.234375 3.578125 C 41.953125 3.578125 42.535156 4.164062 42.535156 4.886719 Z M 42.535156 4.886719 "/>
<path style=" stroke:none;fill-rule:nonzero;fill:rgb(100%,0%,0%);fill-opacity:1;" d="M 39.414062 4.546875 C 39.414062 5.269531 38.832031 5.855469 38.113281 5.855469 C 37.394531 5.855469 36.8125 5.269531 36.8125 4.546875 C 36.8125 3.828125 37.394531 3.242188 38.113281 3.242188 C 38.832031 3.242188 39.414062 3.828125 39.414062 4.546875 Z M 39.414062 4.546875 "/>
<path style=" stroke:none;fill-rule:nonzero;fill:rgb(100%,0%,0%);fill-opacity:1;" d="M 33.949219 4.101562 C 33.949219 4.824219 33.367188 5.40625 32.648438 5.40625 C 31.929688 5.40625 31.347656 4.824219 31.347656 4.101562 C 31.347656 3.378906 31.929688 2.792969 32.648438 2.792969 C 33.367188 2.792969 33.949219 3.378906 33.949219 4.101562 Z M 33.949219 4.101562 "/>
<path style=" stroke:none;fill-rule:nonzero;fill:rgb(100%,0%,0%);fill-opacity:1;" d="M 31.050781 2.757812 C 31.050781 3.476562 30.46875 4.0625 29.75 4.0625 C 29.03125 4.0625 28.449219 3.476562 28.449219 2.757812 C 28.449219 2.035156 29.03125 1.449219 29.75 1.449219 C 30.46875 1.449219 31.050781 2.035156 31.050781 2.757812 Z M 31.050781 2.757812 "/>
<path style=" stroke:none;fill-rule:nonzero;fill:rgb(100%,0%,0%);fill-opacity:1;" d="M 27.59375 3.765625 C 27.59375 4.488281 27.011719 5.070312 26.292969 5.070312 C 25.574219 5.070312 24.992188 4.488281 24.992188 3.765625 C 24.992188 3.042969 25.574219 2.457031 26.292969 2.457031 C 27.011719 2.457031 27.59375 3.042969 27.59375 3.765625 Z M 27.59375 3.765625 "/>
<path style=" stroke:none;fill-rule:nonzero;fill:rgb(100%,0%,0%);fill-opacity:1;" d="M 25.808594 6.566406 C 25.808594 7.289062 25.226562 7.871094 24.507812 7.871094 C 23.792969 7.871094 23.207031 7.289062 23.207031 6.566406 C 23.207031 5.84375 23.792969 5.257812 24.507812 5.257812 C 25.226562 5.257812 25.808594 5.84375 25.808594 6.566406 Z M 25.808594 6.566406 "/>
<path style=" stroke:none;fill-rule:nonzero;fill:rgb(100%,0%,0%);fill-opacity:1;" d="M 82.546875 48.53125 C 82.546875 49.25 83.128906 49.835938 83.84375 49.835938 C 84.5625 49.835938 85.144531 49.25 85.144531 48.53125 C 85.144531 47.808594 84.5625 47.222656 83.84375 47.222656 C 83.128906 47.222656 82.546875 47.808594 82.546875 48.53125 Z M 82.546875 48.53125 "/>
<path style=" stroke:none;fill-rule:nonzero;fill:rgb(100%,0%,0%);fill-opacity:1;" d="M 95.03125 33.070312 C 95.03125 33.792969 95.613281 34.375 96.332031 34.375 C 97.050781 34.375 97.632812 33.792969 97.632812 33.070312 C 97.632812 32.347656 97.050781 31.761719 96.332031 31.761719 C 95.613281 31.761719 95.03125 32.347656 95.03125 33.070312 Z M 95.03125 33.070312 "/>
<path style=" stroke:none;fill-rule:nonzero;fill:rgb(100%,0%,0%);fill-opacity:1;" d="M 96.59375 35.871094 C 96.59375 36.589844 97.175781 37.175781 97.894531 37.175781 C 98.613281 37.175781 99.195312 36.589844 99.195312 35.871094 C 99.195312 35.148438 98.613281 34.5625 97.894531 34.5625 C 97.175781 34.5625 96.59375 35.148438 96.59375 35.871094 Z M 96.59375 35.871094 "/>
<path style=" stroke:none;fill-rule:nonzero;fill:rgb(100%,0%,0%);fill-opacity:1;" d="M 95.925781 39.789062 C 95.925781 40.511719 96.507812 41.097656 97.222656 41.097656 C 97.941406 41.097656 98.523438 40.511719 98.523438 39.789062 C 98.523438 39.070312 97.941406 38.484375 97.222656 38.484375 C 96.507812 38.484375 95.925781 39.070312 95.925781 39.789062 Z M 95.925781 39.789062 "/>
<path style=" stroke:none;fill-rule:nonzero;fill:rgb(100%,0%,0%);fill-opacity:1;" d="M 93.25 41.808594 C 93.25 42.53125 93.832031 43.113281 94.550781 43.113281 C 95.265625 43.113281 95.847656 42.53125 95.847656 41.808594 C 95.847656 41.085938 95.265625 40.5 94.550781 40.5 C 93.832031 40.5 93.25 41.085938 93.25 41.808594 Z M 93.25 41.808594 "/>
<path style=" stroke:none;fill-rule:nonzero;fill:rgb(100%,0%,0%);fill-opacity:1;" d="M 93.0625 46.175781 C 93.0625 46.898438 92.480469 47.484375 91.761719 47.484375 C 91.042969 47.484375 90.460938 46.898438 90.460938 46.175781 C 90.460938 45.453125 91.042969 44.871094 91.761719 44.871094 C 92.480469 44.871094 93.0625 45.453125 93.0625 46.175781 Z M 93.0625 46.175781 "/>
<path style=" stroke:none;fill-rule:nonzero;fill:rgb(100%,0%,0%);fill-opacity:1;" d="M 88.785156 48.976562 C 88.785156 49.699219 89.367188 50.285156 90.089844 50.285156 C 90.808594 50.285156 91.390625 49.699219 91.390625 48.976562 C 91.390625 48.253906 90.808594 47.671875 90.089844 47.671875 C 89.367188 47.671875 88.785156 48.253906 88.785156 48.976562 Z M 88.785156 48.976562 "/>
<path style=" stroke:none;fill-rule:nonzero;fill:rgb(100%,0%,0%);fill-opacity:1;" d="M 85.441406 49.875 C 85.441406 50.597656 86.027344 51.179688 86.746094 51.179688 C 87.464844 51.179688 88.046875 50.597656 88.046875 49.875 C 88.046875 49.152344 87.464844 48.566406 86.746094 48.566406 C 86.027344 48.566406 85.441406 49.152344 85.441406 49.875 Z M 85.441406 49.875 "/>
<path style=" stroke:none;fill-rule:nonzero;fill:rgb(100%,0%,0%);fill-opacity:1;" d="M 92.132812 28.585938 C 92.132812 29.308594 92.714844 29.894531 93.433594 29.894531 C 94.152344 29.894531 94.734375 29.308594 94.734375 28.585938 C 94.734375 27.867188 94.152344 27.28125 93.433594 27.28125 C 92.714844 27.28125 92.132812 27.867188 92.132812 28.585938 Z M 92.132812 28.585938 "/>
<path style=" stroke:none;fill-rule:nonzero;fill:rgb(100%,0%,0%);fill-opacity:1;" d="M 79.644531 13.015625 C 79.644531 13.738281 80.226562 14.324219 80.945312 14.324219 C 81.664062 14.324219 82.246094 13.738281 82.246094 13.015625 C 82.246094 12.292969 81.664062 11.707031 80.945312 11.707031 C 80.226562 11.707031 79.644531 12.292969 79.644531 13.015625 Z M 79.644531 13.015625 "/>
<path style=" stroke:none;fill-rule:nonzero;fill:rgb(100%,0%,0%);fill-opacity:1;" d="M 83.25 16.601562 C 83.25 17.324219 82.667969 17.90625 81.949219 17.90625 C 81.230469 17.90625 80.648438 17.324219 80.648438 16.601562 C 80.648438 15.878906 81.230469 15.292969 81.949219 15.292969 C 82.667969 15.292969 83.25 15.878906 83.25 16.601562 Z M 83.25 16.601562 "/>
<path style=" stroke:none;fill-rule:nonzero;fill:rgb(100%,0%,0%);fill-opacity:1;" d="M 79.085938 19.847656 C 79.085938 20.570312 79.667969 21.15625 80.386719 21.15625 C 81.105469 21.15625 81.691406 20.570312 81.691406 19.847656 C 81.691406 19.128906 81.105469 18.542969 80.386719 18.542969 C 79.667969 18.542969 79.085938 19.128906 79.085938 19.847656 Z M 79.085938 19.847656 "/>
<path style=" stroke:none;fill-rule:nonzero;fill:rgb(100%,0%,0%);fill-opacity:1;" d="M 86.558594 22.203125 C 86.558594 22.925781 87.140625 23.507812 87.859375 23.507812 C 88.578125 23.507812 89.160156 22.925781 89.160156 22.203125 C 89.160156 21.480469 88.578125 20.894531 87.859375 20.894531 C 87.140625 20.894531 86.558594 21.480469 86.558594 22.203125 Z M 86.558594 22.203125 "/>
<path style=" stroke:none;fill-rule:nonzero;fill:rgb(100%,0%,0%);fill-opacity:1;" d="M 89.679688 23.097656 C 89.679688 23.820312 90.261719 24.40625 90.984375 24.40625 C 91.699219 24.40625 92.28125 23.820312 92.28125 23.097656 C 92.28125 22.375 91.699219 21.792969 90.984375 21.792969 C 90.261719 21.792969 89.679688 22.375 89.679688 23.097656 Z M 89.679688 23.097656 "/>
<path style=" stroke:none;fill-rule:nonzero;fill:rgb(100%,0%,0%);fill-opacity:1;" d="M 91.800781 25.339844 C 91.800781 26.0625 92.382812 26.644531 93.097656 26.644531 C 93.816406 26.644531 94.398438 26.0625 94.398438 25.339844 C 94.398438 24.617188 93.816406 24.03125 93.097656 24.03125 C 92.382812 24.03125 91.800781 24.617188 91.800781 25.339844 Z M 91.800781 25.339844 "/>
<path style=" stroke:none;fill-rule:nonzero;fill:rgb(100%,0%,0%);fill-opacity:1;" d="M 77.191406 11 C 77.191406 11.722656 77.773438 12.304688 78.492188 12.304688 C 79.210938 12.304688 79.796875 11.722656 79.796875 11 C 79.796875 10.277344 79.210938 9.691406 78.492188 9.691406 C 77.773438 9.691406 77.191406 10.277344 77.191406 11 Z M 77.191406 11 "/>
<path style=" stroke:none;fill-rule:nonzero;fill:rgb(100%,0%,0%);fill-opacity:1;" d="M 57.496094 10.886719 C 57.496094 11.609375 56.910156 12.195312 56.191406 12.195312 C 55.472656 12.195312 54.890625 11.609375 54.890625 10.886719 C 54.890625 10.164062 55.472656 9.578125 56.191406 9.578125 C 56.910156 9.578125 57.496094 10.164062 57.496094 10.886719 Z M 57.496094 10.886719 "/>
<path style=" stroke:none;fill-rule:nonzero;fill:rgb(100%,0%,0%);fill-opacity:1;" d="M 57.828125 7.414062 C 57.828125 8.136719 57.246094 8.722656 56.527344 8.722656 C 55.808594 8.722656 55.222656 8.136719 55.222656 7.414062 C 55.222656 6.691406 55.808594 6.105469 56.527344 6.105469 C 57.246094 6.105469 57.828125 6.691406 57.828125 7.414062 Z M 57.828125 7.414062 "/>
<path style=" stroke:none;fill-rule:nonzero;fill:rgb(100%,0%,0%);fill-opacity:1;" d="M 59.945312 4.5 C 59.945312 5.222656 59.363281 5.808594 58.644531 5.808594 C 57.925781 5.808594 57.34375 5.222656 57.34375 4.5 C 57.34375 3.777344 57.925781 3.195312 58.644531 3.195312 C 59.363281 3.195312 59.945312 3.777344 59.945312 4.5 Z M 59.945312 4.5 "/>
<path style=" stroke:none;fill-rule:nonzero;fill:rgb(100%,0%,0%);fill-opacity:1;" d="M 63.070312 4.164062 C 63.070312 4.886719 62.484375 5.472656 61.765625 5.472656 C 61.046875 5.472656 60.464844 4.886719 60.464844 4.164062 C 60.464844 3.441406 61.046875 2.855469 61.765625 2.855469 C 62.484375 2.855469 63.070312 3.441406 63.070312 4.164062 Z M 63.070312 4.164062 "/>
<path style=" stroke:none;fill-rule:nonzero;fill:rgb(100%,0%,0%);fill-opacity:1;" d="M 65.929688 3.71875 C 65.929688 4.4375 66.511719 5.023438 67.234375 5.023438 C 67.949219 5.023438 68.53125 4.4375 68.53125 3.71875 C 68.53125 2.996094 67.949219 2.410156 67.234375 2.410156 C 66.511719 2.410156 65.929688 2.996094 65.929688 3.71875 Z M 65.929688 3.71875 "/>
<path style=" stroke:none;fill-rule:nonzero;fill:rgb(100%,0%,0%);fill-opacity:1;" d="M 71.433594 2.371094 C 71.433594 3.09375 70.847656 3.679688 70.128906 3.679688 C 69.410156 3.679688 68.828125 3.09375 68.828125 2.371094 C 68.828125 1.648438 69.410156 1.066406 70.128906 1.066406 C 70.847656 1.066406 71.433594 1.648438 71.433594 2.371094 Z M 71.433594 2.371094 "/>
<path style=" stroke:none;fill-rule:nonzero;fill:rgb(100%,0%,0%);fill-opacity:1;" d="M 72.285156 3.378906 C 72.285156 4.101562 72.867188 4.6875 73.585938 4.6875 C 74.304688 4.6875 74.886719 4.101562 74.886719 3.378906 C 74.886719 2.660156 74.304688 2.074219 73.585938 2.074219 C 72.867188 2.074219 72.285156 2.660156 72.285156 3.378906 Z M 72.285156 3.378906 "/>
<path style=" stroke:none;fill-rule:nonzero;fill:rgb(100%,0%,0%);fill-opacity:1;" d="M 74.070312 6.179688 C 74.070312 6.902344 74.652344 7.488281 75.371094 7.488281 C 76.085938 7.488281 76.671875 6.902344 76.671875 6.179688 C 76.671875 5.460938 76.085938 4.875 75.371094 4.875 C 74.652344 4.875 74.070312 5.460938 74.070312 6.179688 Z M 74.070312 6.179688 "/>
</g>
</svg>
