<?xml version="1.0" encoding="UTF-8"?>
<svg xmlns="http://www.w3.org/2000/svg" xmlns:xlink="http://www.w3.org/1999/xlink" width="100px" height="233px" viewBox="0 0 100 233" version="1.1">
<g id="surface1">
<path style=" stroke:none;fill-rule:nonzero;fill:rgb(0%,76.862746%,0%);fill-opacity:1;" d="M 48.867188 4.574219 C 49.339844 4.574219 50.164062 4.574219 50.636719 4.574219 C 50.695312 32.890625 50.574219 61.152344 50.695312 89.46875 C 54.585938 85.761719 58.359375 81.933594 62.132812 78.164062 C 60.539062 75.8125 58.832031 73.515625 57.59375 70.984375 C 59.480469 72.574219 61.1875 74.398438 63.074219 75.988281 C 62.898438 72.867188 62.484375 69.6875 61.953125 66.566406 C 62.191406 66.746094 62.601562 67.039062 62.839844 67.214844 C 64.3125 69.6875 63.605469 73.101562 64.371094 75.871094 C 67.96875 72.394531 71.507812 68.863281 74.984375 65.214844 C 72.980469 63.269531 71.683594 60.738281 70.5625 58.148438 C 72.332031 59.796875 74.101562 61.386719 75.867188 62.976562 C 75.867188 61.269531 75.929688 59.503906 75.867188 57.796875 L 76.28125 58.089844 C 76.988281 59.5625 77.105469 61.210938 77.636719 62.800781 C 81.941406 58.621094 85.773438 53.675781 90.84375 50.320312 C 88.898438 53.085938 86.539062 55.558594 84.242188 58.089844 C 85.832031 58.265625 87.484375 58.441406 89.132812 58.621094 C 88.957031 58.738281 88.484375 58.972656 88.25 59.089844 C 87.128906 59.914062 85.417969 59.386719 84.242188 59.914062 C 86.007812 61.738281 87.835938 63.507812 89.605469 65.332031 C 86.835938 63.917969 83.710938 62.800781 82.238281 59.855469 C 78.523438 63.507812 74.867188 67.214844 71.210938 70.925781 C 73.980469 71.394531 76.753906 71.808594 79.523438 72.277344 C 79.289062 72.574219 78.933594 73.101562 78.757812 73.398438 C 76.222656 72.984375 73.6875 72.632812 71.09375 72.335938 C 72.921875 74.339844 74.808594 76.28125 76.636719 78.28125 C 73.863281 76.871094 70.269531 75.929688 69.441406 72.574219 C 65.550781 76.515625 61.601562 80.460938 57.652344 84.40625 C 60.304688 85.054688 63.3125 84.757812 65.726562 86.113281 C 65.90625 86.347656 66.199219 86.820312 66.375 87.054688 C 63.488281 86.644531 60.539062 86.230469 57.59375 85.878906 C 59.183594 87.703125 60.777344 89.527344 62.367188 91.351562 C 59.890625 90.058594 57.238281 88.820312 55.585938 86.464844 C 54.113281 87.9375 52.640625 89.410156 51.222656 90.882812 C 54.46875 94.0625 57.710938 97.238281 60.71875 100.597656 C 57.355469 98.59375 54.113281 96.476562 50.753906 94.414062 C 50.574219 111.015625 50.574219 127.617188 50.695312 144.21875 C 54.585938 140.511719 58.359375 136.683594 62.132812 132.917969 C 60.539062 130.5625 58.832031 128.265625 57.59375 125.734375 C 59.480469 127.324219 61.1875 129.148438 63.074219 130.738281 C 62.898438 127.617188 62.484375 124.441406 61.953125 121.320312 C 62.191406 121.496094 62.601562 121.789062 62.839844 121.964844 C 64.3125 124.441406 63.605469 127.851562 64.371094 130.621094 C 67.96875 127.148438 71.507812 123.617188 74.984375 119.964844 C 72.980469 118.023438 71.683594 115.492188 70.5625 112.898438 C 72.332031 114.488281 74.101562 116.136719 75.867188 117.726562 C 75.867188 115.960938 75.929688 114.3125 75.867188 112.546875 L 76.28125 112.839844 C 76.988281 114.3125 77.105469 115.960938 77.636719 117.550781 C 81.941406 113.371094 85.773438 108.425781 90.84375 105.070312 C 88.898438 107.835938 86.539062 110.308594 84.242188 112.839844 C 85.832031 113.019531 87.484375 113.195312 89.132812 113.371094 C 88.957031 113.488281 88.484375 113.722656 88.25 113.84375 C 87.128906 114.667969 85.417969 114.136719 84.242188 114.667969 C 86.007812 116.492188 87.835938 118.257812 89.605469 120.082031 C 86.835938 118.667969 83.710938 117.550781 82.238281 114.605469 C 78.523438 118.257812 74.867188 121.964844 71.210938 125.675781 C 73.980469 126.144531 76.753906 126.558594 79.523438 127.027344 C 79.289062 127.324219 78.933594 127.851562 78.757812 128.148438 C 76.222656 127.738281 73.6875 127.382812 71.09375 127.089844 C 72.921875 129.089844 74.808594 131.03125 76.636719 133.035156 C 73.863281 131.621094 70.269531 130.679688 69.441406 127.324219 C 65.550781 131.269531 61.601562 135.210938 57.652344 139.15625 C 60.304688 139.804688 63.3125 139.511719 65.726562 140.863281 C 65.90625 141.101562 66.199219 141.570312 66.375 141.808594 C 63.488281 141.394531 60.539062 140.984375 57.59375 140.628906 C 59.183594 142.453125 60.777344 144.277344 62.367188 146.105469 C 59.890625 144.808594 57.238281 143.574219 55.585938 141.21875 C 54.113281 142.691406 52.640625 144.160156 51.222656 145.632812 C 54.46875 148.8125 57.710938 151.933594 60.71875 155.347656 C 57.355469 153.347656 54.113281 151.226562 50.753906 149.164062 C 50.574219 165.769531 50.574219 182.371094 50.695312 198.972656 C 54.585938 195.261719 58.359375 191.4375 62.132812 187.667969 C 60.539062 185.3125 58.832031 183.019531 57.59375 180.484375 C 59.480469 182.074219 61.1875 183.902344 63.074219 185.492188 C 62.898438 182.371094 62.484375 179.191406 61.953125 176.070312 C 62.191406 176.246094 62.601562 176.542969 62.839844 176.71875 C 64.3125 179.191406 63.605469 182.605469 64.371094 185.371094 C 67.96875 181.898438 71.507812 178.367188 74.984375 174.714844 C 72.980469 172.773438 71.683594 170.242188 70.5625 167.652344 C 72.332031 169.242188 74.101562 170.890625 75.867188 172.480469 C 75.867188 170.714844 75.929688 169.0625 75.867188 167.296875 L 76.28125 167.59375 C 76.988281 169.0625 77.105469 170.714844 77.636719 172.300781 C 81.941406 168.0625 85.773438 163.175781 90.84375 159.820312 C 88.898438 162.589844 86.539062 165.0625 84.242188 167.59375 C 85.832031 167.769531 87.484375 167.945312 89.132812 168.121094 C 88.957031 168.238281 88.484375 168.476562 88.25 168.59375 C 87.128906 169.417969 85.417969 168.828125 84.242188 169.417969 C 86.007812 171.242188 87.835938 173.007812 89.605469 174.835938 C 86.835938 173.421875 83.710938 172.300781 82.238281 169.359375 C 78.523438 173.007812 74.867188 176.71875 71.210938 180.425781 C 73.980469 180.898438 76.753906 181.3125 79.523438 181.78125 C 79.289062 182.074219 78.933594 182.605469 78.757812 182.898438 C 76.222656 182.488281 73.6875 182.136719 71.09375 181.839844 C 72.921875 183.839844 74.808594 185.785156 76.636719 187.785156 C 73.863281 186.375 70.269531 185.433594 69.441406 182.074219 C 65.550781 186.019531 61.601562 189.964844 57.652344 193.910156 C 60.304688 194.558594 63.3125 194.261719 65.726562 195.617188 C 65.90625 195.851562 66.199219 196.324219 66.375 196.558594 C 63.488281 196.144531 60.539062 195.734375 57.59375 195.382812 C 59.183594 197.207031 60.777344 199.03125 62.367188 200.855469 C 59.890625 199.5625 57.238281 198.324219 55.585938 195.96875 C 54.113281 197.441406 52.640625 198.914062 51.222656 200.386719 C 54.46875 203.5625 57.710938 206.683594 60.71875 210.097656 C 57.355469 208.097656 54.113281 205.980469 50.753906 203.917969 C 50.574219 213.632812 50.636719 223.285156 50.636719 233 C 50.164062 233 49.339844 233 48.867188 233 C 48.808594 212.75 48.984375 192.4375 48.808594 172.183594 C 45.445312 174.128906 42.144531 176.304688 38.84375 178.308594 C 41.910156 174.894531 45.152344 171.65625 48.335938 168.359375 C 46.863281 167.003906 45.328125 165.652344 43.796875 164.296875 C 42.203125 166.59375 39.550781 167.769531 37.132812 169.0625 C 38.726562 167.238281 40.375 165.414062 41.910156 163.589844 C 38.960938 163.882812 36.015625 164.296875 33.125 164.707031 C 33.300781 164.472656 33.597656 164.058594 33.773438 163.824219 C 36.25 162.589844 39.199219 162.824219 41.851562 162.117188 C 37.898438 158.171875 33.949219 154.230469 30.058594 150.285156 C 29.234375 153.582031 25.578125 154.464844 22.925781 155.996094 C 24.753906 153.992188 26.582031 152.050781 28.410156 150.050781 C 25.875 150.285156 23.398438 150.578125 20.921875 150.933594 C 20.746094 150.695312 20.273438 150.226562 20.035156 149.988281 C 22.808594 149.578125 25.578125 149.105469 28.289062 148.695312 C 24.636719 144.867188 20.863281 141.160156 17.148438 137.390625 C 15.792969 140.394531 12.609375 141.570312 9.894531 143.042969 C 11.664062 141.21875 13.492188 139.453125 15.261719 137.625 C 14.023438 137.097656 12.429688 137.625 11.253906 136.804688 C 11.015625 136.683594 10.542969 136.449219 10.367188 136.332031 C 12.019531 136.152344 13.609375 135.976562 15.261719 135.800781 C 12.960938 133.328125 10.484375 130.914062 8.597656 128.089844 C 13.550781 131.621094 17.679688 136.152344 21.980469 140.511719 C 22.394531 138.980469 22.511719 137.273438 23.21875 135.800781 L 23.632812 135.449219 C 23.632812 137.214844 23.574219 138.980469 23.574219 140.6875 C 25.402344 139.097656 27.171875 137.507812 28.9375 135.859375 C 27.820312 138.449219 26.523438 140.984375 24.515625 142.925781 C 27.996094 146.515625 31.53125 150.050781 35.070312 153.582031 C 35.777344 150.8125 35.128906 147.398438 36.722656 144.925781 C 36.898438 144.75 37.371094 144.457031 37.605469 144.277344 C 37.132812 147.398438 36.78125 150.519531 36.484375 153.699219 C 38.371094 152.050781 40.023438 150.285156 41.910156 148.695312 C 40.671875 151.226562 38.960938 153.582031 37.371094 155.9375 C 41.144531 159.703125 44.917969 163.472656 48.808594 167.179688 C 48.925781 150.578125 48.925781 134.035156 48.808594 117.433594 C 45.445312 119.375 42.144531 121.554688 38.84375 123.554688 C 41.910156 120.140625 45.152344 116.902344 48.335938 113.605469 C 46.863281 112.253906 45.328125 110.898438 43.796875 109.542969 C 42.203125 111.839844 39.550781 113.019531 37.132812 114.3125 C 38.726562 112.488281 40.375 110.664062 41.910156 108.839844 C 38.960938 109.132812 36.015625 109.542969 33.125 109.957031 C 33.300781 109.722656 33.597656 109.308594 33.773438 109.074219 C 36.25 107.835938 39.199219 108.074219 41.851562 107.367188 C 37.898438 103.421875 33.949219 99.476562 30.058594 95.53125 C 29.234375 98.828125 25.578125 99.714844 22.925781 101.242188 C 24.753906 99.242188 26.582031 97.300781 28.410156 95.296875 C 25.875 95.53125 23.398438 95.828125 20.921875 96.179688 C 20.746094 95.945312 20.273438 95.472656 20.035156 95.238281 C 22.808594 94.828125 25.578125 94.355469 28.289062 93.941406 C 24.636719 90.117188 20.863281 86.40625 17.148438 82.640625 C 15.792969 85.640625 12.609375 86.820312 9.894531 88.292969 C 11.664062 86.464844 13.492188 84.699219 15.261719 82.875 C 14.023438 82.34375 12.429688 82.875 11.253906 82.050781 C 11.015625 81.933594 10.542969 81.699219 10.367188 81.578125 C 12.019531 81.402344 13.609375 81.226562 15.261719 81.050781 C 12.960938 78.578125 10.484375 76.164062 8.597656 73.335938 C 13.550781 76.871094 17.679688 81.402344 21.980469 85.761719 C 22.394531 84.230469 22.511719 82.523438 23.21875 81.050781 L 23.632812 80.695312 C 23.632812 82.464844 23.574219 84.230469 23.574219 85.9375 C 25.402344 84.347656 27.171875 82.757812 28.9375 81.109375 C 27.820312 83.699219 26.523438 86.230469 24.515625 88.171875 C 27.996094 91.765625 31.53125 95.296875 35.070312 98.828125 C 35.777344 96.0625 35.128906 92.648438 36.722656 90.175781 C 36.898438 90 37.371094 89.703125 37.605469 89.527344 C 37.132812 92.648438 36.78125 95.769531 36.484375 98.949219 C 38.371094 97.300781 40.023438 95.53125 41.910156 93.941406 C 40.671875 96.476562 38.960938 98.828125 37.371094 101.183594 C 41.144531 104.953125 44.917969 108.71875 48.808594 112.429688 C 48.925781 95.828125 48.925781 79.285156 48.808594 62.683594 C 45.445312 64.625 42.144531 66.804688 38.84375 68.804688 C 41.910156 65.390625 45.152344 62.152344 48.335938 58.855469 C 46.863281 57.5 45.328125 56.148438 43.796875 54.792969 C 42.203125 57.089844 39.550781 58.265625 37.132812 59.5625 C 38.726562 57.738281 40.375 55.910156 41.910156 54.085938 C 38.960938 54.382812 36.015625 54.792969 33.125 55.207031 C 33.300781 54.96875 33.597656 54.558594 33.773438 54.320312 C 36.25 53.085938 39.199219 53.320312 41.851562 52.613281 C 37.898438 48.671875 33.949219 44.726562 30.058594 40.78125 C 29.234375 44.078125 25.578125 44.960938 22.925781 46.492188 C 24.753906 44.488281 26.582031 42.546875 28.410156 40.546875 C 25.875 40.78125 23.398438 41.074219 20.921875 41.429688 C 20.746094 41.191406 20.273438 40.722656 20.035156 40.488281 C 22.808594 40.074219 25.578125 39.605469 28.289062 39.191406 C 24.636719 35.363281 20.863281 31.65625 17.148438 27.886719 C 15.792969 30.890625 12.609375 32.066406 9.894531 33.539062 C 11.664062 31.714844 13.492188 29.949219 15.261719 28.125 C 14.023438 27.652344 12.429688 28.125 11.253906 27.300781 C 11.015625 27.183594 10.542969 26.945312 10.367188 26.828125 C 12.019531 26.652344 13.609375 26.476562 15.261719 26.296875 C 12.960938 23.824219 10.484375 21.414062 8.597656 18.585938 C 13.550781 22.117188 17.679688 26.652344 21.980469 31.007812 C 22.394531 29.476562 22.511719 27.769531 23.21875 26.296875 L 23.632812 25.945312 C 23.632812 27.710938 23.574219 29.476562 23.574219 31.183594 C 25.402344 29.59375 27.171875 28.007812 28.9375 26.359375 C 27.820312 28.949219 26.523438 31.480469 24.515625 33.421875 C 27.996094 37.011719 31.53125 40.546875 35.070312 44.078125 C 35.777344 41.3125 35.128906 37.898438 36.722656 35.425781 C 36.898438 35.246094 37.371094 34.953125 37.605469 34.777344 C 37.132812 37.898438 36.78125 41.015625 36.484375 44.195312 C 38.371094 42.546875 40.023438 40.78125 41.910156 39.191406 C 40.671875 41.722656 38.960938 44.078125 37.371094 46.433594 C 41.144531 50.199219 44.917969 53.96875 48.808594 57.675781 C 48.984375 40.015625 48.808594 22.296875 48.867188 4.574219 Z M 48.867188 4.574219 "/>
<path style=" stroke:none;fill-rule:nonzero;fill:rgb(99.215686%,0%,0%);fill-opacity:1;" d="M 11.246094 27.429688 C 11.246094 29.019531 9.957031 30.3125 8.363281 30.3125 C 6.765625 30.3125 5.476562 29.019531 5.476562 27.429688 C 5.476562 25.835938 6.765625 24.546875 8.363281 24.546875 C 9.957031 24.546875 11.246094 25.835938 11.246094 27.429688 Z M 11.246094 27.429688 "/>
<path style=" stroke:none;fill-rule:nonzero;fill:rgb(99.215686%,0%,0%);fill-opacity:1;" d="M 26.300781 23.332031 C 26.300781 24.921875 25.007812 26.210938 23.414062 26.210938 C 21.820312 26.210938 20.527344 24.921875 20.527344 23.332031 C 20.527344 21.738281 21.820312 20.449219 23.414062 20.449219 C 25.007812 20.449219 26.300781 21.738281 26.300781 23.332031 Z M 26.300781 23.332031 "/>
<path style=" stroke:none;fill-rule:nonzero;fill:rgb(99.215686%,0%,0%);fill-opacity:1;" d="M 20.9375 41.179688 C 20.9375 42.773438 19.644531 44.0625 18.050781 44.0625 C 16.457031 44.0625 15.164062 42.773438 15.164062 41.179688 C 15.164062 39.589844 16.457031 38.300781 18.050781 38.300781 C 19.644531 38.300781 20.9375 39.589844 20.9375 41.179688 Z M 20.9375 41.179688 "/>
<path style=" stroke:none;fill-rule:nonzero;fill:rgb(99.215686%,0%,0%);fill-opacity:1;" d="M 39.984375 32.625 C 39.984375 34.21875 38.691406 35.507812 37.097656 35.507812 C 35.503906 35.507812 34.210938 34.21875 34.210938 32.625 C 34.210938 31.035156 35.503906 29.742188 37.097656 29.742188 C 38.691406 29.742188 39.984375 31.035156 39.984375 32.625 Z M 39.984375 32.625 "/>
<path style=" stroke:none;fill-rule:nonzero;fill:rgb(99.215686%,0%,0%);fill-opacity:1;" d="M 33.820312 54.847656 C 33.820312 56.4375 32.527344 57.730469 30.933594 57.730469 C 29.339844 57.730469 28.046875 56.4375 28.046875 54.847656 C 28.046875 53.253906 29.339844 51.964844 30.933594 51.964844 C 32.527344 51.964844 33.820312 53.253906 33.820312 54.847656 Z M 33.820312 54.847656 "/>
<path style=" stroke:none;fill-rule:nonzero;fill:rgb(99.215686%,0%,0%);fill-opacity:1;" d="M 11.101562 82.476562 C 11.101562 84.066406 9.808594 85.355469 8.214844 85.355469 C 6.621094 85.355469 5.328125 84.066406 5.328125 82.476562 C 5.328125 80.882812 6.621094 79.59375 8.214844 79.59375 C 9.808594 79.59375 11.101562 80.882812 11.101562 82.476562 Z M 11.101562 82.476562 "/>
<path style=" stroke:none;fill-rule:nonzero;fill:rgb(99.215686%,0%,0%);fill-opacity:1;" d="M 26.152344 78.375 C 26.152344 79.96875 24.859375 81.257812 23.265625 81.257812 C 21.671875 81.257812 20.378906 79.96875 20.378906 78.375 C 20.378906 76.785156 21.671875 75.496094 23.265625 75.496094 C 24.859375 75.496094 26.152344 76.785156 26.152344 78.375 Z M 26.152344 78.375 "/>
<path style=" stroke:none;fill-rule:nonzero;fill:rgb(99.215686%,0%,0%);fill-opacity:1;" d="M 20.789062 96.226562 C 20.789062 97.820312 19.496094 99.109375 17.902344 99.109375 C 16.308594 99.109375 15.015625 97.820312 15.015625 96.226562 C 15.015625 94.636719 16.308594 93.34375 17.902344 93.34375 C 19.496094 93.34375 20.789062 94.636719 20.789062 96.226562 Z M 20.789062 96.226562 "/>
<path style=" stroke:none;fill-rule:nonzero;fill:rgb(99.215686%,0%,0%);fill-opacity:1;" d="M 39.835938 87.671875 C 39.835938 89.261719 38.546875 90.554688 36.953125 90.554688 C 35.355469 90.554688 34.066406 89.261719 34.066406 87.671875 C 34.066406 86.078125 35.355469 84.789062 36.953125 84.789062 C 38.546875 84.789062 39.835938 86.078125 39.835938 87.671875 Z M 39.835938 87.671875 "/>
<path style=" stroke:none;fill-rule:nonzero;fill:rgb(99.215686%,0%,0%);fill-opacity:1;" d="M 33.671875 109.894531 C 33.671875 111.484375 32.382812 112.773438 30.785156 112.773438 C 29.191406 112.773438 27.902344 111.484375 27.902344 109.894531 C 27.902344 108.300781 29.191406 107.011719 30.785156 107.011719 C 32.382812 107.011719 33.671875 108.300781 33.671875 109.894531 Z M 33.671875 109.894531 "/>
<path style=" stroke:none;fill-rule:nonzero;fill:rgb(99.215686%,0%,0%);fill-opacity:1;" d="M 11.394531 137.226562 C 11.394531 138.820312 10.101562 140.109375 8.507812 140.109375 C 6.914062 140.109375 5.621094 138.820312 5.621094 137.226562 C 5.621094 135.632812 6.914062 134.34375 8.507812 134.34375 C 10.101562 134.34375 11.394531 135.632812 11.394531 137.226562 Z M 11.394531 137.226562 "/>
<path style=" stroke:none;fill-rule:nonzero;fill:rgb(99.215686%,0%,0%);fill-opacity:1;" d="M 26.449219 133.128906 C 26.449219 134.71875 25.15625 136.011719 23.5625 136.011719 C 21.96875 136.011719 20.675781 134.71875 20.675781 133.128906 C 20.675781 131.535156 21.96875 130.246094 23.5625 130.246094 C 25.15625 130.246094 26.449219 131.535156 26.449219 133.128906 Z M 26.449219 133.128906 "/>
<path style=" stroke:none;fill-rule:nonzero;fill:rgb(99.215686%,0%,0%);fill-opacity:1;" d="M 21.085938 150.980469 C 21.085938 152.570312 19.792969 153.859375 18.199219 153.859375 C 16.605469 153.859375 15.3125 152.570312 15.3125 150.980469 C 15.3125 149.386719 16.605469 148.097656 18.199219 148.097656 C 19.792969 148.097656 21.085938 149.386719 21.085938 150.980469 Z M 21.085938 150.980469 "/>
<path style=" stroke:none;fill-rule:nonzero;fill:rgb(99.215686%,0%,0%);fill-opacity:1;" d="M 40.132812 142.421875 C 40.132812 144.015625 38.839844 145.304688 37.246094 145.304688 C 35.652344 145.304688 34.359375 144.015625 34.359375 142.421875 C 34.359375 140.832031 35.652344 139.539062 37.246094 139.539062 C 38.839844 139.539062 40.132812 140.832031 40.132812 142.421875 Z M 40.132812 142.421875 "/>
<path style=" stroke:none;fill-rule:nonzero;fill:rgb(99.215686%,0%,0%);fill-opacity:1;" d="M 33.96875 164.644531 C 33.96875 166.234375 32.675781 167.527344 31.082031 167.527344 C 29.488281 167.527344 28.195312 166.234375 28.195312 164.644531 C 28.195312 163.050781 29.488281 161.761719 31.082031 161.761719 C 32.675781 161.761719 33.96875 163.050781 33.96875 164.644531 Z M 33.96875 164.644531 "/>
<path style=" stroke:none;fill-rule:nonzero;fill:rgb(99.215686%,0%,0%);fill-opacity:1;" d="M 93.78125 168.871094 C 93.78125 170.460938 92.492188 171.753906 90.894531 171.753906 C 89.300781 171.753906 88.011719 170.460938 88.011719 168.871094 C 88.011719 167.277344 89.300781 165.988281 90.894531 165.988281 C 92.492188 165.988281 93.78125 167.277344 93.78125 168.871094 Z M 93.78125 168.871094 "/>
<path style=" stroke:none;fill-rule:nonzero;fill:rgb(99.215686%,0%,0%);fill-opacity:1;" d="M 78.730469 164.773438 C 78.730469 166.363281 77.4375 167.65625 75.84375 167.65625 C 74.25 167.65625 72.957031 166.363281 72.957031 164.773438 C 72.957031 163.179688 74.25 161.890625 75.84375 161.890625 C 77.4375 161.890625 78.730469 163.179688 78.730469 164.773438 Z M 78.730469 164.773438 "/>
<path style=" stroke:none;fill-rule:nonzero;fill:rgb(99.215686%,0%,0%);fill-opacity:1;" d="M 84.09375 182.621094 C 84.09375 184.214844 82.800781 185.503906 81.207031 185.503906 C 79.613281 185.503906 78.320312 184.214844 78.320312 182.621094 C 78.320312 181.03125 79.613281 179.742188 81.207031 179.742188 C 82.800781 179.742188 84.09375 181.03125 84.09375 182.621094 Z M 84.09375 182.621094 "/>
<path style=" stroke:none;fill-rule:nonzero;fill:rgb(99.215686%,0%,0%);fill-opacity:1;" d="M 59.273438 174.066406 C 59.273438 175.65625 60.5625 176.949219 62.160156 176.949219 C 63.753906 176.949219 65.042969 175.65625 65.042969 174.066406 C 65.042969 172.476562 63.753906 171.183594 62.160156 171.183594 C 60.5625 171.183594 59.273438 172.476562 59.273438 174.066406 Z M 59.273438 174.066406 "/>
<path style=" stroke:none;fill-rule:nonzero;fill:rgb(99.215686%,0%,0%);fill-opacity:1;" d="M 65.4375 196.289062 C 65.4375 197.878906 66.730469 199.171875 68.324219 199.171875 C 69.917969 199.171875 71.210938 197.878906 71.210938 196.289062 C 71.210938 194.695312 69.917969 193.40625 68.324219 193.40625 C 66.730469 193.40625 65.4375 194.695312 65.4375 196.289062 Z M 65.4375 196.289062 "/>
<path style=" stroke:none;fill-rule:nonzero;fill:rgb(99.215686%,0%,0%);fill-opacity:1;" d="M 93.78125 114.117188 C 93.78125 115.710938 92.492188 117 90.894531 117 C 89.300781 117 88.011719 115.710938 88.011719 114.117188 C 88.011719 112.527344 89.300781 111.238281 90.894531 111.238281 C 92.492188 111.238281 93.78125 112.527344 93.78125 114.117188 Z M 93.78125 114.117188 "/>
<path style=" stroke:none;fill-rule:nonzero;fill:rgb(99.215686%,0%,0%);fill-opacity:1;" d="M 78.730469 110.019531 C 78.730469 111.613281 77.4375 112.902344 75.84375 112.902344 C 74.25 112.902344 72.957031 111.613281 72.957031 110.019531 C 72.957031 108.429688 74.25 107.136719 75.84375 107.136719 C 77.4375 107.136719 78.730469 108.429688 78.730469 110.019531 Z M 78.730469 110.019531 "/>
<path style=" stroke:none;fill-rule:nonzero;fill:rgb(99.215686%,0%,0%);fill-opacity:1;" d="M 84.09375 127.871094 C 84.09375 129.460938 82.800781 130.753906 81.207031 130.753906 C 79.613281 130.753906 78.320312 129.460938 78.320312 127.871094 C 78.320312 126.28125 79.613281 124.988281 81.207031 124.988281 C 82.800781 124.988281 84.09375 126.28125 84.09375 127.871094 Z M 84.09375 127.871094 "/>
<path style=" stroke:none;fill-rule:nonzero;fill:rgb(99.215686%,0%,0%);fill-opacity:1;" d="M 59.273438 119.316406 C 59.273438 120.90625 60.5625 122.195312 62.160156 122.195312 C 63.753906 122.195312 65.042969 120.90625 65.042969 119.316406 C 65.042969 117.722656 63.753906 116.433594 62.160156 116.433594 C 60.5625 116.433594 59.273438 117.722656 59.273438 119.316406 Z M 59.273438 119.316406 "/>
<path style=" stroke:none;fill-rule:nonzero;fill:rgb(99.215686%,0%,0%);fill-opacity:1;" d="M 65.4375 141.535156 C 65.4375 143.128906 66.730469 144.417969 68.324219 144.417969 C 69.917969 144.417969 71.210938 143.128906 71.210938 141.535156 C 71.210938 139.945312 69.917969 138.652344 68.324219 138.652344 C 66.730469 138.652344 65.4375 139.945312 65.4375 141.535156 Z M 65.4375 141.535156 "/>
<path style=" stroke:none;fill-rule:nonzero;fill:rgb(99.215686%,0%,0%);fill-opacity:1;" d="M 94.226562 59.21875 C 94.226562 60.8125 92.933594 62.101562 91.339844 62.101562 C 89.746094 62.101562 88.453125 60.8125 88.453125 59.21875 C 88.453125 57.628906 89.746094 56.339844 91.339844 56.339844 C 92.933594 56.339844 94.226562 57.628906 94.226562 59.21875 Z M 94.226562 59.21875 "/>
<path style=" stroke:none;fill-rule:nonzero;fill:rgb(99.215686%,0%,0%);fill-opacity:1;" d="M 79.171875 55.121094 C 79.171875 56.714844 77.878906 58.003906 76.285156 58.003906 C 74.691406 58.003906 73.398438 56.714844 73.398438 55.121094 C 73.398438 53.53125 74.691406 52.238281 76.285156 52.238281 C 77.878906 52.238281 79.171875 53.53125 79.171875 55.121094 Z M 79.171875 55.121094 "/>
<path style=" stroke:none;fill-rule:nonzero;fill:rgb(99.215686%,0%,0%);fill-opacity:1;" d="M 84.535156 72.972656 C 84.535156 74.5625 83.242188 75.855469 81.648438 75.855469 C 80.054688 75.855469 78.761719 74.5625 78.761719 72.972656 C 78.761719 71.382812 80.054688 70.089844 81.648438 70.089844 C 83.242188 70.089844 84.535156 71.382812 84.535156 72.972656 Z M 84.535156 72.972656 "/>
<path style=" stroke:none;fill-rule:nonzero;fill:rgb(99.215686%,0%,0%);fill-opacity:1;" d="M 59.714844 64.417969 C 59.714844 66.007812 61.007812 67.296875 62.601562 67.296875 C 64.195312 67.296875 65.488281 66.007812 65.488281 64.417969 C 65.488281 62.824219 64.195312 61.535156 62.601562 61.535156 C 61.007812 61.535156 59.714844 62.824219 59.714844 64.417969 Z M 59.714844 64.417969 "/>
<path style=" stroke:none;fill-rule:nonzero;fill:rgb(99.215686%,0%,0%);fill-opacity:1;" d="M 65.878906 86.636719 C 65.878906 88.230469 67.171875 89.519531 68.765625 89.519531 C 70.359375 89.519531 71.652344 88.230469 71.652344 86.636719 C 71.652344 85.046875 70.359375 83.753906 68.765625 83.753906 C 67.171875 83.753906 65.878906 85.046875 65.878906 86.636719 Z M 65.878906 86.636719 "/>
</g>
</svg>
