<?xml version="1.0" encoding="UTF-8"?>
<svg xmlns="http://www.w3.org/2000/svg" xmlns:xlink="http://www.w3.org/1999/xlink" width="100px" height="77px" viewBox="0 0 100 77" version="1.1">
<g id="surface1">
<path style=" stroke:none;fill-rule:nonzero;fill:rgb(100%,0%,0%);fill-opacity:1;" d="M 46.488281 1.671875 C 47.347656 -0.0234375 50.433594 0.445312 50.707031 2.332031 C 51.175781 3.558594 50.082031 4.941406 48.832031 5 C 48.695312 5 48.382812 5 48.246094 5 C 46.625 5.097656 45.433594 2.976562 46.488281 1.671875 Z M 46.488281 1.671875 "/>
<path style=" stroke:none;fill-rule:nonzero;fill:rgb(100%,0%,0%);fill-opacity:1;" d="M 54.339844 1.90625 C 55.394531 0.484375 58.226562 0.910156 58.480469 2.78125 C 58.890625 4.105469 57.679688 5.605469 56.3125 5.527344 C 56.097656 5.507812 55.882812 5.46875 55.6875 5.429688 C 54.066406 5.332031 53.265625 3.054688 54.339844 1.90625 Z M 54.339844 1.90625 "/>
<path style=" stroke:none;fill-rule:nonzero;fill:rgb(100%,0%,0%);fill-opacity:1;" d="M 39.105469 2.101562 C 40.160156 0.679688 42.992188 1.105469 43.246094 2.976562 C 43.636719 4.300781 42.484375 5.703125 41.15625 5.761719 C 41.019531 5.761719 40.746094 5.742188 40.609375 5.742188 C 38.96875 5.605469 37.972656 3.328125 39.105469 2.101562 Z M 39.105469 2.101562 "/>
<path style=" stroke:none;fill-rule:nonzero;fill:rgb(100%,0%,0%);fill-opacity:1;" d="M 31.371094 4.707031 C 32.132812 2.878906 35.335938 2.976562 35.785156 4.960938 C 36.234375 6.1875 35.335938 7.550781 34.144531 7.863281 C 34.007812 7.882812 33.773438 7.882812 33.636719 7.902344 C 32.015625 8.019531 30.6875 6.226562 31.371094 4.707031 Z M 31.371094 4.707031 "/>
<path style=" stroke:none;fill-rule:nonzero;fill:rgb(100%,0%,0%);fill-opacity:1;" d="M 61.957031 4.824219 C 63.011719 3.402344 65.84375 3.832031 66.097656 5.703125 C 66.507812 7.027344 65.296875 8.523438 63.949219 8.449219 C 63.734375 8.429688 63.539062 8.410156 63.34375 8.371094 C 61.703125 8.292969 60.882812 5.992188 61.957031 4.824219 Z M 61.957031 4.824219 "/>
<path style=" stroke:none;fill-rule:nonzero;fill:rgb(0%,76.47059%,0%);fill-opacity:1;" d="M 48.246094 5 C 48.382812 5 48.695312 5 48.832031 5 C 48.832031 7.414062 48.832031 9.828125 48.851562 12.246094 C 50.355469 11.445312 51.996094 10.785156 53.167969 9.5 C 54.183594 8.273438 55.003906 6.890625 55.6875 5.429688 C 55.882812 5.46875 56.097656 5.507812 56.3125 5.527344 C 55.53125 7.105469 54.710938 8.71875 53.480469 10.003906 C 52.289062 11.328125 50.609375 11.953125 49.125 12.867188 C 50.511719 13.664062 51.976562 14.308594 53.382812 15.066406 C 51.859375 14.929688 50.355469 14.679688 48.832031 14.484375 C 48.832031 19.507812 48.832031 24.53125 48.832031 29.535156 C 52.113281 27.546875 55.472656 25.308594 57.445312 21.941406 C 59.554688 18.554688 60.921875 14.777344 62.367188 11.074219 C 62.71875 10.179688 63.089844 9.304688 63.34375 8.371094 C 63.539062 8.410156 63.734375 8.429688 63.949219 8.449219 C 63.050781 11.367188 61.761719 14.152344 60.6875 17.015625 C 62.523438 16.625 64.457031 16.429688 66.195312 15.671875 C 67.835938 14.777344 69.066406 13.355469 70.335938 12.03125 C 70.550781 12.070312 70.765625 12.109375 70.980469 12.148438 C 69.535156 13.605469 68.246094 15.28125 66.390625 16.253906 C 64.691406 16.898438 62.894531 17.210938 61.097656 17.519531 C 61.703125 18.726562 62.386719 19.914062 62.933594 21.160156 C 61.917969 20.285156 61.039062 19.273438 60.101562 18.339844 C 58.910156 20.695312 57.679688 23.089844 55.824219 24.996094 C 53.929688 27.0625 51.507812 28.542969 49.183594 30.058594 C 50.589844 30.898438 52.09375 31.558594 53.597656 32.203125 C 51.996094 32.125 50.414062 31.890625 48.832031 31.65625 C 48.832031 37.519531 48.8125 43.398438 48.851562 49.277344 C 51.9375 48.382812 54.925781 47.273438 57.933594 46.164062 C 61.976562 44.703125 65.921875 42.949219 69.535156 40.632812 C 72.542969 38.726562 75.414062 36.640625 78.207031 34.460938 C 76.996094 33.914062 75.726562 33.46875 74.535156 32.84375 C 75.785156 32.941406 77.035156 33.136719 78.265625 33.371094 C 78.1875 31.269531 77.933594 29.105469 78.5 27.042969 C 77.230469 26.847656 75.980469 26.613281 74.730469 26.300781 C 75.921875 26.261719 77.113281 26.222656 78.304688 26.1875 C 77.464844 24.957031 76.390625 23.730469 76.3125 22.15625 C 76.136719 20.070312 76.488281 17.988281 76.585938 15.90625 C 76.800781 15.945312 77.015625 15.984375 77.230469 16.023438 C 77.269531 18.339844 76.429688 20.695312 77.074219 22.972656 C 77.464844 24.160156 78.304688 25.152344 79.007812 26.1875 C 80.121094 24.238281 81.3125 22.332031 82.640625 20.519531 C 82.777344 20.695312 82.914062 20.851562 83.050781 21.007812 C 81.644531 23.011719 80.21875 25.015625 79.183594 27.257812 C 78.34375 29.300781 78.8125 31.597656 78.949219 33.742188 C 82.035156 31.597656 84.945312 29.222656 87.796875 26.769531 C 87.914062 26.90625 88.050781 27.042969 88.1875 27.160156 C 85.84375 29.4375 83.128906 31.269531 80.609375 33.332031 C 77.621094 35.765625 74.4375 37.945312 71.371094 40.261719 C 75.921875 40.925781 80.53125 41.917969 85.160156 41.414062 C 84.496094 40.4375 83.832031 39.464844 83.1875 38.472656 C 83.988281 39.171875 84.75 39.914062 85.511719 40.632812 C 85.746094 39.523438 86.019531 38.375 86.605469 37.363281 C 87.933594 35.472656 89.925781 34.226562 91.683594 32.746094 C 91.761719 32.921875 91.839844 33.078125 91.917969 33.253906 C 90.121094 34.96875 87.640625 36.195312 86.683594 38.609375 C 86.371094 39.445312 86.273438 40.359375 86.117188 41.238281 C 89.007812 40.828125 91.820312 39.972656 94.691406 39.40625 C 94.789062 39.601562 94.886719 39.777344 94.984375 39.972656 C 90.472656 40.964844 85.941406 42.289062 81.253906 42.132812 C 77.875 42.035156 74.535156 41.449219 71.214844 40.847656 C 70.941406 40.808594 70.628906 40.710938 70.355469 40.867188 C 68.890625 41.644531 67.503906 42.601562 66.019531 43.339844 C 60.824219 46.066406 55.199219 47.761719 49.691406 49.726562 C 50.921875 50.542969 52.308594 51.011719 53.617188 51.671875 C 52.015625 51.574219 50.433594 51.304688 48.832031 51.089844 C 48.8125 59.402344 48.851562 67.738281 48.832031 76.050781 C 48.675781 76.050781 48.402344 76.050781 48.246094 76.050781 C 48.226562 71.242188 48.265625 66.433594 48.246094 61.625 C 46.722656 61.796875 45.199219 62.050781 43.675781 62.1875 C 44.925781 61.527344 46.234375 60.980469 47.503906 60.359375 C 42.464844 58.15625 37.367188 56.054688 32.425781 53.640625 C 28.636719 51.613281 25.003906 49.21875 21.722656 46.417969 C 19.691406 44.722656 17.835938 42.832031 15.804688 41.121094 C 15.238281 42.074219 14.671875 43.027344 14.085938 43.980469 C 14.300781 42.96875 14.613281 41.996094 14.886719 41.003906 C 13.167969 41.003906 11.390625 41.355469 9.691406 40.90625 C 8.1875 40.554688 6.742188 40.050781 5.316406 39.503906 C 5.453125 39.328125 5.609375 39.152344 5.746094 38.976562 C 8.597656 40.164062 11.742188 41.023438 14.847656 40.300781 C 12.542969 37.558594 9.808594 35.199219 7.289062 32.628906 C 7.425781 32.476562 7.5625 32.320312 7.679688 32.164062 C 11.214844 35.667969 14.613281 39.328125 18.363281 42.601562 C 18.109375 39.679688 17.972656 36.5625 16.429688 33.972656 C 14.789062 31.132812 12.699219 28.601562 10.707031 25.992188 C 10.84375 25.855469 10.960938 25.738281 11.097656 25.582031 C 12.953125 27.859375 14.75 30.195312 16.371094 32.648438 C 16.800781 30.449219 17.71875 28.191406 17.09375 25.933594 C 16.644531 24.316406 16.078125 22.738281 15.472656 21.179688 C 15.648438 21.085938 15.804688 21.007812 15.960938 20.910156 C 16.761719 22.855469 17.582031 24.824219 17.855469 26.925781 C 18.070312 28.851562 17.445312 30.742188 17.015625 32.609375 C 18.265625 32.628906 19.515625 32.628906 20.765625 32.6875 C 19.496094 33.019531 18.226562 33.3125 16.957031 33.644531 C 18.519531 36.332031 18.65625 39.503906 18.929688 42.523438 C 20.257812 42.269531 21.585938 42.015625 22.914062 41.800781 C 21.722656 42.40625 20.492188 42.929688 19.261719 43.457031 C 23.636719 47.683594 28.734375 51.148438 34.203125 53.835938 C 38.8125 56.015625 43.519531 57.960938 48.226562 59.96875 C 48.285156 53.25 48.246094 46.550781 48.246094 39.835938 C 46.722656 40.050781 45.21875 40.28125 43.695312 40.398438 C 44.984375 39.738281 46.3125 39.210938 47.621094 38.589844 C 44.710938 36.175781 41.410156 34.285156 38.617188 31.714844 C 35.472656 29.046875 33.089844 25.542969 31.585938 21.707031 C 30.550781 22.117188 29.535156 22.523438 28.5 22.894531 C 29.164062 22.332031 29.828125 21.785156 30.492188 21.21875 C 29.144531 20.910156 27.699219 20.753906 26.46875 20.050781 C 24.730469 18.863281 23.363281 17.210938 21.839844 15.789062 C 21.976562 15.671875 22.132812 15.554688 22.269531 15.4375 C 24.242188 17.113281 25.785156 19.703125 28.519531 20.148438 C 29.359375 20.363281 30.199219 20.5 31.039062 20.617188 C 29.828125 17.578125 28.675781 14.523438 27.5625 11.445312 C 27.738281 11.367188 27.914062 11.269531 28.089844 11.171875 C 29.691406 15.320312 31.117188 19.546875 33.070312 23.558594 C 33.890625 22.15625 34.945312 20.773438 35.042969 19.078125 C 35.316406 17.460938 34.90625 15.828125 34.691406 14.230469 C 34.359375 12.128906 34.183594 9.964844 33.636719 7.902344 C 33.773438 7.882812 34.007812 7.882812 34.144531 7.863281 L 34.320312 7.84375 C 34.730469 10.960938 35.296875 14.035156 35.628906 17.152344 C 36.039062 19.351562 35.140625 21.472656 33.988281 23.304688 C 35.316406 23.480469 36.644531 23.671875 37.972656 23.945312 C 36.449219 24.042969 34.925781 24.160156 33.402344 24.277344 C 34.867188 26.867188 36.644531 29.28125 38.910156 31.230469 C 41.839844 33.761719 45.023438 35.960938 48.207031 38.160156 C 48.285156 33.46875 48.246094 28.753906 48.246094 24.0625 C 46.859375 24.257812 45.472656 24.375 44.085938 24.433594 C 45.296875 23.867188 46.527344 23.382812 47.679688 22.699219 C 43.734375 17.871094 41.488281 11.835938 40.609375 5.742188 C 40.746094 5.742188 41.019531 5.761719 41.15625 5.761719 C 41.9375 10.316406 43.363281 14.8125 45.6875 18.824219 C 46.390625 19.972656 47.132812 21.160156 48.1875 22.039062 C 48.324219 16.351562 48.207031 10.6875 48.246094 5 Z M 48.246094 5 "/>
<path style=" stroke:none;fill-rule:nonzero;fill:rgb(100%,0%,0%);fill-opacity:1;" d="M 24.847656 7.941406 C 25.746094 6.773438 27.738281 6.832031 28.65625 7.960938 C 29.300781 8.972656 29.164062 10.511719 28.089844 11.171875 C 27.914062 11.269531 27.738281 11.367188 27.5625 11.445312 C 26.820312 11.757812 25.941406 11.484375 25.257812 11.152344 C 24.359375 10.414062 24.007812 8.855469 24.847656 7.941406 Z M 24.847656 7.941406 "/>
<path style=" stroke:none;fill-rule:nonzero;fill:rgb(100%,0%,0%);fill-opacity:1;" d="M 69.183594 8.523438 C 70.238281 7.105469 73.070312 7.53125 73.324219 9.402344 C 73.753906 10.785156 72.425781 12.339844 70.980469 12.148438 C 70.765625 12.109375 70.550781 12.070312 70.335938 12.03125 C 68.832031 11.796875 68.167969 9.617188 69.183594 8.523438 Z M 69.183594 8.523438 "/>
<path style=" stroke:none;fill-rule:nonzero;fill:rgb(100%,0%,0%);fill-opacity:1;" d="M 18.363281 14.289062 C 17.816406 12.4375 20.101562 10.941406 21.683594 11.777344 C 23.167969 12.265625 23.441406 14.523438 22.269531 15.4375 C 22.132812 15.554688 21.976562 15.671875 21.839844 15.789062 C 20.550781 16.46875 18.636719 15.847656 18.363281 14.289062 Z M 18.363281 14.289062 "/>
<path style=" stroke:none;fill-rule:nonzero;fill:rgb(100%,0%,0%);fill-opacity:1;" d="M 75.433594 12.417969 C 76.488281 11 79.320312 11.425781 79.574219 13.296875 C 80.003906 14.679688 78.65625 16.253906 77.230469 16.023438 C 77.015625 15.984375 76.800781 15.945312 76.585938 15.90625 C 75.082031 15.691406 74.417969 13.511719 75.433594 12.417969 Z M 75.433594 12.417969 "/>
<path style=" stroke:none;fill-rule:nonzero;fill:rgb(100%,0%,0%);fill-opacity:1;" d="M 13.949219 16.9375 C 14.847656 16.644531 15.804688 16.957031 16.449219 17.578125 C 17.230469 18.574219 17.09375 20.226562 15.960938 20.910156 C 15.804688 21.007812 15.648438 21.085938 15.472656 21.179688 C 14.417969 21.433594 12.875 21.21875 12.484375 19.992188 C 11.78125 18.804688 12.640625 17.152344 13.949219 16.9375 Z M 13.949219 16.9375 "/>
<path style=" stroke:none;fill-rule:nonzero;fill:rgb(100%,0%,0%);fill-opacity:1;" d="M 82.953125 17.578125 C 84.164062 16.449219 86.722656 17.09375 86.820312 18.882812 C 87.328125 20.929688 84.535156 22.351562 83.050781 21.007812 C 82.914062 20.851562 82.777344 20.695312 82.640625 20.519531 C 81.996094 19.664062 82.015625 18.242188 82.953125 17.578125 Z M 82.953125 17.578125 "/>
<path style=" stroke:none;fill-rule:nonzero;fill:rgb(100%,0%,0%);fill-opacity:1;" d="M 8.480469 22.195312 C 9.398438 21.902344 10.472656 22.234375 11.078125 22.953125 C 11.546875 23.710938 11.664062 24.84375 11.097656 25.582031 C 10.960938 25.738281 10.84375 25.855469 10.707031 25.992188 C 9.671875 27.003906 7.503906 26.671875 7.015625 25.25 C 6.3125 24.0625 7.171875 22.410156 8.480469 22.195312 Z M 8.480469 22.195312 "/>
<path style=" stroke:none;fill-rule:nonzero;fill:rgb(100%,0%,0%);fill-opacity:1;" d="M 87.738281 23.90625 C 88.636719 22.738281 90.628906 22.796875 91.546875 23.925781 C 92.09375 24.804688 92.132812 26.128906 91.273438 26.847656 C 90.550781 27.761719 89.144531 27.605469 88.1875 27.160156 C 88.050781 27.042969 87.914062 26.90625 87.796875 26.769531 C 87.210938 25.972656 87.015625 24.6875 87.738281 23.90625 Z M 87.738281 23.90625 "/>
<path style=" stroke:none;fill-rule:nonzero;fill:rgb(100%,0%,0%);fill-opacity:1;" d="M 4.964844 29.007812 C 6.039062 28.679688 7.484375 29.164062 7.816406 30.3125 C 7.972656 30.917969 8.070312 31.617188 7.679688 32.164062 C 7.5625 32.320312 7.425781 32.476562 7.289062 32.628906 C 6.351562 33.875 4.027344 33.546875 3.5 32.066406 C 2.796875 30.878906 3.65625 29.222656 4.964844 29.007812 Z M 4.964844 29.007812 "/>
<path style=" stroke:none;fill-rule:nonzero;fill:rgb(100%,0%,0%);fill-opacity:1;" d="M 91.683594 32.746094 C 90.921875 30.859375 93.285156 29.222656 94.925781 30.078125 C 96.371094 30.546875 96.683594 32.707031 95.570312 33.664062 C 94.671875 34.753906 92.542969 34.558594 91.917969 33.253906 C 91.839844 33.078125 91.761719 32.921875 91.683594 32.746094 Z M 91.683594 32.746094 "/>
<path style=" stroke:none;fill-rule:nonzero;fill:rgb(100%,0%,0%);fill-opacity:1;" d="M 3.011719 35.824219 C 3.929688 35.53125 5.003906 35.863281 5.609375 36.582031 C 6.019531 37.265625 6.195312 38.257812 5.746094 38.976562 C 5.609375 39.152344 5.453125 39.328125 5.316406 39.503906 C 4.339844 40.671875 2.054688 40.339844 1.546875 38.882812 C 0.84375 37.691406 1.703125 36.039062 3.011719 35.824219 Z M 3.011719 35.824219 "/>
<path style=" stroke:none;fill-rule:nonzero;fill:rgb(100%,0%,0%);fill-opacity:1;" d="M 94.691406 39.40625 C 93.792969 37.691406 95.6875 35.84375 97.425781 36.347656 C 99.144531 36.582031 99.769531 38.996094 98.5 40.089844 C 97.640625 41.140625 95.785156 40.945312 94.984375 39.972656 C 94.886719 39.777344 94.789062 39.601562 94.691406 39.40625 Z M 94.691406 39.40625 "/>
</g>
</svg>
