<?xml version="1.0" encoding="UTF-8"?>
<svg xmlns="http://www.w3.org/2000/svg" xmlns:xlink="http://www.w3.org/1999/xlink" width="100px" height="84px" viewBox="0 0 100 84" version="1.1">
<g id="surface1">
<path style=" stroke:none;fill-rule:nonzero;fill:rgb(0%,77.254903%,0%);fill-opacity:1;" d="M 57.960938 5.480469 C 58.105469 5.625 58.25 5.769531 58.414062 5.894531 C 56.164062 8.488281 53.75 10.9375 51.523438 13.554688 C 53.214844 13.699219 54.925781 13.554688 56.617188 13.449219 C 55.503906 13.90625 54.433594 14.53125 53.234375 14.777344 C 52.554688 14.925781 51.933594 14.550781 51.335938 14.300781 C 51.378906 17.433594 51.378906 20.589844 51.417969 23.746094 C 56.578125 18.058594 61.652344 12.289062 66.644531 6.476562 C 66.769531 6.707031 66.914062 6.933594 67.039062 7.160156 C 61.859375 13.015625 56.617188 18.804688 51.542969 24.742188 C 53.234375 24.90625 54.90625 24.761719 56.597656 24.78125 C 55.359375 25.257812 54.101562 25.757812 52.800781 26.046875 C 52.265625 26.027344 51.8125 25.714844 51.335938 25.488281 C 51.378906 28.351562 51.378906 31.238281 51.417969 34.101562 C 59.878906 25.675781 68.234375 17.144531 76.695312 8.71875 C 76.839844 8.863281 76.984375 9.007812 77.128906 9.15625 C 68.542969 17.683594 60.003906 26.277344 51.523438 34.929688 C 53.214844 34.972656 54.90625 34.953125 56.597656 34.953125 C 55.359375 35.429688 54.101562 35.925781 52.800781 36.21875 C 52.265625 36.195312 51.792969 35.886719 51.316406 35.65625 C 51.378906 38.8125 51.378906 41.964844 51.417969 45.101562 C 56.246094 40.285156 61.054688 35.429688 65.863281 30.570312 C 72.15625 23.828125 78.859375 17.496094 85.234375 10.835938 C 85.359375 11 85.503906 11.148438 85.648438 11.292969 C 83.070312 13.925781 80.429688 16.542969 77.828125 19.15625 C 69.265625 28.269531 60.207031 36.902344 51.542969 45.910156 C 53.214844 46.160156 54.90625 46.136719 56.597656 46.011719 C 55.464844 46.46875 54.328125 46.90625 53.171875 47.277344 C 52.535156 47.488281 51.933594 47.03125 51.359375 46.800781 C 51.378906 50.453125 51.378906 54.105469 51.398438 57.757812 C 65.925781 43.710938 79.890625 29.078125 94.335938 14.964844 C 94.5 15.109375 94.683594 15.257812 94.851562 15.402344 C 91.34375 18.761719 88.019531 22.3125 84.511719 25.675781 C 80.550781 29.367188 76.839844 33.3125 72.980469 37.109375 C 65.925781 44.269531 58.765625 51.347656 51.75 58.570312 C 53.359375 58.671875 54.96875 58.734375 56.578125 58.671875 C 55.503906 59.109375 54.433594 59.585938 53.296875 59.917969 C 52.597656 60.167969 51.957031 59.605469 51.316406 59.378906 C 51.441406 67.410156 51.359375 75.421875 51.378906 83.453125 L 50.757812 83.453125 C 50.78125 76.9375 50.71875 70.417969 50.800781 63.902344 C 50.140625 64.195312 49.480469 64.878906 48.695312 64.585938 C 47.601562 64.234375 46.507812 63.820312 45.476562 63.300781 C 47.128906 63.363281 48.777344 63.488281 50.429688 63.34375 C 39.679688 51.699219 28.703125 40.304688 17.871094 28.746094 C 13.621094 24.304688 9.453125 19.78125 5.183594 15.339844 C 5.328125 15.152344 5.453125 14.964844 5.597656 14.777344 C 9.390625 18.949219 13.332031 22.996094 17.191406 27.148438 C 28.394531 38.914062 39.472656 50.828125 50.71875 62.554688 C 50.757812 58.777344 50.738281 55.019531 50.820312 51.261719 C 50.140625 51.535156 49.480469 52.21875 48.695312 51.929688 C 47.601562 51.574219 46.53125 51.140625 45.5 50.640625 C 47.148438 50.746094 48.820312 50.785156 50.492188 50.640625 C 49.726562 49.726562 48.902344 48.835938 48.078125 47.964844 C 36.792969 35.800781 25.546875 23.621094 14.21875 11.5 C 14.363281 11.355469 14.488281 11.1875 14.632812 11.023438 C 26.660156 23.972656 38.667969 36.945312 50.71875 49.875 C 50.78125 46.261719 50.757812 42.628906 50.738281 39.019531 C 50.328125 39.390625 49.914062 39.765625 49.480469 40.140625 C 48.160156 39.640625 46.796875 39.164062 45.5 38.582031 C 47.128906 38.6875 48.777344 38.75 50.410156 38.644531 C 41.351562 28.726562 31.941406 19.09375 22.84375 9.175781 C 23.007812 9.050781 23.152344 8.882812 23.296875 8.738281 C 24.433594 10.046875 25.566406 11.3125 26.765625 12.539062 C 34.769531 21.003906 42.753906 29.535156 50.757812 38.003906 C 50.757812 34.890625 50.757812 31.777344 50.820312 28.640625 C 50.160156 28.910156 49.5 29.535156 48.738281 29.265625 C 47.625 28.953125 46.550781 28.457031 45.5 27.976562 C 47.128906 28.019531 48.777344 28.101562 50.410156 27.914062 C 44.507812 20.941406 38.605469 13.96875 32.625 7.058594 C 32.832031 6.953125 33.015625 6.828125 33.203125 6.683594 C 33.863281 7.554688 34.542969 8.367188 35.246094 9.195312 C 40.445312 15.171875 45.519531 21.273438 50.71875 27.273438 C 50.757812 24.136719 50.757812 21.027344 50.820312 17.914062 C 49.976562 18.121094 49.089844 18.390625 48.222656 18.160156 C 47.292969 17.914062 46.425781 17.496094 45.558594 17.125 C 47.230469 17.1875 48.921875 17.164062 50.59375 17.082031 C 47.480469 13.472656 44.609375 9.652344 41.453125 6.0625 C 41.640625 5.917969 41.804688 5.769531 41.96875 5.625 C 44.859375 9.175781 47.769531 12.746094 50.71875 16.253906 C 50.757812 14.175781 50.78125 12.101562 50.820312 10.027344 C 49.976562 10.234375 49.089844 10.503906 48.222656 10.273438 C 47.292969 10.027344 46.425781 9.609375 45.558594 9.257812 C 47.191406 9.320312 48.839844 9.257812 50.472656 9.132812 C 49.726562 8.15625 48.921875 7.222656 48.015625 6.375 C 48.304688 6.351562 48.59375 6.332031 48.882812 6.289062 C 49.480469 6.976562 50.152344 7.738281 50.75 8.421875 C 50.796875 8.300781 50.859375 6.179688 50.859375 6.179688 L 51.449219 6.191406 C 51.449219 6.191406 51.398438 10.667969 51.460938 12.515625 C 53.667969 10.210938 55.835938 7.867188 57.960938 5.480469 Z M 57.960938 5.480469 "/>
<path style=" stroke:none;fill-rule:nonzero;fill:rgb(100%,0%,0%);fill-opacity:1;" d="M 6.195312 13.050781 C 6.195312 14.65625 4.902344 15.957031 3.304688 15.957031 C 1.710938 15.957031 0.417969 14.65625 0.417969 13.050781 C 0.417969 11.445312 1.710938 10.144531 3.304688 10.144531 C 4.902344 10.144531 6.195312 11.445312 6.195312 13.050781 Z M 6.195312 13.050781 "/>
<path style=" stroke:none;fill-rule:nonzero;fill:rgb(100%,0%,0%);fill-opacity:1;" d="M 43.332031 3.503906 C 43.332031 5.109375 42.039062 6.410156 40.445312 6.410156 C 38.847656 6.410156 37.554688 5.109375 37.554688 3.503906 C 37.554688 1.898438 38.847656 0.597656 40.445312 0.597656 C 42.039062 0.597656 43.332031 1.898438 43.332031 3.503906 Z M 43.332031 3.503906 "/>
<path style=" stroke:none;fill-rule:nonzero;fill:rgb(100%,0%,0%);fill-opacity:1;" d="M 34.253906 4.402344 C 34.253906 6.007812 32.960938 7.308594 31.367188 7.308594 C 29.769531 7.308594 28.476562 6.007812 28.476562 4.402344 C 28.476562 2.800781 29.769531 1.5 31.367188 1.5 C 32.960938 1.5 34.253906 2.800781 34.253906 4.402344 Z M 34.253906 4.402344 "/>
<path style=" stroke:none;fill-rule:nonzero;fill:rgb(100%,0%,0%);fill-opacity:1;" d="M 24.351562 6.757812 C 24.351562 8.359375 23.058594 9.660156 21.460938 9.660156 C 19.867188 9.660156 18.574219 8.359375 18.574219 6.757812 C 18.574219 5.152344 19.867188 3.851562 21.460938 3.851562 C 23.058594 3.851562 24.351562 5.152344 24.351562 6.757812 Z M 24.351562 6.757812 "/>
<path style=" stroke:none;fill-rule:nonzero;fill:rgb(100%,0%,0%);fill-opacity:1;" d="M 15.617188 9.175781 C 15.617188 10.78125 14.324219 12.082031 12.726562 12.082031 C 11.132812 12.082031 9.839844 10.78125 9.839844 9.175781 C 9.839844 7.574219 11.132812 6.273438 12.726562 6.273438 C 14.324219 6.273438 15.617188 7.574219 15.617188 9.175781 Z M 15.617188 9.175781 "/>
<path style=" stroke:none;fill-rule:nonzero;fill:rgb(100%,0%,0%);fill-opacity:1;" d="M 71.183594 4.613281 C 71.183594 6.214844 69.890625 7.515625 68.296875 7.515625 C 66.703125 7.515625 65.410156 6.214844 65.410156 4.613281 C 65.410156 3.007812 66.703125 1.707031 68.296875 1.707031 C 69.890625 1.707031 71.183594 3.007812 71.183594 4.613281 Z M 71.183594 4.613281 "/>
<path style=" stroke:none;fill-rule:nonzero;fill:rgb(100%,0%,0%);fill-opacity:1;" d="M 62.65625 3.503906 C 62.65625 5.109375 61.363281 6.410156 59.769531 6.410156 C 58.171875 6.410156 56.878906 5.109375 56.878906 3.503906 C 56.878906 1.898438 58.171875 0.597656 59.769531 0.597656 C 61.363281 0.597656 62.65625 1.898438 62.65625 3.503906 Z M 62.65625 3.503906 "/>
<path style=" stroke:none;fill-rule:nonzero;fill:rgb(100%,0%,0%);fill-opacity:1;" d="M 50.964844 3.367188 C 50.964844 4.972656 49.671875 6.273438 48.078125 6.273438 C 46.480469 6.273438 45.1875 4.972656 45.1875 3.367188 C 45.1875 1.761719 46.480469 0.460938 48.078125 0.460938 C 49.671875 0.460938 50.964844 1.761719 50.964844 3.367188 Z M 50.964844 3.367188 "/>
<path style=" stroke:none;fill-rule:nonzero;fill:rgb(100%,0%,0%);fill-opacity:1;" d="M 99.3125 13.191406 C 99.3125 14.792969 98.019531 16.09375 96.425781 16.09375 C 94.828125 16.09375 93.535156 14.792969 93.535156 13.191406 C 93.535156 11.585938 94.828125 10.285156 96.425781 10.285156 C 98.019531 10.285156 99.3125 11.585938 99.3125 13.191406 Z M 99.3125 13.191406 "/>
<path style=" stroke:none;fill-rule:nonzero;fill:rgb(100%,0%,0%);fill-opacity:1;" d="M 90.234375 9.039062 C 90.234375 10.644531 88.941406 11.945312 87.347656 11.945312 C 85.75 11.945312 84.457031 10.644531 84.457031 9.039062 C 84.457031 7.433594 85.75 6.132812 87.347656 6.132812 C 88.941406 6.132812 90.234375 7.433594 90.234375 9.039062 Z M 90.234375 9.039062 "/>
<path style=" stroke:none;fill-rule:nonzero;fill:rgb(100%,0%,0%);fill-opacity:1;" d="M 81.707031 6.824219 C 81.707031 8.429688 80.414062 9.730469 78.820312 9.730469 C 77.222656 9.730469 75.929688 8.429688 75.929688 6.824219 C 75.929688 5.21875 77.222656 3.917969 78.820312 3.917969 C 80.414062 3.917969 81.707031 5.21875 81.707031 6.824219 Z M 81.707031 6.824219 "/>
</g>
</svg>
