<?xml version="1.0" encoding="UTF-8"?>
<svg xmlns="http://www.w3.org/2000/svg" xmlns:xlink="http://www.w3.org/1999/xlink" width="100px" height="68px" viewBox="0 0 100 68" version="1.1">
<g id="surface1">
<path style=" stroke:none;fill-rule:nonzero;fill:rgb(100%,0%,0%);fill-opacity:1;" d="M 18.671875 3.109375 C 18.96875 1.003906 21.835938 0.0351562 23.378906 1.4375 C 24.597656 2.273438 24.8125 4.1875 23.921875 5.320312 C 23.757812 5.507812 23.570312 5.671875 23.40625 5.859375 C 21.511719 7.746094 17.96875 5.671875 18.671875 3.109375 Z M 18.671875 3.109375 "/>
<path style=" stroke:none;fill-rule:nonzero;fill:rgb(100%,0%,0%);fill-opacity:1;" d="M 77.660156 0.925781 C 79.773438 0.117188 82.179688 2.273438 81.449219 4.457031 C 81.015625 6.425781 78.203125 7.289062 76.769531 5.859375 C 76.605469 5.695312 76.417969 5.507812 76.253906 5.320312 C 75.089844 3.890625 75.902344 1.464844 77.660156 0.925781 Z M 77.660156 0.925781 "/>
<path style=" stroke:none;fill-rule:nonzero;fill:rgb(0%,76.862746%,0%);fill-opacity:1;" d="M 23.40625 5.859375 C 23.570312 5.671875 23.757812 5.507812 23.921875 5.320312 C 32.550781 13.488281 40.996094 21.847656 49.652344 30.019531 C 49.679688 25.785156 49.679688 21.527344 49.679688 17.292969 C 49.898438 17.292969 50.277344 17.292969 50.492188 17.292969 C 50.492188 21.527344 50.492188 25.757812 50.519531 30.019531 C 59.152344 21.847656 67.621094 13.515625 76.253906 5.320312 C 76.417969 5.507812 76.605469 5.695312 76.769531 5.859375 C 73.683594 8.851562 70.679688 11.953125 67.460938 14.8125 C 76.253906 14.890625 85.074219 14.890625 93.871094 14.8125 C 93.871094 15.027344 93.871094 15.242188 93.898438 15.457031 C 90.8125 15.40625 87.726562 15.40625 84.640625 15.484375 C 87.566406 19.097656 90.972656 22.335938 94.167969 25.703125 C 93.976562 25.867188 93.789062 26.054688 93.625 26.21875 C 90.621094 23.144531 87.511719 20.148438 84.640625 16.941406 C 84.5625 23.738281 84.5625 30.53125 84.640625 37.328125 C 84.425781 37.328125 84.210938 37.328125 83.992188 37.355469 C 84.046875 34.144531 84.074219 30.9375 84.019531 27.726562 C 81.691406 30.316406 79.445312 33.011719 77.199219 35.683594 C 77.011719 35.492188 76.820312 35.332031 76.605469 35.167969 C 78.769531 32.339844 81.3125 29.804688 83.53125 27 C 83.640625 26.59375 83.722656 26.136719 83.777344 25.703125 C 83.910156 22.632812 83.777344 19.53125 83.722656 16.457031 C 83.722656 16.292969 83.695312 15.945312 83.695312 15.753906 C 82.9375 15.726562 82.179688 15.726562 81.394531 15.699219 C 76.578125 15.699219 71.761719 15.539062 66.945312 15.675781 C 66.566406 15.890625 66.214844 16.160156 65.863281 16.429688 C 62.34375 19.828125 58.746094 23.171875 55.28125 26.648438 C 53.820312 28.160156 52.007812 29.34375 50.738281 31.015625 C 50.628906 31.367188 50.546875 31.746094 50.464844 32.121094 C 50.492188 44.066406 50.492188 56.039062 50.492188 67.984375 C 50.304688 67.984375 49.871094 67.984375 49.679688 67.984375 C 49.652344 56.039062 49.707031 44.09375 49.679688 32.148438 C 49.628906 31.773438 49.574219 31.394531 49.464844 31.015625 C 44.457031 26.109375 39.34375 21.28125 34.3125 16.429688 C 33.960938 16.160156 33.609375 15.917969 33.257812 15.675781 C 28.441406 15.566406 23.597656 15.699219 18.78125 15.699219 C 18.023438 15.699219 17.238281 15.726562 16.480469 15.726562 C 16.480469 15.917969 16.453125 16.265625 16.453125 16.457031 C 16.425781 19.53125 16.234375 22.632812 16.398438 25.703125 C 16.453125 26.136719 16.535156 26.59375 16.640625 27.027344 C 18.96875 29.722656 21.378906 32.367188 23.570312 35.195312 C 23.351562 35.332031 23.164062 35.492188 22.972656 35.683594 C 20.726562 33.011719 18.480469 30.34375 16.183594 27.726562 C 16.128906 30.9375 16.101562 34.144531 16.183594 37.355469 C 15.964844 37.328125 15.75 37.328125 15.53125 37.328125 C 15.613281 30.53125 15.613281 23.738281 15.558594 16.941406 C 12.609375 20.097656 9.578125 23.144531 6.546875 26.21875 C 6.359375 26.054688 6.195312 25.867188 6.007812 25.703125 C 9.199219 22.308594 12.636719 19.125 15.585938 15.511719 C 12.472656 15.40625 9.390625 15.378906 6.277344 15.457031 C 6.304688 15.242188 6.304688 15.027344 6.304688 14.8125 C 15.097656 14.890625 23.894531 14.890625 32.714844 14.8125 C 29.550781 11.898438 26.464844 8.878906 23.40625 5.859375 Z M 23.40625 5.859375 "/>
<path style=" stroke:none;fill-rule:nonzero;fill:rgb(100%,0%,0%);fill-opacity:1;" d="M 47.488281 13.246094 C 48.003906 11.441406 50.359375 11.199219 51.765625 11.980469 C 53.792969 13.410156 53.035156 17.101562 50.492188 17.292969 C 50.277344 17.292969 49.898438 17.292969 49.679688 17.292969 C 47.761719 17.15625 46.652344 14.890625 47.488281 13.246094 Z M 47.488281 13.246094 "/>
<path style=" stroke:none;fill-rule:nonzero;fill:rgb(100%,0%,0%);fill-opacity:1;" d="M 1.730469 12.652344 C 3.492188 11.359375 6.304688 12.601562 6.304688 14.8125 C 6.304688 15.027344 6.304688 15.242188 6.277344 15.457031 C 6.25 17.5625 3.707031 18.425781 2.054688 17.589844 C 0.296875 16.671875 0.136719 13.757812 1.730469 12.652344 Z M 1.730469 12.652344 "/>
<path style=" stroke:none;fill-rule:nonzero;fill:rgb(100%,0%,0%);fill-opacity:1;" d="M 93.871094 14.8125 C 93.898438 12.871094 96.117188 11.523438 97.902344 12.355469 C 100.175781 13.140625 100.066406 17.078125 97.738281 17.722656 C 96.0625 18.398438 93.976562 17.347656 93.898438 15.457031 C 93.871094 15.242188 93.871094 15.027344 93.871094 14.8125 Z M 93.871094 14.8125 "/>
<path style=" stroke:none;fill-rule:nonzero;fill:rgb(0%,0%,0%);fill-opacity:1;" d="M 16.480469 15.726562 C 17.238281 15.726562 18.023438 15.699219 18.78125 15.699219 C 19.617188 17.507812 20.648438 19.234375 21.351562 21.09375 C 19.644531 19.636719 18.074219 18.019531 16.453125 16.457031 C 16.453125 16.265625 16.480469 15.917969 16.480469 15.726562 Z M 16.480469 15.726562 "/>
<path style=" stroke:none;fill-rule:nonzero;fill:rgb(0%,0%,0%);fill-opacity:1;" d="M 33.257812 15.675781 C 33.609375 15.917969 33.960938 16.160156 34.3125 16.429688 C 34.285156 16.886719 34.257812 17.347656 34.230469 17.804688 C 32.335938 18.75 30.523438 19.855469 28.546875 20.636719 C 30.035156 18.910156 31.660156 17.320312 33.257812 15.675781 Z M 33.257812 15.675781 "/>
<path style=" stroke:none;fill-rule:nonzero;fill:rgb(0%,0%,0%);fill-opacity:1;" d="M 65.863281 16.429688 C 66.214844 16.160156 66.566406 15.890625 66.945312 15.675781 C 68.515625 17.320312 70.191406 18.882812 71.652344 20.636719 C 69.652344 19.90625 67.839844 18.773438 65.945312 17.832031 C 65.917969 17.347656 65.890625 16.886719 65.863281 16.429688 Z M 65.863281 16.429688 "/>
<path style=" stroke:none;fill-rule:nonzero;fill:rgb(0%,0%,0%);fill-opacity:1;" d="M 81.394531 15.699219 C 82.179688 15.726562 82.9375 15.726562 83.695312 15.753906 C 83.695312 15.945312 83.722656 16.292969 83.722656 16.457031 C 82.097656 18.019531 80.554688 19.691406 78.796875 21.121094 C 79.5 19.261719 80.554688 17.535156 81.394531 15.699219 Z M 81.394531 15.699219 "/>
<path style=" stroke:none;fill-rule:nonzero;fill:rgb(0%,0%,0%);fill-opacity:1;" d="M 17.019531 24.734375 C 19.050781 25.355469 21.050781 26.082031 23 26.917969 C 20.863281 26.972656 18.753906 27 16.640625 27.027344 C 16.535156 26.59375 16.453125 26.136719 16.398438 25.703125 C 16.613281 25.382812 16.832031 25.058594 17.019531 24.734375 Z M 17.019531 24.734375 "/>
<path style=" stroke:none;fill-rule:nonzero;fill:rgb(0%,0%,0%);fill-opacity:1;" d="M 77.199219 26.945312 C 79.121094 26.082031 81.125 25.355469 83.152344 24.734375 C 83.34375 25.058594 83.558594 25.382812 83.777344 25.703125 C 83.722656 26.136719 83.640625 26.59375 83.53125 27 C 81.421875 26.972656 79.3125 26.972656 77.199219 26.945312 Z M 77.199219 26.945312 "/>
<path style=" stroke:none;fill-rule:nonzero;fill:rgb(100%,0%,0%);fill-opacity:1;" d="M 2.109375 26.246094 C 2.949219 25.03125 4.871094 24.816406 6.007812 25.703125 C 6.195312 25.867188 6.359375 26.054688 6.546875 26.21875 C 8.441406 28.105469 6.359375 31.636719 3.789062 30.9375 C 1.679688 30.640625 0.703125 27.78125 2.109375 26.246094 Z M 2.109375 26.246094 "/>
<path style=" stroke:none;fill-rule:nonzero;fill:rgb(100%,0%,0%);fill-opacity:1;" d="M 94.167969 25.703125 C 95.628906 24.546875 98.035156 25.382812 98.578125 27.105469 C 99.390625 29.210938 97.226562 31.609375 95.03125 30.882812 C 93.058594 30.449219 92.191406 27.644531 93.625 26.21875 C 93.789062 26.054688 93.976562 25.867188 94.167969 25.703125 Z M 94.167969 25.703125 "/>
<path style=" stroke:none;fill-rule:nonzero;fill:rgb(0%,0%,0%);fill-opacity:1;" d="M 42.835938 31.449219 C 45.027344 31.339844 47.273438 31.257812 49.464844 31.015625 C 49.574219 31.394531 49.628906 31.773438 49.679688 32.148438 C 49.195312 32.5 48.816406 33.28125 48.085938 33.148438 C 46.300781 32.660156 44.566406 32.070312 42.835938 31.449219 Z M 42.835938 31.449219 "/>
<path style=" stroke:none;fill-rule:nonzero;fill:rgb(0%,0%,0%);fill-opacity:1;" d="M 50.464844 32.121094 C 50.546875 31.746094 50.628906 31.367188 50.738281 31.015625 C 52.929688 31.179688 55.148438 31.285156 57.339844 31.421875 C 55.660156 32.015625 54.011719 32.660156 52.277344 33.066406 C 51.496094 33.363281 50.980469 32.554688 50.464844 32.121094 Z M 50.464844 32.121094 "/>
<path style=" stroke:none;fill-rule:nonzero;fill:rgb(100%,0%,0%);fill-opacity:1;" d="M 23.570312 35.195312 C 25.085938 34.144531 27.546875 35.035156 27.761719 36.976562 C 28.386719 38.757812 26.707031 40.859375 24.785156 40.507812 C 22.433594 40.535156 21.1875 37.164062 22.972656 35.683594 C 23.164062 35.492188 23.351562 35.332031 23.570312 35.195312 Z M 23.570312 35.195312 "/>
<path style=" stroke:none;fill-rule:nonzero;fill:rgb(100%,0%,0%);fill-opacity:1;" d="M 72.492188 36.519531 C 73.007812 34.898438 75.226562 34.253906 76.605469 35.167969 C 76.820312 35.332031 77.011719 35.492188 77.199219 35.683594 C 79.148438 37.328125 77.417969 41.019531 74.847656 40.507812 C 72.953125 40.507812 71.707031 38.164062 72.492188 36.519531 Z M 72.492188 36.519531 "/>
<path style=" stroke:none;fill-rule:nonzero;fill:rgb(100%,0%,0%);fill-opacity:1;" d="M 13.367188 41.882812 C 12.070312 40.132812 13.3125 37.328125 15.53125 37.328125 C 15.75 37.328125 15.964844 37.328125 16.183594 37.355469 C 18.292969 37.378906 19.160156 39.914062 18.320312 41.558594 C 17.398438 43.3125 14.476562 43.476562 13.367188 41.882812 Z M 13.367188 41.882812 "/>
<path style=" stroke:none;fill-rule:nonzero;fill:rgb(100%,0%,0%);fill-opacity:1;" d="M 81.71875 41.183594 C 81.042969 39.511719 82.097656 37.433594 83.992188 37.355469 C 84.210938 37.328125 84.425781 37.328125 84.640625 37.328125 C 86.589844 37.355469 87.945312 39.566406 87.105469 41.34375 C 86.320312 43.609375 82.371094 43.5 81.71875 41.183594 Z M 81.71875 41.183594 "/>
</g>
</svg>
