<?xml version="1.0" encoding="UTF-8"?>
<svg xmlns="http://www.w3.org/2000/svg" xmlns:xlink="http://www.w3.org/1999/xlink" width="100px" height="101px" viewBox="0 0 100 101" version="1.1">
<g id="surface1">
<path style=" stroke:none;fill-rule:nonzero;fill:rgb(100%,0%,0%);fill-opacity:1;" d="M 16.5 7.398438 C 12.816406 7.511719 13.210938 0.957031 16.808594 1.605469 C 18.808594 1.097656 20.324219 3.40625 19.792969 5.148438 C 19.566406 6.386719 18.441406 7.453125 17.148438 7.425781 C 16.921875 7.425781 16.726562 7.425781 16.5 7.398438 Z M 16.5 7.398438 "/>
<path style=" stroke:none;fill-rule:nonzero;fill:rgb(100%,0%,0%);fill-opacity:1;" d="M 80.050781 3.265625 C 80.894531 0.367188 86.324219 1.238281 85.703125 4.417969 C 86.097656 6.046875 84.71875 7.3125 83.203125 7.398438 C 83.003906 7.425781 82.78125 7.425781 82.554688 7.425781 C 80.585938 7.425781 79.152344 5.035156 80.050781 3.265625 Z M 80.050781 3.265625 "/>
<path style=" stroke:none;fill-rule:nonzero;fill:rgb(100%,0%,0%);fill-opacity:1;" d="M 0.894531 9.59375 C 1.203125 7.398438 4.183594 6.386719 5.789062 7.847656 C 7.054688 8.71875 7.277344 10.71875 6.351562 11.898438 C 6.179688 12.09375 5.984375 12.265625 5.816406 12.460938 C 3.847656 14.429688 0.164062 12.265625 0.894531 9.59375 Z M 0.894531 9.59375 "/>
<path style=" stroke:none;fill-rule:nonzero;fill:rgb(0%,76.862746%,0%);fill-opacity:1;" d="M 16.5 7.398438 C 16.726562 7.425781 16.921875 7.425781 17.148438 7.425781 C 17.148438 12.179688 16.980469 16.933594 17.035156 21.6875 C 17.230469 22.050781 17.402344 22.417969 17.652344 22.726562 C 20.691406 26.074219 24.007812 29.113281 27.1875 32.347656 C 27.214844 29 27.242188 25.652344 27.160156 22.304688 C 27.382812 22.332031 27.609375 22.332031 27.832031 22.332031 C 27.722656 31.671875 27.804688 41.039062 27.722656 50.375 C 27.890625 50.742188 28.085938 51.105469 28.339844 51.417969 C 31.375 54.761719 34.695312 57.828125 37.871094 61.035156 C 37.898438 57.773438 37.929688 54.539062 37.84375 51.277344 C 38.070312 51.304688 38.292969 51.304688 38.519531 51.304688 C 38.40625 60.640625 38.492188 70.007812 38.40625 79.347656 C 38.574219 79.710938 38.773438 80.078125 39.023438 80.386719 C 42.371094 83.875 46.054688 87.054688 49.375 90.570312 C 49.457031 86.125 49.429688 81.710938 49.429688 77.265625 C 49.652344 77.265625 50.046875 77.265625 50.273438 77.265625 C 50.273438 81.679688 50.246094 86.125 50.300781 90.539062 C 52.945312 88.007812 55.417969 85.335938 58.144531 82.917969 C 59.019531 82.101562 59.945312 81.34375 60.675781 80.414062 C 60.929688 80.078125 61.128906 79.738281 61.324219 79.375 C 61.183594 70.007812 61.296875 60.671875 61.183594 51.304688 C 61.410156 51.304688 61.632812 51.304688 61.859375 51.277344 C 61.800781 54.539062 61.800781 57.773438 61.832031 61.007812 C 65.007812 57.828125 68.324219 54.761719 71.363281 51.445312 C 71.617188 51.105469 71.8125 50.769531 72.007812 50.402344 C 71.867188 41.039062 71.980469 31.699219 71.867188 22.332031 C 72.09375 22.332031 72.320312 22.332031 72.542969 22.304688 C 72.488281 25.652344 72.460938 29 72.515625 32.320312 C 75.691406 29.140625 79.011719 26.074219 82.046875 22.753906 C 82.300781 22.417969 82.5 22.082031 82.695312 21.714844 C 82.695312 16.960938 82.582031 12.179688 82.554688 7.425781 C 82.78125 7.425781 83.003906 7.425781 83.203125 7.398438 C 83.3125 12.039062 83.539062 16.679688 83.480469 21.347656 C 86.714844 18.144531 90.117188 15.105469 93.351562 11.898438 C 93.519531 12.09375 93.71875 12.292969 93.886719 12.460938 C 86.96875 19.351562 79.714844 25.960938 73.023438 33.078125 C 72.882812 33.585938 72.796875 34.089844 72.710938 34.597656 C 72.683594 39.746094 72.796875 44.890625 72.796875 50.039062 C 76.03125 46.832031 79.433594 43.792969 82.667969 40.589844 C 82.835938 40.785156 83.03125 40.980469 83.203125 41.152344 C 77.660156 46.71875 71.839844 52.007812 66.359375 57.632812 C 65.035156 59.125 63.292969 60.277344 62.28125 62.019531 C 62.167969 62.527344 62.082031 63.0625 62.027344 63.566406 C 62 68.714844 62.113281 73.863281 62.113281 79.007812 C 65.34375 75.800781 68.746094 72.765625 71.980469 69.558594 C 72.148438 69.753906 72.347656 69.953125 72.515625 70.121094 C 67.820312 74.847656 62.898438 79.347656 58.203125 84.070312 C 55.671875 86.574219 52.804688 88.824219 50.527344 91.582031 C 50.414062 91.976562 50.328125 92.371094 50.246094 92.761719 C 50.160156 95.378906 50.246094 97.996094 50.273438 100.609375 C 50.078125 100.609375 49.625 100.609375 49.429688 100.609375 C 49.402344 97.996094 49.597656 95.378906 49.457031 92.761719 C 49.375 92.371094 49.289062 91.976562 49.203125 91.582031 C 46.757812 88.769531 43.863281 86.378906 41.21875 83.789062 C 36.605469 79.148438 31.796875 74.761719 27.1875 70.121094 C 27.355469 69.925781 27.550781 69.753906 27.722656 69.558594 C 30.953125 72.765625 34.355469 75.800781 37.589844 79.007812 C 37.5625 73.832031 37.730469 68.628906 37.617188 63.425781 C 37.5625 62.949219 37.507812 62.5 37.421875 62.019531 C 35.734375 59.6875 33.457031 57.886719 31.515625 55.804688 C 26.625 50.796875 21.421875 46.101562 16.5 41.152344 C 16.667969 40.953125 16.867188 40.785156 17.035156 40.589844 C 20.269531 43.792969 23.671875 46.832031 26.90625 50.039062 C 26.878906 44.863281 27.074219 39.660156 26.90625 34.457031 C 26.878906 34.007812 26.792969 33.527344 26.707031 33.078125 C 19.933594 25.988281 12.789062 19.324219 5.816406 12.460938 C 5.984375 12.265625 6.179688 12.09375 6.351562 11.898438 C 9.582031 15.105469 12.984375 18.144531 16.21875 21.347656 C 16.25 16.707031 16.164062 12.039062 16.5 7.398438 Z M 16.5 7.398438 "/>
<path style=" stroke:none;fill-rule:nonzero;fill:rgb(100%,0%,0%);fill-opacity:1;" d="M 93.351562 11.898438 C 91.804688 10.015625 93.660156 6.722656 96.109375 7.203125 C 97.992188 7.230469 99.425781 9.421875 98.695312 11.195312 C 98.105469 13.136719 95.320312 13.867188 93.886719 12.460938 C 93.71875 12.292969 93.519531 12.09375 93.351562 11.898438 Z M 93.351562 11.898438 "/>
<path style=" stroke:none;fill-rule:nonzero;fill:rgb(100%,0%,0%);fill-opacity:1;" d="M 27.160156 22.304688 C 23.503906 22.390625 23.925781 15.863281 27.496094 16.511719 C 29.492188 16.003906 31.011719 18.3125 30.476562 20.054688 C 30.25 21.292969 29.128906 22.363281 27.832031 22.332031 C 27.609375 22.332031 27.382812 22.332031 27.160156 22.304688 Z M 27.160156 22.304688 "/>
<path style=" stroke:none;fill-rule:nonzero;fill:rgb(100%,0%,0%);fill-opacity:1;" d="M 69.367188 18.171875 C 70.210938 15.273438 75.636719 16.144531 75.019531 19.324219 C 75.410156 20.925781 74.035156 22.222656 72.542969 22.304688 C 72.320312 22.332031 72.09375 22.332031 71.867188 22.332031 C 69.902344 22.332031 68.464844 19.941406 69.367188 18.171875 Z M 69.367188 18.171875 "/>
<path style=" stroke:none;fill-rule:nonzero;fill:rgb(0%,0%,0%);fill-opacity:1;" d="M 17.035156 21.6875 C 18.667969 20.140625 20.242188 18.535156 21.898438 17.019531 C 21.054688 18.902344 20.382812 20.898438 19.144531 22.558594 C 18.777344 22.613281 18.046875 22.699219 17.652344 22.726562 C 17.402344 22.417969 17.230469 22.050781 17.035156 21.6875 Z M 17.035156 21.6875 "/>
<path style=" stroke:none;fill-rule:nonzero;fill:rgb(0%,0%,0%);fill-opacity:1;" d="M 77.800781 17.046875 C 79.460938 18.566406 81.035156 20.167969 82.695312 21.714844 C 82.5 22.082031 82.300781 22.417969 82.046875 22.753906 C 81.65625 22.699219 80.894531 22.644531 80.5 22.613281 C 79.433594 20.84375 78.617188 18.929688 77.800781 17.046875 Z M 77.800781 17.046875 "/>
<path style=" stroke:none;fill-rule:nonzero;fill:rgb(0%,0%,0%);fill-opacity:1;" d="M 19.792969 33.21875 C 22.097656 33.132812 24.402344 33.105469 26.707031 33.078125 C 26.792969 33.527344 26.878906 34.007812 26.90625 34.457031 C 26.625 34.765625 26.34375 35.101562 26.0625 35.414062 C 23.980469 34.679688 21.84375 34.035156 19.792969 33.21875 Z M 19.792969 33.21875 "/>
<path style=" stroke:none;fill-rule:nonzero;fill:rgb(0%,0%,0%);fill-opacity:1;" d="M 72.710938 34.597656 C 72.796875 34.089844 72.882812 33.585938 73.023438 33.078125 C 75.300781 33.105469 77.605469 33.105469 79.882812 33.164062 C 78.027344 33.867188 76.199219 34.738281 74.257812 35.160156 C 73.667969 35.300781 73.191406 34.820312 72.710938 34.597656 Z M 72.710938 34.597656 "/>
<path style=" stroke:none;fill-rule:nonzero;fill:rgb(100%,0%,0%);fill-opacity:1;" d="M 11.582031 38.28125 C 11.890625 36.085938 14.871094 35.074219 16.472656 36.539062 C 17.738281 37.410156 17.964844 39.40625 17.035156 40.589844 C 16.867188 40.785156 16.667969 40.953125 16.5 41.152344 C 14.53125 43.121094 10.847656 40.953125 11.582031 38.28125 Z M 11.582031 38.28125 "/>
<path style=" stroke:none;fill-rule:nonzero;fill:rgb(100%,0%,0%);fill-opacity:1;" d="M 82.667969 40.589844 C 81.121094 38.703125 82.976562 35.414062 85.421875 35.890625 C 87.304688 35.917969 88.742188 38.113281 88.007812 39.882812 C 87.417969 41.824219 84.636719 42.558594 83.203125 41.152344 C 83.03125 40.980469 82.835938 40.785156 82.667969 40.589844 Z M 82.667969 40.589844 "/>
<path style=" stroke:none;fill-rule:nonzero;fill:rgb(100%,0%,0%);fill-opacity:1;" d="M 37.84375 51.277344 C 34.1875 51.359375 34.609375 44.835938 38.179688 45.480469 C 40.179688 44.976562 41.695312 47.28125 41.164062 49.027344 C 40.9375 50.261719 39.8125 51.332031 38.519531 51.304688 C 38.292969 51.304688 38.070312 51.304688 37.84375 51.277344 Z M 37.84375 51.277344 "/>
<path style=" stroke:none;fill-rule:nonzero;fill:rgb(100%,0%,0%);fill-opacity:1;" d="M 58.679688 47.140625 C 59.523438 44.246094 64.953125 45.117188 64.332031 48.292969 C 64.726562 49.898438 63.347656 51.191406 61.859375 51.277344 C 61.632812 51.304688 61.410156 51.304688 61.183594 51.304688 C 59.214844 51.304688 57.78125 48.914062 58.679688 47.140625 Z M 58.679688 47.140625 "/>
<path style=" stroke:none;fill-rule:nonzero;fill:rgb(0%,0%,0%);fill-opacity:1;" d="M 27.722656 50.375 C 29.351562 48.828125 30.925781 47.226562 32.585938 45.707031 C 31.742188 47.589844 31.066406 49.589844 29.828125 51.246094 C 29.464844 51.304688 28.734375 51.386719 28.339844 51.417969 C 28.085938 51.105469 27.890625 50.742188 27.722656 50.375 Z M 27.722656 50.375 "/>
<path style=" stroke:none;fill-rule:nonzero;fill:rgb(0%,0%,0%);fill-opacity:1;" d="M 67.117188 45.734375 C 68.777344 47.253906 70.351562 48.855469 72.007812 50.402344 C 71.8125 50.769531 71.617188 51.105469 71.363281 51.445312 C 70.96875 51.386719 70.210938 51.332031 69.816406 51.304688 C 68.746094 49.53125 67.933594 47.621094 67.117188 45.734375 Z M 67.117188 45.734375 "/>
<path style=" stroke:none;fill-rule:nonzero;fill:rgb(0%,0%,0%);fill-opacity:1;" d="M 30.476562 62.1875 C 32.78125 62.105469 35.117188 62.078125 37.421875 62.019531 C 37.507812 62.5 37.5625 62.949219 37.617188 63.425781 C 37.308594 63.734375 37.027344 64.074219 36.746094 64.382812 C 34.667969 63.652344 32.558594 63.003906 30.476562 62.1875 Z M 30.476562 62.1875 "/>
<path style=" stroke:none;fill-rule:nonzero;fill:rgb(0%,0%,0%);fill-opacity:1;" d="M 62.027344 63.566406 C 62.082031 63.0625 62.167969 62.527344 62.28125 62.019531 C 64.585938 62.046875 66.890625 62.078125 69.199219 62.160156 C 67.339844 62.835938 65.515625 63.707031 63.574219 64.128906 C 62.984375 64.269531 62.503906 63.792969 62.027344 63.566406 Z M 62.027344 63.566406 "/>
<path style=" stroke:none;fill-rule:nonzero;fill:rgb(100%,0%,0%);fill-opacity:1;" d="M 22.265625 67.25 C 22.574219 65.058594 25.554688 64.046875 27.160156 65.507812 C 28.425781 66.378906 28.648438 68.375 27.722656 69.558594 C 27.550781 69.753906 27.355469 69.925781 27.1875 70.121094 C 25.21875 72.089844 21.535156 69.925781 22.265625 67.25 Z M 22.265625 67.25 "/>
<path style=" stroke:none;fill-rule:nonzero;fill:rgb(100%,0%,0%);fill-opacity:1;" d="M 71.980469 69.558594 C 70.433594 67.671875 72.289062 64.382812 74.738281 64.859375 C 76.621094 64.890625 78.054688 67.082031 77.324219 68.855469 C 76.734375 70.796875 73.949219 71.527344 72.515625 70.121094 C 72.347656 69.953125 72.148438 69.753906 71.980469 69.558594 Z M 71.980469 69.558594 "/>
<path style=" stroke:none;fill-rule:nonzero;fill:rgb(100%,0%,0%);fill-opacity:1;" d="M 47.152344 73.019531 C 47.6875 71.160156 50.132812 70.910156 51.59375 71.722656 C 53.703125 73.214844 52.917969 77.066406 50.273438 77.265625 C 50.046875 77.265625 49.652344 77.265625 49.429688 77.265625 C 47.433594 77.125 46.28125 74.761719 47.152344 73.019531 Z M 47.152344 73.019531 "/>
<path style=" stroke:none;fill-rule:nonzero;fill:rgb(0%,0%,0%);fill-opacity:1;" d="M 38.40625 79.347656 C 40.039062 77.800781 41.613281 76.195312 43.269531 74.675781 C 42.425781 76.5625 41.753906 78.558594 40.515625 80.21875 C 40.148438 80.273438 39.417969 80.359375 39.023438 80.386719 C 38.773438 80.078125 38.574219 79.710938 38.40625 79.347656 Z M 38.40625 79.347656 "/>
<path style=" stroke:none;fill-rule:nonzero;fill:rgb(0%,0%,0%);fill-opacity:1;" d="M 56.429688 74.707031 C 58.089844 76.222656 59.664062 77.828125 61.324219 79.375 C 61.128906 79.738281 60.929688 80.078125 60.675781 80.414062 C 60.285156 80.359375 59.523438 80.304688 59.128906 80.273438 C 58.0625 78.503906 57.246094 76.589844 56.429688 74.707031 Z M 56.429688 74.707031 "/>
<path style=" stroke:none;fill-rule:nonzero;fill:rgb(0%,0%,0%);fill-opacity:1;" d="M 42.316406 92.03125 C 44.59375 91.917969 46.898438 91.835938 49.203125 91.582031 C 49.289062 91.976562 49.375 92.371094 49.457031 92.761719 C 48.921875 93.128906 48.5 93.945312 47.769531 93.777344 C 45.914062 93.296875 44.113281 92.707031 42.316406 92.03125 Z M 42.316406 92.03125 "/>
<path style=" stroke:none;fill-rule:nonzero;fill:rgb(0%,0%,0%);fill-opacity:1;" d="M 50.246094 92.761719 C 50.328125 92.371094 50.414062 91.976562 50.527344 91.582031 C 52.804688 91.75 55.109375 91.863281 57.386719 92.003906 C 55.644531 92.621094 53.929688 93.296875 52.128906 93.71875 C 51.3125 94 50.777344 93.183594 50.246094 92.761719 Z M 50.246094 92.761719 "/>
</g>
</svg>
