<?xml version="1.0" encoding="UTF-8"?>
<svg xmlns="http://www.w3.org/2000/svg" xmlns:xlink="http://www.w3.org/1999/xlink" width="100px" height="80px" viewBox="0 0 100 80" version="1.1">
<g id="surface1">
<path style=" stroke:none;fill-rule:nonzero;fill:rgb(0%,0%,0%);fill-opacity:1;" d="M 29.050781 14.785156 L 28.082031 14.785156 C 26.375 14.972656 24.628906 15.035156 22.921875 15.121094 C 24.269531 15.605469 25.617188 16.066406 27.007812 16.445312 C 27.578125 16.550781 27.871094 15.941406 28.25 15.667969 L 28.882812 15.667969 C 29.261719 15.941406 29.554688 16.550781 30.125 16.445312 C 31.511719 16.066406 32.859375 15.605469 34.207031 15.121094 C 32.503906 15.035156 30.753906 14.972656 29.050781 14.785156 Z M 29.050781 14.785156 "/>
<path style=" stroke:none;fill-rule:nonzero;fill:rgb(0%,0%,0%);fill-opacity:1;" d="M 15.027344 27.539062 L 15.027344 28.507812 C 15.21875 30.210938 15.28125 31.960938 15.367188 33.664062 C 15.851562 32.316406 16.3125 30.96875 16.691406 29.582031 C 16.796875 29.011719 16.1875 28.71875 15.914062 28.339844 L 15.914062 27.707031 C 16.1875 27.328125 16.796875 27.03125 16.691406 26.464844 C 16.3125 25.074219 15.851562 23.726562 15.367188 22.378906 C 15.28125 24.085938 15.21875 25.832031 15.027344 27.539062 Z M 15.027344 27.539062 "/>
<path style=" stroke:none;fill-rule:nonzero;fill:rgb(0%,76.862746%,0%);fill-opacity:1;" d="M 28.257812 28.464844 L 28.257812 5.324219 L 28.871094 5.324219 L 28.871094 28.464844 Z M 28.257812 28.464844 "/>
<path style=" stroke:none;fill-rule:nonzero;fill:rgb(0%,76.862746%,0%);fill-opacity:1;" d="M 5.570312 28.238281 L 5.570312 27.628906 L 28.707031 27.628906 L 28.707031 28.238281 Z M 5.570312 28.238281 "/>
<path style=" stroke:none;fill-rule:nonzero;fill:rgb(0%,0%,0%);fill-opacity:1;" d="M 50.488281 49.371094 L 49.523438 49.371094 C 47.816406 49.5625 46.070312 49.625 44.363281 49.707031 C 45.710938 50.191406 47.058594 50.65625 48.449219 51.035156 C 49.015625 51.140625 49.3125 50.53125 49.691406 50.257812 L 50.320312 50.257812 C 50.699219 50.53125 50.996094 51.140625 51.5625 51.035156 C 52.953125 50.65625 54.300781 50.191406 55.648438 49.707031 C 53.941406 49.625 52.195312 49.5625 50.488281 49.371094 Z M 50.488281 49.371094 "/>
<path style=" stroke:none;fill-rule:nonzero;fill:rgb(0%,76.862746%,0%);fill-opacity:1;" d="M 49.640625 78.371094 L 49.640625 37.664062 L 50.375 37.664062 L 50.375 78.371094 Z M 49.640625 78.371094 "/>
<path style=" stroke:none;fill-rule:nonzero;fill:rgb(0%,0%,0%);fill-opacity:1;" d="M 29.03125 27.578125 L 28.347656 28.261719 C 27.277344 29.601562 26.085938 30.882812 24.9375 32.148438 C 26.234375 31.535156 27.515625 30.910156 28.765625 30.199219 C 29.242188 29.871094 29.019531 29.230469 29.09375 28.769531 L 29.539062 28.320312 C 30 28.246094 30.640625 28.46875 30.96875 27.996094 C 31.683594 26.742188 32.308594 25.464844 32.917969 24.167969 C 31.652344 25.316406 30.371094 26.503906 29.03125 27.578125 Z M 29.03125 27.578125 "/>
<path style=" stroke:none;fill-rule:nonzero;fill:rgb(0%,76.862746%,0%);fill-opacity:1;" d="M 20.414062 20.132812 L 20.84375 19.699219 L 50.203125 49.058594 L 49.769531 49.488281 Z M 20.414062 20.132812 "/>
<path style=" stroke:none;fill-rule:nonzero;fill:rgb(0%,76.862746%,0%);fill-opacity:1;" d="M 7.433594 20.988281 L 7.867188 20.554688 L 15.121094 27.808594 L 14.6875 28.242188 Z M 7.433594 20.988281 "/>
<path style=" stroke:none;fill-rule:nonzero;fill:rgb(0%,76.862746%,0%);fill-opacity:1;" d="M 7.480469 34.984375 L 14.734375 27.730469 L 15.167969 28.164062 L 7.914062 35.417969 Z M 7.480469 34.984375 "/>
<path style=" stroke:none;fill-rule:nonzero;fill:rgb(100%,0%,0%);fill-opacity:1;" d="M 9.15625 34.980469 C 9.15625 36.230469 8.144531 37.242188 6.894531 37.242188 C 5.648438 37.242188 4.636719 36.230469 4.636719 34.980469 C 4.636719 33.734375 5.648438 32.722656 6.894531 32.722656 C 8.144531 32.722656 9.15625 33.734375 9.15625 34.980469 Z M 9.15625 34.980469 "/>
<path style=" stroke:none;fill-rule:nonzero;fill:rgb(100%,0%,0%);fill-opacity:1;" d="M 9.21875 20.84375 C 9.21875 22.089844 8.207031 23.101562 6.957031 23.101562 C 5.710938 23.101562 4.695312 22.089844 4.695312 20.84375 C 4.695312 19.59375 5.710938 18.582031 6.957031 18.582031 C 8.207031 18.582031 9.21875 19.59375 9.21875 20.84375 Z M 9.21875 20.84375 "/>
<path style=" stroke:none;fill-rule:nonzero;fill:rgb(100%,0%,0%);fill-opacity:1;" d="M 7.136719 27.820312 C 7.136719 29.066406 6.125 30.082031 4.875 30.082031 C 3.628906 30.082031 2.617188 29.066406 2.617188 27.820312 C 2.617188 26.570312 3.628906 25.558594 4.875 25.558594 C 6.125 25.558594 7.136719 26.570312 7.136719 27.820312 Z M 7.136719 27.820312 "/>
<path style=" stroke:none;fill-rule:nonzero;fill:rgb(100%,0%,0%);fill-opacity:1;" d="M 22.070312 18.824219 C 22.070312 20.070312 21.058594 21.082031 19.8125 21.082031 C 18.5625 21.082031 17.550781 20.070312 17.550781 18.824219 C 17.550781 17.574219 18.5625 16.5625 19.8125 16.5625 C 21.058594 16.5625 22.070312 17.574219 22.070312 18.824219 Z M 22.070312 18.824219 "/>
<path style=" stroke:none;fill-rule:nonzero;fill:rgb(0%,76.862746%,0%);fill-opacity:1;" d="M 28.433594 14.445312 L 35.6875 7.191406 L 36.121094 7.621094 L 28.867188 14.875 Z M 28.433594 14.445312 "/>
<path style=" stroke:none;fill-rule:nonzero;fill:rgb(0%,76.862746%,0%);fill-opacity:1;" d="M 21.074219 7.667969 L 21.503906 7.234375 L 28.757812 14.488281 L 28.324219 14.921875 Z M 21.074219 7.667969 "/>
<path style=" stroke:none;fill-rule:nonzero;fill:rgb(100%,0%,0%);fill-opacity:1;" d="M 23.769531 6.652344 C 23.769531 7.898438 22.757812 8.910156 21.507812 8.910156 C 20.261719 8.910156 19.25 7.898438 19.25 6.652344 C 19.25 5.402344 20.261719 4.390625 21.507812 4.390625 C 22.757812 4.390625 23.769531 5.402344 23.769531 6.652344 Z M 23.769531 6.652344 "/>
<path style=" stroke:none;fill-rule:nonzero;fill:rgb(100%,0%,0%);fill-opacity:1;" d="M 37.910156 6.710938 C 37.910156 7.960938 36.898438 8.972656 35.648438 8.972656 C 34.402344 8.972656 33.390625 7.960938 33.390625 6.710938 C 33.390625 5.464844 34.402344 4.453125 35.648438 4.453125 C 36.898438 4.453125 37.910156 5.464844 37.910156 6.710938 Z M 37.910156 6.710938 "/>
<path style=" stroke:none;fill-rule:nonzero;fill:rgb(100%,0%,0%);fill-opacity:1;" d="M 30.824219 4.628906 C 30.824219 5.878906 29.8125 6.890625 28.566406 6.890625 C 27.316406 6.890625 26.304688 5.878906 26.304688 4.628906 C 26.304688 3.382812 27.316406 2.371094 28.566406 2.371094 C 29.8125 2.371094 30.824219 3.382812 30.824219 4.628906 Z M 30.824219 4.628906 "/>
<path style=" stroke:none;fill-rule:nonzero;fill:rgb(100%,0%,0%);fill-opacity:1;" d="M 52.308594 36.632812 C 52.308594 37.882812 51.296875 38.894531 50.046875 38.894531 C 48.800781 38.894531 47.789062 37.882812 47.789062 36.632812 C 47.789062 35.386719 48.800781 34.375 50.046875 34.375 C 51.296875 34.375 52.308594 35.386719 52.308594 36.632812 Z M 52.308594 36.632812 "/>
<path style=" stroke:none;fill-rule:nonzero;fill:rgb(0%,0%,0%);fill-opacity:1;" d="M 71 14.785156 L 71.96875 14.785156 C 73.671875 14.972656 75.421875 15.035156 77.125 15.121094 C 75.777344 15.605469 74.429688 16.066406 73.042969 16.445312 C 72.472656 16.550781 72.179688 15.941406 71.800781 15.667969 L 71.167969 15.667969 C 70.789062 15.941406 70.496094 16.550781 69.925781 16.445312 C 68.535156 16.066406 67.1875 15.605469 65.839844 15.121094 C 67.546875 15.035156 69.292969 14.972656 71 14.785156 Z M 71 14.785156 "/>
<path style=" stroke:none;fill-rule:nonzero;fill:rgb(0%,0%,0%);fill-opacity:1;" d="M 85.019531 27.539062 L 85.019531 28.507812 C 84.832031 30.210938 84.765625 31.960938 84.683594 33.664062 C 84.199219 32.316406 83.734375 30.96875 83.355469 29.582031 C 83.25 29.011719 83.863281 28.71875 84.136719 28.339844 L 84.136719 27.707031 C 83.863281 27.328125 83.25 27.03125 83.355469 26.464844 C 83.734375 25.074219 84.199219 23.726562 84.683594 22.378906 C 84.765625 24.085938 84.832031 25.832031 85.019531 27.539062 Z M 85.019531 27.539062 "/>
<path style=" stroke:none;fill-rule:nonzero;fill:rgb(0%,76.862746%,0%);fill-opacity:1;" d="M 71.175781 28.464844 L 71.175781 5.324219 L 71.789062 5.324219 L 71.789062 28.464844 Z M 71.175781 28.464844 "/>
<path style=" stroke:none;fill-rule:nonzero;fill:rgb(0%,76.862746%,0%);fill-opacity:1;" d="M 71.339844 28.238281 L 71.339844 27.625 L 94.476562 27.625 L 94.476562 28.238281 Z M 71.339844 28.238281 "/>
<path style=" stroke:none;fill-rule:nonzero;fill:rgb(0%,0%,0%);fill-opacity:1;" d="M 71.015625 27.578125 L 71.699219 28.261719 C 72.773438 29.601562 73.964844 30.882812 75.109375 32.148438 C 73.816406 31.535156 72.535156 30.910156 71.285156 30.199219 C 70.808594 29.871094 71.03125 29.230469 70.957031 28.769531 L 70.511719 28.320312 C 70.046875 28.246094 69.410156 28.46875 69.082031 27.996094 C 68.367188 26.742188 67.742188 25.464844 67.132812 24.167969 C 68.394531 25.316406 69.675781 26.503906 71.015625 27.578125 Z M 71.015625 27.578125 "/>
<path style=" stroke:none;fill-rule:nonzero;fill:rgb(0%,76.862746%,0%);fill-opacity:1;" d="M 49.84375 49.058594 L 79.203125 19.699219 L 79.636719 20.132812 L 50.277344 49.488281 Z M 49.84375 49.058594 "/>
<path style=" stroke:none;fill-rule:nonzero;fill:rgb(0%,76.862746%,0%);fill-opacity:1;" d="M 84.925781 27.808594 L 92.179688 20.554688 L 92.613281 20.988281 L 85.359375 28.242188 Z M 84.925781 27.808594 "/>
<path style=" stroke:none;fill-rule:nonzero;fill:rgb(0%,76.862746%,0%);fill-opacity:1;" d="M 84.882812 28.164062 L 85.3125 27.730469 L 92.566406 34.984375 L 92.136719 35.417969 Z M 84.882812 28.164062 "/>
<path style=" stroke:none;fill-rule:nonzero;fill:rgb(100%,0%,0%);fill-opacity:1;" d="M 95.414062 34.980469 C 95.414062 36.230469 94.402344 37.242188 93.152344 37.242188 C 91.90625 37.242188 90.894531 36.230469 90.894531 34.980469 C 90.894531 33.734375 91.90625 32.722656 93.152344 32.722656 C 94.402344 32.722656 95.414062 33.734375 95.414062 34.980469 Z M 95.414062 34.980469 "/>
<path style=" stroke:none;fill-rule:nonzero;fill:rgb(100%,0%,0%);fill-opacity:1;" d="M 95.351562 20.84375 C 95.351562 22.089844 94.339844 23.101562 93.09375 23.101562 C 91.84375 23.101562 90.832031 22.089844 90.832031 20.84375 C 90.832031 19.59375 91.84375 18.582031 93.09375 18.582031 C 94.339844 18.582031 95.351562 19.59375 95.351562 20.84375 Z M 95.351562 20.84375 "/>
<path style=" stroke:none;fill-rule:nonzero;fill:rgb(100%,0%,0%);fill-opacity:1;" d="M 97.433594 27.820312 C 97.433594 29.066406 96.421875 30.082031 95.171875 30.082031 C 93.925781 30.082031 92.914062 29.066406 92.914062 27.820312 C 92.914062 26.570312 93.925781 25.558594 95.171875 25.558594 C 96.421875 25.558594 97.433594 26.570312 97.433594 27.820312 Z M 97.433594 27.820312 "/>
<path style=" stroke:none;fill-rule:nonzero;fill:rgb(100%,0%,0%);fill-opacity:1;" d="M 82.496094 18.824219 C 82.496094 20.070312 81.484375 21.082031 80.238281 21.082031 C 78.988281 21.082031 77.976562 20.070312 77.976562 18.824219 C 77.976562 17.574219 78.988281 16.5625 80.238281 16.5625 C 81.484375 16.5625 82.496094 17.574219 82.496094 18.824219 Z M 82.496094 18.824219 "/>
<path style=" stroke:none;fill-rule:nonzero;fill:rgb(0%,76.862746%,0%);fill-opacity:1;" d="M 63.929688 7.621094 L 64.363281 7.191406 L 71.617188 14.445312 L 71.183594 14.875 Z M 63.929688 7.621094 "/>
<path style=" stroke:none;fill-rule:nonzero;fill:rgb(0%,76.862746%,0%);fill-opacity:1;" d="M 71.289062 14.488281 L 78.542969 7.234375 L 78.976562 7.667969 L 71.722656 14.921875 Z M 71.289062 14.488281 "/>
<path style=" stroke:none;fill-rule:nonzero;fill:rgb(100%,0%,0%);fill-opacity:1;" d="M 80.800781 6.652344 C 80.800781 7.898438 79.789062 8.910156 78.539062 8.910156 C 77.292969 8.910156 76.28125 7.898438 76.28125 6.652344 C 76.28125 5.402344 77.292969 4.390625 78.539062 4.390625 C 79.789062 4.390625 80.800781 5.402344 80.800781 6.652344 Z M 80.800781 6.652344 "/>
<path style=" stroke:none;fill-rule:nonzero;fill:rgb(100%,0%,0%);fill-opacity:1;" d="M 66.660156 6.710938 C 66.660156 7.960938 65.648438 8.972656 64.398438 8.972656 C 63.152344 8.972656 62.140625 7.960938 62.140625 6.710938 C 62.140625 5.464844 63.152344 4.453125 64.398438 4.453125 C 65.648438 4.453125 66.660156 5.464844 66.660156 6.710938 Z M 66.660156 6.710938 "/>
<path style=" stroke:none;fill-rule:nonzero;fill:rgb(100%,0%,0%);fill-opacity:1;" d="M 71.484375 6.890625 C 72.730469 6.890625 73.742188 5.878906 73.742188 4.628906 C 73.742188 3.382812 72.730469 2.371094 71.484375 2.371094 C 70.234375 2.371094 69.222656 3.382812 69.222656 4.628906 C 69.222656 5.878906 70.234375 6.890625 71.484375 6.890625 Z M 71.484375 6.890625 "/>
</g>
</svg>
