<?xml version="1.0" encoding="UTF-8"?>
<svg xmlns="http://www.w3.org/2000/svg" xmlns:xlink="http://www.w3.org/1999/xlink" width="100px" height="119px" viewBox="0 0 100 119" version="1.1">
<g id="surface1">
<path style="fill:none;stroke-width:2.633899;stroke-linecap:butt;stroke-linejoin:miter;stroke:rgb(0%,76.862746%,0%);stroke-opacity:1;stroke-miterlimit:4;" d="M 22.263281 498.686975 L 21 123.670562 " transform="matrix(0.238095,0,0,0.238,0,0)"/>
<path style="fill:none;stroke-width:2.633899;stroke-linecap:butt;stroke-linejoin:miter;stroke:rgb(0%,76.862746%,0%);stroke-opacity:1;stroke-miterlimit:4;" d="M 21.689063 329.70063 L 104.2125 59.381565 " transform="matrix(0.238095,0,0,0.238,0,0)"/>
<path style="fill:none;stroke-width:2.633899;stroke-linecap:butt;stroke-linejoin:miter;stroke:rgb(0%,76.862746%,0%);stroke-opacity:1;stroke-miterlimit:4;" d="M 60.424219 202.419249 L 199.532813 33.482143 " transform="matrix(0.238095,0,0,0.238,0,0)"/>
<path style="fill:none;stroke-width:2.633899;stroke-linecap:butt;stroke-linejoin:miter;stroke:rgb(0%,76.862746%,0%);stroke-opacity:1;stroke-miterlimit:4;" d="M 130.495313 117.006959 L 288.602344 35.27114 " transform="matrix(0.238095,0,0,0.238,0,0)"/>
<path style="fill:none;stroke-width:2.680723;stroke-linecap:butt;stroke-linejoin:miter;stroke:rgb(0%,76.862746%,0%);stroke-opacity:1;stroke-miterlimit:4;" d="M 210.820312 75.351234 L 359.723437 74.563419 " transform="matrix(0.238095,0,0,0.238,0,0)"/>
<path style="fill:none;stroke-width:2.633899;stroke-linecap:butt;stroke-linejoin:miter;stroke:rgb(0%,76.862746%,0%);stroke-opacity:1;stroke-miterlimit:4;" d="M 291.932813 74.727547 L 386.613281 137.326024 " transform="matrix(0.238095,0,0,0.238,0,0)"/>
<path style="fill:none;stroke-width:2.633899;stroke-linecap:butt;stroke-linejoin:miter;stroke:rgb(0%,76.862746%,0%);stroke-opacity:1;stroke-miterlimit:4;" d="M 343.005469 108.587185 L 358.985156 179.030987 " transform="matrix(0.238095,0,0,0.238,0,0)"/>
<path style="fill:none;stroke-width:2.633899;stroke-linecap:butt;stroke-linejoin:miter;stroke:rgb(0%,76.862746%,0%);stroke-opacity:1;stroke-miterlimit:4;" d="M 352.750781 154.017857 L 325.122656 185.28427 " transform="matrix(0.238095,0,0,0.238,0,0)"/>
<path style=" stroke:none;fill-rule:nonzero;fill:rgb(100%,0%,0%);fill-opacity:1;" d="M 9.546875 25.5 C 9.546875 28.140625 7.410156 30.28125 4.773438 30.28125 C 2.136719 30.28125 0 28.140625 0 25.5 C 0 22.859375 2.136719 20.71875 4.773438 20.71875 C 7.410156 20.71875 9.546875 22.859375 9.546875 25.5 Z M 9.546875 25.5 "/>
<path style=" stroke:none;fill-rule:nonzero;fill:rgb(100%,0%,0%);fill-opacity:1;" d="M 30.859375 9.882812 C 30.859375 12.523438 28.722656 14.664062 26.085938 14.664062 C 23.449219 14.664062 21.3125 12.523438 21.3125 9.882812 C 21.3125 7.242188 23.449219 5.101562 26.085938 5.101562 C 28.722656 5.101562 30.859375 7.242188 30.859375 9.882812 Z M 30.859375 9.882812 "/>
<path style=" stroke:none;fill-rule:nonzero;fill:rgb(100%,0%,0%);fill-opacity:1;" d="M 55.460938 4.78125 C 55.460938 7.421875 53.324219 9.5625 50.6875 9.5625 C 48.054688 9.5625 45.914062 7.421875 45.914062 4.78125 C 45.914062 2.140625 48.054688 0 50.6875 0 C 53.324219 0 55.460938 2.140625 55.460938 4.78125 Z M 55.460938 4.78125 "/>
<path style=" stroke:none;fill-rule:nonzero;fill:rgb(100%,0%,0%);fill-opacity:1;" d="M 78.15625 6.695312 C 78.15625 9.335938 76.019531 11.476562 73.382812 11.476562 C 70.746094 11.476562 68.609375 9.335938 68.609375 6.695312 C 68.609375 4.054688 70.746094 1.914062 73.382812 1.914062 C 76.019531 1.914062 78.15625 4.054688 78.15625 6.695312 Z M 78.15625 6.695312 "/>
<path style=" stroke:none;fill-rule:nonzero;fill:rgb(100%,0%,0%);fill-opacity:1;" d="M 94.273438 18.59375 C 94.273438 21.234375 92.136719 23.375 89.5 23.375 C 86.863281 23.375 84.726562 21.234375 84.726562 18.59375 C 84.726562 15.953125 86.863281 13.8125 89.5 13.8125 C 92.136719 13.8125 94.273438 15.953125 94.273438 18.59375 Z M 94.273438 18.59375 "/>
<path style=" stroke:none;fill-rule:nonzero;fill:rgb(100%,0%,0%);fill-opacity:1;" d="M 100 35.382812 C 100 38.023438 97.863281 40.164062 95.226562 40.164062 C 92.589844 40.164062 90.453125 38.023438 90.453125 35.382812 C 90.453125 32.742188 92.589844 30.601562 95.226562 30.601562 C 97.863281 30.601562 100 32.742188 100 35.382812 Z M 100 35.382812 "/>
<path style=" stroke:none;fill-rule:nonzero;fill:rgb(100%,0%,0%);fill-opacity:1;" d="M 91.09375 47.285156 C 91.09375 49.925781 88.957031 52.066406 86.320312 52.066406 C 83.683594 52.066406 81.546875 49.925781 81.546875 47.285156 C 81.546875 44.644531 83.683594 42.503906 86.320312 42.503906 C 88.957031 42.503906 91.09375 44.644531 91.09375 47.285156 Z M 91.09375 47.285156 "/>
<path style=" stroke:none;fill-rule:nonzero;fill:rgb(100%,0%,0%);fill-opacity:1;" d="M 78.367188 46.644531 C 78.367188 49.285156 76.230469 51.425781 73.59375 51.425781 C 70.957031 51.425781 68.820312 49.285156 68.820312 46.644531 C 68.820312 44.003906 70.957031 41.863281 73.59375 41.863281 C 76.230469 41.863281 78.367188 44.003906 78.367188 46.644531 Z M 78.367188 46.644531 "/>
<path style=" stroke:none;fill-rule:evenodd;fill:rgb(0%,76.862746%,0%);fill-opacity:1;" d="M 14.097656 48.113281 L 18.363281 49.449219 L 24.921875 50.53125 L 16.675781 51.304688 Z M 14.097656 48.113281 "/>
<path style=" stroke:none;fill-rule:evenodd;fill:rgb(0%,76.862746%,0%);fill-opacity:1;" d="M 31.0625 27.5 L 34.25 30.640625 L 39.59375 34.601562 L 31.902344 31.519531 Z M 31.0625 27.5 "/>
<path style=" stroke:none;fill-rule:evenodd;fill:rgb(0%,76.862746%,0%);fill-opacity:1;" d="M 50.160156 17.734375 L 52.375 21.625 L 56.441406 26.894531 L 49.875 21.832031 Z M 50.160156 17.734375 "/>
<path style=" stroke:none;fill-rule:evenodd;fill:rgb(0%,76.862746%,0%);fill-opacity:1;" d="M 69.765625 17.632812 L 69.515625 22.105469 L 70.070312 28.746094 L 67.304688 20.921875 Z M 69.765625 17.632812 "/>
<path style=" stroke:none;fill-rule:evenodd;fill:rgb(0%,76.862746%,0%);fill-opacity:1;" d="M 82.027344 25.863281 L 78.542969 28.667969 L 73.988281 33.519531 L 77.945312 26.226562 Z M 82.027344 25.863281 "/>
<path style=" stroke:none;fill-rule:evenodd;fill:rgb(0%,76.862746%,0%);fill-opacity:1;" d="M 4.84375 78.351562 L 9.085938 76.9375 L 15.039062 73.96875 L 8.800781 79.429688 Z M 4.84375 78.351562 "/>
</g>
</svg>
