<?xml version="1.0" encoding="UTF-8"?>
<svg xmlns="http://www.w3.org/2000/svg" xmlns:xlink="http://www.w3.org/1999/xlink" width="100px" height="139px" viewBox="0 0 100 139" version="1.1">
<g id="surface1">
<path style=" stroke:none;fill-rule:nonzero;fill:rgb(0%,76.47059%,0%);fill-opacity:1;" d="M 76.605469 97.941406 C 79.914062 98.023438 83.226562 97.785156 86.496094 97.273438 C 91.0625 96.5625 97.28125 94.910156 99.910156 90.613281 C 92.386719 94.636719 82.851562 96.167969 74.632812 93.222656 C 73.082031 92.664062 73.53125 92.359375 73.894531 90.996094 C 75.074219 91.199219 76.25 91.4375 77.429688 91.636719 C 79.414062 91.972656 81.445312 92.21875 83.457031 92.019531 C 86.59375 91.707031 90.96875 89.59375 93.082031 87.179688 C 87.082031 88.992188 83.074219 91.617188 76.871094 88.359375 C 76.222656 88.019531 75.535156 87.75 75 87.214844 L 74.964844 87.179688 L 74.886719 86.796875 C 74.929688 86.664062 75.011719 86.445312 75.097656 86.238281 C 75.109375 85.578125 75.40625 84.78125 75.640625 83.640625 C 76.007812 81.863281 76.871094 80.046875 76.941406 78.214844 C 76.984375 77.042969 76.867188 75.859375 77.101562 74.699219 C 78.148438 74.589844 79.203125 74.515625 80.257812 74.4375 C 84.796875 74.09375 89.84375 73.617188 93.082031 70.007812 C 89.871094 70.757812 87.042969 72.242188 83.660156 71.894531 C 82.492188 71.773438 81.332031 71.578125 80.183594 71.324219 C 80.03125 71.292969 79.882812 71.261719 79.734375 71.226562 C 79.683594 71.214844 79.632812 71.199219 79.585938 71.1875 C 79.097656 71.070312 78.613281 70.945312 78.140625 70.808594 C 77.882812 70.734375 77.625 70.660156 77.367188 70.578125 C 77.324219 69.855469 77.304688 69.128906 77.296875 68.40625 C 77.28125 67.4375 77.261719 66.472656 77.175781 65.503906 C 76.886719 63.265625 76.390625 61.054688 76.234375 58.800781 C 76.09375 56.777344 77.082031 57.207031 78.816406 56.929688 C 79.699219 56.792969 80.582031 56.664062 81.46875 56.535156 C 85.140625 55.980469 88.554688 54.820312 91.097656 51.957031 C 89.222656 52.492188 87.535156 53.519531 85.65625 54.042969 C 83.726562 54.582031 81.703125 54.152344 79.742188 53.976562 C 78.695312 53.882812 77.085938 53.835938 76.03125 53.308594 C 75.851562 53.261719 75.675781 53.21875 75.496094 53.175781 C 75.421875 53.023438 75.308594 52.757812 75.230469 52.644531 C 75.230469 52.605469 75.191406 52.527344 75.191406 52.488281 C 75.039062 51.878906 74.925781 51.308594 74.8125 50.695312 C 74.8125 50.660156 74.773438 50.582031 74.773438 50.542969 C 74.773438 50.582031 74.8125 50.660156 74.8125 50.695312 C 74.828125 50.71875 74.847656 50.738281 74.863281 50.761719 C 74.773438 50.453125 74.683594 50.152344 74.617188 49.875 C 74.4375 49.164062 74.265625 48.449219 74.097656 47.734375 L 74.085938 47.757812 C 74.085938 47.683594 74.046875 47.566406 74.046875 47.53125 L 74.050781 47.53125 C 73.78125 46.378906 73.519531 45.226562 73.25 44.074219 C 73.253906 44.152344 73.285156 44.25 73.285156 44.285156 C 73.285156 44.25 73.253906 44.152344 73.25 44.074219 C 72.882812 42.523438 72.503906 40.972656 72.066406 39.4375 C 77.101562 38.417969 82.398438 37.34375 86.519531 34.058594 C 82.640625 35.191406 79.347656 36.472656 75.242188 36.359375 C 73.5625 36.3125 71.574219 36.894531 70.800781 35.234375 C 70.140625 33.808594 69.707031 32.296875 69.152344 30.832031 C 69.015625 30.464844 68.863281 30.101562 68.707031 29.738281 C 68.707031 29.742188 68.707031 29.746094 68.707031 29.746094 C 68.707031 29.746094 68.707031 29.742188 68.707031 29.738281 C 68.253906 28.679688 67.765625 27.621094 67.488281 26.503906 C 68.71875 25.09375 69.996094 23.726562 71.285156 22.375 C 73.859375 19.679688 76.492188 17.035156 78.929688 14.214844 C 75.761719 15.875 72.867188 18.070312 69.957031 20.128906 C 68.941406 20.847656 67.492188 22.335938 66.277344 22.597656 C 66.046875 22.730469 65.8125 22.863281 65.582031 22.992188 C 65.351562 22.679688 65.109375 22.371094 64.867188 22.0625 C 63.910156 20.851562 62.878906 19.804688 61.789062 18.714844 C 60.351562 17.273438 59.113281 16.335938 57.292969 15.421875 C 55.636719 14.59375 56.90625 12.414062 57.285156 10.847656 C 58.152344 7.25 59.078125 3.664062 59.746094 0.0195312 C 57.441406 3.09375 57.105469 6.902344 55.398438 10.175781 C 54.933594 11.074219 54.351562 11.898438 53.800781 12.742188 C 53.578125 13.082031 53.355469 13.429688 53.148438 13.796875 C 51.832031 13.515625 50.648438 13.480469 49.304688 13.542969 C 48.804688 13.5625 48.367188 13.535156 47.972656 13.464844 C 48.042969 13.511719 48.117188 13.554688 48.1875 13.605469 C 47.125 14.015625 46.460938 13.375 46.0625 12.519531 C 45.265625 11.75 44.730469 10.570312 44.132812 9.050781 C 42.914062 5.96875 42.121094 2.917969 40.332031 0.0195312 C 41.082031 4.117188 42.136719 8.144531 43.078125 12.199219 C 43.792969 15.265625 43.378906 14.945312 40.867188 16.378906 C 39.523438 17.144531 38.523438 18.453125 37.429688 19.523438 C 36.617188 20.3125 35.929688 21.125 35.230469 22.007812 C 35.203125 22.042969 35.171875 22.082031 35.144531 22.117188 C 34.957031 22.625 34.730469 22.914062 34.460938 22.988281 C 34.457031 22.992188 34.457031 22.992188 34.457031 22.992188 C 34.457031 22.992188 34.457031 22.992188 34.453125 22.992188 C 34.125 23.082031 33.738281 22.859375 33.289062 22.316406 C 33.207031 22.269531 33.128906 22.214844 33.050781 22.167969 C 32.867188 22.054688 32.6875 21.941406 32.507812 21.824219 C 31.351562 21.074219 30.226562 20.261719 29.117188 19.453125 C 26.558594 17.582031 23.917969 15.6875 21.109375 14.214844 C 23.855469 17.394531 26.835938 20.355469 29.714844 23.40625 C 30.863281 24.625 32.84375 25.828125 32.226562 27.558594 C 31.800781 28.746094 31.253906 29.878906 30.8125 31.058594 C 30.25 32.554688 29.675781 36.289062 27.9375 36.320312 C 26.46875 36.347656 25 36.367188 23.53125 36.367188 C 19.933594 36.367188 16.910156 35.050781 13.515625 34.058594 C 17.597656 37.371094 22.925781 38.519531 27.972656 39.4375 C 27.207031 42.117188 26.554688 44.84375 25.933594 47.566406 L 25.988281 47.53125 C 25.953125 47.566406 25.953125 47.71875 25.914062 47.757812 L 25.902344 47.707031 C 25.6875 48.65625 25.476562 49.601562 25.265625 50.542969 C 25.265625 51.265625 25.128906 51.828125 24.894531 52.273438 C 24.878906 52.347656 24.863281 52.417969 24.84375 52.488281 C 24.84375 52.527344 24.808594 52.605469 24.808594 52.644531 C 24.769531 52.796875 24.65625 53.101562 24.578125 53.253906 C 24.265625 53.300781 23.957031 53.363281 23.648438 53.425781 C 22.421875 54.007812 20.679688 53.988281 19.074219 54.117188 C 15.152344 54.441406 12.582031 53.089844 8.941406 51.957031 C 11.761719 54.863281 15.707031 56.117188 19.597656 56.804688 C 20.667969 56.992188 21.746094 57.140625 22.828125 57.28125 C 24.015625 57.066406 24.332031 57.5625 23.777344 58.761719 C 23.523438 61.003906 23.015625 63.214844 22.824219 65.464844 C 22.71875 66.75 23.085938 68.539062 22.695312 69.734375 C 22.6875 70.003906 22.679688 70.269531 22.671875 70.539062 C 22.296875 70.664062 21.925781 70.78125 21.558594 70.890625 C 21.550781 70.890625 21.546875 70.894531 21.539062 70.898438 C 21.402344 70.9375 21.261719 70.976562 21.125 71.015625 C 21.0625 71.035156 20.996094 71.054688 20.929688 71.070312 C 20.738281 71.125 20.546875 71.175781 20.359375 71.226562 C 20 71.320312 19.640625 71.410156 19.277344 71.496094 C 19.285156 71.488281 19.289062 71.484375 19.296875 71.476562 C 18.226562 71.710938 17.144531 71.878906 16.039062 71.945312 C 12.832031 72.136719 10.003906 70.886719 6.996094 69.96875 C 10.230469 73.671875 15.398438 74.105469 19.980469 74.429688 C 21.492188 74.535156 22.984375 74.011719 23.121094 75.820312 C 23.214844 77 23.078125 78.183594 23.253906 79.359375 C 23.488281 80.921875 24.261719 82.371094 24.53125 83.945312 C 24.6875 84.847656 24.824219 85.511719 24.859375 86.035156 C 24.964844 86.285156 25.089844 86.621094 25.152344 86.796875 L 25.074219 87.179688 L 25.035156 87.214844 C 24.503906 87.75 23.816406 88.019531 23.128906 88.359375 C 23.132812 88.355469 23.136719 88.347656 23.140625 88.339844 C 22.804688 88.515625 22.414062 88.703125 21.949219 88.917969 C 16.167969 91.585938 12.453125 88.769531 6.957031 87.179688 C 8.851562 90.019531 14.785156 92.1875 18.015625 92.058594 C 20.292969 91.964844 22.535156 91.492188 24.789062 91.167969 C 26.617188 90.902344 26.234375 91.199219 26.523438 92.75 C 25.75 93.046875 24.960938 93.308594 24.160156 93.539062 C 16.175781 95.828125 7.328125 94.632812 0.0898438 90.613281 C 2.453125 94.695312 8.882812 96.632812 13.238281 97.320312 C 16.566406 97.847656 19.945312 98.070312 23.316406 97.96875 C 25.457031 97.90625 29.730469 96.34375 30.453125 99.238281 C 21.542969 101.039062 11.527344 100.585938 3.144531 97.0625 C 4.125 99.445312 9.199219 101.300781 11.453125 102.089844 C 14.53125 103.171875 17.992188 103.390625 21.230469 103.511719 C 28.53125 103.785156 35.816406 102.851562 43.117188 103.167969 C 41.085938 105.269531 36.5 105.839844 33.765625 106.066406 C 30.582031 106.332031 27.386719 106.109375 24.195312 106.183594 C 26.980469 107.953125 33.316406 108.0625 36.726562 108.039062 C 41.40625 108.007812 45.140625 106.03125 49.484375 104.695312 C 49.464844 110.65625 49.445312 116.617188 49.441406 122.578125 C 49.441406 125.5625 49.441406 128.550781 49.449219 131.535156 C 49.453125 132.773438 49.003906 139 50.019531 139 C 51.035156 139 50.585938 132.773438 50.585938 131.535156 C 50.597656 128.550781 50.597656 125.5625 50.597656 122.578125 C 50.59375 116.617188 50.574219 110.65625 50.554688 104.695312 C 54.585938 106.179688 58.667969 108.269531 63.070312 108.035156 C 67.316406 107.808594 71.515625 107.074219 75.726562 106.527344 C 75.738281 106.410156 75.753906 106.296875 75.765625 106.183594 C 69.515625 105.988281 62.457031 106.925781 57 103.167969 C 64.761719 102.921875 72.515625 103.925781 80.277344 103.4375 C 83.796875 103.214844 87.363281 102.800781 90.585938 101.285156 C 92.519531 100.375 95.890625 99.066406 96.894531 97.0625 C 88.269531 100.605469 78.699219 100.785156 69.546875 99.273438 C 70.421875 96.351562 74.328125 97.886719 76.605469 97.941406 Z M 85.1875 71.988281 L 85.109375 71.988281 Z M 76.414062 80.804688 C 76.375 80.804688 76.375 80.882812 76.375 80.882812 C 76.375 80.882812 76.375 80.804688 76.414062 80.804688 Z M 74.429688 49.207031 C 74.429688 49.171875 74.429688 49.09375 74.390625 49.054688 C 74.429688 49.09375 74.429688 49.171875 74.429688 49.207031 Z M 72.902344 42.757812 C 72.902344 42.683594 72.867188 42.605469 72.867188 42.53125 C 72.867188 42.605469 72.902344 42.683594 72.902344 42.757812 Z M 72.523438 41.234375 C 72.484375 41.195312 72.484375 41.082031 72.445312 41.042969 C 72.484375 41.082031 72.484375 41.195312 72.523438 41.234375 Z M 14.851562 71.988281 C 14.890625 71.988281 14.929688 71.988281 14.96875 71.988281 C 14.929688 71.988281 14.890625 71.988281 14.851562 71.988281 Z M 23.664062 80.765625 C 23.664062 80.804688 23.703125 80.84375 23.703125 80.882812 C 23.703125 80.84375 23.664062 80.804688 23.664062 80.765625 Z M 25.609375 49.207031 C 25.609375 49.171875 25.609375 49.09375 25.648438 49.054688 C 25.609375 49.09375 25.609375 49.171875 25.609375 49.207031 Z M 26.371094 45.773438 C 26.371094 45.734375 26.410156 45.621094 26.410156 45.582031 C 26.410156 45.621094 26.371094 45.734375 26.371094 45.773438 Z M 26.753906 44.285156 C 26.753906 44.246094 26.789062 44.132812 26.789062 44.058594 C 26.789062 44.132812 26.753906 44.246094 26.753906 44.285156 Z M 27.132812 42.757812 C 27.132812 42.683594 27.171875 42.605469 27.171875 42.53125 C 27.171875 42.605469 27.132812 42.683594 27.132812 42.757812 Z M 27.515625 41.234375 C 27.554688 41.195312 27.554688 41.082031 27.59375 41.042969 C 27.554688 41.082031 27.554688 41.195312 27.515625 41.234375 Z M 27.515625 41.234375 "/>
<path style=" stroke:none;fill-rule:nonzero;fill:rgb(0%,87.843138%,0%);fill-opacity:1;" d="M 48.457031 15.132812 C 54.253906 14.328125 59.515625 18.144531 63.0625 22.34375 C 65.582031 24.824219 66.304688 28.335938 67.71875 31.425781 C 70.730469 38.636719 72.066406 46.347656 73.859375 53.902344 C 74.695312 60.464844 76.414062 67.066406 75.308594 73.707031 C 74.964844 80.421875 73.324219 86.988281 71.417969 93.476562 C 70.386719 95.457031 69.128906 97.558594 67.03125 98.625 C 62.644531 101.183594 57.457031 101.601562 52.574219 102.480469 C 48.644531 103.207031 44.71875 102.0625 40.863281 101.375 C 36.136719 100.417969 30.71875 98.625 28.734375 93.703125 C 25.800781 84.851562 24.578125 75.5 24.351562 66.191406 C 25.226562 56.992188 27.476562 47.988281 29.652344 39.058594 C 31.101562 34.324219 32.96875 29.746094 34.875 25.167969 C 38.042969 20.433594 42.621094 16.046875 48.457031 15.132812 Z M 48.457031 15.132812 "/>
<path style=" stroke:none;fill-rule:nonzero;fill:rgb(100%,0%,0%);fill-opacity:1;" d="M 24.214844 83.414062 C 24.214844 87.015625 21.296875 89.933594 17.699219 89.933594 C 14.097656 89.933594 11.179688 87.015625 11.179688 83.414062 C 11.179688 79.8125 14.097656 76.894531 17.699219 76.894531 C 21.296875 76.894531 24.214844 79.8125 24.214844 83.414062 Z M 24.214844 83.414062 "/>
<path style=" stroke:none;fill-rule:nonzero;fill:rgb(100%,0%,0%);fill-opacity:1;" d="M 23.070312 65.667969 C 23.070312 69.269531 20.152344 72.191406 16.554688 72.191406 C 12.953125 72.191406 10.035156 69.269531 10.035156 65.667969 C 10.035156 62.066406 12.953125 59.148438 16.554688 59.148438 C 20.152344 59.148438 23.070312 62.066406 23.070312 65.667969 Z M 23.070312 65.667969 "/>
<path style=" stroke:none;fill-rule:nonzero;fill:rgb(100%,0%,0%);fill-opacity:1;" d="M 25.933594 47.351562 C 25.933594 50.953125 23.015625 53.875 19.414062 53.875 C 15.816406 53.875 12.898438 50.953125 12.898438 47.351562 C 12.898438 43.75 15.816406 40.832031 19.414062 40.832031 C 23.015625 40.832031 25.933594 43.75 25.933594 47.351562 Z M 25.933594 47.351562 "/>
<path style=" stroke:none;fill-rule:nonzero;fill:rgb(100%,0%,0%);fill-opacity:1;" d="M 30.890625 29.796875 C 30.890625 33.398438 27.972656 36.320312 24.375 36.320312 C 20.773438 36.320312 17.855469 33.398438 17.855469 29.796875 C 17.855469 26.199219 20.773438 23.277344 24.375 23.277344 C 27.972656 23.277344 30.890625 26.199219 30.890625 29.796875 Z M 30.890625 29.796875 "/>
<path style=" stroke:none;fill-rule:nonzero;fill:rgb(100%,0%,0%);fill-opacity:1;" d="M 39.855469 14.726562 C 39.855469 18.328125 36.9375 21.246094 33.335938 21.246094 C 29.738281 21.246094 26.820312 18.328125 26.820312 14.726562 C 26.820312 11.125 29.738281 8.203125 33.335938 8.203125 C 36.9375 8.203125 39.855469 11.125 39.855469 14.726562 Z M 39.855469 14.726562 "/>
<path style=" stroke:none;fill-rule:nonzero;fill:rgb(100%,0%,0%);fill-opacity:1;" d="M 56.445312 6.519531 C 56.445312 10.121094 53.527344 13.042969 49.929688 13.042969 C 46.328125 13.042969 43.410156 10.121094 43.410156 6.519531 C 43.410156 2.917969 46.328125 0 49.929688 0 C 53.527344 0 56.445312 2.917969 56.445312 6.519531 Z M 56.445312 6.519531 "/>
<path style=" stroke:none;fill-rule:nonzero;fill:rgb(100%,0%,0%);fill-opacity:1;" d="M 73.230469 14.535156 C 73.230469 18.136719 70.308594 21.054688 66.710938 21.054688 C 63.109375 21.054688 60.191406 18.136719 60.191406 14.535156 C 60.191406 10.933594 63.109375 8.011719 66.710938 8.011719 C 70.308594 8.011719 73.230469 10.933594 73.230469 14.535156 Z M 73.230469 14.535156 "/>
<path style=" stroke:none;fill-rule:nonzero;fill:rgb(100%,0%,0%);fill-opacity:1;" d="M 82 29.796875 C 82 33.398438 79.082031 36.320312 75.484375 36.320312 C 71.882812 36.320312 68.964844 33.398438 68.964844 29.796875 C 68.964844 26.199219 71.882812 23.277344 75.484375 23.277344 C 79.082031 23.277344 82 26.199219 82 29.796875 Z M 82 29.796875 "/>
<path style=" stroke:none;fill-rule:nonzero;fill:rgb(100%,0%,0%);fill-opacity:1;" d="M 87.339844 47.542969 C 87.339844 51.144531 84.421875 54.066406 80.824219 54.066406 C 77.222656 54.066406 74.304688 51.144531 74.304688 47.542969 C 74.304688 43.941406 77.222656 41.023438 80.824219 41.023438 C 84.421875 41.023438 87.339844 43.941406 87.339844 47.542969 Z M 87.339844 47.542969 "/>
<path style=" stroke:none;fill-rule:nonzero;fill:rgb(100%,0%,0%);fill-opacity:1;" d="M 89.820312 65.480469 C 89.820312 69.082031 86.902344 72 83.300781 72 C 79.703125 72 76.785156 69.082031 76.785156 65.480469 C 76.785156 61.878906 79.703125 58.957031 83.300781 58.957031 C 86.902344 58.957031 89.820312 61.878906 89.820312 65.480469 Z M 89.820312 65.480469 "/>
<path style=" stroke:none;fill-rule:nonzero;fill:rgb(100%,0%,0%);fill-opacity:1;" d="M 88.484375 83.796875 C 88.484375 87.398438 85.566406 90.316406 81.96875 90.316406 C 78.367188 90.316406 75.449219 87.398438 75.449219 83.796875 C 75.449219 80.195312 78.367188 77.273438 81.96875 77.273438 C 85.566406 77.273438 88.484375 80.195312 88.484375 83.796875 Z M 88.484375 83.796875 "/>
</g>
</svg>
