<?xml version="1.0" encoding="UTF-8"?>
<svg xmlns="http://www.w3.org/2000/svg" xmlns:xlink="http://www.w3.org/1999/xlink" width="100px" height="143px" viewBox="0 0 100 143" version="1.1">
<g id="surface1">
<path style=" stroke:none;fill-rule:evenodd;fill:rgb(0%,76.862746%,0%);fill-opacity:1;" d="M 54.699219 17.519531 L 57.261719 19.132812 L 61.71875 21.007812 L 54.976562 19.972656 Z M 54.699219 17.519531 "/>
<path style=" stroke:none;fill-rule:evenodd;fill:rgb(0%,76.862746%,0%);fill-opacity:1;" d="M 54.761719 47.925781 L 57.324219 49.539062 L 61.78125 51.410156 L 55.039062 50.375 Z M 54.761719 47.925781 "/>
<path style="fill:none;stroke-width:1.497143;stroke-linecap:butt;stroke-linejoin:miter;stroke:rgb(0%,76.862746%,0%);stroke-opacity:1;stroke-miterlimit:4;" d="M 113.352737 138.487329 L 199.512894 72.927889 " transform="matrix(0.285714,0,0,0.286,22.613504,8.630905)"/>
<path style=" stroke:none;fill-rule:nonzero;fill:rgb(100%,0%,0%);fill-opacity:1;" d="M 85.332031 27.597656 C 85.332031 25.855469 83.867188 24.445312 82.0625 24.445312 C 80.257812 24.445312 78.796875 25.855469 78.796875 27.597656 C 78.796875 29.339844 80.257812 30.75 82.0625 30.75 C 83.867188 30.75 85.332031 29.339844 85.332031 27.597656 Z M 85.332031 27.597656 "/>
<path style=" stroke:none;fill-rule:evenodd;fill:rgb(0%,76.862746%,0%);fill-opacity:1;" d="M 54.863281 93.332031 L 57.425781 94.941406 L 61.882812 96.816406 L 55.140625 95.78125 Z M 54.863281 93.332031 "/>
<path style="fill:none;stroke-width:1.497143;stroke-linecap:butt;stroke-linejoin:miter;stroke:rgb(0%,76.862746%,0%);stroke-opacity:1;stroke-miterlimit:4;" d="M 113.708206 297.318732 L 250.139847 183.941875 " transform="matrix(0.285714,0,0,0.286,22.613504,8.630905)"/>
<path style=" stroke:none;fill-rule:nonzero;fill:rgb(100%,0%,0%);fill-opacity:1;" d="M 99.507812 59.621094 C 99.507812 57.882812 98.046875 56.46875 96.242188 56.46875 C 94.4375 56.46875 92.976562 57.882812 92.976562 59.621094 C 92.976562 61.363281 94.4375 62.777344 96.242188 62.777344 C 98.046875 62.777344 99.507812 61.363281 99.507812 59.621094 Z M 99.507812 59.621094 "/>
<path style=" stroke:none;fill-rule:evenodd;fill:rgb(0%,76.862746%,0%);fill-opacity:1;" d="M 54.796875 31.648438 L 52.238281 33.261719 L 47.777344 35.136719 L 54.519531 34.101562 Z M 54.796875 31.648438 "/>
<path style="fill:none;stroke-width:1.497143;stroke-linecap:butt;stroke-linejoin:miter;stroke:rgb(0%,76.862746%,0%);stroke-opacity:1;stroke-miterlimit:4;" d="M 111.520706 81.805729 L 63.6418 42.060319 " transform="matrix(0.285714,0,0,0.286,22.613504,8.630905)"/>
<path style=" stroke:none;fill-rule:nonzero;fill:rgb(100%,0%,0%);fill-opacity:1;" d="M 35.460938 18.859375 C 35.460938 17.121094 36.921875 15.707031 38.726562 15.707031 C 40.53125 15.707031 41.996094 17.121094 41.996094 18.859375 C 41.996094 20.601562 40.53125 22.015625 38.726562 22.015625 C 36.921875 22.015625 35.460938 20.601562 35.460938 18.859375 Z M 35.460938 18.859375 "/>
<path style=" stroke:none;fill-rule:evenodd;fill:rgb(0%,76.862746%,0%);fill-opacity:1;" d="M 54.785156 66.28125 L 52.222656 67.890625 L 47.765625 69.765625 L 54.507812 68.730469 Z M 54.785156 66.28125 "/>
<path style="fill:none;stroke-width:1.497143;stroke-linecap:butt;stroke-linejoin:miter;stroke:rgb(0%,76.862746%,0%);stroke-opacity:1;stroke-miterlimit:4;" d="M 112.231644 203.459466 L 24.348831 130.661171 " transform="matrix(0.285714,0,0,0.286,22.613504,8.630905)"/>
<path style=" stroke:none;fill-rule:nonzero;fill:rgb(100%,0%,0%);fill-opacity:1;" d="M 24.046875 44.199219 C 24.046875 42.457031 25.511719 41.046875 27.3125 41.046875 C 29.117188 41.046875 30.582031 42.457031 30.582031 44.199219 C 30.582031 45.941406 29.117188 47.351562 27.3125 47.351562 C 25.511719 47.351562 24.046875 45.941406 24.046875 44.199219 Z M 24.046875 44.199219 "/>
<path style=" stroke:none;fill-rule:evenodd;fill:rgb(0%,76.862746%,0%);fill-opacity:1;" d="M 54.726562 118.535156 L 52.167969 120.148438 L 47.707031 122.023438 L 54.449219 120.988281 Z M 54.726562 118.535156 "/>
<path style="fill:none;stroke-width:1.497143;stroke-linecap:butt;stroke-linejoin:miter;stroke:rgb(0%,76.862746%,0%);stroke-opacity:1;stroke-miterlimit:4;" d="M 111.575394 385.455205 L -58.817184 245.758964 " transform="matrix(0.285714,0,0,0.286,22.613504,8.630905)"/>
<path style=" stroke:none;fill-rule:nonzero;fill:rgb(100%,0%,0%);fill-opacity:1;" d="M 0 77.117188 C 0 75.375 1.460938 73.964844 3.265625 73.964844 C 5.070312 73.964844 6.535156 75.375 6.535156 77.117188 C 6.535156 78.859375 5.070312 80.269531 3.265625 80.269531 C 1.460938 80.269531 0 78.859375 0 77.117188 Z M 0 77.117188 "/>
<path style=" stroke:none;fill-rule:evenodd;fill:rgb(0%,76.862746%,0%);fill-opacity:1;" d="M 45.628906 24.917969 L 48.511719 23.933594 L 52.761719 21.65625 L 47.8125 26.195312 Z M 45.628906 24.917969 "/>
<path style="fill:none;stroke-width:1.497143;stroke-linecap:butt;stroke-linejoin:miter;stroke:rgb(0%,76.862746%,0%);stroke-opacity:1;stroke-miterlimit:4;" d="M 82.317581 56.606319 L 87.977737 34.780489 " transform="matrix(0.285714,0,0,0.286,22.613504,8.630905)"/>
<path style=" stroke:none;fill-rule:evenodd;fill:rgb(0%,76.862746%,0%);fill-opacity:1;" d="M 34.675781 50.148438 L 37.664062 49.507812 L 42.167969 47.738281 L 36.6875 51.667969 Z M 34.675781 50.148438 "/>
<path style="fill:none;stroke-width:1.497143;stroke-linecap:butt;stroke-linejoin:miter;stroke:rgb(0%,76.862746%,0%);stroke-opacity:1;stroke-miterlimit:4;" d="M 42.833206 145.152539 L 48.493362 123.31305 " transform="matrix(0.285714,0,0,0.286,22.613504,8.630905)"/>
<path style=" stroke:none;fill-rule:nonzero;fill:rgb(100%,0%,0%);fill-opacity:1;" d="M 40.214844 40.871094 C 40.214844 39.128906 38.75 37.71875 36.945312 37.71875 C 35.140625 37.71875 33.679688 39.128906 33.679688 40.871094 C 33.679688 42.613281 35.140625 44.023438 36.945312 44.023438 C 38.75 44.023438 40.214844 42.613281 40.214844 40.871094 Z M 40.214844 40.871094 "/>
<path style=" stroke:none;fill-rule:evenodd;fill:rgb(0%,76.862746%,0%);fill-opacity:1;" d="M 10.835938 83.355469 L 13.71875 82.371094 L 17.96875 80.09375 L 13.019531 84.632812 Z M 10.835938 83.355469 "/>
<path style="fill:none;stroke-width:1.497143;stroke-linecap:butt;stroke-linejoin:miter;stroke:rgb(0%,76.862746%,0%);stroke-opacity:1;stroke-miterlimit:4;" d="M -40.059372 260.919584 L -34.399216 238.233286 " transform="matrix(0.285714,0,0,0.286,22.613504,8.630905)"/>
<path style=" stroke:none;fill-rule:nonzero;fill:rgb(100%,0%,0%);fill-opacity:1;" d="M 16.527344 73.738281 C 16.527344 71.996094 15.066406 70.582031 13.261719 70.582031 C 11.457031 70.582031 9.996094 71.996094 9.996094 73.738281 C 9.996094 75.476562 11.457031 76.890625 13.261719 76.890625 C 15.066406 76.890625 16.527344 75.476562 16.527344 73.738281 Z M 16.527344 73.738281 "/>
<path style=" stroke:none;fill-rule:evenodd;fill:rgb(0%,76.862746%,0%);fill-opacity:1;" d="M 74.390625 33.78125 L 71.503906 32.796875 L 67.253906 30.519531 L 72.203125 35.054688 Z M 74.390625 33.78125 "/>
<path style="fill:none;stroke-width:1.497143;stroke-linecap:butt;stroke-linejoin:miter;stroke:rgb(0%,76.862746%,0%);stroke-opacity:1;stroke-miterlimit:4;" d="M 180.044144 87.869978 L 174.383987 64.896857 " transform="matrix(0.285714,0,0,0.286,22.613504,8.630905)"/>
<path style=" stroke:none;fill-rule:nonzero;fill:rgb(100%,0%,0%);fill-opacity:1;" d="M 68.695312 24.160156 C 68.695312 22.421875 70.160156 21.007812 71.964844 21.007812 C 73.765625 21.007812 75.230469 22.421875 75.230469 24.160156 C 75.230469 25.902344 73.765625 27.316406 71.964844 27.316406 C 70.160156 27.316406 68.695312 25.902344 68.695312 24.160156 Z M 68.695312 24.160156 "/>
<path style=" stroke:none;fill-rule:evenodd;fill:rgb(0%,76.862746%,0%);fill-opacity:1;" d="M 88.816406 65.6875 L 85.867188 64.902344 L 81.460938 62.921875 L 86.730469 67.109375 Z M 88.816406 65.6875 "/>
<path style="fill:none;stroke-width:1.497143;stroke-linecap:butt;stroke-linejoin:miter;stroke:rgb(0%,76.862746%,0%);stroke-opacity:1;stroke-miterlimit:4;" d="M 230.466019 199.867355 L 224.655472 176.607412 " transform="matrix(0.285714,0,0,0.286,22.613504,8.630905)"/>
<path style=" stroke:none;fill-rule:nonzero;fill:rgb(100%,0%,0%);fill-opacity:1;" d="M 83.058594 56.109375 C 83.058594 54.367188 84.519531 52.957031 86.324219 52.957031 C 88.128906 52.957031 89.59375 54.367188 89.59375 56.109375 C 89.59375 57.851562 88.128906 59.261719 86.324219 59.261719 C 84.519531 59.261719 83.058594 57.851562 83.058594 56.109375 Z M 83.058594 56.109375 "/>
<path style=" stroke:none;fill-rule:nonzero;fill:rgb(100%,0%,0%);fill-opacity:1;" d="M 59.511719 65.855469 C 59.511719 64.113281 60.972656 62.703125 62.777344 62.703125 C 64.582031 62.703125 66.042969 64.113281 66.042969 65.855469 C 66.042969 67.597656 64.582031 69.007812 62.777344 69.007812 C 60.972656 69.007812 59.511719 67.597656 59.511719 65.855469 Z M 59.511719 65.855469 "/>
<path style=" stroke:none;fill-rule:evenodd;fill:rgb(0%,76.862746%,0%);fill-opacity:1;" d="M 71.003906 71.707031 L 68.332031 73.144531 L 63.75 74.714844 L 70.550781 74.132812 Z M 71.003906 71.707031 "/>
<path style="fill:none;stroke-width:1.497143;stroke-linecap:butt;stroke-linejoin:miter;stroke:rgb(0%,76.862746%,0%);stroke-opacity:1;stroke-miterlimit:4;" d="M 168.874222 221.597578 L 149.555862 206.19111 " transform="matrix(0.285714,0,0,0.286,22.613504,8.630905)"/>
<path style=" stroke:none;fill-rule:nonzero;fill:rgb(100%,0%,0%);fill-opacity:1;" d="M 40.121094 83.234375 C 40.121094 81.492188 38.660156 80.082031 36.855469 80.082031 C 35.050781 80.082031 33.589844 81.492188 33.589844 83.234375 C 33.589844 84.976562 35.050781 86.386719 36.855469 86.386719 C 38.660156 86.386719 40.121094 84.976562 40.121094 83.234375 Z M 40.121094 83.234375 "/>
<path style=" stroke:none;fill-rule:evenodd;fill:rgb(0%,76.862746%,0%);fill-opacity:1;" d="M 28.710938 89.25 L 31.382812 90.6875 L 35.964844 92.257812 L 29.167969 91.675781 Z M 28.710938 89.25 "/>
<path style="fill:none;stroke-width:1.497143;stroke-linecap:butt;stroke-linejoin:miter;stroke:rgb(0%,76.862746%,0%);stroke-opacity:1;stroke-miterlimit:4;" d="M 21.546097 282.349326 L 40.864456 266.942858 " transform="matrix(0.285714,0,0,0.286,22.613504,8.630905)"/>
<path style="fill:none;stroke-width:1.497143;stroke-linecap:butt;stroke-linejoin:miter;stroke:rgb(0%,76.862746%,0%);stroke-opacity:1;stroke-miterlimit:4;" d="M -60.498825 285.149261 L 0.751175 295.106101 " transform="matrix(0.285714,0,0,0.286,22.613504,8.630905)"/>
<path style="fill:none;stroke-width:1.497143;stroke-linecap:butt;stroke-linejoin:miter;stroke:rgb(0%,76.862746%,0%);stroke-opacity:1;stroke-miterlimit:4;" d="M -37.4207 289.533549 L -51.174606 307.944825 " transform="matrix(0.285714,0,0,0.286,22.613504,8.630905)"/>
<path style="fill:none;stroke-width:1.497143;stroke-linecap:butt;stroke-linejoin:miter;stroke:rgb(0%,76.862746%,0%);stroke-opacity:1;stroke-miterlimit:4;" d="M -22.887497 358.015847 L -9.188278 372.998911 " transform="matrix(0.285714,0,0,0.286,22.613504,8.630905)"/>
<path style="fill:none;stroke-width:1.497143;stroke-linecap:butt;stroke-linejoin:miter;stroke:rgb(0%,76.862746%,0%);stroke-opacity:1;stroke-miterlimit:4;" d="M 75.987503 356.417836 L -34.207809 378.885603 " transform="matrix(0.285714,0,0,0.286,22.613504,8.630905)"/>
<path style="fill:none;stroke-width:1.497143;stroke-linecap:butt;stroke-linejoin:miter;stroke:rgb(0%,76.862746%,0%);stroke-opacity:1;stroke-miterlimit:4;" d="M 36.407425 364.476184 L 18.059769 401.667508 " transform="matrix(0.285714,0,0,0.286,22.613504,8.630905)"/>
<path style="fill:none;stroke-width:1.497143;stroke-linecap:butt;stroke-linejoin:miter;stroke:rgb(0%,76.862746%,0%);stroke-opacity:1;stroke-miterlimit:4;" d="M 25.716019 313.394453 L 16.733597 253.052451 " transform="matrix(0.285714,0,0,0.286,22.613504,8.630905)"/>
<path style="fill:none;stroke-width:1.497143;stroke-linecap:butt;stroke-linejoin:miter;stroke:rgb(0%,76.862746%,0%);stroke-opacity:1;stroke-miterlimit:4;" d="M 82.317581 179.871726 L 19.057816 169.914886 " transform="matrix(0.285714,0,0,0.286,22.613504,8.630905)"/>
<path style="fill:none;stroke-width:1.497143;stroke-linecap:butt;stroke-linejoin:miter;stroke:rgb(0%,76.862746%,0%);stroke-opacity:1;stroke-miterlimit:4;" d="M 44.364456 174.736236 L 30.378128 192.382653 " transform="matrix(0.285714,0,0,0.286,22.613504,8.630905)"/>
<path style="fill:none;stroke-width:1.497143;stroke-linecap:butt;stroke-linejoin:miter;stroke:rgb(0%,76.862746%,0%);stroke-opacity:1;stroke-miterlimit:4;" d="M 143.895706 115.35031 L 184.186722 125.293492 " transform="matrix(0.285714,0,0,0.286,22.613504,8.630905)"/>
<path style="fill:none;stroke-width:1.497143;stroke-linecap:butt;stroke-linejoin:miter;stroke:rgb(0%,76.862746%,0%);stroke-opacity:1;stroke-miterlimit:4;" d="M 163.870316 254.97826 L 173.864456 194.950397 " transform="matrix(0.285714,0,0,0.286,22.613504,8.630905)"/>
<path style="fill:none;stroke-width:1.497143;stroke-linecap:butt;stroke-linejoin:miter;stroke:rgb(0%,76.862746%,0%);stroke-opacity:1;stroke-miterlimit:4;" d="M 193.510941 232.182696 L 255.089066 223.837526 " transform="matrix(0.285714,0,0,0.286,22.613504,8.630905)"/>
<path style="fill:none;stroke-width:1.497143;stroke-linecap:butt;stroke-linejoin:miter;stroke:rgb(0%,76.862746%,0%);stroke-opacity:1;stroke-miterlimit:4;" d="M 230.794144 227.375004 L 243.440628 246.63309 " transform="matrix(0.285714,0,0,0.286,22.613504,8.630905)"/>
<path style=" stroke:none;fill-rule:evenodd;fill:rgb(0%,76.862746%,0%);fill-opacity:1;" d="M 69.964844 81.414062 L 67.015625 80.625 L 62.609375 78.640625 L 67.875 82.832031 Z M 69.964844 81.414062 "/>
<path style=" stroke:none;fill-rule:evenodd;fill:rgb(0%,76.862746%,0%);fill-opacity:1;" d="M 77.847656 74.507812 L 78.304688 77.425781 L 79.820312 81.886719 L 76.136719 76.339844 Z M 77.847656 74.507812 "/>
<path style=" stroke:none;fill-rule:evenodd;fill:rgb(0%,76.862746%,0%);fill-opacity:1;" d="M 88.582031 73.65625 L 87.167969 76.273438 L 85.671875 80.742188 L 86.082031 74.164062 Z M 88.582031 73.65625 "/>
<path style=" stroke:none;fill-rule:evenodd;fill:rgb(0%,76.862746%,0%);fill-opacity:1;" d="M 64.046875 41.425781 L 64.152344 44.375 L 65.121094 48.972656 L 62.128906 43.050781 Z M 64.046875 41.425781 "/>
<path style=" stroke:none;fill-rule:evenodd;fill:rgb(0%,76.862746%,0%);fill-opacity:1;" d="M 46.308594 59.679688 L 44.972656 62.335938 L 42.148438 66.15625 L 47.378906 61.917969 Z M 46.308594 59.679688 "/>
<path style=" stroke:none;fill-rule:evenodd;fill:rgb(0%,76.862746%,0%);fill-opacity:1;" d="M 35.179688 58.488281 L 37.136719 60.757812 L 39.582031 64.816406 L 37.734375 58.472656 Z M 35.179688 58.488281 "/>
<path style=" stroke:none;fill-rule:evenodd;fill:rgb(0%,76.862746%,0%);fill-opacity:1;" d="M 29.554688 98.355469 L 32.539062 97.71875 L 37.046875 95.960938 L 31.558594 99.878906 Z M 29.554688 98.355469 "/>
<path style=" stroke:none;fill-rule:evenodd;fill:rgb(0%,76.862746%,0%);fill-opacity:1;" d="M 22.453125 92.761719 L 22.355469 95.710938 L 21.394531 100.3125 L 24.375 94.382812 Z M 22.453125 92.761719 "/>
<path style=" stroke:none;fill-rule:evenodd;fill:rgb(0%,76.862746%,0%);fill-opacity:1;" d="M 11.675781 91.355469 L 13.230469 93.898438 L 14.976562 98.277344 L 14.199219 91.730469 Z M 11.675781 91.355469 "/>
<path style=" stroke:none;fill-rule:evenodd;fill:rgb(0%,76.862746%,0%);fill-opacity:1;" d="M 19.71875 115.40625 L 21.222656 112.835938 L 22.878906 108.421875 L 22.234375 114.984375 Z M 19.71875 115.40625 "/>
<path style=" stroke:none;fill-rule:evenodd;fill:rgb(0%,76.862746%,0%);fill-opacity:1;" d="M 43.996094 110.328125 L 43.875 113.277344 L 42.871094 117.871094 L 45.902344 111.964844 Z M 43.996094 110.328125 "/>
<path style=" stroke:none;fill-rule:evenodd;fill:rgb(0%,76.862746%,0%);fill-opacity:1;" d="M 32.46875 112.847656 L 34.570312 114.992188 L 37.28125 118.886719 L 35.015625 112.671875 Z M 32.46875 112.847656 "/>
<path style=" stroke:none;fill-rule:nonzero;fill:rgb(100%,0%,0%);fill-opacity:1;" d="M 24.328125 56.765625 C 24.328125 55.023438 25.789062 53.613281 27.59375 53.613281 C 29.398438 53.613281 30.863281 55.023438 30.863281 56.765625 C 30.863281 58.507812 29.398438 59.921875 27.59375 59.921875 C 25.789062 59.921875 24.328125 58.507812 24.328125 56.765625 Z M 24.328125 56.765625 "/>
<path style=" stroke:none;fill-rule:nonzero;fill:rgb(100%,0%,0%);fill-opacity:1;" d="M 23.289062 79.597656 C 23.289062 77.855469 24.75 76.441406 26.554688 76.441406 C 28.359375 76.441406 29.824219 77.855469 29.824219 79.597656 C 29.824219 81.335938 28.359375 82.75 26.554688 82.75 C 24.75 82.75 23.289062 81.335938 23.289062 79.597656 Z M 23.289062 79.597656 "/>
<path style=" stroke:none;fill-rule:nonzero;fill:rgb(100%,0%,0%);fill-opacity:1;" d="M 1.195312 89.882812 C 1.195312 88.140625 2.65625 86.726562 4.460938 86.726562 C 6.265625 86.726562 7.730469 88.140625 7.730469 89.882812 C 7.730469 91.625 6.265625 93.035156 4.460938 93.035156 C 2.65625 93.035156 1.195312 91.625 1.195312 89.882812 Z M 1.195312 89.882812 "/>
<path style=" stroke:none;fill-rule:nonzero;fill:rgb(100%,0%,0%);fill-opacity:1;" d="M 3.792969 97.660156 C 3.792969 95.917969 5.257812 94.503906 7.0625 94.503906 C 8.867188 94.503906 10.328125 95.917969 10.328125 97.660156 C 10.328125 99.398438 8.867188 100.8125 7.0625 100.8125 C 5.257812 100.8125 3.792969 99.398438 3.792969 97.660156 Z M 3.792969 97.660156 "/>
<path style=" stroke:none;fill-rule:nonzero;fill:rgb(100%,0%,0%);fill-opacity:1;" d="M 11.589844 109.953125 C 11.589844 108.210938 13.054688 106.796875 14.859375 106.796875 C 16.664062 106.796875 18.125 108.210938 18.125 109.953125 C 18.125 111.691406 16.664062 113.105469 14.859375 113.105469 C 13.054688 113.105469 11.589844 111.691406 11.589844 109.953125 Z M 11.589844 109.953125 "/>
<path style=" stroke:none;fill-rule:nonzero;fill:rgb(100%,0%,0%);fill-opacity:1;" d="M 8.472656 117.980469 C 8.472656 116.238281 9.933594 114.824219 11.738281 114.824219 C 13.542969 114.824219 15.007812 116.238281 15.007812 117.980469 C 15.007812 119.722656 13.542969 121.132812 11.738281 121.132812 C 9.933594 121.132812 8.472656 119.722656 8.472656 117.980469 Z M 8.472656 117.980469 "/>
<path style=" stroke:none;fill-rule:nonzero;fill:rgb(100%,0%,0%);fill-opacity:1;" d="M 23.808594 124.5 C 23.808594 122.761719 25.269531 121.347656 27.074219 121.347656 C 28.878906 121.347656 30.34375 122.761719 30.34375 124.5 C 30.34375 126.242188 28.878906 127.65625 27.074219 127.65625 C 25.269531 127.65625 23.808594 126.242188 23.808594 124.5 Z M 23.808594 124.5 "/>
<path style=" stroke:none;fill-rule:nonzero;fill:rgb(100%,0%,0%);fill-opacity:1;" d="M 93.464844 72.824219 C 93.464844 71.082031 94.929688 69.667969 96.734375 69.667969 C 98.539062 69.667969 100 71.082031 100 72.824219 C 100 74.5625 98.539062 75.976562 96.734375 75.976562 C 94.929688 75.976562 93.464844 74.5625 93.464844 72.824219 Z M 93.464844 72.824219 "/>
<path style=" stroke:none;fill-rule:nonzero;fill:rgb(100%,0%,0%);fill-opacity:1;" d="M 89.828125 80.097656 C 89.828125 78.355469 91.289062 76.945312 93.09375 76.945312 C 94.898438 76.945312 96.359375 78.355469 96.359375 80.097656 C 96.359375 81.839844 94.898438 83.25 93.09375 83.25 C 91.289062 83.25 89.828125 81.839844 89.828125 80.097656 Z M 89.828125 80.097656 "/>
<path style=" stroke:none;fill-rule:nonzero;fill:rgb(100%,0%,0%);fill-opacity:1;" d="M 69.035156 63.289062 C 69.035156 61.546875 70.496094 60.136719 72.300781 60.136719 C 74.105469 60.136719 75.566406 61.546875 75.566406 63.289062 C 75.566406 65.03125 74.105469 66.441406 72.300781 66.441406 C 70.496094 66.441406 69.035156 65.03125 69.035156 63.289062 Z M 69.035156 63.289062 "/>
<path style=" stroke:none;fill-rule:nonzero;fill:rgb(100%,0%,0%);fill-opacity:1;" d="M 72.933594 44.976562 C 72.933594 43.234375 74.394531 41.824219 76.199219 41.824219 C 78.003906 41.824219 79.464844 43.234375 79.464844 44.976562 C 79.464844 46.71875 78.003906 48.128906 76.199219 48.128906 C 74.394531 48.128906 72.933594 46.71875 72.933594 44.976562 Z M 72.933594 44.976562 "/>
<path style=" stroke:none;fill-rule:nonzero;fill:rgb(100%,0%,0%);fill-opacity:1;" d="M 27.410156 64.160156 C 27.410156 62.417969 28.871094 61.007812 30.675781 61.007812 C 32.480469 61.007812 33.941406 62.417969 33.941406 64.160156 C 33.941406 65.902344 32.480469 67.3125 30.675781 67.3125 C 28.871094 67.3125 27.410156 65.902344 27.410156 64.160156 Z M 27.410156 64.160156 "/>
<path style="fill:none;stroke-width:1.497143;stroke-linecap:butt;stroke-linejoin:miter;stroke:rgb(0%,76.862746%,0%);stroke-opacity:1;stroke-miterlimit:4;" d="M 192.28125 62.431709 L 213.185547 44.075066 " transform="matrix(0.285714,0,0,0.286,0,0)"/>
<path style="fill:none;stroke-width:1.497143;stroke-linecap:butt;stroke-linejoin:miter;stroke:rgb(0%,76.862746%,0%);stroke-opacity:1;stroke-miterlimit:4;" d="M 190.845703 499.248798 L 191.775391 17.113746 " transform="matrix(0.285714,0,0,0.286,0,0)"/>
<path style=" stroke:none;fill-rule:nonzero;fill:rgb(100%,0%,0%);fill-opacity:1;" d="M 66.339844 11.078125 C 66.339844 9.335938 64.878906 7.925781 63.074219 7.925781 C 61.269531 7.925781 59.804688 9.335938 59.804688 11.078125 C 59.804688 12.820312 61.269531 14.234375 63.074219 14.234375 C 64.878906 14.234375 66.339844 12.820312 66.339844 11.078125 Z M 66.339844 11.078125 "/>
<path style=" stroke:none;fill-rule:nonzero;fill:rgb(100%,0%,0%);fill-opacity:1;" d="M 57.863281 3.152344 C 57.863281 1.410156 56.402344 0 54.597656 0 C 52.792969 0 51.328125 1.410156 51.328125 3.152344 C 51.328125 4.894531 52.792969 6.308594 54.597656 6.308594 C 56.402344 6.308594 57.863281 4.894531 57.863281 3.152344 Z M 57.863281 3.152344 "/>
<path style=" stroke:none;fill-rule:nonzero;fill:rgb(100%,0%,0%);fill-opacity:1;" d="M 51.492188 15.546875 C 51.492188 13.804688 50.027344 12.394531 48.222656 12.394531 C 46.421875 12.394531 44.957031 13.804688 44.957031 15.546875 C 44.957031 17.289062 46.421875 18.699219 48.222656 18.699219 C 50.027344 18.699219 51.492188 17.289062 51.492188 15.546875 Z M 51.492188 15.546875 "/>
</g>
</svg>
