<?xml version="1.0" encoding="UTF-8"?>
<svg xmlns="http://www.w3.org/2000/svg" xmlns:xlink="http://www.w3.org/1999/xlink" width="100px" height="202px" viewBox="0 0 100 202" version="1.1">
<g id="surface1">
<path style=" stroke:none;fill-rule:nonzero;fill:rgb(0%,76.862746%,0%);fill-opacity:1;" d="M 53.863281 146.03125 C 53.234375 146.464844 52.652344 146.902344 52.023438 147.339844 C 51.972656 147.339844 51.972656 147.339844 51.925781 147.339844 L 51.925781 147.292969 C 51.394531 137.585938 51.925781 127.785156 51.683594 118.03125 C 52.796875 118.855469 53.8125 119.828125 55.121094 120.3125 C 58.800781 119.4375 62.382812 117.984375 65.964844 116.671875 C 64.511719 116.722656 63.109375 116.816406 61.65625 116.914062 L 61.609375 116.914062 C 58.75 117.15625 55.894531 117.058594 53.039062 116.574219 C 57.6875 112.789062 62.625 109.34375 67.417969 105.707031 C 67.417969 105.707031 67.464844 105.707031 67.464844 105.65625 C 68.09375 105.21875 68.722656 104.734375 69.351562 104.25 C 69.402344 104.25 69.402344 104.25 69.449219 104.203125 C 70.078125 103.765625 70.660156 103.277344 71.289062 102.792969 C 71.335938 102.792969 71.386719 102.792969 71.386719 102.746094 C 75.597656 99.589844 80.050781 96.632812 84.019531 93.089844 L 83.683594 92.945312 L 83.632812 92.894531 C 83.390625 92.796875 82.90625 92.554688 82.664062 92.457031 L 82.617188 92.507812 C 81.941406 92.992188 81.261719 93.527344 80.585938 94.011719 C 80.535156 94.058594 80.535156 94.058594 80.488281 94.109375 C 79.859375 94.546875 79.226562 95.03125 78.648438 95.46875 C 78.597656 95.515625 78.550781 95.515625 78.550781 95.5625 C 73.566406 99.203125 68.628906 102.988281 63.640625 106.675781 C 63.640625 106.675781 63.59375 106.675781 63.59375 106.726562 C 62.964844 107.160156 62.335938 107.648438 61.703125 108.132812 C 61.65625 108.132812 61.65625 108.132812 61.609375 108.179688 C 60.980469 108.617188 60.347656 109.101562 59.769531 109.539062 C 59.71875 109.585938 59.671875 109.585938 59.671875 109.636719 C 57.058594 111.527344 54.492188 113.519531 51.78125 115.363281 C 51.636719 105.898438 51.78125 96.4375 51.683594 86.976562 C 52.796875 87.800781 53.8125 88.820312 55.121094 89.257812 C 56.863281 88.964844 58.507812 88.1875 60.203125 87.703125 C 60.253906 87.703125 60.300781 87.703125 60.347656 87.65625 C 60.640625 87.605469 61.222656 87.414062 61.511719 87.316406 C 61.558594 87.316406 61.609375 87.316406 61.609375 87.316406 C 63.109375 86.925781 64.609375 86.394531 65.964844 85.617188 C 61.558594 85.761719 57.058594 86.394531 52.699219 85.472656 C 52.894531 85.324219 53.476562 84.839844 53.476562 84.792969 C 56.765625 82.121094 60.253906 79.746094 63.542969 77.125 L 63.59375 77.078125 C 64.222656 76.589844 64.851562 76.105469 65.480469 75.621094 C 65.527344 75.621094 65.527344 75.574219 65.578125 75.574219 C 68.917969 73 72.304688 70.476562 75.648438 67.90625 C 75.695312 67.90625 76.761719 67.082031 77.050781 66.789062 C 76.808594 66.59375 76.324219 66.207031 76.082031 66.011719 L 76.035156 66.011719 C 73.566406 67.128906 71.628906 69.214844 69.449219 70.71875 C 69.449219 70.769531 69.402344 70.769531 69.402344 70.769531 C 68.773438 71.253906 68.144531 71.738281 67.515625 72.222656 C 67.464844 72.222656 67.464844 72.273438 67.417969 72.273438 C 63.449219 75.328125 59.378906 78.289062 55.410156 81.445312 C 55.410156 81.445312 55.363281 81.445312 55.363281 81.492188 C 54.152344 82.414062 52.992188 83.289062 51.730469 84.160156 C 51.683594 74.554688 51.78125 64.992188 51.683594 55.433594 C 52.265625 55.871094 52.796875 56.261719 53.378906 56.695312 C 53.378906 56.695312 53.425781 56.695312 53.425781 56.746094 C 54.152344 57.183594 54.878906 57.859375 55.800781 57.667969 C 55.847656 57.667969 55.894531 57.667969 55.894531 57.667969 C 59.332031 56.792969 62.671875 55.484375 65.917969 54.125 C 61.511719 54.414062 57.007812 54.707031 52.605469 53.929688 C 54.25 52.523438 69.902344 40.5 69.902344 40.5 C 69.902344 40.5 69.207031 39.566406 69.0625 39.324219 C 66.640625 41.265625 54.394531 50.582031 51.730469 52.621094 C 51.730469 43.496094 51.730469 34.425781 51.730469 25.351562 C 52.894531 26.125 54.007812 26.949219 55.167969 27.777344 C 58.75 26.613281 62.335938 25.398438 65.820312 23.992188 C 61.414062 24.28125 56.910156 24.476562 52.507812 23.84375 C 53.570312 22.921875 61.996094 16.90625 61.996094 16.90625 L 60.980469 15.597656 L 51.722656 22.078125 L 51.730469 5.503906 L 50.28125 5.503906 C 50.183594 15.742188 50.230469 36.171875 50.230469 36.171875 L 39.582031 28.746094 C 39.582031 28.746094 39.144531 29.523438 38.953125 29.8125 C 42.339844 32.289062 45.679688 34.714844 48.972656 37.285156 C 44.90625 39.277344 40.308594 37.480469 36 37.625 C 39.484375 39.179688 43.117188 40.390625 46.746094 41.3125 C 47.957031 40.585938 49.117188 39.808594 50.28125 39.035156 C 50.230469 48.109375 50.328125 57.183594 50.28125 66.253906 C 48.054688 64.75 43.746094 61.550781 43.695312 61.550781 C 41.324219 59.753906 38.953125 57.957031 36.53125 56.261719 C 36.484375 56.210938 31.980469 53.152344 31.980469 53.152344 C 31.789062 53.398438 31.402344 53.882812 31.207031 54.171875 C 31.644531 54.511719 32.609375 55.242188 32.660156 55.289062 C 35.03125 57.035156 44.664062 64.167969 47.085938 65.867188 C 47.132812 65.867188 47.183594 65.917969 47.183594 65.917969 C 47.90625 66.402344 48.632812 66.933594 49.359375 67.421875 C 48.78125 67.566406 48.246094 67.761719 47.714844 67.90625 C 47.667969 67.90625 47.617188 67.90625 47.617188 67.90625 C 44.90625 68.535156 42.148438 68.148438 39.4375 67.855469 C 39.386719 67.855469 39.386719 67.855469 39.339844 67.855469 C 38.515625 67.808594 36.871094 67.761719 36.046875 67.710938 C 39.484375 69.265625 43.164062 70.429688 46.792969 71.449219 C 48.054688 70.769531 49.117188 69.847656 50.28125 69.023438 C 50.28125 78.628906 50.28125 88.1875 50.28125 97.796875 C 47.859375 96.242188 29.996094 82.464844 25.203125 79.015625 C 24.914062 79.210938 24.429688 79.503906 24.1875 79.695312 L 24.382812 80.085938 C 24.574219 80.328125 25.058594 80.765625 25.253906 80.957031 C 25.300781 80.957031 25.347656 81.007812 25.347656 81.007812 C 25.980469 81.492188 26.609375 81.929688 27.285156 82.414062 L 27.335938 82.464844 C 33.871094 87.507812 40.550781 92.410156 47.085938 97.40625 C 47.132812 97.40625 47.132812 97.457031 47.183594 97.457031 C 47.8125 97.941406 48.488281 98.425781 49.117188 98.914062 L 49.3125 99.058594 L 49.117188 99.15625 C 45.148438 101.046875 40.695312 99.347656 36.582031 99.640625 L 36.289062 99.589844 C 39.582031 101.4375 43.359375 101.96875 46.792969 103.472656 C 47.90625 102.648438 48.925781 101.824219 49.988281 101 C 50.039062 100.949219 50.039062 100.949219 50.085938 100.949219 L 50.085938 101 C 50.472656 110.460938 50.28125 119.972656 50.230469 129.433594 C 47.957031 127.976562 18.570312 105.949219 18.570312 105.949219 L 17.894531 106.628906 C 21.574219 110.023438 46.988281 128.949219 47.617188 129.433594 C 47.617188 129.480469 47.667969 129.480469 47.667969 129.53125 C 48.148438 129.917969 48.585938 130.308594 49.023438 130.746094 C 46.988281 131.277344 44.90625 131.714844 42.824219 131.472656 C 42.824219 131.421875 42.777344 131.421875 42.726562 131.421875 C 40.5 131.179688 38.273438 130.746094 36 130.746094 C 38.902344 132.636719 42.4375 133.171875 45.585938 134.433594 C 47.472656 135.0625 48.828125 132.929688 50.328125 132.296875 C 50.230469 141.953125 50.328125 151.660156 50.28125 161.316406 C 47.183594 158.9375 44.035156 156.558594 40.890625 154.277344 C 40.890625 154.230469 40.839844 154.230469 40.792969 154.179688 C 40.164062 153.746094 39.582031 153.257812 38.953125 152.824219 C 38.902344 152.773438 38.855469 152.773438 38.855469 152.773438 C 38.226562 152.289062 37.644531 151.804688 37.015625 151.367188 C 36.96875 151.316406 36.96875 151.316406 36.917969 151.316406 C 36.289062 150.832031 35.660156 150.347656 35.03125 149.910156 C 35.03125 149.863281 34.984375 149.863281 34.984375 149.863281 C 28.691406 145.203125 22.492188 140.402344 16.199219 135.839844 C 16.199219 135.789062 16.152344 135.789062 16.101562 135.789062 C 15.472656 135.304688 14.894531 134.820312 14.265625 134.382812 C 14.214844 134.335938 14.167969 134.335938 14.167969 134.335938 C 13.539062 133.847656 12.957031 133.363281 12.328125 132.878906 C 12.277344 132.878906 12.277344 132.878906 12.230469 132.832031 C 11.40625 132.199219 10.535156 131.617188 9.664062 130.988281 C 9.421875 131.179688 8.890625 131.472656 8.601562 131.617188 L 8.695312 132.007812 C 14.117188 136.277344 19.78125 140.351562 25.300781 144.476562 C 25.300781 144.523438 25.347656 144.523438 25.398438 144.523438 C 25.980469 145.011719 26.609375 145.496094 27.238281 145.933594 C 27.285156 145.980469 27.285156 145.980469 27.335938 145.980469 C 27.964844 146.464844 28.542969 146.949219 29.171875 147.386719 C 29.222656 147.4375 29.222656 147.4375 29.269531 147.4375 C 29.898438 147.921875 30.53125 148.40625 31.160156 148.84375 C 31.160156 148.890625 31.207031 148.890625 31.207031 148.890625 C 37.304688 153.453125 43.453125 157.964844 49.457031 162.671875 C 45.050781 163.789062 40.550781 162.671875 36.046875 162.820312 L 36.242188 162.914062 C 39.386719 164.371094 42.726562 165.441406 46.070312 166.3125 C 46.117188 166.359375 46.164062 166.359375 46.164062 166.359375 C 47.761719 166.3125 48.828125 164.90625 49.988281 164.082031 C 50.039062 164.03125 50.039062 164.03125 50.085938 164.03125 L 50.085938 164.082031 C 51.078125 180.984375 50.71875 193.816406 50.839844 201.761719 C 50.890625 201.761719 52.3125 201.769531 52.554688 201.867188 C 52.894531 184.738281 51.566406 167.699219 51.566406 150.570312 C 52.875 151.203125 53.621094 152.242188 55.121094 152.53125 C 57.542969 152.046875 59.816406 150.980469 62.140625 150.347656 C 62.1875 150.300781 62.238281 150.300781 62.285156 150.300781 C 62.574219 150.203125 63.15625 150.007812 63.449219 149.960938 C 63.496094 149.910156 63.542969 149.910156 63.59375 149.910156 C 64.414062 149.621094 65.238281 149.183594 66.011719 148.746094 C 63.738281 148.84375 61.511719 149.183594 59.285156 149.425781 C 59.234375 149.425781 59.1875 149.425781 59.1875 149.425781 C 58.265625 149.476562 57.300781 149.476562 56.378906 149.425781 C 56.378906 149.425781 56.332031 149.425781 56.28125 149.425781 C 55.460938 149.328125 53.765625 149.085938 52.941406 148.988281 C 53.523438 148.261719 54.203125 147.582031 54.976562 147 C 67.175781 138.070312 79.132812 128.65625 91.425781 119.828125 L 91.425781 119.484375 C 90.796875 119.484375 90.460938 119.195312 90.507812 118.5625 L 90.167969 118.613281 Z M 53.863281 146.03125 "/>
<path style=" stroke:none;fill-rule:nonzero;fill:rgb(100%,0%,0%);fill-opacity:1;" d="M 9.847656 129.242188 C 9.847656 131.628906 7.914062 133.566406 5.53125 133.566406 C 3.148438 133.566406 1.214844 131.628906 1.214844 129.242188 C 1.214844 126.851562 3.148438 124.914062 5.53125 124.914062 C 7.914062 124.914062 9.847656 126.851562 9.847656 129.242188 Z M 9.847656 129.242188 "/>
<path style=" stroke:none;fill-rule:nonzero;fill:rgb(100%,0%,0%);fill-opacity:1;" d="M 40.628906 26.5625 C 40.628906 28.953125 38.699219 30.890625 36.316406 30.890625 C 33.929688 30.890625 32 28.953125 32 26.5625 C 32 24.175781 33.929688 22.238281 36.316406 22.238281 C 38.699219 22.238281 40.628906 24.175781 40.628906 26.5625 Z M 40.628906 26.5625 "/>
<path style=" stroke:none;fill-rule:nonzero;fill:rgb(100%,0%,0%);fill-opacity:1;" d="M 32.863281 51.945312 C 32.863281 54.335938 30.929688 56.269531 28.546875 56.269531 C 26.164062 56.269531 24.230469 54.335938 24.230469 51.945312 C 24.230469 49.554688 26.164062 47.621094 28.546875 47.621094 C 30.929688 47.621094 32.863281 49.554688 32.863281 51.945312 Z M 32.863281 51.945312 "/>
<path style=" stroke:none;fill-rule:nonzero;fill:rgb(100%,0%,0%);fill-opacity:1;" d="M 25.667969 77.902344 C 25.667969 80.292969 23.738281 82.230469 21.355469 82.230469 C 18.96875 82.230469 17.039062 80.292969 17.039062 77.902344 C 17.039062 75.515625 18.96875 73.578125 21.355469 73.578125 C 23.738281 73.578125 25.667969 75.515625 25.667969 77.902344 Z M 25.667969 77.902344 "/>
<path style=" stroke:none;fill-rule:nonzero;fill:rgb(100%,0%,0%);fill-opacity:1;" d="M 20.203125 103.570312 C 20.203125 105.960938 18.269531 107.898438 15.886719 107.898438 C 13.503906 107.898438 11.570312 105.960938 11.570312 103.570312 C 11.570312 101.183594 13.503906 99.246094 15.886719 99.246094 C 18.269531 99.246094 20.203125 101.183594 20.203125 103.570312 Z M 20.203125 103.570312 "/>
<path style=" stroke:none;fill-rule:nonzero;fill:rgb(100%,0%,0%);fill-opacity:1;" d="M 89.921875 117.222656 C 89.921875 119.609375 91.855469 121.546875 94.238281 121.546875 C 96.621094 121.546875 98.554688 119.609375 98.554688 117.222656 C 98.554688 114.832031 96.621094 112.894531 94.238281 112.894531 C 91.855469 112.894531 89.921875 114.832031 89.921875 117.222656 Z M 89.921875 117.222656 "/>
<path style=" stroke:none;fill-rule:nonzero;fill:rgb(100%,0%,0%);fill-opacity:1;" d="M 68.632812 13.679688 C 68.632812 16.066406 66.699219 18.003906 64.316406 18.003906 C 61.933594 18.003906 60 16.066406 60 13.679688 C 60 11.289062 61.933594 9.351562 64.316406 9.351562 C 66.699219 9.351562 68.632812 11.289062 68.632812 13.679688 Z M 68.632812 13.679688 "/>
<path style=" stroke:none;fill-rule:nonzero;fill:rgb(100%,0%,0%);fill-opacity:1;" d="M 68.058594 37.328125 C 68.058594 39.71875 69.988281 41.65625 72.371094 41.65625 C 74.757812 41.65625 76.6875 39.71875 76.6875 37.328125 C 76.6875 34.941406 74.757812 33.003906 72.371094 33.003906 C 69.988281 33.003906 68.058594 34.941406 68.058594 37.328125 Z M 68.058594 37.328125 "/>
<path style=" stroke:none;fill-rule:nonzero;fill:rgb(100%,0%,0%);fill-opacity:1;" d="M 83.59375 65.015625 C 83.59375 67.40625 81.660156 69.34375 79.277344 69.34375 C 76.894531 69.34375 74.960938 67.40625 74.960938 65.015625 C 74.960938 62.628906 76.894531 60.691406 79.277344 60.691406 C 81.660156 60.691406 83.59375 62.628906 83.59375 65.015625 Z M 83.59375 65.015625 "/>
<path style=" stroke:none;fill-rule:nonzero;fill:rgb(100%,0%,0%);fill-opacity:1;" d="M 80.714844 91.550781 C 80.714844 93.941406 82.648438 95.875 85.03125 95.875 C 87.417969 95.875 89.347656 93.941406 89.347656 91.550781 C 89.347656 89.160156 87.417969 87.226562 85.03125 87.226562 C 82.648438 87.226562 80.714844 89.160156 80.714844 91.550781 Z M 80.714844 91.550781 "/>
</g>
</svg>
