<?xml version="1.0" encoding="UTF-8"?>
<svg xmlns="http://www.w3.org/2000/svg" xmlns:xlink="http://www.w3.org/1999/xlink" width="100px" height="326px" viewBox="0 0 100 326" version="1.1">
<g id="surface1">
<path style=" stroke:none;fill-rule:nonzero;fill:rgb(99.607843%,0.392157%,0%);fill-opacity:1;" d="M 57.605469 10.019531 C 57.605469 14.082031 54.320312 17.371094 50.269531 17.371094 C 46.214844 17.371094 42.929688 14.082031 42.929688 10.019531 C 42.929688 5.960938 46.214844 2.671875 50.269531 2.671875 C 54.320312 2.671875 57.605469 5.960938 57.605469 10.019531 Z M 57.605469 10.019531 "/>
<path style=" stroke:none;fill-rule:nonzero;fill:rgb(99.607843%,0.392157%,0%);fill-opacity:1;" d="M 42.394531 20.980469 C 42.394531 25.039062 39.109375 28.328125 35.058594 28.328125 C 31.003906 28.328125 27.71875 25.039062 27.71875 20.980469 C 27.71875 16.921875 31.003906 13.628906 35.058594 13.628906 C 39.109375 13.628906 42.394531 16.921875 42.394531 20.980469 Z M 42.394531 20.980469 "/>
<path style=" stroke:none;fill-rule:nonzero;fill:rgb(99.607843%,0.392157%,0%);fill-opacity:1;" d="M 88.828125 104.097656 C 88.828125 108.15625 85.542969 111.449219 81.488281 111.449219 C 77.4375 111.449219 74.152344 108.15625 74.152344 104.097656 C 74.152344 100.039062 77.4375 96.75 81.488281 96.75 C 85.542969 96.75 88.828125 100.039062 88.828125 104.097656 Z M 88.828125 104.097656 "/>
<path style=" stroke:none;fill-rule:nonzero;fill:rgb(99.607843%,0.392157%,0%);fill-opacity:1;" d="M 87.226562 85.925781 C 87.226562 89.984375 83.941406 93.273438 79.890625 93.273438 C 75.835938 93.273438 72.550781 89.984375 72.550781 85.925781 C 72.550781 81.863281 75.835938 78.574219 79.890625 78.574219 C 83.941406 78.574219 87.226562 81.863281 87.226562 85.925781 Z M 87.226562 85.925781 "/>
<path style=" stroke:none;fill-rule:nonzero;fill:rgb(99.607843%,0.392157%,0%);fill-opacity:1;" d="M 85.359375 69.621094 C 85.359375 73.679688 82.074219 76.972656 78.019531 76.972656 C 73.96875 76.972656 70.683594 73.679688 70.683594 69.621094 C 70.683594 65.5625 73.96875 62.269531 78.019531 62.269531 C 82.074219 62.269531 85.359375 65.5625 85.359375 69.621094 Z M 85.359375 69.621094 "/>
<path style=" stroke:none;fill-rule:nonzero;fill:rgb(99.607843%,0.392157%,0%);fill-opacity:1;" d="M 83.226562 53.050781 C 83.226562 57.109375 79.9375 60.402344 75.886719 60.402344 C 71.832031 60.402344 68.546875 57.109375 68.546875 53.050781 C 68.546875 48.992188 71.832031 45.699219 75.886719 45.699219 C 79.9375 45.699219 83.226562 48.992188 83.226562 53.050781 Z M 83.226562 53.050781 "/>
<path style=" stroke:none;fill-rule:nonzero;fill:rgb(99.607843%,0.392157%,0%);fill-opacity:1;" d="M 79.753906 37.28125 C 79.753906 41.339844 76.46875 44.632812 72.417969 44.632812 C 68.363281 44.632812 65.078125 41.339844 65.078125 37.28125 C 65.078125 33.222656 68.363281 29.933594 72.417969 29.933594 C 76.46875 29.933594 79.753906 33.222656 79.753906 37.28125 Z M 79.753906 37.28125 "/>
<path style=" stroke:none;fill-rule:nonzero;fill:rgb(99.607843%,0.392157%,0%);fill-opacity:1;" d="M 73.085938 22.316406 C 73.085938 26.375 69.796875 29.664062 65.746094 29.664062 C 61.691406 29.664062 58.40625 26.375 58.40625 22.316406 C 58.40625 18.257812 61.691406 14.964844 65.746094 14.964844 C 69.796875 14.964844 73.085938 18.257812 73.085938 22.316406 Z M 73.085938 22.316406 "/>
<path style=" stroke:none;fill-rule:nonzero;fill:rgb(99.607843%,0.392157%,0%);fill-opacity:1;" d="M 26.917969 121.203125 C 26.917969 125.261719 23.632812 128.550781 19.582031 128.550781 C 15.527344 128.550781 12.242188 125.261719 12.242188 121.203125 C 12.242188 117.144531 15.527344 113.851562 19.582031 113.851562 C 23.632812 113.851562 26.917969 117.144531 26.917969 121.203125 Z M 26.917969 121.203125 "/>
<path style=" stroke:none;fill-rule:nonzero;fill:rgb(99.607843%,0.392157%,0%);fill-opacity:1;" d="M 30.386719 68.285156 C 30.386719 72.34375 27.101562 75.632812 23.050781 75.632812 C 18.996094 75.632812 15.710938 72.34375 15.710938 68.285156 C 15.710938 64.226562 18.996094 60.933594 23.050781 60.933594 C 27.101562 60.933594 30.386719 64.226562 30.386719 68.285156 Z M 30.386719 68.285156 "/>
<path style=" stroke:none;fill-rule:nonzero;fill:rgb(99.607843%,0.392157%,0%);fill-opacity:1;" d="M 28.519531 84.585938 C 28.519531 88.648438 25.234375 91.9375 21.179688 91.9375 C 17.128906 91.9375 13.84375 88.648438 13.84375 84.585938 C 13.84375 80.527344 17.128906 77.238281 21.179688 77.238281 C 25.234375 77.238281 28.519531 80.527344 28.519531 84.585938 Z M 28.519531 84.585938 "/>
<path style=" stroke:none;fill-rule:nonzero;fill:rgb(99.607843%,0.392157%,0%);fill-opacity:1;" d="M 27.1875 102.496094 C 27.1875 106.554688 23.898438 109.84375 19.847656 109.84375 C 15.792969 109.84375 12.507812 106.554688 12.507812 102.496094 C 12.507812 98.433594 15.792969 95.144531 19.847656 95.144531 C 23.898438 95.144531 27.1875 98.433594 27.1875 102.496094 Z M 27.1875 102.496094 "/>
<path style=" stroke:none;fill-rule:nonzero;fill:rgb(99.607843%,0.392157%,0%);fill-opacity:1;" d="M 32.789062 52.25 C 32.789062 56.308594 29.503906 59.597656 25.449219 59.597656 C 21.398438 59.597656 18.113281 56.308594 18.113281 52.25 C 18.113281 48.191406 21.398438 44.898438 25.449219 44.898438 C 29.503906 44.898438 32.789062 48.191406 32.789062 52.25 Z M 32.789062 52.25 "/>
<path style=" stroke:none;fill-rule:nonzero;fill:rgb(99.607843%,0.392157%,0%);fill-opacity:1;" d="M 36.527344 35.945312 C 36.527344 40.003906 33.238281 43.296875 29.1875 43.296875 C 25.132812 43.296875 21.847656 40.003906 21.847656 35.945312 C 21.847656 31.886719 25.132812 28.597656 29.1875 28.597656 C 33.238281 28.597656 36.527344 31.886719 36.527344 35.945312 Z M 36.527344 35.945312 "/>
<path style=" stroke:none;fill-rule:nonzero;fill:rgb(99.607843%,0.392157%,0%);fill-opacity:1;" d="M 90.695312 195.769531 C 90.695312 199.828125 87.410156 203.117188 83.359375 203.117188 C 79.304688 203.117188 76.019531 199.828125 76.019531 195.769531 C 76.019531 191.710938 79.304688 188.417969 83.359375 188.417969 C 87.410156 188.417969 90.695312 191.710938 90.695312 195.769531 Z M 90.695312 195.769531 "/>
<path style=" stroke:none;fill-rule:nonzero;fill:rgb(99.607843%,0.392157%,0%);fill-opacity:1;" d="M 27.71875 194.433594 C 27.71875 198.492188 24.433594 201.78125 20.382812 201.78125 C 16.328125 201.78125 13.042969 198.492188 13.042969 194.433594 C 13.042969 190.375 16.328125 187.082031 20.382812 187.082031 C 24.433594 187.082031 27.71875 190.375 27.71875 194.433594 Z M 27.71875 194.433594 "/>
<path style=" stroke:none;fill-rule:nonzero;fill:rgb(99.607843%,0.392157%,0%);fill-opacity:1;" d="M 90.429688 177.0625 C 90.429688 181.121094 87.144531 184.410156 83.089844 184.410156 C 79.039062 184.410156 75.753906 181.121094 75.753906 177.0625 C 75.753906 173 79.039062 169.710938 83.089844 169.710938 C 87.144531 169.710938 90.429688 173 90.429688 177.0625 Z M 90.429688 177.0625 "/>
<path style=" stroke:none;fill-rule:nonzero;fill:rgb(99.607843%,0.392157%,0%);fill-opacity:1;" d="M 27.453125 175.722656 C 27.453125 179.785156 24.167969 183.074219 20.113281 183.074219 C 16.0625 183.074219 12.777344 179.785156 12.777344 175.722656 C 12.777344 171.664062 16.0625 168.375 20.113281 168.375 C 24.167969 168.375 27.453125 171.664062 27.453125 175.722656 Z M 27.453125 175.722656 "/>
<path style=" stroke:none;fill-rule:nonzero;fill:rgb(99.607843%,0.392157%,0%);fill-opacity:1;" d="M 89.894531 158.886719 C 89.894531 162.945312 86.609375 166.238281 82.558594 166.238281 C 78.503906 166.238281 75.21875 162.945312 75.21875 158.886719 C 75.21875 154.828125 78.503906 151.535156 82.558594 151.535156 C 86.609375 151.535156 89.894531 154.828125 89.894531 158.886719 Z M 89.894531 158.886719 "/>
<path style=" stroke:none;fill-rule:nonzero;fill:rgb(99.607843%,0.392157%,0%);fill-opacity:1;" d="M 27.1875 158.085938 C 27.1875 162.144531 23.898438 165.433594 19.847656 165.433594 C 15.792969 165.433594 12.507812 162.144531 12.507812 158.085938 C 12.507812 154.027344 15.792969 150.734375 19.847656 150.734375 C 23.898438 150.734375 27.1875 154.027344 27.1875 158.085938 Z M 27.1875 158.085938 "/>
<path style=" stroke:none;fill-rule:nonzero;fill:rgb(99.607843%,0.392157%,0%);fill-opacity:1;" d="M 89.894531 140.710938 C 89.894531 144.773438 86.609375 148.0625 82.558594 148.0625 C 78.503906 148.0625 75.21875 144.773438 75.21875 140.710938 C 75.21875 136.652344 78.503906 133.363281 82.558594 133.363281 C 86.609375 133.363281 89.894531 136.652344 89.894531 140.710938 Z M 89.894531 140.710938 "/>
<path style=" stroke:none;fill-rule:nonzero;fill:rgb(99.607843%,0.392157%,0%);fill-opacity:1;" d="M 26.917969 139.109375 C 26.917969 143.167969 23.632812 146.457031 19.582031 146.457031 C 15.527344 146.457031 12.242188 143.167969 12.242188 139.109375 C 12.242188 135.050781 15.527344 131.757812 19.582031 131.757812 C 23.632812 131.757812 26.917969 135.050781 26.917969 139.109375 Z M 26.917969 139.109375 "/>
<path style=" stroke:none;fill-rule:nonzero;fill:rgb(99.607843%,0.392157%,0%);fill-opacity:1;" d="M 89.628906 122.273438 C 89.628906 126.332031 86.34375 129.621094 82.289062 129.621094 C 78.238281 129.621094 74.953125 126.332031 74.953125 122.273438 C 74.953125 118.210938 78.238281 114.921875 82.289062 114.921875 C 86.34375 114.921875 89.628906 118.210938 89.628906 122.273438 Z M 89.628906 122.273438 "/>
<path style=" stroke:none;fill-rule:nonzero;fill:rgb(99.607843%,0.392157%,0%);fill-opacity:1;" d="M 30.882812 267.699219 C 30.882812 271.761719 27.597656 275.050781 23.546875 275.050781 C 19.492188 275.050781 16.207031 271.761719 16.207031 267.699219 C 16.207031 263.640625 19.492188 260.351562 23.546875 260.351562 C 27.597656 260.351562 30.882812 263.640625 30.882812 267.699219 Z M 30.882812 267.699219 "/>
<path style=" stroke:none;fill-rule:nonzero;fill:rgb(99.607843%,0.392157%,0%);fill-opacity:1;" d="M 27.984375 250.023438 C 27.984375 254.082031 24.699219 257.375 20.648438 257.375 C 16.59375 257.375 13.308594 254.082031 13.308594 250.023438 C 13.308594 245.964844 16.59375 242.671875 20.648438 242.671875 C 24.699219 242.671875 27.984375 245.964844 27.984375 250.023438 Z M 27.984375 250.023438 "/>
<path style=" stroke:none;fill-rule:nonzero;fill:rgb(99.607843%,0.392157%,0%);fill-opacity:1;" d="M 27.1875 231.847656 C 27.1875 235.910156 23.898438 239.199219 19.847656 239.199219 C 15.792969 239.199219 12.507812 235.910156 12.507812 231.847656 C 12.507812 227.789062 15.792969 224.5 19.847656 224.5 C 23.898438 224.5 27.1875 227.789062 27.1875 231.847656 Z M 27.1875 231.847656 "/>
<path style=" stroke:none;fill-rule:nonzero;fill:rgb(99.607843%,0.392157%,0%);fill-opacity:1;" d="M 90.429688 232.917969 C 90.429688 236.976562 87.144531 240.269531 83.089844 240.269531 C 79.039062 240.269531 75.753906 236.976562 75.753906 232.917969 C 75.753906 228.859375 79.039062 225.570312 83.089844 225.570312 C 87.144531 225.570312 90.429688 228.859375 90.429688 232.917969 Z M 90.429688 232.917969 "/>
<path style=" stroke:none;fill-rule:nonzero;fill:rgb(99.607843%,0.392157%,0%);fill-opacity:1;" d="M 90.695312 214.476562 C 90.695312 218.535156 87.410156 221.828125 83.359375 221.828125 C 79.304688 221.828125 76.019531 218.535156 76.019531 214.476562 C 76.019531 210.417969 79.304688 207.128906 83.359375 207.128906 C 87.410156 207.128906 90.695312 210.417969 90.695312 214.476562 Z M 90.695312 214.476562 "/>
<path style=" stroke:none;fill-rule:nonzero;fill:rgb(99.607843%,0.392157%,0%);fill-opacity:1;" d="M 27.71875 213.410156 C 27.71875 217.46875 24.433594 220.757812 20.382812 220.757812 C 16.328125 220.757812 13.042969 217.46875 13.042969 213.410156 C 13.042969 209.347656 16.328125 206.058594 20.382812 206.058594 C 24.433594 206.058594 27.71875 209.347656 27.71875 213.410156 Z M 27.71875 213.410156 "/>
<path style=" stroke:none;fill-rule:nonzero;fill:rgb(99.607843%,0.392157%,0%);fill-opacity:1;" d="M 89.894531 251.628906 C 89.894531 255.6875 86.609375 258.976562 82.558594 258.976562 C 78.503906 258.976562 75.21875 255.6875 75.21875 251.628906 C 75.21875 247.566406 78.503906 244.277344 82.558594 244.277344 C 86.609375 244.277344 89.894531 247.566406 89.894531 251.628906 Z M 89.894531 251.628906 "/>
<path style=" stroke:none;fill-rule:nonzero;fill:rgb(99.607843%,0.392157%,0%);fill-opacity:1;" d="M 86.695312 269.535156 C 86.695312 273.59375 83.410156 276.882812 79.355469 276.882812 C 75.300781 276.882812 72.015625 273.59375 72.015625 269.535156 C 72.015625 265.472656 75.300781 262.183594 79.355469 262.183594 C 83.410156 262.183594 86.695312 265.472656 86.695312 269.535156 Z M 86.695312 269.535156 "/>
<path style=" stroke:none;fill-rule:nonzero;fill:rgb(0%,76.47059%,0%);fill-opacity:1;" d="M 33.214844 4.214844 L 33.484375 4.164062 C 34.390625 4.699219 35.191406 5.390625 35.992188 6.035156 C 35.992188 6.085938 36.046875 6.085938 36.046875 6.085938 C 37.058594 6.996094 38.125 7.851562 39.140625 8.757812 C 39.195312 8.757812 39.195312 8.757812 39.195312 8.8125 C 40.261719 9.613281 41.277344 10.417969 42.289062 11.273438 C 42.34375 11.324219 42.394531 11.378906 42.394531 11.433594 C 43.515625 12.769531 44.53125 14.265625 45.867188 15.441406 C 49.816406 16.511719 54.40625 16.351562 57.179688 12.875 C 59.15625 11.273438 61.234375 9.882812 63.15625 8.277344 C 63.210938 8.277344 63.210938 8.226562 63.265625 8.226562 C 64.277344 7.316406 65.292969 6.355469 66.414062 5.605469 C 66.414062 5.550781 66.414062 5.550781 66.464844 5.550781 C 67.214844 5.019531 68.066406 4.535156 68.867188 4.003906 C 68.066406 5.070312 67.265625 6.140625 66.464844 7.15625 L 66.414062 7.210938 C 65.078125 8.804688 63.710938 10.398438 62.335938 11.992188 C 62.003906 12.375 57.738281 17.414062 56.964844 18.863281 C 56.964844 18.914062 56.964844 18.914062 57.019531 18.914062 C 57.445312 19.769531 57.925781 20.574219 58.40625 21.375 C 60.007812 23.78125 60.433594 27.789062 63.691406 28.589844 C 66.359375 29.765625 68.972656 28.375 71.535156 27.789062 C 75.007812 28.269531 78.476562 28.644531 81.996094 29.019531 C 80.929688 29.230469 79.863281 29.445312 78.796875 29.605469 C 78.742188 29.605469 78.6875 29.605469 78.6875 29.605469 C 73.457031 30.085938 68.175781 30.300781 62.945312 30.460938 C 63.476562 32.492188 64.171875 34.417969 64.8125 36.394531 C 65.664062 38.53125 65.828125 41.152344 67.855469 42.542969 C 69.933594 44.625 73.03125 44.039062 75.644531 44.414062 C 78.6875 45.640625 82.105469 46.496094 84.613281 48.6875 L 84.507812 48.6875 C 83.171875 48.527344 81.890625 48.316406 80.609375 47.941406 C 78.6875 47.40625 76.714844 46.925781 74.792969 46.445312 C 72.285156 45.800781 69.773438 45.320312 67.214844 44.785156 C 67.585938 46.976562 68.066406 49.167969 68.496094 51.359375 C 69.027344 53.875 69.1875 57.027344 71.589844 58.628906 C 73.566406 60.449219 76.285156 60.074219 78.742188 60.5 C 79.4375 60.875 80.128906 61.25 80.824219 61.625 L 80.875 61.679688 C 83.171875 62.960938 85.464844 64.191406 87.652344 65.738281 C 86.054688 65.417969 84.507812 65.046875 83.011719 64.402344 C 83.011719 64.402344 82.957031 64.351562 82.90625 64.351562 C 80.875 63.441406 78.6875 62.851562 76.5 62.265625 C 75.433594 61.945312 74.3125 61.515625 73.246094 61.089844 C 73.191406 61.089844 73.136719 61.089844 73.136719 61.089844 C 72.816406 60.984375 72.230469 60.769531 71.910156 60.714844 C 71.910156 60.714844 71.855469 60.664062 71.804688 60.664062 C 71.535156 60.609375 70.898438 60.449219 70.628906 60.339844 C 70.523438 62.160156 70.789062 63.921875 71.054688 65.6875 C 71.484375 68.519531 71.214844 71.566406 72.65625 74.132812 C 74.6875 76.699219 78.207031 76.054688 81.089844 76.214844 C 84.238281 77.394531 87.28125 78.890625 90.375 80.226562 L 90.429688 80.492188 C 86.855469 79.851562 83.277344 79.210938 79.703125 78.355469 C 79.648438 78.355469 79.542969 78.355469 79.4375 78.300781 C 79.007812 78.195312 78.15625 77.875 77.726562 77.714844 C 77.675781 77.714844 77.621094 77.714844 77.621094 77.714844 C 76.125 77.285156 74.632812 77.070312 73.136719 76.859375 C 73.136719 78.300781 73.246094 79.851562 73.296875 81.292969 C 73.511719 84.449219 73.191406 87.871094 74.792969 90.757812 C 76.765625 92.304688 79.4375 92.253906 81.835938 92.734375 C 81.890625 92.734375 81.996094 92.734375 82.050781 92.785156 C 84.933594 94.445312 87.921875 95.996094 90.695312 97.917969 L 90.695312 98.453125 C 89.363281 97.917969 88.027344 97.4375 86.746094 96.957031 C 86.695312 96.957031 86.695312 96.957031 86.640625 96.957031 C 85.253906 96.421875 83.863281 95.886719 82.476562 95.351562 C 82.425781 95.351562 82.425781 95.351562 82.371094 95.351562 C 79.753906 94.390625 77.246094 93.320312 74.578125 92.464844 C 74.738281 94.765625 74.953125 97.0625 75.113281 99.363281 C 75.324219 102.300781 75.058594 105.296875 75.914062 108.179688 C 77.085938 110.695312 80.394531 110.375 82.585938 111.335938 C 83.4375 111.871094 84.238281 112.402344 85.09375 112.9375 C 85.09375 112.992188 85.144531 112.992188 85.144531 112.992188 C 87.015625 114.382812 88.933594 115.71875 90.695312 117.214844 L 90.695312 117.695312 C 86.640625 115.71875 82.53125 113.742188 78.476562 111.761719 C 78.421875 111.761719 78.367188 111.710938 78.367188 111.710938 L 77.726562 111.441406 C 77.726562 111.441406 77.621094 111.386719 77.566406 111.386719 L 76.980469 111.121094 C 76.925781 111.121094 76.875 111.066406 76.820312 111.066406 C 76.5 113.046875 76.285156 115.078125 76.234375 117.054688 C 76.660156 120.476562 75.273438 124.378906 76.980469 127.53125 C 78.742188 128.546875 80.714844 128.972656 82.53125 129.667969 C 83.066406 129.9375 83.546875 130.257812 84.023438 130.578125 C 84.078125 130.578125 84.078125 130.632812 84.078125 130.632812 C 86.320312 132.179688 88.5625 133.679688 90.695312 135.335938 L 90.695312 135.816406 C 87.066406 134.105469 83.386719 132.449219 79.808594 130.578125 L 79.753906 130.578125 C 78.796875 130.097656 77.835938 129.667969 76.875 129.242188 C 76.605469 131.21875 76.394531 133.195312 76.285156 135.226562 C 76.179688 138.222656 76.074219 141.214844 76.339844 144.15625 C 76.820312 147.042969 80.449219 146.773438 82.53125 147.84375 C 83.066406 148.109375 83.546875 148.429688 84.023438 148.75 C 84.078125 148.75 84.078125 148.804688 84.078125 148.804688 C 86.320312 150.355469 88.5625 151.851562 90.695312 153.507812 L 90.695312 153.988281 C 87.066406 152.28125 83.386719 150.621094 79.808594 148.75 L 79.753906 148.75 C 78.796875 148.269531 77.835938 147.789062 76.875 147.363281 C 76.820312 148.859375 76.765625 151.851562 76.714844 153.296875 C 77.035156 156.875 76.019531 160.726562 77.246094 164.199219 C 78.953125 164.894531 80.769531 165.375 82.53125 166.015625 C 83.066406 166.285156 83.546875 166.605469 84.023438 166.925781 C 84.078125 166.925781 84.078125 166.925781 84.132812 166.925781 C 86.320312 168.371094 88.507812 169.707031 90.695312 171.148438 L 90.695312 172.109375 C 87.226562 170.132812 83.492188 168.582031 79.808594 166.925781 C 79.808594 166.925781 79.753906 166.925781 79.753906 166.871094 C 78.796875 166.445312 77.835938 165.964844 76.820312 165.535156 C 76.820312 167.03125 76.820312 170.078125 76.765625 171.578125 C 77.246094 174.996094 75.804688 178.953125 77.515625 182.054688 C 79.222656 183.070312 81.25 183.496094 83.117188 184.191406 C 83.597656 184.457031 84.078125 184.777344 84.558594 185.152344 C 84.558594 185.152344 84.558594 185.152344 84.613281 185.207031 C 86.640625 186.757812 88.667969 188.359375 90.695312 189.964844 L 90.695312 190.820312 C 87.226562 189 83.652344 187.289062 80.34375 185.152344 C 80.289062 185.152344 80.289062 185.152344 80.234375 185.152344 C 79.328125 184.617188 78.367188 184.136719 77.40625 183.65625 C 77.355469 185.847656 77.300781 187.984375 77.246094 190.175781 C 77.40625 193.8125 76.820312 197.554688 77.675781 201.136719 C 79.488281 201.722656 81.304688 202.257812 83.117188 202.898438 C 83.597656 203.167969 84.078125 203.488281 84.558594 203.859375 C 84.558594 203.859375 84.558594 203.859375 84.613281 203.914062 C 86.640625 205.464844 88.667969 207.066406 90.695312 208.671875 L 90.695312 209.527344 C 87.226562 207.710938 83.652344 206 80.34375 203.859375 C 80.289062 203.859375 80.289062 203.859375 80.234375 203.859375 C 79.328125 203.328125 78.367188 202.847656 77.40625 202.363281 C 77.355469 204.554688 77.300781 206.695312 77.246094 208.886719 C 77.40625 212.519531 76.820312 216.261719 77.675781 219.84375 C 79.488281 220.429688 81.304688 220.964844 83.117188 221.609375 C 83.597656 221.875 84.078125 222.195312 84.558594 222.570312 C 84.558594 222.570312 84.558594 222.570312 84.613281 222.625 C 86.640625 224.171875 88.667969 225.777344 90.695312 227.378906 L 90.695312 228.234375 C 87.226562 226.417969 83.652344 224.707031 80.34375 222.570312 C 80.289062 222.570312 80.289062 222.570312 80.234375 222.570312 C 79.328125 222.035156 78.367188 221.554688 77.40625 221.074219 C 77.355469 223.265625 77.300781 225.402344 77.246094 227.59375 C 77.40625 231.230469 76.820312 234.972656 77.675781 238.550781 C 79.488281 239.140625 81.304688 239.675781 83.117188 240.316406 C 83.597656 240.582031 84.078125 240.902344 84.558594 241.222656 C 84.558594 241.277344 84.613281 241.277344 84.613281 241.277344 C 86.695312 242.988281 88.777344 244.699219 90.695312 246.570312 L 90.695312 247.15625 C 88.507812 245.875 86.214844 244.753906 84.078125 243.46875 C 84.023438 243.46875 84.023438 243.414062 83.972656 243.414062 C 82.796875 242.667969 81.570312 241.917969 80.34375 241.277344 L 80.289062 241.222656 C 79.328125 240.742188 78.367188 240.261719 77.40625 239.78125 C 77.40625 241.332031 77.355469 244.324219 77.355469 245.820312 C 76.980469 249.1875 76.394531 252.558594 76.234375 255.921875 C 78.101562 257.101562 80.023438 258.113281 82.050781 258.972656 C 84.878906 261.269531 87.28125 264.050781 89.683594 266.828125 C 88.882812 266.347656 88.082031 265.8125 87.28125 265.332031 C 87.226562 265.332031 87.226562 265.332031 87.226562 265.277344 C 84.132812 263.300781 81.25 261 78.207031 258.917969 L 78.15625 258.863281 C 77.40625 258.382812 76.605469 257.957031 75.859375 257.527344 C 75.324219 259.664062 74.84375 261.855469 74.152344 263.996094 C 73.246094 266.398438 72.285156 268.804688 72.070312 271.371094 C 72.605469 272.867188 73.671875 274.152344 74.472656 275.488281 C 76.925781 279.28125 79.277344 283.132812 81.464844 287.085938 L 81.195312 287.085938 C 79.96875 286.230469 79.007812 285.109375 77.996094 284.039062 C 77.996094 283.988281 77.941406 283.988281 77.941406 283.933594 C 77.78125 283.71875 77.40625 283.34375 77.246094 283.132812 L 77.195312 283.078125 C 75.113281 280.671875 72.976562 278.375 70.574219 276.289062 C 70.042969 277.570312 69.5625 278.910156 69.082031 280.246094 C 69.082031 280.296875 69.082031 280.296875 69.027344 280.351562 C 68.066406 283.023438 67 285.644531 65.933594 288.261719 C 65.878906 288.316406 65.878906 288.371094 65.878906 288.371094 C 65.183594 289.867188 64.492188 291.363281 63.691406 292.859375 C 63.691406 292.859375 63.636719 292.914062 63.636719 292.96875 L 63.371094 293.394531 L 63.316406 293.5 C 63.050781 293.929688 62.464844 294.785156 62.195312 295.210938 L 62.144531 295.265625 C 60.382812 297.296875 57.394531 297.9375 56.324219 300.609375 L 56.273438 300.664062 C 55.257812 302.480469 53.765625 303.925781 52.589844 305.636719 C 51.683594 312.371094 52.644531 319.210938 52.855469 326 L 51.203125 326 C 51.042969 319.425781 51.734375 312.746094 50.667969 306.277344 C 49.496094 304.246094 48 302.535156 46.71875 300.609375 L 46.664062 300.558594 C 43.144531 296.601562 39.835938 292.433594 38.125 287.300781 C 38.125 287.300781 38.125 287.246094 38.125 287.195312 C 36.792969 284.039062 35.566406 280.78125 34.390625 277.519531 C 34.390625 277.464844 34.335938 277.414062 34.335938 277.414062 C 34.230469 277.089844 34.015625 276.554688 33.910156 276.234375 C 33.910156 276.234375 33.910156 276.183594 33.910156 276.128906 C 33.589844 275.273438 33.269531 274.417969 32.949219 273.511719 C 32.308594 274.207031 31.722656 274.847656 31.082031 275.542969 C 31.082031 275.542969 31.027344 275.59375 31.027344 275.648438 C 30.867188 275.808594 30.496094 276.234375 30.28125 276.398438 C 30.28125 276.449219 30.226562 276.449219 30.226562 276.503906 C 27.878906 279.015625 25.425781 281.527344 23.128906 284.09375 C 23.078125 284.148438 23.078125 284.148438 23.023438 284.199219 C 22.808594 284.359375 22.4375 284.734375 22.222656 284.949219 L 22.167969 285.003906 C 21.847656 285.269531 21.15625 285.804688 20.835938 286.070312 C 21.527344 284.628906 22.277344 283.238281 23.183594 281.902344 C 23.183594 281.847656 23.183594 281.796875 23.238281 281.796875 C 23.449219 281.421875 23.929688 280.726562 24.195312 280.40625 C 24.195312 280.351562 24.25 280.296875 24.25 280.296875 C 24.945312 279.230469 25.636719 278.160156 26.332031 277.089844 C 26.332031 277.089844 26.332031 277.039062 26.386719 277.039062 C 27.027344 275.914062 27.664062 274.792969 28.304688 273.617188 C 29.800781 270.945312 31.5625 267.898438 30.226562 264.796875 C 30.226562 264.742188 30.226562 264.742188 30.226562 264.691406 L 30.066406 264.210938 C 29.746094 262.980469 29.375 261.804688 29.105469 260.574219 C 29.054688 260.519531 29.054688 260.46875 29.054688 260.46875 C 28.734375 258.8125 28.359375 257.207031 27.933594 255.601562 C 26.707031 255.710938 25.746094 256.566406 24.785156 257.261719 L 24.730469 257.3125 C 21.796875 259.507812 18.753906 261.589844 15.765625 263.726562 L 15.710938 263.78125 C 14.695312 264.421875 13.628906 265.0625 12.5625 265.652344 C 12.722656 265.332031 13.042969 264.796875 13.257812 264.53125 C 15.015625 263.035156 16.558594 261.628906 18.21875 259.71875 C 18.746094 259.113281 19.839844 258.148438 20.320312 257.558594 C 23.148438 256.808594 25.585938 255.710938 26.867188 252.929688 C 27.398438 250.792969 26.917969 248.601562 26.707031 246.410156 C 26.652344 243.523438 26.597656 240.582031 26.597656 237.644531 C 25.636719 238.125 24.675781 238.605469 23.714844 239.085938 L 23.664062 239.140625 C 22.4375 239.78125 21.207031 240.53125 20.035156 241.277344 C 19.980469 241.277344 19.980469 241.332031 19.925781 241.332031 C 17.152344 243.09375 14.214844 244.59375 11.121094 245.820312 C 12.617188 244.484375 14.109375 243.148438 15.65625 241.8125 L 15.710938 241.757812 C 16.832031 240.851562 17.953125 239.886719 19.234375 239.140625 C 21.796875 238.179688 25.15625 237.695312 26.386719 234.863281 C 26.867188 232.457031 26.867188 230.054688 26.757812 227.648438 C 26.707031 224.761719 26.652344 221.875 26.597656 218.933594 C 25.636719 219.417969 24.675781 219.898438 23.714844 220.378906 L 23.664062 220.429688 C 22.4375 221.074219 21.261719 221.820312 20.035156 222.570312 L 19.980469 222.625 C 18.644531 223.371094 17.367188 224.121094 16.085938 224.867188 C 16.03125 224.867188 15.976562 224.921875 15.976562 224.921875 L 15.550781 225.136719 C 15.496094 225.136719 15.445312 225.1875 15.445312 225.1875 C 14.324219 225.832031 13.148438 226.3125 11.976562 226.792969 C 11.976562 226.84375 11.921875 226.84375 11.921875 226.84375 L 11.496094 227.007812 C 11.386719 224.976562 14.535156 224.496094 15.65625 223.105469 C 15.65625 223.105469 15.65625 223.050781 15.710938 223.050781 C 16.886719 222.195312 18.007812 221.234375 19.179688 220.378906 C 21.796875 219.46875 25.15625 218.988281 26.386719 216.15625 C 26.867188 213.75 26.867188 211.34375 26.757812 208.9375 C 26.707031 206.054688 26.652344 203.167969 26.597656 200.226562 C 25.636719 200.707031 24.675781 201.1875 23.714844 201.667969 L 23.664062 201.722656 C 22.4375 202.363281 21.261719 203.113281 20.035156 203.859375 L 19.980469 203.914062 C 18.644531 204.664062 17.367188 205.410156 16.085938 206.160156 C 16.03125 206.160156 15.976562 206.214844 15.976562 206.214844 L 15.550781 206.425781 C 15.496094 206.425781 15.445312 206.480469 15.445312 206.480469 C 14.324219 207.121094 13.148438 207.601562 11.976562 208.082031 C 11.976562 208.136719 11.921875 208.136719 11.921875 208.136719 L 11.496094 208.296875 C 11.386719 206.265625 14.535156 205.785156 15.65625 204.394531 C 15.65625 204.394531 15.65625 204.34375 15.710938 204.34375 C 16.886719 203.488281 18.007812 202.523438 19.179688 201.667969 C 21.582031 200.707031 25.210938 200.546875 26.011719 197.554688 C 26.171875 194.933594 26.171875 192.316406 26.171875 189.695312 C 26.171875 187.023438 26.171875 184.351562 26.171875 181.679688 C 25.316406 182.105469 24.515625 182.535156 23.714844 182.960938 L 23.664062 183.015625 C 22.4375 183.710938 21.261719 184.457031 20.035156 185.152344 L 19.980469 185.207031 C 18.644531 185.953125 17.367188 186.703125 16.085938 187.453125 C 16.03125 187.453125 15.976562 187.503906 15.976562 187.503906 L 15.550781 187.71875 C 15.496094 187.71875 15.496094 187.773438 15.445312 187.773438 C 14.324219 188.414062 13.148438 188.894531 11.976562 189.375 C 11.976562 189.429688 11.921875 189.429688 11.921875 189.429688 L 11.496094 189.589844 C 11.386719 187.558594 14.535156 187.078125 15.65625 185.6875 C 15.65625 185.6875 15.65625 185.632812 15.710938 185.632812 C 16.886719 184.777344 18.007812 183.816406 19.179688 182.960938 C 21.582031 182 25.210938 181.839844 26.011719 178.847656 C 26.171875 176.226562 26.171875 173.605469 26.171875 170.988281 C 26.171875 168.421875 26.117188 165.910156 26.066406 163.398438 C 25.105469 163.824219 24.144531 164.308594 23.183594 164.789062 L 23.128906 164.839844 C 21.902344 165.535156 20.726562 166.285156 19.5 166.980469 C 19.445312 166.980469 19.445312 166.980469 19.445312 166.980469 C 18.324219 167.621094 17.207031 168.15625 16.03125 168.742188 C 16.03125 168.742188 15.976562 168.742188 15.976562 168.796875 L 15.550781 169.011719 C 15.496094 169.011719 15.445312 169.011719 15.445312 169.0625 C 14.324219 169.652344 13.203125 170.1875 12.082031 170.773438 C 12.082031 170.828125 12.027344 170.828125 12.027344 170.828125 C 11.707031 171.042969 11.015625 171.414062 10.640625 171.628906 L 10.640625 171.09375 C 12.027344 169.757812 13.574219 168.636719 15.125 167.511719 C 15.125 167.460938 15.175781 167.460938 15.175781 167.460938 C 16.351562 166.550781 17.472656 165.640625 18.644531 164.789062 C 21.261719 163.878906 24.625 163.398438 25.851562 160.566406 C 26.332031 158.160156 26.277344 155.753906 26.226562 153.347656 C 26.171875 150.675781 26.171875 147.949219 26.066406 145.222656 C 25.105469 145.652344 24.144531 146.132812 23.183594 146.613281 L 23.128906 146.667969 C 21.902344 147.363281 20.726562 148.109375 19.5 148.75 C 19.445312 148.75 19.445312 148.804688 19.394531 148.804688 C 18.113281 149.445312 16.832031 149.980469 15.550781 150.570312 C 15.496094 150.621094 15.445312 150.621094 15.445312 150.621094 L 15.015625 150.835938 C 14.964844 150.835938 14.910156 150.890625 14.910156 150.890625 C 13.683594 151.425781 12.507812 151.960938 11.28125 152.546875 C 11.28125 152.546875 11.226562 152.601562 11.175781 152.601562 L 10.640625 152.867188 L 10.640625 151.90625 C 12.136719 151.050781 13.628906 150.140625 15.125 149.285156 L 15.175781 149.234375 C 16.351562 148.429688 17.472656 147.46875 18.699219 146.613281 C 21.261719 145.703125 24.625 145.222656 25.851562 142.390625 C 26.332031 139.984375 26.277344 137.582031 26.226562 135.175781 C 26.171875 132.503906 26.171875 129.777344 26.066406 127.050781 C 25.105469 127.476562 24.144531 127.957031 23.183594 128.441406 L 23.128906 128.492188 C 21.902344 129.1875 20.726562 129.9375 19.5 130.578125 C 19.445312 130.578125 19.445312 130.632812 19.394531 130.632812 C 18.113281 131.273438 16.832031 131.808594 15.550781 132.394531 C 15.496094 132.449219 15.445312 132.449219 15.445312 132.449219 L 15.015625 132.664062 C 14.964844 132.664062 14.910156 132.714844 14.910156 132.714844 C 13.683594 133.25 12.507812 133.785156 11.28125 134.375 C 11.28125 134.375 11.226562 134.425781 11.175781 134.425781 L 10.640625 134.695312 L 10.640625 133.730469 C 12.136719 132.875 13.628906 131.96875 15.125 131.113281 L 15.175781 131.058594 C 16.351562 130.257812 17.472656 129.296875 18.699219 128.441406 C 21.261719 127.53125 24.570312 127.050781 25.90625 124.21875 C 26.117188 121.8125 26.117188 119.40625 26.171875 117 C 26.171875 114.273438 26.332031 111.601562 26.546875 108.875 C 22.808594 110.535156 19.179688 112.402344 15.550781 114.222656 C 15.496094 114.222656 15.445312 114.273438 15.445312 114.273438 L 15.015625 114.488281 C 14.964844 114.488281 14.910156 114.542969 14.910156 114.542969 C 13.683594 115.128906 12.507812 115.664062 11.28125 116.199219 C 11.28125 116.199219 11.226562 116.253906 11.175781 116.253906 L 10.640625 116.519531 L 10.640625 115.609375 C 13.308594 113.902344 15.816406 112.03125 18.324219 110.210938 C 20.78125 109.410156 23.714844 109.355469 25.476562 107.273438 C 27.238281 105.296875 26.972656 102.410156 27.238281 99.949219 C 27.398438 96.902344 27.558594 93.910156 27.71875 90.863281 C 26.546875 91.238281 25.425781 91.664062 24.304688 92.09375 C 24.25 92.09375 24.195312 92.144531 24.195312 92.144531 C 22.808594 92.679688 21.421875 93.214844 20.035156 93.75 C 19.980469 93.75 19.980469 93.75 19.925781 93.75 C 16.832031 94.925781 13.683594 95.996094 10.640625 97.277344 L 10.640625 96.421875 C 11.976562 95.726562 13.308594 95.03125 14.589844 94.335938 C 14.589844 94.285156 14.644531 94.285156 14.644531 94.285156 C 15.550781 93.75 16.40625 93.214844 17.3125 92.679688 C 17.3125 92.679688 17.3125 92.679688 17.367188 92.625 C 18.007812 92.253906 18.644531 91.933594 19.285156 91.609375 C 22.117188 91.183594 25.691406 91.023438 27.558594 88.511719 C 28.679688 86.265625 28.359375 83.648438 28.785156 81.292969 C 28.945312 79.261719 29.160156 77.339844 29.160156 75.308594 C 27.1875 75.628906 25.210938 76.109375 23.238281 76.644531 C 23.183594 76.644531 23.183594 76.644531 23.128906 76.644531 C 22.328125 76.859375 21.527344 77.070312 20.675781 77.285156 L 20.246094 77.394531 C 17.152344 78.140625 14.054688 78.835938 10.90625 79.371094 L 10.960938 79.050781 C 14.054688 77.660156 17.152344 76.164062 20.355469 74.988281 C 23.34375 75.308594 26.597656 74.988281 28.894531 72.796875 C 30.546875 70.65625 30.121094 67.769531 30.496094 65.207031 C 30.761719 63.066406 31.1875 60.984375 31.457031 58.84375 C 29.585938 59.378906 27.773438 60.019531 25.957031 60.664062 C 25.90625 60.664062 25.851562 60.664062 25.851562 60.664062 C 25.476562 60.769531 24.785156 60.984375 24.464844 61.089844 C 22.488281 61.625 20.566406 62.265625 18.699219 63.066406 C 17.097656 63.707031 15.390625 64.191406 13.683594 64.617188 C 14.484375 63.976562 15.335938 63.335938 16.191406 62.746094 L 16.246094 62.691406 C 18.433594 61.355469 20.726562 60.339844 23.023438 59.378906 C 28.144531 60.019531 32.894531 56.011719 32.84375 50.828125 C 33.214844 48.367188 34.230469 45.960938 33.804688 43.449219 L 33.324219 43.558594 C 33.324219 43.558594 33.269531 43.558594 33.214844 43.558594 C 32.734375 43.664062 31.722656 43.878906 31.242188 43.984375 C 31.1875 43.984375 31.136719 43.984375 31.136719 44.039062 C 30.601562 44.144531 29.640625 44.414062 29.105469 44.519531 L 29 44.574219 C 28.519531 44.679688 27.613281 44.945312 27.1875 45.054688 C 27.132812 45.054688 26.972656 45.105469 26.917969 45.105469 C 24.945312 45.480469 22.96875 46.070312 21.046875 46.65625 L 20.996094 46.710938 L 20.515625 46.816406 C 19.125 47.136719 17.738281 47.351562 16.351562 47.511719 C 17.898438 46.65625 19.445312 45.855469 20.996094 45.054688 L 21.046875 45.054688 C 22.703125 44.359375 24.355469 43.609375 26.066406 43.074219 C 28.464844 43.183594 31.136719 43.449219 33.054688 41.632812 C 35.832031 40.5625 35.511719 37.195312 36.527344 34.898438 C 36.527344 34.84375 36.578125 34.789062 36.578125 34.738281 C 37.21875 32.972656 37.753906 31.15625 38.234375 29.339844 C 31.988281 28.589844 25.691406 28.804688 19.445312 28.054688 C 21.847656 27.359375 24.355469 26.933594 26.917969 26.878906 L 26.972656 26.878906 C 28.09375 26.773438 29.265625 26.71875 30.386719 26.71875 C 33.269531 27.414062 36.738281 28.644531 39.355469 26.558594 C 40.957031 24.582031 41.917969 22.230469 43.035156 20.039062 C 43.035156 19.984375 43.089844 19.878906 43.144531 19.824219 C 43.464844 19.238281 43.890625 18.703125 44.210938 18.113281 C 43.835938 17.472656 43.410156 16.882812 42.984375 16.296875 C 42.984375 16.242188 42.929688 16.242188 42.929688 16.242188 C 41.917969 14.960938 40.796875 13.730469 39.726562 12.5 C 39.726562 12.449219 39.726562 12.449219 39.675781 12.449219 C 37.753906 10.148438 35.726562 7.90625 33.910156 5.5 C 33.910156 5.5 33.910156 5.445312 33.855469 5.445312 C 33.695312 5.125 33.375 4.484375 33.214844 4.214844 Z M 33.214844 4.214844 "/>
<path style=" stroke:none;fill-rule:nonzero;fill:rgb(0%,87.843138%,0%);fill-opacity:1;" d="M 43.304688 21.429688 C 45.066406 19.074219 47.199219 15.816406 50.722656 16.457031 C 52.75 16.457031 54.40625 18.058594 55.6875 19.503906 C 62.195312 28.164062 64.492188 39.015625 67 49.332031 C 71.75 72.742188 74.367188 96.582031 75.433594 120.476562 C 76.445312 127.316406 74.6875 134.265625 75.59375 141.109375 C 76.179688 146.347656 75.007812 151.585938 75.378906 156.824219 C 76.179688 163.664062 75.324219 170.613281 76.125 177.457031 C 76.820312 183.65625 75.21875 189.910156 76.125 196.164062 C 76.875 202.363281 75.21875 208.617188 76.125 214.871094 C 76.714844 219.84375 75.804688 224.761719 75.859375 229.730469 C 76.339844 237.484375 76.925781 245.394531 75.539062 253.144531 C 73.136719 265.277344 69.5625 277.25 64.546875 288.582031 C 63.050781 291.683594 61.609375 295.425781 58.140625 296.707031 C 55.792969 298.6875 54.457031 301.625 52.644531 304.085938 C 49.976562 304.726562 48.855469 301.464844 47.519531 299.808594 C 46.34375 297.082031 43.304688 296.011719 42.183594 293.339844 C 39.835938 289.066406 38.179688 284.414062 36.417969 279.871094 C 32.523438 269.179688 28.785156 258.277344 27.828125 246.835938 C 27.507812 220.859375 27.933594 194.882812 27.613281 168.902344 C 26.867188 160.511719 27.292969 152.121094 27.1875 143.726562 C 27.292969 130.523438 26.8125 117.320312 27.828125 104.171875 C 29.214844 84.019531 30.867188 63.707031 35.40625 43.929688 C 37.113281 36.179688 39.195312 28.324219 43.304688 21.429688 Z M 43.304688 21.429688 "/>
</g>
</svg>
