<?xml version="1.0" encoding="UTF-8"?>
<svg xmlns="http://www.w3.org/2000/svg" xmlns:xlink="http://www.w3.org/1999/xlink" width="100px" height="500px" viewBox="0 0 100 500" version="1.1">
<g id="surface1">
<path style="fill:none;stroke-width:1.901541;stroke-linecap:butt;stroke-linejoin:miter;stroke:rgb(0%,76.862746%,0%);stroke-opacity:1;stroke-miterlimit:4;" d="M 103.148753 316.85549 L 102.574712 12.941642 " transform="matrix(1.639964,0,0,1.634972,-118.636803,-19.60844)"/>
<path style=" stroke:none;fill-rule:evenodd;fill:rgb(0%,76.862746%,0%);fill-opacity:1;" d="M 48.019531 46.003906 L 72.226562 43.824219 L 99.230469 34.496094 L 63.417969 54.792969 Z M 48.019531 46.003906 "/>
<path style=" stroke:none;fill-rule:nonzero;fill:rgb(100%,0%,0%);fill-opacity:1;" d="M 79.363281 31.398438 C 79.371094 38.558594 72.957031 44.363281 65.042969 44.363281 C 57.132812 44.363281 50.71875 38.558594 50.722656 31.398438 C 50.71875 24.238281 57.132812 18.433594 65.042969 18.433594 C 72.957031 18.433594 79.371094 24.238281 79.363281 31.398438 Z M 79.363281 31.398438 "/>
<path style=" stroke:none;fill-rule:evenodd;fill:rgb(0%,76.862746%,0%);fill-opacity:1;" d="M 48.019531 89.199219 L 72.226562 87.019531 L 99.230469 77.6875 L 63.417969 97.988281 Z M 48.019531 89.199219 "/>
<path style=" stroke:none;fill-rule:nonzero;fill:rgb(100%,0%,0%);fill-opacity:1;" d="M 79.363281 74.59375 C 79.371094 81.75 72.957031 87.554688 65.042969 87.554688 C 57.132812 87.554688 50.71875 81.75 50.722656 74.59375 C 50.71875 67.433594 57.132812 61.628906 65.042969 61.628906 C 72.957031 61.628906 79.371094 67.433594 79.363281 74.59375 Z M 79.363281 74.59375 "/>
<path style=" stroke:none;fill-rule:evenodd;fill:rgb(0%,76.862746%,0%);fill-opacity:1;" d="M 48.019531 134.738281 L 72.226562 132.5625 L 99.230469 123.230469 L 63.417969 143.53125 Z M 48.019531 134.738281 "/>
<path style=" stroke:none;fill-rule:nonzero;fill:rgb(100%,0%,0%);fill-opacity:1;" d="M 79.363281 120.136719 C 79.371094 127.292969 72.957031 133.097656 65.042969 133.097656 C 57.132812 133.097656 50.71875 127.292969 50.722656 120.136719 C 50.71875 112.976562 57.132812 107.171875 65.042969 107.171875 C 72.957031 107.171875 79.371094 112.976562 79.363281 120.136719 Z M 79.363281 120.136719 "/>
<path style=" stroke:none;fill-rule:evenodd;fill:rgb(0%,76.862746%,0%);fill-opacity:1;" d="M 48.019531 181.921875 L 72.226562 179.742188 L 99.230469 170.410156 L 63.417969 190.710938 Z M 48.019531 181.921875 "/>
<path style=" stroke:none;fill-rule:nonzero;fill:rgb(100%,0%,0%);fill-opacity:1;" d="M 79.363281 167.316406 C 79.371094 174.472656 72.957031 180.28125 65.042969 180.28125 C 57.132812 180.28125 50.71875 174.472656 50.722656 167.316406 C 50.71875 160.15625 57.132812 154.351562 65.042969 154.351562 C 72.957031 154.351562 79.371094 160.15625 79.363281 167.316406 Z M 79.363281 167.316406 "/>
<path style=" stroke:none;fill-rule:evenodd;fill:rgb(0%,76.862746%,0%);fill-opacity:1;" d="M 48.019531 230.234375 L 72.226562 228.054688 L 99.230469 218.726562 L 63.417969 239.023438 Z M 48.019531 230.234375 "/>
<path style=" stroke:none;fill-rule:nonzero;fill:rgb(100%,0%,0%);fill-opacity:1;" d="M 79.363281 215.628906 C 79.371094 222.789062 72.957031 228.59375 65.042969 228.59375 C 57.132812 228.59375 50.71875 222.789062 50.722656 215.628906 C 50.71875 208.472656 57.132812 202.664062 65.042969 202.664062 C 72.957031 202.664062 79.371094 208.472656 79.363281 215.628906 Z M 79.363281 215.628906 "/>
<path style=" stroke:none;fill-rule:evenodd;fill:rgb(0%,76.862746%,0%);fill-opacity:1;" d="M 48.273438 274.453125 L 72.484375 272.277344 L 99.488281 262.945312 L 63.675781 283.246094 Z M 48.273438 274.453125 "/>
<path style=" stroke:none;fill-rule:nonzero;fill:rgb(100%,0%,0%);fill-opacity:1;" d="M 79.621094 259.851562 C 79.625 267.007812 73.214844 272.8125 65.300781 272.8125 C 57.386719 272.8125 50.972656 267.007812 50.980469 259.851562 C 50.972656 252.691406 57.386719 246.886719 65.300781 246.886719 C 73.214844 246.886719 79.625 252.691406 79.621094 259.851562 Z M 79.621094 259.851562 "/>
<path style=" stroke:none;fill-rule:evenodd;fill:rgb(0%,76.862746%,0%);fill-opacity:1;" d="M 48.785156 321.699219 L 72.996094 319.519531 L 100 310.191406 L 64.1875 330.488281 Z M 48.785156 321.699219 "/>
<path style=" stroke:none;fill-rule:nonzero;fill:rgb(100%,0%,0%);fill-opacity:1;" d="M 80.132812 307.09375 C 80.136719 314.25 73.726562 320.058594 65.8125 320.058594 C 57.898438 320.058594 51.484375 314.25 51.492188 307.09375 C 51.484375 299.933594 57.898438 294.128906 65.8125 294.128906 C 73.726562 294.128906 80.136719 299.933594 80.132812 307.09375 Z M 80.132812 307.09375 "/>
<path style=" stroke:none;fill-rule:evenodd;fill:rgb(0%,76.862746%,0%);fill-opacity:1;" d="M 48.785156 367.492188 L 72.996094 365.3125 L 100 355.984375 L 64.1875 376.28125 Z M 48.785156 367.492188 "/>
<path style=" stroke:none;fill-rule:nonzero;fill:rgb(100%,0%,0%);fill-opacity:1;" d="M 80.132812 352.886719 C 80.136719 360.046875 73.726562 365.851562 65.8125 365.851562 C 57.898438 365.851562 51.484375 360.046875 51.492188 352.886719 C 51.484375 345.730469 57.898438 339.921875 65.8125 339.921875 C 73.726562 339.921875 80.136719 345.730469 80.132812 352.886719 Z M 80.132812 352.886719 "/>
<path style=" stroke:none;fill-rule:evenodd;fill:rgb(0%,76.862746%,0%);fill-opacity:1;" d="M 51.214844 67.375 L 27.003906 65.195312 L 0 55.863281 L 35.8125 76.164062 Z M 51.214844 67.375 "/>
<path style=" stroke:none;fill-rule:nonzero;fill:rgb(100%,0%,0%);fill-opacity:1;" d="M 19.867188 52.769531 C 19.863281 59.925781 26.273438 65.730469 34.1875 65.730469 C 42.101562 65.730469 48.515625 59.925781 48.507812 52.769531 C 48.515625 45.609375 42.101562 39.804688 34.1875 39.804688 C 26.273438 39.804688 19.863281 45.609375 19.867188 52.769531 Z M 19.867188 52.769531 "/>
<path style=" stroke:none;fill-rule:evenodd;fill:rgb(0%,76.862746%,0%);fill-opacity:1;" d="M 51.214844 109.214844 L 27.003906 107.035156 L 0 97.707031 L 35.8125 118.003906 Z M 51.214844 109.214844 "/>
<path style=" stroke:none;fill-rule:nonzero;fill:rgb(100%,0%,0%);fill-opacity:1;" d="M 19.867188 94.609375 C 19.863281 101.769531 26.273438 107.574219 34.1875 107.574219 C 42.101562 107.574219 48.515625 101.769531 48.507812 94.609375 C 48.515625 87.453125 42.101562 81.644531 34.1875 81.644531 C 26.273438 81.644531 19.863281 87.453125 19.867188 94.609375 Z M 19.867188 94.609375 "/>
<path style=" stroke:none;fill-rule:evenodd;fill:rgb(0%,76.862746%,0%);fill-opacity:1;" d="M 51.214844 154.492188 L 27.003906 152.3125 L 0 142.984375 L 35.8125 163.28125 Z M 51.214844 154.492188 "/>
<path style=" stroke:none;fill-rule:nonzero;fill:rgb(100%,0%,0%);fill-opacity:1;" d="M 19.867188 139.886719 C 19.863281 147.046875 26.273438 152.851562 34.1875 152.851562 C 42.101562 152.851562 48.515625 147.046875 48.507812 139.886719 C 48.515625 132.730469 42.101562 126.921875 34.1875 126.921875 C 26.273438 126.921875 19.863281 132.730469 19.867188 139.886719 Z M 19.867188 139.886719 "/>
<path style=" stroke:none;fill-rule:evenodd;fill:rgb(0%,76.862746%,0%);fill-opacity:1;" d="M 51.214844 201.9375 L 27.003906 199.761719 L 0 190.429688 L 35.8125 210.730469 Z M 51.214844 201.9375 "/>
<path style=" stroke:none;fill-rule:nonzero;fill:rgb(100%,0%,0%);fill-opacity:1;" d="M 19.867188 187.332031 C 19.863281 194.492188 26.273438 200.296875 34.1875 200.296875 C 42.101562 200.296875 48.515625 194.492188 48.507812 187.332031 C 48.515625 180.175781 42.101562 174.371094 34.1875 174.371094 C 26.273438 174.371094 19.863281 180.175781 19.867188 187.332031 Z M 19.867188 187.332031 "/>
<path style=" stroke:none;fill-rule:evenodd;fill:rgb(0%,76.862746%,0%);fill-opacity:1;" d="M 51.214844 247.664062 L 27.003906 245.484375 L 0 236.15625 L 35.8125 256.453125 Z M 51.214844 247.664062 "/>
<path style=" stroke:none;fill-rule:nonzero;fill:rgb(100%,0%,0%);fill-opacity:1;" d="M 19.867188 233.058594 C 19.863281 240.214844 26.273438 246.023438 34.1875 246.023438 C 42.101562 246.023438 48.515625 240.214844 48.507812 233.058594 C 48.515625 225.898438 42.101562 220.09375 34.1875 220.09375 C 26.273438 220.09375 19.863281 225.898438 19.867188 233.058594 Z M 19.867188 233.058594 "/>
<path style=" stroke:none;fill-rule:evenodd;fill:rgb(0%,76.862746%,0%);fill-opacity:1;" d="M 51.214844 296.320312 L 27.003906 294.140625 L 0 284.8125 L 35.8125 305.109375 Z M 51.214844 296.320312 "/>
<path style=" stroke:none;fill-rule:nonzero;fill:rgb(100%,0%,0%);fill-opacity:1;" d="M 19.867188 281.714844 C 19.863281 288.875 26.273438 294.679688 34.1875 294.679688 C 42.101562 294.679688 48.515625 288.875 48.507812 281.714844 C 48.515625 274.558594 42.101562 268.753906 34.1875 268.753906 C 26.273438 268.753906 19.863281 274.558594 19.867188 281.714844 Z M 19.867188 281.714844 "/>
<path style=" stroke:none;fill-rule:evenodd;fill:rgb(0%,76.862746%,0%);fill-opacity:1;" d="M 51.214844 342.554688 L 27.003906 340.375 L 0 331.046875 L 35.8125 351.34375 Z M 51.214844 342.554688 "/>
<path style=" stroke:none;fill-rule:nonzero;fill:rgb(100%,0%,0%);fill-opacity:1;" d="M 19.867188 327.949219 C 19.863281 335.109375 26.273438 340.914062 34.1875 340.914062 C 42.101562 340.914062 48.515625 335.109375 48.507812 327.949219 C 48.515625 320.792969 42.101562 314.988281 34.1875 314.988281 C 26.273438 314.988281 19.863281 320.792969 19.867188 327.949219 Z M 19.867188 327.949219 "/>
<path style=" stroke:none;fill-rule:evenodd;fill:rgb(0%,76.862746%,0%);fill-opacity:1;" d="M 51.214844 388.789062 L 27.003906 386.609375 L 0 377.28125 L 35.8125 397.578125 Z M 51.214844 388.789062 "/>
<path style=" stroke:none;fill-rule:nonzero;fill:rgb(100%,0%,0%);fill-opacity:1;" d="M 19.867188 374.183594 C 19.863281 381.34375 26.273438 387.148438 34.1875 387.148438 C 42.101562 387.148438 48.515625 381.34375 48.507812 374.183594 C 48.515625 367.027344 42.101562 361.222656 34.1875 361.222656 C 26.273438 361.222656 19.863281 367.027344 19.867188 374.183594 Z M 19.867188 374.183594 "/>
</g>
</svg>
