<?xml version="1.0" encoding="UTF-8"?>
<svg xmlns="http://www.w3.org/2000/svg" xmlns:xlink="http://www.w3.org/1999/xlink" width="100px" height="319px" viewBox="0 0 100 319" version="1.1">
<g id="surface1">
<path style=" stroke:none;fill-rule:nonzero;fill:rgb(0%,77.254903%,0%);fill-opacity:1;" d="M 49.269531 0 C 49.695312 0 50.441406 0 50.867188 0 C 50.917969 15.65625 50.8125 31.3125 50.917969 46.972656 C 56.1875 42.605469 60.660156 37.332031 66.035156 33.070312 L 66.035156 33.605469 C 61.5625 39.144531 55.496094 43.457031 50.546875 48.675781 C 52.835938 48.886719 55.125 49.046875 57.414062 49.207031 C 55.285156 49.953125 53.15625 50.59375 50.917969 51.070312 C 50.8125 70.457031 50.867188 89.84375 50.917969 109.226562 C 57.253906 103.792969 63.054688 97.722656 69.230469 92.078125 C 67.949219 90.214844 66.78125 88.246094 65.609375 86.273438 C 67.257812 87.550781 68.910156 88.777344 70.558594 90.054688 C 70.558594 87.660156 70.558594 85.261719 70.558594 82.867188 C 68.324219 82.707031 66.140625 82.386719 63.960938 81.855469 C 66.140625 81.695312 68.324219 81.535156 70.507812 81.425781 C 70.558594 78.125 70.242188 74.824219 70.664062 71.523438 L 71.089844 71.308594 C 71.089844 74.664062 71.089844 78.074219 71.089844 81.425781 C 72.636719 81.480469 75.617188 81.695312 77.105469 81.800781 C 75.191406 82.4375 73.167969 82.917969 71.144531 83.34375 C 71.144531 85.527344 71.089844 87.765625 71.039062 90 C 75.082031 86.113281 79.074219 82.28125 83.066406 78.390625 L 83.066406 78.925781 C 79.875 83.183594 75.617188 86.539062 71.996094 90.429688 C 74.339844 90.480469 76.679688 90.535156 79.023438 90.535156 C 79.023438 88.457031 79.609375 86.433594 80.300781 84.464844 C 80.40625 85.953125 80.621094 88.988281 80.726562 90.535156 C 84.1875 90.535156 87.644531 90.535156 91.105469 90.480469 C 91.050781 90.640625 91 91.011719 91 91.171875 C 87.539062 91.121094 84.132812 91.066406 80.726562 91.066406 C 80.671875 92.558594 80.511719 95.59375 80.40625 97.085938 C 79.714844 95.222656 79.074219 93.25 79.023438 91.171875 C 76.734375 91.332031 74.445312 91.492188 72.15625 91.652344 C 73.21875 93.144531 74.230469 94.636719 75.242188 96.125 C 73.378906 95.113281 71.625 93.941406 70.027344 92.503906 C 63.695312 98.789062 56.988281 104.753906 50.546875 111.039062 C 52.835938 111.199219 55.125 111.355469 57.414062 111.515625 C 55.285156 112.261719 53.15625 112.902344 50.917969 113.382812 C 50.8125 132.765625 50.867188 152.152344 50.917969 171.535156 C 57.253906 166.101562 63.054688 160.03125 69.230469 154.386719 C 67.949219 152.523438 66.78125 150.554688 65.609375 148.582031 C 67.257812 149.859375 68.910156 151.085938 70.558594 152.363281 C 70.558594 149.96875 70.558594 147.570312 70.558594 145.175781 C 68.324219 145.015625 66.140625 144.695312 63.960938 144.164062 C 65.398438 144.003906 68.269531 143.738281 69.707031 143.578125 C 67.527344 140.914062 65.289062 138.359375 63.109375 135.75 C 63.265625 135.589844 63.695312 135.269531 63.90625 135.109375 C 65.980469 137.773438 68.109375 140.382812 70.347656 142.882812 C 70.453125 139.847656 70.347656 136.8125 70.664062 133.832031 L 71.089844 133.617188 C 71.089844 136.972656 71.089844 140.328125 71.089844 143.738281 C 72.636719 143.789062 75.617188 144.003906 77.105469 144.109375 C 75.191406 144.75 73.167969 145.226562 71.144531 145.652344 C 71.144531 147.835938 71.089844 150.074219 71.039062 152.3125 C 75.828125 147.785156 80.511719 143.152344 85.25 138.570312 L 85.195312 139.101562 C 81.3125 144.109375 76.308594 148.105469 71.996094 152.738281 C 74.339844 152.789062 76.679688 152.84375 79.023438 152.84375 C 79.023438 150.765625 79.609375 148.742188 80.300781 146.773438 C 80.40625 148.261719 80.621094 151.300781 80.726562 152.84375 C 84.1875 152.84375 87.644531 152.84375 91.105469 152.789062 C 91.050781 152.949219 91 153.324219 91 153.480469 C 87.859375 153.429688 84.71875 153.429688 81.628906 153.480469 C 84.027344 155.507812 86.472656 157.53125 88.921875 159.554688 C 88.871094 159.925781 88.871094 160.566406 88.816406 160.9375 C 86.207031 158.488281 83.492188 156.199219 80.777344 153.855469 C 80.671875 155.238281 80.460938 158.0625 80.351562 159.445312 C 79.714844 157.53125 79.074219 155.558594 79.023438 153.480469 C 76.734375 153.640625 74.445312 153.800781 72.15625 153.960938 C 73.21875 155.453125 74.230469 156.945312 75.242188 158.433594 C 73.378906 157.421875 71.625 156.25 70.027344 154.8125 C 63.695312 161.097656 56.988281 167.0625 50.546875 173.347656 C 52.835938 173.453125 55.125 173.667969 57.414062 173.824219 C 55.285156 174.570312 53.15625 175.210938 50.917969 175.691406 C 50.8125 195.074219 50.867188 214.460938 50.917969 233.84375 C 57.253906 228.414062 63.054688 222.339844 69.230469 216.695312 C 67.949219 214.832031 66.78125 212.863281 65.609375 210.890625 C 67.257812 212.117188 68.910156 213.394531 70.558594 214.671875 C 70.558594 212.277344 70.558594 209.878906 70.558594 207.484375 C 68.324219 207.324219 66.140625 207.003906 63.960938 206.472656 C 65.398438 206.3125 68.269531 206.046875 69.707031 205.886719 C 67.527344 203.222656 65.289062 200.667969 63.109375 198.058594 C 63.265625 197.898438 63.695312 197.578125 63.90625 197.417969 C 65.980469 200.082031 68.109375 202.691406 70.347656 205.195312 C 70.453125 202.160156 70.347656 199.121094 70.664062 196.140625 L 71.039062 195.925781 C 71.089844 199.015625 71.144531 202.050781 71.199219 205.140625 C 73.378906 202.636719 75.5625 200.082031 77.691406 197.472656 C 77.90625 197.578125 78.382812 197.789062 78.597656 197.898438 C 76.203125 200.558594 73.914062 203.277344 71.570312 205.992188 C 72.953125 206.097656 75.773438 206.363281 77.160156 206.472656 C 75.191406 207.058594 73.167969 207.484375 71.144531 207.960938 C 71.089844 210.148438 71.089844 212.382812 71.039062 214.621094 C 76.414062 209.613281 81.523438 204.339844 86.792969 199.28125 L 86.792969 199.816406 C 82.480469 205.355469 76.789062 209.824219 72.050781 215.046875 C 74.339844 215.097656 76.679688 215.152344 79.023438 215.152344 C 79.023438 213.074219 79.609375 211.050781 80.300781 209.082031 C 80.40625 210.464844 80.621094 213.234375 80.777344 214.621094 C 83.441406 212.277344 86.15625 209.933594 88.871094 207.589844 C 88.976562 207.855469 89.136719 208.390625 89.1875 208.65625 C 86.632812 210.730469 84.078125 212.863281 81.578125 215.046875 C 84.71875 215.046875 87.910156 215.097656 91.105469 215.097656 C 91.050781 215.257812 91 215.632812 91 215.792969 C 87.859375 215.738281 84.71875 215.738281 81.628906 215.792969 C 84.027344 217.816406 86.472656 219.839844 88.921875 221.863281 C 88.871094 222.234375 88.871094 222.875 88.816406 223.246094 C 86.207031 220.796875 83.492188 218.453125 80.777344 216.164062 C 80.671875 217.546875 80.460938 220.371094 80.351562 221.753906 C 79.714844 219.839844 79.074219 217.867188 79.023438 215.792969 C 76.734375 215.949219 74.445312 216.109375 72.15625 216.269531 C 73.21875 217.761719 74.230469 219.253906 75.242188 220.742188 C 73.378906 219.734375 71.625 218.558594 70.027344 217.121094 C 63.695312 223.40625 56.988281 229.371094 50.546875 235.65625 C 52.835938 235.761719 55.125 235.976562 57.414062 236.132812 C 55.285156 236.878906 53.15625 237.519531 50.917969 238 C 50.8125 257.382812 50.867188 276.769531 50.917969 296.152344 C 57.253906 290.722656 63.054688 284.648438 69.230469 279.003906 C 67.949219 277.140625 66.78125 275.171875 65.609375 273.199219 C 67.257812 274.425781 68.910156 275.703125 70.558594 276.980469 C 70.558594 274.585938 70.558594 272.1875 70.558594 269.792969 C 68.324219 269.632812 66.140625 269.3125 63.960938 268.78125 C 65.398438 268.621094 68.269531 268.355469 69.707031 268.195312 C 67.527344 265.53125 65.289062 262.976562 63.109375 260.367188 C 63.265625 260.207031 63.695312 259.886719 63.90625 259.726562 C 65.980469 262.390625 68.109375 265 70.347656 267.503906 C 70.453125 264.46875 70.347656 261.429688 70.664062 258.449219 L 71.039062 258.234375 C 71.089844 261.324219 71.144531 264.359375 71.199219 267.449219 C 73.378906 264.945312 75.5625 262.390625 77.691406 259.78125 C 77.90625 259.886719 78.382812 260.101562 78.597656 260.207031 C 76.203125 262.871094 73.914062 265.585938 71.570312 268.300781 C 72.953125 268.40625 75.773438 268.671875 77.160156 268.78125 C 75.191406 269.367188 73.167969 269.792969 71.144531 270.269531 C 71.089844 272.457031 71.089844 274.691406 71.039062 276.929688 C 76.414062 271.921875 81.523438 266.652344 86.792969 261.589844 L 86.792969 262.125 C 82.480469 267.664062 76.789062 272.136719 72.050781 277.355469 C 74.339844 277.40625 76.679688 277.460938 79.023438 277.460938 C 79.023438 275.382812 79.609375 273.359375 80.300781 271.390625 C 80.40625 272.773438 80.621094 275.542969 80.777344 276.929688 C 83.441406 274.585938 86.15625 272.242188 88.871094 269.898438 C 88.976562 270.164062 89.136719 270.699219 89.1875 270.964844 C 86.632812 273.042969 84.078125 275.171875 81.578125 277.355469 C 84.71875 277.355469 87.910156 277.40625 91.105469 277.40625 C 91.050781 277.566406 91 277.941406 91 278.101562 C 87.859375 278.046875 84.71875 278.046875 81.628906 278.101562 C 84.027344 280.125 86.472656 282.148438 88.921875 284.171875 C 88.871094 284.542969 88.871094 285.183594 88.816406 285.554688 C 86.207031 283.105469 83.492188 280.761719 80.777344 278.472656 C 80.671875 279.855469 80.460938 282.679688 80.351562 284.066406 C 79.714844 282.148438 79.074219 280.175781 79.023438 278.101562 C 76.734375 278.257812 74.445312 278.417969 72.15625 278.578125 C 73.21875 280.070312 74.230469 281.5625 75.242188 283.050781 C 73.378906 282.042969 71.625 280.871094 70.027344 279.433594 C 63.640625 285.714844 57.039062 291.679688 50.597656 297.964844 C 52.886719 298.125 55.175781 298.285156 57.414062 298.445312 C 55.285156 299.1875 53.15625 299.828125 50.917969 300.308594 C 50.867188 306.539062 50.867188 312.769531 50.867188 319 C 50.441406 319 49.695312 319 49.269531 319 C 49.269531 312.769531 49.269531 306.484375 49.214844 300.253906 C 47.035156 299.722656 44.90625 299.082031 42.777344 298.496094 C 45.011719 298.335938 47.246094 298.175781 49.480469 298.070312 C 43.203125 291.679688 36.546875 285.664062 30.109375 279.433594 C 28.511719 280.871094 26.703125 282.042969 24.785156 283 C 25.796875 281.5625 26.859375 280.070312 27.925781 278.632812 C 25.636719 278.472656 23.402344 278.367188 21.113281 278.152344 C 21.003906 280.175781 20.421875 282.148438 19.78125 284.066406 C 19.675781 282.679688 19.460938 279.855469 19.355469 278.472656 C 16.640625 280.816406 13.925781 283.105469 11.265625 285.503906 C 11.265625 285.183594 11.210938 284.492188 11.210938 284.171875 C 13.660156 282.148438 16.109375 280.125 18.558594 278.101562 C 15.417969 278.046875 12.277344 278.046875 9.136719 278.101562 C 9.136719 277.886719 9.082031 277.566406 9.03125 277.40625 C 12.222656 277.40625 15.363281 277.355469 18.558594 277.355469 C 16.054688 275.171875 13.5 273.042969 10.945312 270.964844 C 11 270.699219 11.160156 270.164062 11.265625 269.898438 C 13.925781 272.347656 16.640625 274.640625 19.355469 276.980469 C 19.460938 275.597656 19.730469 272.773438 19.835938 271.390625 C 20.527344 273.359375 21.113281 275.382812 21.164062 277.460938 C 23.453125 277.460938 25.796875 277.460938 28.085938 277.40625 C 23.402344 272.136719 17.597656 267.664062 13.394531 262.125 L 13.339844 261.589844 C 18.558594 266.757812 23.828125 271.867188 29.097656 276.929688 C 29.042969 274.691406 29.042969 272.507812 28.988281 270.324219 C 26.96875 269.898438 24.945312 269.417969 22.976562 268.78125 C 24.359375 268.671875 27.128906 268.40625 28.5625 268.300781 C 26.222656 265.585938 24.039062 262.761719 21.539062 260.152344 C 21.804688 260.046875 22.230469 259.886719 22.441406 259.78125 C 24.570312 262.390625 26.753906 264.945312 28.9375 267.503906 C 28.988281 264.414062 29.042969 261.324219 29.097656 258.234375 L 29.46875 258.449219 C 29.683594 261.429688 29.683594 264.46875 29.789062 267.503906 C 32.078125 265.054688 34.257812 262.441406 36.28125 259.726562 C 36.441406 259.886719 36.8125 260.207031 37.027344 260.367188 C 34.738281 262.921875 32.554688 265.476562 30.425781 268.195312 C 31.863281 268.300781 34.738281 268.621094 36.175781 268.78125 C 33.992188 269.3125 31.8125 269.632812 29.574219 269.847656 C 29.574219 272.1875 29.574219 274.585938 29.574219 276.929688 C 31.226562 275.703125 32.875 274.425781 34.527344 273.199219 C 33.355469 275.222656 32.128906 277.195312 30.800781 279.113281 C 37.082031 284.648438 42.882812 290.722656 49.214844 296.207031 C 49.269531 276.820312 49.324219 257.382812 49.214844 238 C 47.035156 237.414062 44.90625 236.773438 42.777344 236.1875 C 45.0625 236.027344 47.300781 235.867188 49.589844 235.710938 C 43.253906 229.371094 36.496094 223.40625 30.109375 217.121094 C 28.511719 218.558594 26.703125 219.734375 24.785156 220.691406 C 25.796875 219.253906 26.859375 217.761719 27.925781 216.324219 C 25.636719 216.164062 23.402344 216.058594 21.113281 215.84375 C 21.003906 217.867188 20.421875 219.839844 19.78125 221.753906 C 19.675781 220.371094 19.460938 217.546875 19.355469 216.164062 C 16.640625 218.507812 13.925781 220.796875 11.265625 223.195312 C 11.265625 222.875 11.210938 222.183594 11.210938 221.863281 C 13.660156 219.839844 16.109375 217.816406 18.558594 215.792969 C 15.417969 215.738281 12.277344 215.738281 9.136719 215.792969 C 9.136719 215.578125 9.082031 215.257812 9.03125 215.097656 C 12.222656 215.097656 15.363281 215.097656 18.558594 215.046875 C 16.054688 212.863281 13.5 210.730469 10.945312 208.65625 C 11 208.390625 11.160156 207.855469 11.265625 207.589844 C 13.925781 210.039062 16.640625 212.328125 19.355469 214.671875 C 19.460938 213.289062 19.730469 210.464844 19.835938 209.082031 C 20.527344 211.050781 21.113281 213.074219 21.164062 215.152344 C 23.453125 215.152344 25.796875 215.152344 28.085938 215.097656 C 23.402344 209.824219 17.597656 205.355469 13.394531 199.816406 L 13.339844 199.28125 C 18.558594 204.449219 23.828125 209.558594 29.097656 214.621094 C 29.042969 212.382812 29.042969 210.199219 28.988281 208.015625 C 26.96875 207.589844 24.945312 207.109375 22.976562 206.472656 C 24.359375 206.363281 27.128906 206.097656 28.5625 205.992188 C 26.222656 203.277344 24.039062 200.453125 21.539062 197.84375 C 21.804688 197.738281 22.230469 197.578125 22.441406 197.472656 C 24.570312 200.082031 26.753906 202.636719 28.9375 205.195312 C 28.988281 202.105469 29.042969 199.015625 29.097656 195.925781 L 29.46875 196.140625 C 29.683594 199.121094 29.683594 202.160156 29.789062 205.195312 C 32.078125 202.742188 34.257812 200.132812 36.28125 197.417969 C 36.441406 197.578125 36.8125 197.898438 37.027344 198.058594 C 34.738281 200.613281 32.554688 203.167969 30.425781 205.886719 C 31.863281 205.992188 34.738281 206.3125 36.175781 206.472656 C 33.992188 207.003906 31.8125 207.324219 29.574219 207.535156 C 29.574219 209.878906 29.574219 212.277344 29.574219 214.621094 C 31.226562 213.394531 32.875 212.117188 34.527344 210.890625 C 33.355469 212.914062 32.128906 214.886719 30.800781 216.804688 C 37.082031 222.339844 42.882812 228.414062 49.214844 233.898438 C 49.269531 214.511719 49.324219 195.074219 49.214844 175.691406 C 47.035156 175.105469 44.90625 174.464844 42.777344 173.878906 C 45.0625 173.71875 47.300781 173.558594 49.589844 173.398438 C 43.253906 167.0625 36.496094 161.097656 30.109375 154.8125 C 28.511719 156.25 26.703125 157.421875 24.785156 158.382812 C 25.796875 156.945312 26.859375 155.453125 27.925781 154.015625 C 25.636719 153.855469 23.402344 153.75 21.113281 153.535156 C 21.003906 155.558594 20.421875 157.53125 19.78125 159.445312 C 19.675781 158.0625 19.460938 155.238281 19.355469 153.855469 C 16.640625 156.199219 13.925781 158.488281 11.265625 160.886719 C 11.265625 160.566406 11.210938 159.871094 11.210938 159.554688 C 13.660156 157.53125 16.109375 155.507812 18.558594 153.480469 C 15.417969 153.429688 12.277344 153.429688 9.136719 153.480469 C 9.136719 153.269531 9.082031 152.949219 9.03125 152.789062 C 12.488281 152.789062 15.949219 152.84375 19.410156 152.84375 C 19.460938 151.351562 19.675781 148.316406 19.78125 146.773438 C 20.527344 148.742188 21.113281 150.765625 21.164062 152.84375 C 23.453125 152.84375 25.796875 152.84375 28.085938 152.789062 C 24.359375 148.847656 20.421875 145.121094 16.640625 141.285156 C 16.054688 140.59375 15.203125 140.007812 14.992188 139.101562 L 14.9375 138.570312 C 19.621094 143.152344 24.304688 147.785156 29.097656 152.3125 C 29.042969 150.074219 29.042969 147.890625 28.988281 145.707031 C 26.96875 145.28125 24.945312 144.800781 22.976562 144.164062 C 24.464844 144.054688 27.5 143.84375 29.042969 143.738281 C 29.042969 140.328125 29.042969 136.972656 29.042969 133.617188 L 29.46875 133.832031 C 29.683594 136.8125 29.683594 139.847656 29.789062 142.882812 C 32.078125 140.433594 34.257812 137.824219 36.28125 135.109375 C 36.441406 135.269531 36.8125 135.589844 37.027344 135.75 C 34.738281 138.304688 32.554688 140.859375 30.425781 143.578125 C 31.863281 143.683594 34.738281 144.003906 36.175781 144.164062 C 33.992188 144.695312 31.8125 145.015625 29.574219 145.226562 C 29.574219 147.570312 29.574219 149.96875 29.574219 152.3125 C 31.226562 151.085938 32.875 149.859375 34.527344 148.582031 C 33.355469 150.605469 32.128906 152.578125 30.800781 154.496094 C 37.082031 160.03125 42.882812 166.101562 49.214844 171.589844 C 49.269531 152.203125 49.324219 132.765625 49.214844 113.382812 C 47.035156 112.796875 44.90625 112.15625 42.777344 111.570312 C 45.0625 111.410156 47.300781 111.25 49.589844 111.089844 C 43.253906 104.753906 36.496094 98.789062 30.109375 92.503906 C 28.511719 93.941406 26.703125 95.113281 24.785156 96.074219 C 25.796875 94.636719 26.859375 93.144531 27.925781 91.707031 C 25.636719 91.546875 23.402344 91.441406 21.113281 91.226562 C 21.003906 93.25 20.421875 95.222656 19.78125 97.136719 C 19.675781 95.59375 19.460938 92.558594 19.410156 91.066406 C 16.003906 91.066406 12.542969 91.066406 9.136719 91.171875 C 9.136719 90.960938 9.082031 90.640625 9.03125 90.480469 C 12.488281 90.480469 15.949219 90.535156 19.410156 90.535156 C 19.460938 89.042969 19.675781 86.007812 19.78125 84.464844 C 20.527344 86.433594 21.113281 88.457031 21.164062 90.535156 C 23.453125 90.535156 25.796875 90.535156 28.085938 90.480469 C 24.679688 86.433594 19.996094 83.34375 17.121094 78.925781 L 17.066406 78.390625 C 21.058594 82.28125 25.050781 86.167969 29.097656 90 C 29.042969 87.765625 29.042969 85.582031 28.988281 83.398438 C 26.96875 82.972656 24.945312 82.492188 22.976562 81.855469 C 24.464844 81.746094 27.5 81.535156 29.042969 81.425781 C 29.042969 78.019531 29.042969 74.664062 29.042969 71.308594 L 29.46875 71.523438 C 29.683594 74.824219 29.628906 78.125 29.628906 81.375 C 31.8125 81.480469 33.992188 81.640625 36.175781 81.746094 C 34.046875 82.386719 31.8125 82.707031 29.574219 82.917969 C 29.574219 85.316406 29.574219 87.660156 29.574219 90 C 31.226562 88.777344 32.875 87.550781 34.527344 86.273438 C 33.355469 88.296875 32.128906 90.269531 30.800781 92.183594 C 37.082031 97.722656 42.882812 103.792969 49.214844 109.28125 C 49.269531 89.894531 49.324219 70.457031 49.214844 51.070312 C 47.035156 50.484375 44.90625 49.847656 42.777344 49.261719 C 45.0625 49.101562 47.300781 48.941406 49.589844 48.78125 C 45.011719 44.253906 40.328125 39.835938 35.535156 35.574219 C 35.003906 34.988281 34.257812 34.457031 34.152344 33.605469 L 34.101562 33.125 C 39.421875 37.386719 43.894531 42.65625 49.214844 46.972656 C 49.375 31.3125 49.214844 15.65625 49.269531 0 Z M 49.269531 0 "/>
<path style=" stroke:none;fill-rule:nonzero;fill:rgb(100%,0%,0%);fill-opacity:1;" d="M 12.753906 286.277344 C 12.753906 287.863281 11.46875 289.148438 9.882812 289.148438 C 8.296875 289.148438 7.011719 287.863281 7.011719 286.277344 C 7.011719 284.691406 8.296875 283.40625 9.882812 283.40625 C 11.46875 283.40625 12.753906 284.691406 12.753906 286.277344 Z M 12.753906 286.277344 "/>
<path style=" stroke:none;fill-rule:nonzero;fill:rgb(100%,0%,0%);fill-opacity:1;" d="M 32.144531 255.695312 C 32.144531 257.28125 30.859375 258.566406 29.273438 258.566406 C 27.691406 258.566406 26.40625 257.28125 26.40625 255.695312 C 26.40625 254.109375 27.691406 252.824219 29.273438 252.824219 C 30.859375 252.824219 32.144531 254.109375 32.144531 255.695312 Z M 32.144531 255.695312 "/>
<path style=" stroke:none;fill-rule:nonzero;fill:rgb(100%,0%,0%);fill-opacity:1;" d="M 23.507812 257.757812 C 23.507812 259.34375 22.222656 260.628906 20.636719 260.628906 C 19.050781 260.628906 17.765625 259.34375 17.765625 257.757812 C 17.765625 256.171875 19.050781 254.882812 20.636719 254.882812 C 22.222656 254.882812 23.507812 256.171875 23.507812 257.757812 Z M 23.507812 257.757812 "/>
<path style=" stroke:none;fill-rule:nonzero;fill:rgb(100%,0%,0%);fill-opacity:1;" d="M 14.480469 260.113281 C 14.480469 261.699219 13.195312 262.984375 11.609375 262.984375 C 10.023438 262.984375 8.738281 261.699219 8.738281 260.113281 C 8.738281 258.527344 10.023438 257.242188 11.609375 257.242188 C 13.195312 257.242188 14.480469 258.527344 14.480469 260.113281 Z M 14.480469 260.113281 "/>
<path style=" stroke:none;fill-rule:nonzero;fill:rgb(100%,0%,0%);fill-opacity:1;" d="M 11.828125 269.050781 C 11.828125 270.636719 10.542969 271.921875 8.957031 271.921875 C 7.375 271.921875 6.089844 270.636719 6.089844 269.050781 C 6.089844 267.464844 7.375 266.179688 8.957031 266.179688 C 10.542969 266.179688 11.828125 267.464844 11.828125 269.050781 Z M 11.828125 269.050781 "/>
<path style=" stroke:none;fill-rule:nonzero;fill:rgb(100%,0%,0%);fill-opacity:1;" d="M 9.320312 277.984375 C 9.320312 279.574219 8.035156 280.859375 6.449219 280.859375 C 4.863281 280.859375 3.578125 279.574219 3.578125 277.984375 C 3.578125 276.398438 4.863281 275.113281 6.449219 275.113281 C 8.035156 275.113281 9.320312 276.398438 9.320312 277.984375 Z M 9.320312 277.984375 "/>
<path style=" stroke:none;fill-rule:nonzero;fill:rgb(100%,0%,0%);fill-opacity:1;" d="M 41.175781 258.148438 C 41.175781 259.734375 39.890625 261.023438 38.304688 261.023438 C 36.71875 261.023438 35.433594 259.734375 35.433594 258.148438 C 35.433594 256.5625 36.71875 255.277344 38.304688 255.277344 C 39.890625 255.277344 41.175781 256.5625 41.175781 258.148438 Z M 41.175781 258.148438 "/>
<path style=" stroke:none;fill-rule:nonzero;fill:rgb(100%,0%,0%);fill-opacity:1;" d="M 12.753906 223.96875 C 12.753906 225.554688 11.46875 226.839844 9.882812 226.839844 C 8.296875 226.839844 7.011719 225.554688 7.011719 223.96875 C 7.011719 222.382812 8.296875 221.09375 9.882812 221.09375 C 11.46875 221.09375 12.753906 222.382812 12.753906 223.96875 Z M 12.753906 223.96875 "/>
<path style=" stroke:none;fill-rule:nonzero;fill:rgb(100%,0%,0%);fill-opacity:1;" d="M 32.144531 193.386719 C 32.144531 194.972656 30.859375 196.257812 29.277344 196.257812 C 27.691406 196.257812 26.40625 194.972656 26.40625 193.386719 C 26.40625 191.800781 27.691406 190.515625 29.277344 190.515625 C 30.859375 190.515625 32.144531 191.800781 32.144531 193.386719 Z M 32.144531 193.386719 "/>
<path style=" stroke:none;fill-rule:nonzero;fill:rgb(100%,0%,0%);fill-opacity:1;" d="M 23.507812 195.449219 C 23.507812 197.035156 22.222656 198.320312 20.636719 198.320312 C 19.050781 198.320312 17.765625 197.035156 17.765625 195.449219 C 17.765625 193.863281 19.050781 192.574219 20.636719 192.574219 C 22.222656 192.574219 23.507812 193.863281 23.507812 195.449219 Z M 23.507812 195.449219 "/>
<path style=" stroke:none;fill-rule:nonzero;fill:rgb(100%,0%,0%);fill-opacity:1;" d="M 14.480469 197.804688 C 14.480469 199.390625 13.195312 200.675781 11.609375 200.675781 C 10.023438 200.675781 8.738281 199.390625 8.738281 197.804688 C 8.738281 196.21875 10.023438 194.933594 11.609375 194.933594 C 13.195312 194.933594 14.480469 196.21875 14.480469 197.804688 Z M 14.480469 197.804688 "/>
<path style=" stroke:none;fill-rule:nonzero;fill:rgb(100%,0%,0%);fill-opacity:1;" d="M 11.828125 206.742188 C 11.828125 208.328125 10.542969 209.613281 8.957031 209.613281 C 7.375 209.613281 6.089844 208.328125 6.089844 206.742188 C 6.089844 205.15625 7.375 203.867188 8.957031 203.867188 C 10.542969 203.867188 11.828125 205.15625 11.828125 206.742188 Z M 11.828125 206.742188 "/>
<path style=" stroke:none;fill-rule:nonzero;fill:rgb(100%,0%,0%);fill-opacity:1;" d="M 9.320312 215.675781 C 9.320312 217.261719 8.035156 218.550781 6.449219 218.550781 C 4.863281 218.550781 3.578125 217.261719 3.578125 215.675781 C 3.578125 214.089844 4.863281 212.804688 6.449219 212.804688 C 8.035156 212.804688 9.320312 214.089844 9.320312 215.675781 Z M 9.320312 215.675781 "/>
<path style=" stroke:none;fill-rule:nonzero;fill:rgb(100%,0%,0%);fill-opacity:1;" d="M 41.175781 195.839844 C 41.175781 197.425781 39.890625 198.714844 38.304688 198.714844 C 36.71875 198.714844 35.433594 197.425781 35.433594 195.839844 C 35.433594 194.253906 36.71875 192.96875 38.304688 192.96875 C 39.890625 192.96875 41.175781 194.253906 41.175781 195.839844 Z M 41.175781 195.839844 "/>
<path style=" stroke:none;fill-rule:nonzero;fill:rgb(100%,0%,0%);fill-opacity:1;" d="M 87.089844 286.277344 C 87.089844 287.863281 88.371094 289.148438 89.957031 289.148438 C 91.546875 289.148438 92.832031 287.863281 92.832031 286.277344 C 92.832031 284.691406 91.546875 283.40625 89.957031 283.40625 C 88.371094 283.40625 87.089844 284.691406 87.089844 286.277344 Z M 87.089844 286.277344 "/>
<path style=" stroke:none;fill-rule:nonzero;fill:rgb(100%,0%,0%);fill-opacity:1;" d="M 67.695312 255.695312 C 67.695312 257.28125 68.980469 258.566406 70.570312 258.566406 C 72.152344 258.566406 73.4375 257.28125 73.4375 255.695312 C 73.4375 254.109375 72.152344 252.824219 70.570312 252.824219 C 68.980469 252.824219 67.695312 254.109375 67.695312 255.695312 Z M 67.695312 255.695312 "/>
<path style=" stroke:none;fill-rule:nonzero;fill:rgb(100%,0%,0%);fill-opacity:1;" d="M 76.335938 257.757812 C 76.335938 259.34375 77.621094 260.628906 79.203125 260.628906 C 80.789062 260.628906 82.074219 259.34375 82.074219 257.757812 C 82.074219 256.171875 80.789062 254.882812 79.203125 254.882812 C 77.621094 254.882812 76.335938 256.171875 76.335938 257.757812 Z M 76.335938 257.757812 "/>
<path style=" stroke:none;fill-rule:nonzero;fill:rgb(100%,0%,0%);fill-opacity:1;" d="M 85.363281 260.113281 C 85.363281 261.699219 86.648438 262.984375 88.234375 262.984375 C 89.820312 262.984375 91.105469 261.699219 91.105469 260.113281 C 91.105469 258.527344 89.820312 257.242188 88.234375 257.242188 C 86.648438 257.242188 85.363281 258.527344 85.363281 260.113281 Z M 85.363281 260.113281 "/>
<path style=" stroke:none;fill-rule:nonzero;fill:rgb(100%,0%,0%);fill-opacity:1;" d="M 88.011719 269.050781 C 88.011719 270.636719 89.300781 271.921875 90.882812 271.921875 C 92.46875 271.921875 93.753906 270.636719 93.753906 269.050781 C 93.753906 267.464844 92.46875 266.179688 90.882812 266.179688 C 89.300781 266.179688 88.011719 267.464844 88.011719 269.050781 Z M 88.011719 269.050781 "/>
<path style=" stroke:none;fill-rule:nonzero;fill:rgb(100%,0%,0%);fill-opacity:1;" d="M 90.523438 277.984375 C 90.523438 279.570312 91.808594 280.859375 93.394531 280.859375 C 94.980469 280.859375 96.265625 279.570312 96.265625 277.984375 C 96.265625 276.398438 94.980469 275.113281 93.394531 275.113281 C 91.808594 275.113281 90.523438 276.398438 90.523438 277.984375 Z M 90.523438 277.984375 "/>
<path style=" stroke:none;fill-rule:nonzero;fill:rgb(100%,0%,0%);fill-opacity:1;" d="M 58.667969 258.148438 C 58.667969 259.734375 59.953125 261.023438 61.539062 261.023438 C 63.121094 261.023438 64.40625 259.734375 64.40625 258.148438 C 64.40625 256.5625 63.121094 255.277344 61.539062 255.277344 C 59.953125 255.277344 58.667969 256.5625 58.667969 258.148438 Z M 58.667969 258.148438 "/>
<path style=" stroke:none;fill-rule:nonzero;fill:rgb(100%,0%,0%);fill-opacity:1;" d="M 87.089844 223.96875 C 87.089844 225.554688 88.371094 226.839844 89.957031 226.839844 C 91.546875 226.839844 92.832031 225.554688 92.832031 223.96875 C 92.832031 222.382812 91.546875 221.09375 89.957031 221.09375 C 88.371094 221.09375 87.089844 222.382812 87.089844 223.96875 Z M 87.089844 223.96875 "/>
<path style=" stroke:none;fill-rule:nonzero;fill:rgb(100%,0%,0%);fill-opacity:1;" d="M 67.695312 193.386719 C 67.695312 194.972656 68.980469 196.257812 70.570312 196.257812 C 72.152344 196.257812 73.4375 194.972656 73.4375 193.386719 C 73.4375 191.800781 72.152344 190.515625 70.570312 190.515625 C 68.980469 190.515625 67.695312 191.800781 67.695312 193.386719 Z M 67.695312 193.386719 "/>
<path style=" stroke:none;fill-rule:nonzero;fill:rgb(100%,0%,0%);fill-opacity:1;" d="M 76.335938 195.449219 C 76.335938 197.035156 77.621094 198.320312 79.203125 198.320312 C 80.789062 198.320312 82.074219 197.035156 82.074219 195.449219 C 82.074219 193.863281 80.789062 192.574219 79.203125 192.574219 C 77.621094 192.574219 76.335938 193.863281 76.335938 195.449219 Z M 76.335938 195.449219 "/>
<path style=" stroke:none;fill-rule:nonzero;fill:rgb(100%,0%,0%);fill-opacity:1;" d="M 85.363281 197.804688 C 85.363281 199.390625 86.648438 200.675781 88.234375 200.675781 C 89.820312 200.675781 91.105469 199.390625 91.105469 197.804688 C 91.105469 196.21875 89.820312 194.933594 88.234375 194.933594 C 86.648438 194.933594 85.363281 196.21875 85.363281 197.804688 Z M 85.363281 197.804688 "/>
<path style=" stroke:none;fill-rule:nonzero;fill:rgb(100%,0%,0%);fill-opacity:1;" d="M 88.011719 206.742188 C 88.011719 208.328125 89.300781 209.613281 90.882812 209.613281 C 92.46875 209.613281 93.753906 208.328125 93.753906 206.742188 C 93.753906 205.15625 92.46875 203.867188 90.882812 203.867188 C 89.300781 203.867188 88.011719 205.15625 88.011719 206.742188 Z M 88.011719 206.742188 "/>
<path style=" stroke:none;fill-rule:nonzero;fill:rgb(100%,0%,0%);fill-opacity:1;" d="M 90.523438 215.675781 C 90.523438 217.261719 91.808594 218.550781 93.394531 218.550781 C 94.980469 218.550781 96.265625 217.261719 96.265625 215.675781 C 96.265625 214.089844 94.980469 212.804688 93.394531 212.804688 C 91.808594 212.804688 90.523438 214.089844 90.523438 215.675781 Z M 90.523438 215.675781 "/>
<path style=" stroke:none;fill-rule:nonzero;fill:rgb(100%,0%,0%);fill-opacity:1;" d="M 58.667969 195.839844 C 58.667969 197.425781 59.953125 198.714844 61.539062 198.714844 C 63.121094 198.714844 64.40625 197.425781 64.40625 195.839844 C 64.40625 194.253906 63.121094 192.96875 61.539062 192.96875 C 59.953125 192.96875 58.667969 194.253906 58.667969 195.839844 Z M 58.667969 195.839844 "/>
<path style=" stroke:none;fill-rule:nonzero;fill:rgb(100%,0%,0%);fill-opacity:1;" d="M 12.488281 161.660156 C 12.488281 163.246094 11.203125 164.53125 9.617188 164.53125 C 8.03125 164.53125 6.746094 163.246094 6.746094 161.660156 C 6.746094 160.074219 8.03125 158.785156 9.617188 158.785156 C 11.203125 158.785156 12.488281 160.074219 12.488281 161.660156 Z M 12.488281 161.660156 "/>
<path style=" stroke:none;fill-rule:nonzero;fill:rgb(100%,0%,0%);fill-opacity:1;" d="M 31.878906 131.078125 C 31.878906 132.664062 30.59375 133.949219 29.007812 133.949219 C 27.425781 133.949219 26.136719 132.664062 26.136719 131.078125 C 26.136719 129.492188 27.425781 128.203125 29.007812 128.203125 C 30.59375 128.203125 31.878906 129.492188 31.878906 131.078125 Z M 31.878906 131.078125 "/>
<path style=" stroke:none;fill-rule:nonzero;fill:rgb(100%,0%,0%);fill-opacity:1;" d="M 16.078125 137.359375 C 16.078125 138.945312 14.789062 140.230469 13.207031 140.230469 C 11.621094 140.230469 10.335938 138.945312 10.335938 137.359375 C 10.335938 135.773438 11.621094 134.488281 13.207031 134.488281 C 14.789062 134.488281 16.078125 135.773438 16.078125 137.359375 Z M 16.078125 137.359375 "/>
<path style=" stroke:none;fill-rule:nonzero;fill:rgb(100%,0%,0%);fill-opacity:1;" d="M 9.054688 153.367188 C 9.054688 154.953125 7.769531 156.242188 6.183594 156.242188 C 4.597656 156.242188 3.3125 154.953125 3.3125 153.367188 C 3.3125 151.78125 4.597656 150.496094 6.183594 150.496094 C 7.769531 150.496094 9.054688 151.78125 9.054688 153.367188 Z M 9.054688 153.367188 "/>
<path style=" stroke:none;fill-rule:nonzero;fill:rgb(100%,0%,0%);fill-opacity:1;" d="M 40.910156 133.53125 C 40.910156 135.117188 39.625 136.402344 38.039062 136.402344 C 36.453125 136.402344 35.167969 135.117188 35.167969 133.53125 C 35.167969 131.945312 36.453125 130.660156 38.039062 130.660156 C 39.625 130.660156 40.910156 131.945312 40.910156 133.53125 Z M 40.910156 133.53125 "/>
<path style=" stroke:none;fill-rule:nonzero;fill:rgb(100%,0%,0%);fill-opacity:1;" d="M 86.824219 161.660156 C 86.824219 163.246094 88.105469 164.53125 89.691406 164.53125 C 91.277344 164.53125 92.566406 163.246094 92.566406 161.660156 C 92.566406 160.074219 91.277344 158.785156 89.691406 158.785156 C 88.105469 158.785156 86.824219 160.074219 86.824219 161.660156 Z M 86.824219 161.660156 "/>
<path style=" stroke:none;fill-rule:nonzero;fill:rgb(100%,0%,0%);fill-opacity:1;" d="M 68.496094 131.078125 C 68.496094 132.664062 69.78125 133.949219 71.367188 133.949219 C 72.949219 133.949219 74.234375 132.664062 74.234375 131.078125 C 74.234375 129.492188 72.949219 128.203125 71.367188 128.203125 C 69.78125 128.203125 68.496094 129.492188 68.496094 131.078125 Z M 68.496094 131.078125 "/>
<path style=" stroke:none;fill-rule:nonzero;fill:rgb(100%,0%,0%);fill-opacity:1;" d="M 84.035156 136.828125 C 84.035156 138.414062 85.316406 139.699219 86.902344 139.699219 C 88.488281 139.699219 89.773438 138.414062 89.773438 136.828125 C 89.773438 135.242188 88.488281 133.953125 86.902344 133.953125 C 85.316406 133.953125 84.035156 135.242188 84.035156 136.828125 Z M 84.035156 136.828125 "/>
<path style=" stroke:none;fill-rule:nonzero;fill:rgb(100%,0%,0%);fill-opacity:1;" d="M 90.257812 153.367188 C 90.257812 154.953125 91.542969 156.242188 93.128906 156.242188 C 94.710938 156.242188 96 154.953125 96 153.367188 C 96 151.78125 94.710938 150.496094 93.128906 150.496094 C 91.542969 150.496094 90.257812 151.78125 90.257812 153.367188 Z M 90.257812 153.367188 "/>
<path style=" stroke:none;fill-rule:nonzero;fill:rgb(100%,0%,0%);fill-opacity:1;" d="M 58.402344 133.53125 C 58.402344 135.117188 59.6875 136.402344 61.273438 136.402344 C 62.855469 136.402344 64.140625 135.117188 64.140625 133.53125 C 64.140625 131.945312 62.855469 130.660156 61.273438 130.660156 C 59.6875 130.660156 58.402344 131.945312 58.402344 133.53125 Z M 58.402344 133.53125 "/>
<path style=" stroke:none;fill-rule:nonzero;fill:rgb(100%,0%,0%);fill-opacity:1;" d="M 9.550781 90.4375 C 9.550781 92.023438 8.265625 93.308594 6.679688 93.308594 C 5.09375 93.308594 3.808594 92.023438 3.808594 90.4375 C 3.808594 88.851562 5.09375 87.566406 6.679688 87.566406 C 8.265625 87.566406 9.550781 88.851562 9.550781 90.4375 Z M 9.550781 90.4375 "/>
<path style=" stroke:none;fill-rule:nonzero;fill:rgb(100%,0%,0%);fill-opacity:1;" d="M 87.730469 77.078125 C 87.730469 78.664062 86.445312 79.949219 84.859375 79.949219 C 83.273438 79.949219 81.988281 78.664062 81.988281 77.078125 C 81.988281 75.492188 83.273438 74.207031 84.859375 74.207031 C 86.445312 74.207031 87.730469 75.492188 87.730469 77.078125 Z M 87.730469 77.078125 "/>
<path style=" stroke:none;fill-rule:nonzero;fill:rgb(100%,0%,0%);fill-opacity:1;" d="M 70.617188 31.578125 C 70.617188 33.164062 69.332031 34.449219 67.746094 34.449219 C 66.164062 34.449219 64.878906 33.164062 64.878906 31.578125 C 64.878906 29.992188 66.164062 28.707031 67.746094 28.707031 C 69.332031 28.707031 70.617188 29.992188 70.617188 31.578125 Z M 70.617188 31.578125 "/>
<path style=" stroke:none;fill-rule:nonzero;fill:rgb(100%,0%,0%);fill-opacity:1;" d="M 35.636719 31.816406 C 35.636719 33.402344 34.351562 34.6875 32.765625 34.6875 C 31.179688 34.6875 29.894531 33.402344 29.894531 31.816406 C 29.894531 30.230469 31.179688 28.945312 32.765625 28.945312 C 34.351562 28.945312 35.636719 30.230469 35.636719 31.816406 Z M 35.636719 31.816406 "/>
<path style=" stroke:none;fill-rule:nonzero;fill:rgb(100%,0%,0%);fill-opacity:1;" d="M 32.191406 68.574219 C 32.191406 70.160156 30.90625 71.445312 29.324219 71.445312 C 27.738281 71.445312 26.453125 70.160156 26.453125 68.574219 C 26.453125 66.988281 27.738281 65.699219 29.324219 65.699219 C 30.90625 65.699219 32.191406 66.988281 32.191406 68.574219 Z M 32.191406 68.574219 "/>
<path style=" stroke:none;fill-rule:nonzero;fill:rgb(100%,0%,0%);fill-opacity:1;" d="M 18.429688 76.980469 C 18.429688 78.566406 17.144531 79.851562 15.558594 79.851562 C 13.972656 79.851562 12.6875 78.566406 12.6875 76.980469 C 12.6875 75.394531 13.972656 74.105469 15.558594 74.105469 C 17.144531 74.105469 18.429688 75.394531 18.429688 76.980469 Z M 18.429688 76.980469 "/>
<path style=" stroke:none;fill-rule:nonzero;fill:rgb(100%,0%,0%);fill-opacity:1;" d="M 73.851562 69.066406 C 73.851562 70.652344 72.566406 71.9375 70.984375 71.9375 C 69.398438 71.9375 68.113281 70.652344 68.113281 69.066406 C 68.113281 67.480469 69.398438 66.195312 70.984375 66.195312 C 72.566406 66.195312 73.851562 67.480469 73.851562 69.066406 Z M 73.851562 69.066406 "/>
<path style=" stroke:none;fill-rule:nonzero;fill:rgb(100%,0%,0%);fill-opacity:1;" d="M 90.945312 90.925781 C 90.945312 92.511719 92.234375 93.796875 93.820312 93.796875 C 95.402344 93.796875 96.6875 92.511719 96.6875 90.925781 C 96.6875 89.339844 95.402344 88.054688 93.820312 88.054688 C 92.234375 88.054688 90.945312 89.339844 90.945312 90.925781 Z M 90.945312 90.925781 "/>
</g>
</svg>
