<?xml version="1.0" encoding="UTF-8"?>
<svg xmlns="http://www.w3.org/2000/svg" xmlns:xlink="http://www.w3.org/1999/xlink" width="100px" height="196px" viewBox="0 0 100 196" version="1.1">
<g id="surface1">
<path style=" stroke:none;fill-rule:nonzero;fill:rgb(0%,77.64706%,0%);fill-opacity:1;" d="M 27.601562 10.222656 L 28.191406 9.949219 L 28.074219 17.53125 C 28.074219 17.53125 31.738281 13.359375 33.242188 11.210938 C 33.5 11.296875 33.796875 11.726562 34.054688 11.8125 C 32.160156 13.835938 30.398438 15.898438 28.722656 18.089844 C 29.882812 18.132812 32.160156 18.304688 33.324219 18.390625 C 31.644531 19.078125 30.058594 19.742188 28.164062 19.570312 C 28.121094 23.4375 28.078125 27.160156 28.164062 31.03125 C 29.5 30.042969 30.613281 29.136719 31.945312 28.148438 C 31.042969 29.695312 30.097656 31.242188 29.109375 32.746094 C 35.773438 39.066406 42.097656 45.769531 49.0625 51.789062 C 49.105469 42.675781 49.0625 33.605469 49.019531 24.492188 C 49.363281 24.449219 50.007812 24.320312 50.351562 24.277344 C 50.394531 41.773438 50.265625 59.265625 50.394531 76.761719 C 56.890625 70.140625 63.855469 63.996094 70.265625 57.332031 C 69.449219 55.785156 68.675781 54.195312 67.898438 52.605469 C 69.191406 53.636719 70.480469 54.625 71.769531 55.65625 C 71.339844 51.789062 71.511719 47.960938 71.511719 44.09375 C 69.578125 44.136719 67.726562 43.40625 66.007812 42.589844 C 67.683594 42.589844 69.363281 42.632812 71.039062 42.675781 C 69.40625 40.570312 67.683594 38.550781 65.964844 36.570312 C 66.007812 36.355469 66.136719 35.96875 66.179688 35.796875 C 67.898438 37.859375 69.621094 39.925781 71.46875 41.902344 C 71.382812 39.496094 71.296875 37.085938 71.167969 34.679688 C 71.382812 34.679688 71.769531 34.679688 71.941406 34.679688 C 71.984375 36.957031 72.113281 39.28125 72.242188 41.558594 C 74.050781 39.753906 75.683594 37.820312 77.316406 35.839844 C 77.445312 35.96875 77.75 36.183594 77.878906 36.3125 C 76.027344 38.292969 74.265625 40.398438 72.585938 42.589844 C 74.007812 42.71875 75.382812 42.804688 76.800781 42.933594 C 75.339844 43.492188 73.835938 43.964844 72.328125 44.4375 C 72.199219 48.046875 72.199219 51.660156 72.285156 55.269531 C 74.867188 53.164062 77.316406 50.886719 79.554688 48.390625 C 79.683594 48.519531 79.941406 48.777344 80.070312 48.90625 C 77.664062 51.316406 75.253906 53.722656 72.714844 56.042969 C 76.585938 56.085938 80.355469 55.871094 84.183594 55.914062 C 83.753906 53.847656 84.671875 52.175781 85.488281 50.324219 C 85.574219 51.574219 85.660156 54.023438 85.746094 55.226562 C 87.855469 53.59375 89.832031 51.832031 91.769531 49.980469 C 91.8125 50.152344 91.941406 50.5 91.984375 50.714844 C 90.003906 52.519531 87.941406 54.238281 85.960938 56.085938 C 88.5 55.957031 91.082031 55.785156 93.617188 55.613281 C 93.574219 55.828125 93.53125 56.257812 93.488281 56.472656 C 91.125 56.472656 88.757812 56.515625 86.347656 56.558594 C 88.328125 58.363281 90.347656 60.125 92.5 61.757812 C 92.328125 61.800781 91.898438 61.84375 91.726562 61.84375 C 89.703125 60.339844 87.769531 58.707031 85.789062 57.160156 C 85.660156 58.320312 85.488281 60.683594 85.359375 61.84375 C 84.714844 60.082031 84.527344 58.414062 84.183594 56.566406 C 80.484375 56.566406 76.457031 56.472656 72.757812 56.945312 C 73.792969 58.105469 74.78125 59.308594 75.769531 60.46875 C 74.09375 59.609375 72.5 58.621094 70.910156 57.589844 C 64.246094 64.597656 56.890625 70.871094 50.265625 77.878906 C 52.074219 77.964844 53.878906 78.050781 55.6875 78.179688 C 53.921875 78.695312 52.160156 79.167969 50.351562 79.640625 C 50.351562 95.414062 50.308594 111.230469 50.394531 127.050781 C 56.933594 120.386719 63.855469 114.199219 70.394531 107.578125 C 69.578125 106.03125 68.761719 104.484375 67.898438 102.9375 C 69.191406 103.96875 70.480469 105 71.769531 105.988281 C 71.640625 102.121094 71.511719 98.207031 71.46875 94.339844 C 69.535156 94.425781 67.726562 93.695312 66.007812 92.878906 C 67.683594 92.878906 69.363281 92.921875 71.039062 92.964844 C 69.363281 90.816406 67.597656 88.753906 65.835938 86.730469 C 65.921875 86.558594 66.179688 86.300781 66.265625 86.171875 C 67.984375 88.191406 69.707031 90.214844 71.511719 92.234375 C 71.425781 89.828125 71.339844 87.375 71.210938 84.96875 C 71.425781 84.96875 71.8125 84.925781 72.027344 84.925781 C 71.984375 87.246094 71.8125 89.570312 72.242188 91.847656 C 74.007812 90.042969 75.726562 88.148438 77.316406 86.128906 C 77.445312 86.257812 77.75 86.472656 77.878906 86.601562 C 75.984375 88.539062 74.222656 90.644531 72.542969 92.835938 C 73.921875 92.921875 75.339844 93.050781 76.757812 93.136719 C 75.296875 93.78125 73.835938 94.339844 72.328125 94.769531 C 72.199219 98.335938 72.199219 101.949219 72.285156 105.515625 C 74.867188 103.367188 77.316406 101.089844 79.554688 98.636719 C 79.683594 98.808594 79.941406 99.066406 80.027344 99.195312 C 77.621094 101.648438 75.210938 104.054688 72.714844 106.375 C 76.585938 106.417969 80.3125 106.113281 84.183594 106.113281 C 83.667969 104.050781 84.714844 102.421875 85.488281 100.570312 C 85.53125 101.820312 85.617188 104.3125 85.660156 105.515625 C 87.8125 103.882812 89.917969 102.164062 91.8125 100.226562 C 91.855469 100.441406 91.855469 100.785156 91.855469 100.960938 C 90.089844 102.980469 87.898438 104.613281 85.917969 106.375 C 88.457031 106.332031 91.039062 106.246094 93.617188 105.902344 C 93.574219 106.117188 93.53125 106.546875 93.488281 106.761719 C 91.125 106.761719 88.757812 106.804688 86.347656 106.847656 C 88.328125 108.652344 90.347656 110.414062 92.5 112.046875 C 92.328125 112.089844 91.898438 112.132812 91.726562 112.132812 C 89.703125 110.628906 87.769531 108.996094 85.789062 107.449219 C 85.660156 108.609375 85.488281 110.972656 85.359375 112.132812 C 84.714844 110.371094 84.199219 108.566406 83.855469 106.71875 C 80.15625 106.71875 76.457031 106.761719 72.757812 107.234375 C 73.792969 108.394531 74.78125 109.597656 75.769531 110.757812 C 74.09375 109.898438 72.5 108.910156 70.910156 107.878906 C 64.246094 114.886719 56.890625 121.160156 50.265625 128.167969 C 52.074219 128.253906 53.878906 128.339844 55.6875 128.46875 C 53.921875 128.984375 52.160156 129.457031 50.351562 129.929688 C 50.351562 145.703125 50.308594 161.519531 50.394531 177.339844 C 56.933594 170.675781 63.855469 164.488281 70.394531 157.867188 C 69.578125 156.320312 68.761719 154.773438 67.898438 153.226562 C 69.191406 154.257812 70.480469 155.289062 71.769531 156.277344 C 71.640625 152.410156 71.511719 148.496094 71.46875 144.628906 C 69.535156 144.714844 67.726562 143.984375 66.007812 143.167969 C 67.683594 143.167969 69.363281 143.210938 71.039062 143.253906 C 69.363281 141.105469 67.597656 139.042969 65.835938 137.019531 C 65.921875 136.847656 66.179688 136.589844 66.265625 136.460938 C 67.984375 138.480469 69.707031 140.503906 71.46875 142.523438 C 71.46875 140.074219 71.425781 137.664062 71.382812 135.257812 L 71.726562 135.558594 C 71.898438 137.75 71.898438 139.945312 72.242188 142.136719 C 74.007812 140.332031 75.726562 138.480469 77.359375 136.546875 C 77.574219 136.632812 78.050781 136.761719 78.308594 136.847656 C 76.15625 138.738281 74.222656 140.847656 72.5 143.125 C 73.921875 143.210938 75.339844 143.339844 76.757812 143.425781 C 75.296875 144.070312 73.835938 144.628906 72.328125 145.058594 C 72.199219 148.625 72.199219 152.238281 72.285156 155.804688 C 74.867188 153.65625 77.316406 151.375 79.554688 148.925781 C 79.683594 149.097656 79.941406 149.355469 80.027344 149.484375 C 77.621094 151.9375 75.210938 154.34375 72.714844 156.664062 C 76.585938 156.707031 80.421875 156.316406 84.292969 156.316406 C 83.777344 154.253906 84.714844 152.710938 85.488281 150.863281 C 85.53125 152.105469 85.617188 154.601562 85.660156 155.804688 C 87.8125 154.171875 89.917969 152.453125 91.8125 150.515625 C 91.855469 150.730469 91.855469 151.078125 91.855469 151.246094 C 90.089844 153.269531 87.898438 154.902344 85.917969 156.664062 C 88.457031 156.621094 91.039062 156.535156 93.617188 156.191406 C 93.574219 156.40625 93.53125 156.835938 93.488281 157.050781 C 91.125 157.050781 88.757812 157.09375 86.347656 157.136719 C 88.328125 158.941406 90.347656 160.703125 92.5 162.335938 C 92.328125 162.378906 91.898438 162.421875 91.726562 162.421875 C 89.703125 160.917969 87.769531 159.285156 85.789062 157.738281 C 85.660156 158.898438 85.488281 161.261719 85.359375 162.421875 C 84.714844 160.660156 84.199219 158.855469 83.855469 157.007812 C 80.15625 157.007812 76.457031 157.050781 72.757812 157.523438 C 73.792969 158.683594 74.78125 159.886719 75.769531 161.046875 C 74.09375 160.1875 72.5 159.199219 70.910156 158.167969 C 64.246094 165.175781 56.890625 171.449219 50.265625 178.457031 C 52.074219 178.542969 53.878906 178.628906 55.6875 178.757812 C 53.921875 179.273438 52.160156 179.746094 50.351562 180.21875 C 50.351562 185.460938 50.394531 190.75 50.265625 195.992188 C 50.007812 195.992188 49.449219 195.992188 49.191406 195.992188 C 48.804688 182.667969 49.277344 169.300781 48.976562 155.933594 C 47.34375 155.417969 45.707031 154.859375 44.074219 154.300781 C 45.363281 154.171875 47.945312 154 49.234375 153.871094 C 42.355469 147.035156 35.429688 140.289062 28.375 133.667969 C 27.128906 134.871094 25.710938 135.859375 24.164062 136.589844 C 24.9375 135.386719 25.753906 134.183594 26.570312 133.023438 C 22.914062 132.9375 19.257812 132.894531 15.605469 132.679688 C 15.5625 134.3125 15.042969 135.945312 14.398438 137.449219 C 14.355469 136.332031 14.226562 134.097656 14.140625 132.980469 C 11.949219 134.785156 9.667969 136.632812 7.648438 138.65625 C 7.605469 138.398438 7.5625 137.835938 7.519531 137.578125 C 9.539062 135.945312 11.519531 134.3125 13.496094 132.59375 C 11.046875 132.636719 8.636719 132.679688 6.1875 132.765625 C 6.1875 132.550781 6.144531 132.164062 6.097656 131.949219 C 8.550781 131.992188 11.046875 132.035156 13.539062 132.078125 C 11.5625 130.359375 9.539062 128.683594 7.476562 127.050781 C 7.519531 126.835938 7.648438 126.316406 7.734375 126.058594 C 9.796875 128.039062 11.949219 129.929688 14.183594 131.734375 C 14.226562 130.574219 14.398438 128.296875 14.484375 127.175781 C 15.132812 128.769531 15.605469 130.445312 15.605469 132.207031 C 19.300781 132.207031 23.042969 132.207031 26.785156 132.078125 C 24.507812 129.628906 22.140625 127.222656 19.386719 125.328125 C 19.691406 124.984375 19.992188 124.640625 20.335938 124.296875 C 22.527344 127.007812 24.980469 129.5 27.558594 131.820312 C 27.644531 128.039062 27.644531 124.253906 27.515625 120.515625 C 25.839844 120.171875 24.207031 119.65625 22.613281 119.011719 C 23.730469 118.925781 26.011719 118.796875 27.128906 118.710938 C 25.324219 116.476562 23.558594 114.199219 21.453125 112.21875 C 21.710938 112.175781 22.269531 112.089844 22.527344 112.089844 C 24.121094 114.113281 25.753906 116.089844 27.472656 118.023438 C 27.558594 115.617188 27.601562 113.207031 27.601562 110.800781 L 27.902344 111.058594 C 28.03125 113.378906 28.03125 115.703125 28.074219 118.066406 C 29.96875 116.261719 31.644531 114.242188 33.109375 112.046875 C 33.324219 112.132812 33.796875 112.304688 34.054688 112.390625 C 32.074219 114.328125 30.3125 116.433594 28.679688 118.625 C 29.839844 118.710938 32.160156 118.882812 33.324219 118.96875 C 31.601562 119.65625 30.015625 120.34375 28.167969 120.300781 C 28.125 124.128906 28.082031 127.671875 28.167969 131.542969 C 29.5 130.554688 30.613281 129.714844 31.945312 128.726562 C 31 130.316406 30.011719 131.90625 29.066406 133.453125 C 35.902344 139.558594 42.097656 146.390625 49.0625 152.410156 C 49.019531 136.804688 49.191406 121.246094 48.976562 105.6875 C 47.34375 105.128906 45.707031 104.570312 44.074219 104.011719 C 45.363281 103.882812 47.945312 103.710938 49.234375 103.582031 C 42.355469 96.746094 35.429688 90 28.375 83.378906 C 27.128906 84.582031 25.710938 85.570312 24.164062 86.300781 C 24.9375 85.097656 25.753906 83.894531 26.570312 82.734375 C 22.914062 82.648438 19.257812 82.605469 15.605469 82.390625 C 15.5625 84.023438 15.042969 85.65625 14.398438 87.160156 C 14.355469 86.042969 14.226562 83.808594 14.140625 82.691406 C 11.949219 84.496094 9.667969 86.34375 7.648438 88.363281 C 7.605469 88.105469 7.5625 87.546875 7.519531 87.289062 C 9.539062 85.65625 11.519531 84.023438 13.496094 82.304688 C 11.046875 82.347656 8.636719 82.390625 6.1875 82.476562 C 6.1875 82.261719 6.144531 81.875 6.097656 81.660156 C 8.550781 81.703125 11.046875 81.746094 13.539062 81.789062 C 11.5625 80.070312 9.539062 78.394531 7.476562 76.761719 C 7.519531 76.546875 7.648438 76.03125 7.734375 75.773438 C 9.796875 77.75 11.949219 79.640625 14.183594 81.445312 C 14.226562 80.285156 14.398438 78.007812 14.484375 76.890625 C 15.132812 78.480469 15.605469 80.15625 15.605469 81.917969 C 19.300781 81.917969 23.042969 81.917969 26.785156 81.789062 C 24.507812 79.339844 22.140625 76.933594 19.386719 75.039062 C 19.691406 74.695312 19.992188 74.351562 20.335938 74.007812 C 22.527344 76.71875 24.980469 79.210938 27.558594 81.53125 C 27.644531 77.75 27.644531 73.964844 27.515625 70.226562 C 25.839844 69.882812 24.207031 69.367188 22.613281 68.722656 C 23.730469 68.636719 26.011719 68.507812 27.128906 68.421875 C 25.324219 66.1875 23.558594 63.910156 21.453125 61.929688 C 21.710938 61.886719 22.269531 61.800781 22.527344 61.800781 C 24.121094 63.824219 25.753906 65.800781 27.472656 67.734375 C 27.558594 65.328125 27.601562 62.917969 27.601562 60.511719 L 27.902344 60.769531 C 28.03125 63.089844 28.03125 65.414062 28.074219 67.777344 C 29.96875 65.972656 31.644531 63.953125 33.109375 61.757812 C 33.324219 61.84375 33.796875 62.015625 34.054688 62.101562 C 32.074219 64.039062 30.3125 66.144531 28.679688 68.335938 C 29.839844 68.421875 32.160156 68.59375 33.324219 68.679688 C 31.601562 69.367188 29.796875 69.925781 27.945312 69.882812 C 27.902344 73.707031 27.902344 77.535156 27.988281 81.402344 C 29.324219 80.414062 30.613281 79.425781 31.945312 78.4375 C 31 80.027344 30.011719 81.617188 29.066406 83.164062 C 35.902344 89.269531 42.097656 96.101562 49.0625 102.121094 C 49.019531 86.515625 49.191406 70.957031 48.976562 55.398438 C 47.34375 54.839844 45.707031 54.28125 44.074219 53.722656 C 45.363281 53.59375 47.945312 53.421875 49.234375 53.292969 C 42.355469 46.457031 35.429688 39.710938 28.375 33.089844 C 27.128906 34.292969 25.710938 35.28125 24.164062 36.011719 C 24.9375 34.808594 25.753906 33.648438 26.570312 32.445312 C 22.914062 32.359375 19.257812 32.316406 15.605469 32.101562 C 15.5625 33.734375 15.042969 35.367188 14.398438 36.871094 C 14.355469 35.753906 14.226562 33.519531 14.140625 32.402344 C 11.949219 34.207031 9.667969 36.054688 7.648438 38.074219 C 7.605469 37.820312 7.5625 37.257812 7.519531 37 C 9.539062 35.367188 11.519531 33.734375 13.496094 32.015625 C 11.089844 32.058594 8.722656 32.101562 6.316406 32.144531 C 6.226562 31.972656 6.097656 31.585938 6.011719 31.371094 C 8.507812 31.414062 11.046875 31.457031 13.539062 31.5 C 11.5625 29.78125 9.539062 28.105469 7.476562 26.472656 C 7.519531 26.214844 7.648438 25.742188 7.734375 25.480469 C 9.796875 27.417969 11.992188 29.265625 14.183594 31.070312 C 14.226562 29.953125 14.398438 27.71875 14.484375 26.601562 C 15.132812 28.191406 15.605469 29.867188 15.519531 31.585938 C 19.300781 31.628906 23.042969 31.628906 26.828125 31.5 C 24.550781 29.050781 22.054688 26.773438 19.386719 24.75 C 19.691406 24.40625 20.035156 24.0625 20.335938 23.71875 C 22.3125 26.558594 25.066406 28.75 27.515625 31.15625 C 27.644531 27.460938 27.59375 23.359375 27.507812 19.664062 C 25.828125 19.277344 24.207031 19.035156 22.613281 18.433594 C 23.773438 18.347656 26.054688 18.21875 27.214844 18.132812 C 25.367188 15.941406 23.429688 13.75 21.453125 11.640625 C 21.753906 11.597656 22.269531 11.511719 22.527344 11.511719 C 24.121094 13.535156 27.472656 17.445312 27.472656 17.445312 C 27.472656 17.445312 27.601562 12.632812 27.601562 10.222656 Z M 27.601562 10.222656 "/>
<path style=" stroke:none;fill-rule:nonzero;fill:rgb(100%,0%,0%);fill-opacity:1;" d="M 8.351562 139.546875 C 8.351562 141.011719 7.164062 142.199219 5.699219 142.199219 C 4.234375 142.199219 3.046875 141.011719 3.046875 139.546875 C 3.046875 138.082031 4.234375 136.898438 5.699219 136.898438 C 7.164062 136.898438 8.351562 138.082031 8.351562 139.546875 Z M 8.351562 139.546875 "/>
<path style=" stroke:none;fill-rule:nonzero;fill:rgb(100%,0%,0%);fill-opacity:1;" d="M 6.414062 132.097656 C 6.414062 133.5625 5.226562 134.746094 3.761719 134.746094 C 2.296875 134.746094 1.109375 133.5625 1.109375 132.097656 C 1.109375 130.632812 2.296875 129.445312 3.761719 129.445312 C 5.226562 129.445312 6.414062 130.632812 6.414062 132.097656 Z M 6.414062 132.097656 "/>
<path style=" stroke:none;fill-rule:nonzero;fill:rgb(100%,0%,0%);fill-opacity:1;" d="M 8.351562 125.003906 C 8.351562 126.46875 7.164062 127.65625 5.699219 127.65625 C 4.234375 127.65625 3.046875 126.46875 3.046875 125.003906 C 3.046875 123.542969 4.234375 122.355469 5.699219 122.355469 C 7.164062 122.355469 8.351562 123.542969 8.351562 125.003906 Z M 8.351562 125.003906 "/>
<path style=" stroke:none;fill-rule:nonzero;fill:rgb(100%,0%,0%);fill-opacity:1;" d="M 20.820312 123.070312 C 20.820312 124.535156 19.632812 125.722656 18.171875 125.722656 C 16.707031 125.722656 15.519531 124.535156 15.519531 123.070312 C 15.519531 121.609375 16.707031 120.421875 18.171875 120.421875 C 19.632812 120.421875 20.820312 121.609375 20.820312 123.070312 Z M 20.820312 123.070312 "/>
<path style=" stroke:none;fill-rule:nonzero;fill:rgb(100%,0%,0%);fill-opacity:1;" d="M 30.640625 108.457031 C 30.640625 109.921875 29.453125 111.109375 27.988281 111.109375 C 26.523438 111.109375 25.335938 109.921875 25.335938 108.457031 C 25.335938 106.992188 26.523438 105.804688 27.988281 105.804688 C 29.453125 105.804688 30.640625 106.992188 30.640625 108.457031 Z M 30.640625 108.457031 "/>
<path style=" stroke:none;fill-rule:nonzero;fill:rgb(100%,0%,0%);fill-opacity:1;" d="M 23.257812 110.320312 C 23.257812 111.785156 22.070312 112.96875 20.605469 112.96875 C 19.140625 112.96875 17.957031 111.785156 17.957031 110.320312 C 17.957031 108.855469 19.140625 107.667969 20.605469 107.667969 C 22.070312 107.667969 23.257812 108.855469 23.257812 110.320312 Z M 23.257812 110.320312 "/>
<path style=" stroke:none;fill-rule:nonzero;fill:rgb(100%,0%,0%);fill-opacity:1;" d="M 37.808594 110.390625 C 37.808594 111.855469 36.621094 113.042969 35.15625 113.042969 C 33.691406 113.042969 32.503906 111.855469 32.503906 110.390625 C 32.503906 108.925781 33.691406 107.742188 35.15625 107.742188 C 36.621094 107.742188 37.808594 108.925781 37.808594 110.390625 Z M 37.808594 110.390625 "/>
<path style=" stroke:none;fill-rule:nonzero;fill:rgb(100%,0%,0%);fill-opacity:1;" d="M 8.351562 89.402344 C 8.351562 90.867188 7.164062 92.050781 5.699219 92.050781 C 4.234375 92.050781 3.046875 90.867188 3.046875 89.402344 C 3.046875 87.9375 4.234375 86.75 5.699219 86.75 C 7.164062 86.75 8.351562 87.9375 8.351562 89.402344 Z M 8.351562 89.402344 "/>
<path style=" stroke:none;fill-rule:nonzero;fill:rgb(100%,0%,0%);fill-opacity:1;" d="M 6.414062 81.953125 C 6.414062 83.414062 5.226562 84.601562 3.761719 84.601562 C 2.296875 84.601562 1.109375 83.414062 1.109375 81.953125 C 1.109375 80.488281 2.296875 79.300781 3.761719 79.300781 C 5.226562 79.300781 6.414062 80.488281 6.414062 81.953125 Z M 6.414062 81.953125 "/>
<path style=" stroke:none;fill-rule:nonzero;fill:rgb(100%,0%,0%);fill-opacity:1;" d="M 8.351562 74.859375 C 8.351562 76.324219 7.164062 77.511719 5.699219 77.511719 C 4.234375 77.511719 3.046875 76.324219 3.046875 74.859375 C 3.046875 73.394531 4.234375 72.210938 5.699219 72.210938 C 7.164062 72.210938 8.351562 73.394531 8.351562 74.859375 Z M 8.351562 74.859375 "/>
<path style=" stroke:none;fill-rule:nonzero;fill:rgb(100%,0%,0%);fill-opacity:1;" d="M 20.820312 72.925781 C 20.820312 74.390625 19.632812 75.574219 18.171875 75.574219 C 16.707031 75.574219 15.519531 74.390625 15.519531 72.925781 C 15.519531 71.460938 16.707031 70.273438 18.171875 70.273438 C 19.632812 70.273438 20.820312 71.460938 20.820312 72.925781 Z M 20.820312 72.925781 "/>
<path style=" stroke:none;fill-rule:nonzero;fill:rgb(100%,0%,0%);fill-opacity:1;" d="M 30.640625 58.3125 C 30.640625 59.773438 29.453125 60.960938 27.988281 60.960938 C 26.523438 60.960938 25.335938 59.773438 25.335938 58.3125 C 25.335938 56.847656 26.523438 55.660156 27.988281 55.660156 C 29.453125 55.660156 30.640625 56.847656 30.640625 58.3125 Z M 30.640625 58.3125 "/>
<path style=" stroke:none;fill-rule:nonzero;fill:rgb(100%,0%,0%);fill-opacity:1;" d="M 23.257812 60.175781 C 23.257812 61.636719 22.070312 62.824219 20.605469 62.824219 C 19.140625 62.824219 17.957031 61.636719 17.957031 60.175781 C 17.957031 58.710938 19.140625 57.523438 20.605469 57.523438 C 22.070312 57.523438 23.257812 58.710938 23.257812 60.175781 Z M 23.257812 60.175781 "/>
<path style=" stroke:none;fill-rule:nonzero;fill:rgb(100%,0%,0%);fill-opacity:1;" d="M 37.808594 60.246094 C 37.808594 61.710938 36.621094 62.894531 35.15625 62.894531 C 33.691406 62.894531 32.503906 61.710938 32.503906 60.246094 C 32.503906 58.78125 33.691406 57.59375 35.15625 57.59375 C 36.621094 57.59375 37.808594 58.78125 37.808594 60.246094 Z M 37.808594 60.246094 "/>
<path style=" stroke:none;fill-rule:nonzero;fill:rgb(100%,0%,0%);fill-opacity:1;" d="M 8.351562 38.832031 C 8.351562 40.296875 7.164062 41.484375 5.699219 41.484375 C 4.234375 41.484375 3.046875 40.296875 3.046875 38.832031 C 3.046875 37.367188 4.234375 36.183594 5.699219 36.183594 C 7.164062 36.183594 8.351562 37.367188 8.351562 38.832031 Z M 8.351562 38.832031 "/>
<path style=" stroke:none;fill-rule:nonzero;fill:rgb(100%,0%,0%);fill-opacity:1;" d="M 6.414062 31.382812 C 6.414062 32.847656 5.226562 34.03125 3.761719 34.03125 C 2.296875 34.03125 1.109375 32.847656 1.109375 31.382812 C 1.109375 29.917969 2.296875 28.730469 3.761719 28.730469 C 5.226562 28.730469 6.414062 29.917969 6.414062 31.382812 Z M 6.414062 31.382812 "/>
<path style=" stroke:none;fill-rule:nonzero;fill:rgb(100%,0%,0%);fill-opacity:1;" d="M 8.351562 24.289062 C 8.351562 25.753906 7.164062 26.941406 5.699219 26.941406 C 4.234375 26.941406 3.046875 25.753906 3.046875 24.289062 C 3.046875 22.828125 4.234375 21.640625 5.699219 21.640625 C 7.164062 21.640625 8.351562 22.828125 8.351562 24.289062 Z M 8.351562 24.289062 "/>
<path style=" stroke:none;fill-rule:nonzero;fill:rgb(100%,0%,0%);fill-opacity:1;" d="M 20.820312 22.355469 C 20.820312 23.820312 19.632812 25.007812 18.171875 25.007812 C 16.707031 25.007812 15.519531 23.820312 15.519531 22.355469 C 15.519531 20.890625 16.707031 19.707031 18.171875 19.707031 C 19.632812 19.707031 20.820312 20.890625 20.820312 22.355469 Z M 20.820312 22.355469 "/>
<path style=" stroke:none;fill-rule:nonzero;fill:rgb(100%,0%,0%);fill-opacity:1;" d="M 30.640625 7.742188 C 30.640625 9.207031 29.453125 10.390625 27.988281 10.390625 C 26.523438 10.390625 25.335938 9.207031 25.335938 7.742188 C 25.335938 6.277344 26.523438 5.089844 27.988281 5.089844 C 29.453125 5.089844 30.640625 6.277344 30.640625 7.742188 Z M 30.640625 7.742188 "/>
<path style=" stroke:none;fill-rule:nonzero;fill:rgb(100%,0%,0%);fill-opacity:1;" d="M 23.257812 9.605469 C 23.257812 11.066406 22.070312 12.253906 20.605469 12.253906 C 19.140625 12.253906 17.957031 11.066406 17.957031 9.605469 C 17.957031 8.140625 19.140625 6.953125 20.605469 6.953125 C 22.070312 6.953125 23.257812 8.140625 23.257812 9.605469 Z M 23.257812 9.605469 "/>
<path style=" stroke:none;fill-rule:nonzero;fill:rgb(100%,0%,0%);fill-opacity:1;" d="M 37.808594 9.675781 C 37.808594 11.140625 36.621094 12.328125 35.15625 12.328125 C 33.691406 12.328125 32.503906 11.140625 32.503906 9.675781 C 32.503906 8.210938 33.691406 7.027344 35.15625 7.027344 C 36.621094 7.027344 37.808594 8.210938 37.808594 9.675781 Z M 37.808594 9.675781 "/>
<path style=" stroke:none;fill-rule:nonzero;fill:rgb(100%,0%,0%);fill-opacity:1;" d="M 91.277344 164.191406 C 91.277344 165.65625 92.464844 166.84375 93.929688 166.84375 C 95.394531 166.84375 96.582031 165.65625 96.582031 164.191406 C 96.582031 162.726562 95.394531 161.542969 93.929688 161.542969 C 92.464844 161.542969 91.277344 162.726562 91.277344 164.191406 Z M 91.277344 164.191406 "/>
<path style=" stroke:none;fill-rule:nonzero;fill:rgb(100%,0%,0%);fill-opacity:1;" d="M 93.214844 156.742188 C 93.214844 158.207031 94.402344 159.390625 95.863281 159.390625 C 97.328125 159.390625 98.515625 158.207031 98.515625 156.742188 C 98.515625 155.277344 97.328125 154.089844 95.863281 154.089844 C 94.402344 154.089844 93.214844 155.277344 93.214844 156.742188 Z M 93.214844 156.742188 "/>
<path style=" stroke:none;fill-rule:nonzero;fill:rgb(100%,0%,0%);fill-opacity:1;" d="M 91.277344 149.648438 C 91.277344 151.113281 92.464844 152.300781 93.929688 152.300781 C 95.394531 152.300781 96.582031 151.113281 96.582031 149.648438 C 96.582031 148.183594 95.394531 147 93.929688 147 C 92.464844 147 91.277344 148.183594 91.277344 149.648438 Z M 91.277344 149.648438 "/>
<path style=" stroke:none;fill-rule:nonzero;fill:rgb(100%,0%,0%);fill-opacity:1;" d="M 84.109375 147.714844 C 84.109375 149.179688 82.921875 150.367188 81.457031 150.367188 C 79.992188 150.367188 78.804688 149.179688 78.804688 147.714844 C 78.804688 146.25 79.992188 145.0625 81.457031 145.0625 C 82.921875 145.0625 84.109375 146.25 84.109375 147.714844 Z M 84.109375 147.714844 "/>
<path style=" stroke:none;fill-rule:nonzero;fill:rgb(100%,0%,0%);fill-opacity:1;" d="M 68.988281 133.101562 C 68.988281 134.566406 70.175781 135.75 71.636719 135.75 C 73.101562 135.75 74.289062 134.566406 74.289062 133.101562 C 74.289062 131.636719 73.101562 130.449219 71.636719 130.449219 C 70.175781 130.449219 68.988281 131.636719 68.988281 133.101562 Z M 68.988281 133.101562 "/>
<path style=" stroke:none;fill-rule:nonzero;fill:rgb(100%,0%,0%);fill-opacity:1;" d="M 76.371094 134.964844 C 76.371094 136.425781 77.558594 137.613281 79.019531 137.613281 C 80.484375 137.613281 81.671875 136.425781 81.671875 134.964844 C 81.671875 133.5 80.484375 132.3125 79.019531 132.3125 C 77.558594 132.3125 76.371094 133.5 76.371094 134.964844 Z M 76.371094 134.964844 "/>
<path style=" stroke:none;fill-rule:nonzero;fill:rgb(100%,0%,0%);fill-opacity:1;" d="M 61.820312 135.035156 C 61.820312 136.5 63.003906 137.6875 64.472656 137.6875 C 65.933594 137.6875 67.121094 136.5 67.121094 135.035156 C 67.121094 133.570312 65.933594 132.386719 64.472656 132.386719 C 63.003906 132.386719 61.820312 133.570312 61.820312 135.035156 Z M 61.820312 135.035156 "/>
<path style=" stroke:none;fill-rule:nonzero;fill:rgb(100%,0%,0%);fill-opacity:1;" d="M 91.277344 114.046875 C 91.277344 115.507812 92.464844 116.695312 93.929688 116.695312 C 95.394531 116.695312 96.582031 115.507812 96.582031 114.046875 C 96.582031 112.582031 95.394531 111.394531 93.929688 111.394531 C 92.464844 111.394531 91.277344 112.582031 91.277344 114.046875 Z M 91.277344 114.046875 "/>
<path style=" stroke:none;fill-rule:nonzero;fill:rgb(100%,0%,0%);fill-opacity:1;" d="M 93.214844 106.597656 C 93.214844 108.058594 94.402344 109.246094 95.863281 109.246094 C 97.328125 109.246094 98.515625 108.058594 98.515625 106.597656 C 98.515625 105.132812 97.328125 103.945312 95.863281 103.945312 C 94.402344 103.945312 93.214844 105.132812 93.214844 106.597656 Z M 93.214844 106.597656 "/>
<path style=" stroke:none;fill-rule:nonzero;fill:rgb(100%,0%,0%);fill-opacity:1;" d="M 91.277344 99.503906 C 91.277344 100.96875 92.464844 102.152344 93.929688 102.152344 C 95.394531 102.152344 96.582031 100.96875 96.582031 99.503906 C 96.582031 98.039062 95.394531 96.851562 93.929688 96.851562 C 92.464844 96.851562 91.277344 98.039062 91.277344 99.503906 Z M 91.277344 99.503906 "/>
<path style=" stroke:none;fill-rule:nonzero;fill:rgb(100%,0%,0%);fill-opacity:1;" d="M 84.109375 97.570312 C 84.109375 99.035156 82.921875 100.222656 81.457031 100.222656 C 79.992188 100.222656 78.804688 99.035156 78.804688 97.570312 C 78.804688 96.105469 79.992188 94.917969 81.457031 94.917969 C 82.921875 94.917969 84.109375 96.105469 84.109375 97.570312 Z M 84.109375 97.570312 "/>
<path style=" stroke:none;fill-rule:nonzero;fill:rgb(100%,0%,0%);fill-opacity:1;" d="M 68.988281 82.957031 C 68.988281 84.417969 70.175781 85.605469 71.636719 85.605469 C 73.101562 85.605469 74.289062 84.417969 74.289062 82.957031 C 74.289062 81.492188 73.101562 80.304688 71.636719 80.304688 C 70.175781 80.304688 68.988281 81.492188 68.988281 82.957031 Z M 68.988281 82.957031 "/>
<path style=" stroke:none;fill-rule:nonzero;fill:rgb(100%,0%,0%);fill-opacity:1;" d="M 76.371094 84.816406 C 76.371094 86.28125 77.558594 87.46875 79.019531 87.46875 C 80.484375 87.46875 81.671875 86.28125 81.671875 84.816406 C 81.671875 83.355469 80.484375 82.167969 79.019531 82.167969 C 77.558594 82.167969 76.371094 83.355469 76.371094 84.816406 Z M 76.371094 84.816406 "/>
<path style=" stroke:none;fill-rule:nonzero;fill:rgb(100%,0%,0%);fill-opacity:1;" d="M 61.820312 84.890625 C 61.820312 86.351562 63.003906 87.539062 64.472656 87.539062 C 65.933594 87.539062 67.121094 86.351562 67.121094 84.890625 C 67.121094 83.425781 65.933594 82.238281 64.472656 82.238281 C 63.003906 82.238281 61.820312 83.425781 61.820312 84.890625 Z M 61.820312 84.890625 "/>
<path style=" stroke:none;fill-rule:nonzero;fill:rgb(100%,0%,0%);fill-opacity:1;" d="M 91.277344 63.476562 C 91.277344 64.941406 92.464844 66.125 93.929688 66.125 C 95.394531 66.125 96.582031 64.941406 96.582031 63.476562 C 96.582031 62.011719 95.394531 60.824219 93.929688 60.824219 C 92.464844 60.824219 91.277344 62.011719 91.277344 63.476562 Z M 91.277344 63.476562 "/>
<path style=" stroke:none;fill-rule:nonzero;fill:rgb(100%,0%,0%);fill-opacity:1;" d="M 93.214844 56.027344 C 93.214844 57.488281 94.402344 58.675781 95.863281 58.675781 C 97.328125 58.675781 98.515625 57.488281 98.515625 56.027344 C 98.515625 54.5625 97.328125 53.375 95.863281 53.375 C 94.402344 53.375 93.214844 54.5625 93.214844 56.027344 Z M 93.214844 56.027344 "/>
<path style=" stroke:none;fill-rule:nonzero;fill:rgb(100%,0%,0%);fill-opacity:1;" d="M 91.277344 48.933594 C 91.277344 50.398438 92.464844 51.585938 93.929688 51.585938 C 95.394531 51.585938 96.582031 50.398438 96.582031 48.933594 C 96.582031 47.46875 95.394531 46.285156 93.929688 46.285156 C 92.464844 46.285156 91.277344 47.46875 91.277344 48.933594 Z M 91.277344 48.933594 "/>
<path style=" stroke:none;fill-rule:nonzero;fill:rgb(100%,0%,0%);fill-opacity:1;" d="M 84.109375 47 C 84.109375 48.464844 82.921875 49.652344 81.457031 49.652344 C 79.992188 49.652344 78.804688 48.464844 78.804688 47 C 78.804688 45.535156 79.992188 44.347656 81.457031 44.347656 C 82.921875 44.347656 84.109375 45.535156 84.109375 47 Z M 84.109375 47 "/>
<path style=" stroke:none;fill-rule:nonzero;fill:rgb(100%,0%,0%);fill-opacity:1;" d="M 68.988281 32.386719 C 68.988281 33.847656 70.175781 35.035156 71.636719 35.035156 C 73.101562 35.035156 74.289062 33.847656 74.289062 32.386719 C 74.289062 30.921875 73.101562 29.734375 71.636719 29.734375 C 70.175781 29.734375 68.988281 30.921875 68.988281 32.386719 Z M 68.988281 32.386719 "/>
<path style=" stroke:none;fill-rule:nonzero;fill:rgb(100%,0%,0%);fill-opacity:1;" d="M 76.371094 34.25 C 76.371094 35.710938 77.558594 36.898438 79.019531 36.898438 C 80.484375 36.898438 81.671875 35.710938 81.671875 34.25 C 81.671875 32.785156 80.484375 31.597656 79.019531 31.597656 C 77.558594 31.597656 76.371094 32.785156 76.371094 34.25 Z M 76.371094 34.25 "/>
<path style=" stroke:none;fill-rule:nonzero;fill:rgb(100%,0%,0%);fill-opacity:1;" d="M 61.820312 34.320312 C 61.820312 35.785156 63.003906 36.972656 64.472656 36.972656 C 65.933594 36.972656 67.121094 35.785156 67.121094 34.320312 C 67.121094 32.855469 65.933594 31.667969 64.472656 31.667969 C 63.003906 31.667969 61.820312 32.855469 61.820312 34.320312 Z M 61.820312 34.320312 "/>
<path style=" stroke:none;fill-rule:nonzero;fill:rgb(100%,0%,0%);fill-opacity:1;" d="M 45.691406 20.671875 C 45.691406 22.910156 47.503906 24.722656 49.742188 24.722656 C 51.976562 24.722656 53.789062 22.910156 53.789062 20.671875 C 53.789062 18.4375 51.976562 16.625 49.742188 16.625 C 47.503906 16.625 45.691406 18.4375 45.691406 20.671875 Z M 45.691406 20.671875 "/>
</g>
</svg>
