<?xml version="1.0" encoding="UTF-8"?>
<svg xmlns="http://www.w3.org/2000/svg" xmlns:xlink="http://www.w3.org/1999/xlink" width="100px" height="67px" viewBox="0 0 100 67" version="1.1">
<g id="surface1">
<path style=" stroke:none;fill-rule:nonzero;fill:rgb(100%,0%,0%);fill-opacity:1;" d="M 5.539062 13.636719 C 5.539062 15.214844 4.296875 16.492188 2.769531 16.492188 C 1.238281 16.492188 0 15.214844 0 13.636719 C 0 12.0625 1.238281 10.78125 2.769531 10.78125 C 4.296875 10.78125 5.539062 12.0625 5.539062 13.636719 Z M 5.539062 13.636719 "/>
<path style=" stroke:none;fill-rule:nonzero;fill:rgb(100%,0%,0%);fill-opacity:1;" d="M 14.625 9.441406 C 14.625 11.015625 13.382812 12.296875 11.855469 12.296875 C 10.324219 12.296875 9.085938 11.015625 9.085938 9.441406 C 9.085938 7.863281 10.324219 6.582031 11.855469 6.582031 C 13.382812 6.582031 14.625 7.863281 14.625 9.441406 Z M 14.625 9.441406 "/>
<path style=" stroke:none;fill-rule:nonzero;fill:rgb(100%,0%,0%);fill-opacity:1;" d="M 23.402344 6.734375 C 23.402344 8.3125 22.160156 9.589844 20.632812 9.589844 C 19.101562 9.589844 17.863281 8.3125 17.863281 6.734375 C 17.863281 5.160156 19.101562 3.878906 20.632812 3.878906 C 22.160156 3.878906 23.402344 5.160156 23.402344 6.734375 Z M 23.402344 6.734375 "/>
<path style=" stroke:none;fill-rule:nonzero;fill:rgb(100%,0%,0%);fill-opacity:1;" d="M 32.863281 4.382812 C 32.863281 5.960938 31.621094 7.238281 30.09375 7.238281 C 28.5625 7.238281 27.324219 5.960938 27.324219 4.382812 C 27.324219 2.808594 28.5625 1.527344 30.09375 1.527344 C 31.621094 1.527344 32.863281 2.808594 32.863281 4.382812 Z M 32.863281 4.382812 "/>
<path style=" stroke:none;fill-rule:nonzero;fill:rgb(100%,0%,0%);fill-opacity:1;" d="M 43.007812 3.207031 C 43.007812 4.785156 41.765625 6.0625 40.238281 6.0625 C 38.707031 6.0625 37.46875 4.785156 37.46875 3.207031 C 37.46875 1.632812 38.707031 0.351562 40.238281 0.351562 C 41.765625 0.351562 43.007812 1.632812 43.007812 3.207031 Z M 43.007812 3.207031 "/>
<path style=" stroke:none;fill-rule:nonzero;fill:rgb(100%,0%,0%);fill-opacity:1;" d="M 52.695312 2.855469 C 52.695312 4.433594 51.457031 5.710938 49.925781 5.710938 C 48.398438 5.710938 47.15625 4.433594 47.15625 2.855469 C 47.15625 1.277344 48.398438 0 49.925781 0 C 51.457031 0 52.695312 1.277344 52.695312 2.855469 Z M 52.695312 2.855469 "/>
<path style=" stroke:none;fill-rule:nonzero;fill:rgb(100%,0%,0%);fill-opacity:1;" d="M 62.269531 3.324219 C 62.269531 4.902344 61.03125 6.179688 59.5 6.179688 C 57.972656 6.179688 56.734375 4.902344 56.734375 3.324219 C 56.734375 1.75 57.972656 0.46875 59.5 0.46875 C 61.03125 0.46875 62.269531 1.75 62.269531 3.324219 Z M 62.269531 3.324219 "/>
<path style=" stroke:none;fill-rule:nonzero;fill:rgb(100%,0%,0%);fill-opacity:1;" d="M 72.527344 4.382812 C 72.527344 5.960938 71.289062 7.238281 69.761719 7.238281 C 68.230469 7.238281 66.992188 5.960938 66.992188 4.382812 C 66.992188 2.808594 68.230469 1.527344 69.761719 1.527344 C 71.289062 1.527344 72.527344 2.808594 72.527344 4.382812 Z M 72.527344 4.382812 "/>
<path style=" stroke:none;fill-rule:nonzero;fill:rgb(100%,0%,0%);fill-opacity:1;" d="M 81.988281 6.734375 C 81.988281 8.3125 80.75 9.589844 79.222656 9.589844 C 77.691406 9.589844 76.453125 8.3125 76.453125 6.734375 C 76.453125 5.160156 77.691406 3.878906 79.222656 3.878906 C 80.75 3.878906 81.988281 5.160156 81.988281 6.734375 Z M 81.988281 6.734375 "/>
<path style=" stroke:none;fill-rule:nonzero;fill:rgb(100%,0%,0%);fill-opacity:1;" d="M 90.765625 9.4375 C 90.765625 11.015625 89.527344 12.296875 88 12.296875 C 86.46875 12.296875 85.230469 11.015625 85.230469 9.4375 C 85.230469 7.863281 86.46875 6.582031 88 6.582031 C 89.527344 6.582031 90.765625 7.863281 90.765625 9.4375 Z M 90.765625 9.4375 "/>
<path style=" stroke:none;fill-rule:nonzero;fill:rgb(100%,0%,0%);fill-opacity:1;" d="M 100 13.671875 C 100 15.25 98.761719 16.527344 97.230469 16.527344 C 95.703125 16.527344 94.460938 15.25 94.460938 13.671875 C 94.460938 12.09375 95.703125 10.816406 97.230469 10.816406 C 98.761719 10.816406 100 12.09375 100 13.671875 Z M 100 13.671875 "/>
<path style="fill:none;stroke-width:2.243889;stroke-linecap:butt;stroke-linejoin:miter;stroke:rgb(0%,76.862746%,0%);stroke-opacity:1;stroke-miterlimit:4;" d="M 299.554688 398.880597 L 300.234375 212.873134 " transform="matrix(0.166667,0,0,0.1675,0,0)"/>
<path style="fill:none;stroke-width:2.243889;stroke-linecap:butt;stroke-linejoin:miter;stroke:rgb(0%,76.862746%,0%);stroke-opacity:1;stroke-miterlimit:4;" d="M 31.453125 89.342351 L 299.554688 213.572761 " transform="matrix(0.166667,0,0,0.1675,0,0)"/>
<path style="fill:none;stroke-width:2.243889;stroke-linecap:butt;stroke-linejoin:miter;stroke:rgb(0%,76.862746%,0%);stroke-opacity:1;stroke-miterlimit:4;" d="M 300.445312 213.176306 L 569.015625 90.041978 " transform="matrix(0.166667,0,0,0.1675,0,0)"/>
<path style="fill:none;stroke-width:2.243889;stroke-linecap:butt;stroke-linejoin:miter;stroke:rgb(0%,76.862746%,0%);stroke-opacity:1;stroke-miterlimit:4;" d="M 300.75 212.569963 L 300.9375 34.584888 " transform="matrix(0.166667,0,0,0.1675,0,0)"/>
<path style="fill:none;stroke-width:2.243889;stroke-linecap:butt;stroke-linejoin:miter;stroke:rgb(0%,76.862746%,0%);stroke-opacity:1;stroke-miterlimit:4;" d="M 300.234375 210.774254 L 352.21875 36.007463 " transform="matrix(0.166667,0,0,0.1675,0,0)"/>
<path style="fill:none;stroke-width:2.243889;stroke-linecap:butt;stroke-linejoin:miter;stroke:rgb(0%,76.862746%,0%);stroke-opacity:1;stroke-miterlimit:4;" d="M 300.445312 212.896455 L 410.34375 41.604478 " transform="matrix(0.166667,0,0,0.1675,0,0)"/>
<path style="fill:none;stroke-width:2.243889;stroke-linecap:butt;stroke-linejoin:miter;stroke:rgb(0%,76.862746%,0%);stroke-opacity:1;stroke-miterlimit:4;" d="M 300.234375 213.083022 L 464.390625 53.544776 " transform="matrix(0.166667,0,0,0.1675,0,0)"/>
<path style="fill:none;stroke-width:2.243889;stroke-linecap:butt;stroke-linejoin:miter;stroke:rgb(0%,76.862746%,0%);stroke-opacity:1;stroke-miterlimit:4;" d="M 300.328125 212.476679 L 514.3125 66.884328 " transform="matrix(0.166667,0,0,0.1675,0,0)"/>
<path style="fill:none;stroke-width:2.243889;stroke-linecap:butt;stroke-linejoin:miter;stroke:rgb(0%,76.862746%,0%);stroke-opacity:1;stroke-miterlimit:4;" d="M 300.445312 212.803172 L 246.890625 35.307836 " transform="matrix(0.166667,0,0,0.1675,0,0)"/>
<path style="fill:none;stroke-width:2.243889;stroke-linecap:butt;stroke-linejoin:miter;stroke:rgb(0%,76.862746%,0%);stroke-opacity:1;stroke-miterlimit:4;" d="M 298.195312 209.375 L 188.765625 40.205224 " transform="matrix(0.166667,0,0,0.1675,0,0)"/>
<path style="fill:none;stroke-width:2.243889;stroke-linecap:butt;stroke-linejoin:miter;stroke:rgb(0%,76.862746%,0%);stroke-opacity:1;stroke-miterlimit:4;" d="M 300.445312 212.896455 L 135.421875 52.145522 " transform="matrix(0.166667,0,0,0.1675,0,0)"/>
<path style="fill:none;stroke-width:2.243889;stroke-linecap:butt;stroke-linejoin:miter;stroke:rgb(0%,76.862746%,0%);stroke-opacity:1;stroke-miterlimit:4;" d="M 301.148438 213.316231 L 84.117188 65.485075 " transform="matrix(0.166667,0,0,0.1675,0,0)"/>
<path style=" stroke:none;fill-rule:evenodd;fill:rgb(0%,76.862746%,0%);fill-opacity:1;" d="M 50.226562 35.769531 L 47.734375 36.363281 L 43.902344 36.84375 L 48.71875 37.1875 Z M 50.226562 35.769531 "/>
<path style=" stroke:none;fill-rule:evenodd;fill:rgb(0%,76.862746%,0%);fill-opacity:1;" d="M 49.828125 35.769531 L 52.320312 36.363281 L 56.152344 36.84375 L 51.335938 37.1875 Z M 49.828125 35.769531 "/>
</g>
</svg>
